<svg width="283" height="140" viewBox="0 0 283 90" fill="none" xmlns="http://www.w3.org/2000/svg">
<path d="M15.2893 10.288V12H10.2653V10.288H11.4493C11.3 10.1067 11.1773 9.888 11.0813 9.632C10.9853 9.376 10.9373 9.088 10.9373 8.768C10.9373 8.48 10.9906 8.208 11.0973 7.952C11.204 7.68533 11.3693 7.45067 11.5933 7.248C11.8173 7.04533 12.1 6.88533 12.4413 6.768C12.7826 6.65067 13.188 6.592 13.6573 6.592C13.8706 6.592 14.1106 6.61333 14.3773 6.656C14.644 6.688 14.884 6.736 15.0973 6.8L14.8093 8.432C14.66 8.41067 14.4946 8.38933 14.3133 8.368C14.132 8.34667 13.9506 8.336 13.7693 8.336C13.46 8.336 13.1986 8.38933 12.9853 8.496C12.772 8.60267 12.6653 8.79467 12.6653 9.072C12.6653 9.36 12.804 9.63733 13.0813 9.904C13.3693 10.16 13.8066 10.288 14.3933 10.288H15.2893ZM17.3797 0.544H19.2037V10.144H20.2917C20.4624 10.144 20.5797 10.1867 20.6437 10.272C20.7077 10.3573 20.7397 10.4587 20.7397 10.576V11.552C20.7397 11.6373 20.7024 11.7333 20.6277 11.84C20.553 11.9467 20.441 12 20.2917 12H17.3797V0.544ZM25.0738 10.24C25.5858 10.24 25.9591 10.0907 26.1938 9.792C26.4391 9.48267 26.5618 9.104 26.5618 8.656C26.5618 8.37867 26.5191 8.128 26.4338 7.904C26.3485 7.68 26.2365 7.488 26.0978 7.328C25.9698 7.168 25.8151 7.04533 25.6338 6.96C25.4525 6.87467 25.2658 6.832 25.0738 6.832C24.8711 6.832 24.6791 6.87467 24.4978 6.96C24.3165 7.04533 24.1565 7.168 24.0178 7.328C23.8898 7.488 23.7831 7.68 23.6978 7.904C23.6231 8.128 23.5858 8.37867 23.5858 8.656C23.5858 9.104 23.7031 9.48267 23.9378 9.792C24.1831 10.0907 24.5618 10.24 25.0738 10.24ZM20.2098 12C20.0498 12 19.9378 11.9573 19.8738 11.872C19.8098 11.7867 19.7778 11.6907 19.7778 11.584V10.64C19.7778 10.5227 19.8151 10.4107 19.8898 10.304C19.9538 10.1973 20.0605 10.144 20.2098 10.144H20.8338C20.9511 10.144 21.0685 10.128 21.1858 10.096C21.3031 10.0533 21.4045 9.97867 21.4898 9.872C21.5858 9.75467 21.6605 9.6 21.7138 9.408C21.7671 9.20533 21.7938 8.94933 21.7938 8.64C21.7938 8.128 21.8738 7.65867 22.0338 7.232C22.2045 6.79467 22.4338 6.42133 22.7218 6.112C23.0205 5.792 23.3725 5.54133 23.7778 5.36C24.1831 5.17867 24.6205 5.088 25.0898 5.088C26.1245 5.088 26.9138 5.41867 27.4578 6.08C28.0125 6.74133 28.2898 7.66933 28.2898 8.864C28.2898 8.96 28.3005 9.08267 28.3218 9.232C28.3538 9.38133 28.4178 9.52533 28.5138 9.664C28.6098 9.792 28.7485 9.904 28.9298 10C29.1218 10.096 29.3778 10.144 29.6978 10.144H30.2738C30.4338 10.144 30.5458 10.1867 30.6098 10.272C30.6845 10.3573 30.7218 10.4587 30.7218 10.576V11.552C30.7218 11.6373 30.6845 11.7333 30.6098 11.84C30.5351 11.9467 30.4231 12 30.2738 12H29.6498C29.2018 12 28.8071 11.888 28.4658 11.664C28.1351 11.44 27.8898 11.1573 27.7298 10.816C27.5378 11.1147 27.3351 11.3493 27.1218 11.52C26.9085 11.6907 26.6898 11.8187 26.4658 11.904C26.2418 11.9787 26.0071 12.0267 25.7618 12.048C25.5165 12.0693 25.2658 12.08 25.0098 12.08C24.4018 12.08 23.8951 11.9733 23.4898 11.76C23.0951 11.5467 22.7698 11.2693 22.5138 10.928C22.3645 11.2373 22.1511 11.4933 21.8738 11.696C21.5965 11.8987 21.2818 12 20.9298 12H20.2098ZM30.2102 12C30.0395 12 29.9222 11.9573 29.8582 11.872C29.7942 11.7867 29.7622 11.6907 29.7622 11.584V10.64C29.7622 10.5227 29.7995 10.4107 29.8742 10.304C29.9489 10.1973 30.0609 10.144 30.2102 10.144H33.0102C33.2555 10.144 33.4209 10.08 33.5062 9.952C33.5915 9.824 33.6342 9.62667 33.6342 9.36V7.12H35.4262V8.672C35.4262 9.07733 35.5275 9.424 35.7302 9.712C35.9329 10 36.3062 10.144 36.8502 10.144H37.1382C37.3835 10.144 37.5435 10.0693 37.6182 9.92C37.6929 9.77067 37.7302 9.568 37.7302 9.312V6.496H39.5702V8.672C39.5702 9.09867 39.6715 9.45067 39.8742 9.728C40.0769 10.0053 40.4449 10.144 40.9782 10.144H41.3622C41.6182 10.144 41.7835 10.0693 41.8582 9.92C41.9435 9.77067 41.9862 9.568 41.9862 9.312V5.632H43.7942V8.672C43.7942 9.09867 43.8902 9.45067 44.0822 9.728C44.2849 10.0053 44.6529 10.144 45.1862 10.144H45.8422C46.0129 10.144 46.1302 10.1867 46.1942 10.272C46.2582 10.3573 46.2902 10.4587 46.2902 10.576V11.552C46.2902 11.6373 46.2529 11.7333 46.1782 11.84C46.1142 11.9467 46.0075 12 45.8582 12H45.1862C44.7062 12 44.3222 11.8933 44.0342 11.68C43.7569 11.4667 43.5435 11.2213 43.3942 10.944C43.2129 11.2853 42.9409 11.5467 42.5782 11.728C42.2155 11.9093 41.8102 12 41.3622 12H40.9302C40.4502 12 40.0715 11.8933 39.7942 11.68C39.5275 11.4667 39.3249 11.2267 39.1862 10.96C38.9835 11.312 38.7062 11.5733 38.3542 11.744C38.0022 11.9147 37.6289 12 37.2342 12H36.8182C36.3595 12 35.9862 11.8933 35.6982 11.68C35.4209 11.4667 35.2129 11.2267 35.0742 10.96C34.8715 11.312 34.5835 11.5733 34.2102 11.744C33.8475 11.9147 33.4422 12 32.9942 12H30.2102ZM45.7407 12C45.5807 12 45.474 11.9573 45.4207 11.872C45.3567 11.7867 45.3247 11.6907 45.3247 11.584V10.64C45.3247 10.5227 45.3567 10.4107 45.4207 10.304C45.4847 10.1973 45.5914 10.144 45.7407 10.144H47.6287V0.544H49.4367V12H45.7407ZM52.0668 0.544H53.8748V12H52.0668V0.544ZM66.8627 12C66.1054 12 65.4707 11.904 64.9587 11.712C64.4467 11.52 64.036 11.264 63.7267 10.944C63.4174 10.6133 63.1934 10.24 63.0547 9.824C62.916 9.39733 62.8467 8.96 62.8467 8.512C62.8467 8.04267 62.9374 7.6 63.1187 7.184C63.3107 6.75733 63.5667 6.38933 63.8867 6.08C64.2067 5.76 64.58 5.50933 65.0067 5.328C65.444 5.14667 65.9134 5.056 66.4147 5.056C66.8734 5.056 67.284 5.136 67.6467 5.296C68.02 5.44533 68.3347 5.65867 68.5907 5.936C68.8467 6.21333 69.0387 6.544 69.1667 6.928C69.3054 7.30133 69.3747 7.71733 69.3747 8.176V10.144H71.3907C71.54 10.144 71.6467 10.1867 71.7107 10.272C71.7747 10.3573 71.8067 10.4587 71.8067 10.576V11.552C71.8067 11.6373 71.7694 11.7333 71.6947 11.84C71.6307 11.9467 71.5294 12 71.3907 12H69.3747C69.3427 12.5867 69.2147 13.152 68.9907 13.696C68.7774 14.2507 68.4574 14.7413 68.0307 15.168C67.604 15.6053 67.076 15.952 66.4467 16.208C65.8174 16.4747 65.0707 16.608 64.2067 16.608C63.2787 16.608 62.4894 16.4853 61.8387 16.24C61.1987 15.9947 60.6707 15.6747 60.2547 15.28C59.8494 14.896 59.5507 14.464 59.3587 13.984C59.1774 13.504 59.0867 13.0293 59.0867 12.56C59.0867 12.08 59.14 11.6373 59.2467 11.232C59.3534 10.816 59.4654 10.4587 59.5827 10.16C59.7107 9.85067 59.828 9.61067 59.9347 9.44C60.0414 9.26933 60.0947 9.18933 60.0947 9.2L61.5827 10C61.4654 10.192 61.3534 10.4107 61.2467 10.656C61.1614 10.8587 61.0814 11.0827 61.0067 11.328C60.9427 11.5733 60.9107 11.8347 60.9107 12.112C60.9107 12.4747 60.9747 12.816 61.1027 13.136C61.2307 13.456 61.428 13.7333 61.6947 13.968C61.972 14.2133 62.324 14.4053 62.7507 14.544C63.188 14.6827 63.7107 14.752 64.3187 14.752C64.9054 14.752 65.4014 14.672 65.8067 14.512C66.212 14.352 66.5427 14.144 66.7987 13.888C67.0547 13.632 67.2414 13.3387 67.3587 13.008C67.4867 12.6773 67.5614 12.3413 67.5827 12H66.8627ZM67.5347 10.144V8.096C67.5347 7.75467 67.4174 7.46133 67.1827 7.216C66.9587 6.96 66.6387 6.832 66.2227 6.832C66.0307 6.832 65.844 6.86933 65.6627 6.944C65.4814 7.01867 65.316 7.13067 65.1667 7.28C65.0174 7.41867 64.8947 7.58933 64.7987 7.792C64.7134 7.99467 64.6707 8.22933 64.6707 8.496C64.6707 8.784 64.724 9.03467 64.8307 9.248C64.948 9.45067 65.0974 9.62133 65.2787 9.76C65.46 9.888 65.6734 9.984 65.9187 10.048C66.164 10.112 66.4254 10.144 66.7027 10.144H67.5347ZM64.1907 3.136C64.1907 2.88 64.2814 2.66133 64.4627 2.48C64.644 2.29867 64.8734 2.208 65.1507 2.208C65.428 2.208 65.6574 2.29867 65.8387 2.48C66.02 2.66133 66.1107 2.88 66.1107 3.136C66.1107 3.392 66.02 3.61067 65.8387 3.792C65.6574 3.97333 65.428 4.064 65.1507 4.064C64.8734 4.064 64.644 3.97333 64.4627 3.792C64.2814 3.61067 64.1907 3.392 64.1907 3.136ZM66.6867 3.136C66.6867 2.88 66.7774 2.66133 66.9587 2.48C67.14 2.29867 67.3694 2.208 67.6467 2.208C67.924 2.208 68.1534 2.29867 68.3347 2.48C68.516 2.66133 68.6067 2.88 68.6067 3.136C68.6067 3.392 68.516 3.61067 68.3347 3.792C68.1534 3.97333 67.924 4.064 67.6467 4.064C67.3694 4.064 67.14 3.97333 66.9587 3.792C66.7774 3.61067 66.6867 3.392 66.6867 3.136ZM71.3657 12C71.2057 12 71.099 11.9573 71.0457 11.872C70.9817 11.7867 70.9497 11.6907 70.9497 11.584V10.64C70.9497 10.5227 70.9817 10.4107 71.0457 10.304C71.1097 10.1973 71.2164 10.144 71.3657 10.144H73.2537V0.544H75.0617V12H71.3657ZM77.7078 0.544H79.5318V10.144H80.6198C80.7905 10.144 80.9078 10.1867 80.9718 10.272C81.0358 10.3573 81.0678 10.4587 81.0678 10.576V11.552C81.0678 11.6373 81.0305 11.7333 80.9558 11.84C80.8811 11.9467 80.7691 12 80.6198 12H77.7078V0.544ZM88.6499 11.552C88.6499 11.6373 88.6126 11.7333 88.5379 11.84C88.4739 11.9467 88.3619 12 88.2019 12H87.8979C87.5566 12 87.2153 11.9307 86.8739 11.792C86.5433 11.6533 86.2713 11.488 86.0579 11.296C85.8659 11.5947 85.6526 11.7867 85.4179 11.872C85.1939 11.9573 84.9646 12 84.7299 12H80.5379C80.3779 12 80.2659 11.9573 80.2019 11.872C80.1379 11.7867 80.1059 11.6907 80.1059 11.584V10.64C80.1059 10.5227 80.1433 10.4107 80.2179 10.304C80.2819 10.1973 80.3886 10.144 80.5379 10.144H85.2579C85.1619 9.97333 85.0713 9.75467 84.9859 9.488C84.9113 9.22133 84.8526 8.84267 84.8099 8.352C84.7566 7.808 84.6126 7.42933 84.3779 7.216C84.1539 6.992 83.8553 6.88 83.4819 6.88C83.2686 6.88 82.9966 6.91733 82.6659 6.992C82.3353 7.056 82.0046 7.168 81.6739 7.328L81.2259 5.584C81.3539 5.54133 81.5193 5.488 81.7219 5.424C81.9353 5.36 82.1593 5.30133 82.3939 5.248C82.6286 5.184 82.8686 5.13067 83.1139 5.088C83.3699 5.04533 83.6099 5.024 83.8339 5.024C84.3459 5.024 84.7726 5.11467 85.1139 5.296C85.4659 5.47733 85.7486 5.712 85.9619 6C86.1859 6.288 86.3513 6.608 86.4579 6.96C86.5646 7.30133 86.6339 7.63733 86.6659 7.968C86.6873 8.18133 86.7193 8.416 86.7619 8.672C86.8153 8.91733 86.8846 9.152 86.9699 9.376C87.0553 9.58933 87.1673 9.77067 87.3059 9.92C87.4446 10.0693 87.6206 10.144 87.8339 10.144H88.2019C88.3726 10.144 88.4899 10.1867 88.5539 10.272C88.6179 10.3573 88.6499 10.4587 88.6499 10.576V11.552ZM82.6659 3.136C82.6659 2.88 82.7566 2.66133 82.9379 2.48C83.1299 2.29867 83.3593 2.208 83.6259 2.208C83.9033 2.208 84.1326 2.29867 84.3139 2.48C84.5059 2.66133 84.6019 2.88 84.6019 3.136C84.6019 3.392 84.5059 3.61067 84.3139 3.792C84.1326 3.97333 83.9033 4.064 83.6259 4.064C83.3593 4.064 83.1299 3.97333 82.9379 3.792C82.7566 3.61067 82.6659 3.392 82.6659 3.136ZM88.1001 12C87.9401 12 87.8334 11.9573 87.7801 11.872C87.7161 11.7867 87.6841 11.6907 87.6841 11.584V10.64C87.6841 10.5227 87.7161 10.4107 87.7801 10.304C87.8441 10.1973 87.9507 10.144 88.1001 10.144H89.9881V0.544H91.7961V12H88.1001ZM105.738 11.824C105.738 11.6107 105.642 11.3973 105.45 11.184C105.258 10.9707 105.04 10.7573 104.794 10.544C104.613 10.384 104.426 10.2133 104.234 10.032C104.053 9.85067 103.888 9.65867 103.738 9.456C103.589 9.24267 103.466 9.01867 103.37 8.784C103.274 8.53867 103.226 8.272 103.226 7.984C103.226 7.48267 103.322 7.05067 103.514 6.688C103.717 6.32533 103.973 6.02667 104.282 5.792C104.602 5.55733 104.949 5.38667 105.322 5.28C105.706 5.16267 106.08 5.104 106.442 5.104C106.688 5.104 106.928 5.12533 107.162 5.168C107.397 5.2 107.61 5.24267 107.802 5.296C108.016 5.33867 108.229 5.40267 108.442 5.488L108.01 7.312C107.776 7.19467 107.504 7.104 107.194 7.04C106.885 6.96533 106.576 6.928 106.266 6.928C105.925 6.928 105.637 7.00267 105.402 7.152C105.178 7.30133 105.066 7.50933 105.066 7.776C105.066 8 105.173 8.23467 105.386 8.48C105.6 8.71467 105.845 8.95467 106.122 9.2C106.304 9.36 106.485 9.53067 106.666 9.712C106.848 9.88267 107.008 10.064 107.146 10.256C107.296 10.448 107.413 10.6507 107.498 10.864C107.584 11.0773 107.626 11.3067 107.626 11.552C107.626 11.968 107.52 12.4 107.306 12.848C107.093 13.3067 106.762 13.728 106.314 14.112C105.866 14.496 105.296 14.8107 104.602 15.056C103.909 15.3013 103.088 15.424 102.138 15.424C101.274 15.424 100.533 15.296 99.9142 15.04C99.2955 14.784 98.7889 14.4533 98.3942 14.048C97.9995 13.6533 97.7062 13.2053 97.5142 12.704C97.3329 12.2027 97.2422 11.7013 97.2422 11.2C97.2422 10.624 97.3435 10.0907 97.5462 9.6C97.7489 9.10933 98.0049 8.64 98.3142 8.192L99.8182 9.072C99.5729 9.43467 99.3915 9.792 99.2742 10.144C99.1675 10.4853 99.1142 10.8 99.1142 11.088C99.1142 11.44 99.1835 11.76 99.3222 12.048C99.4609 12.3467 99.6635 12.6027 99.9302 12.816C100.208 13.0293 100.544 13.1947 100.938 13.312C101.333 13.44 101.792 13.504 102.314 13.504C102.816 13.504 103.274 13.4507 103.69 13.344C104.117 13.2373 104.48 13.104 104.778 12.944C105.088 12.784 105.322 12.6027 105.482 12.4C105.653 12.208 105.738 12.016 105.738 11.824ZM100.314 17.28C100.314 17.024 100.405 16.8053 100.586 16.624C100.768 16.4533 100.997 16.368 101.274 16.368C101.552 16.368 101.781 16.4533 101.962 16.624C102.144 16.8053 102.234 17.024 102.234 17.28C102.234 17.5467 102.144 17.7653 101.962 17.936C101.781 18.1173 101.552 18.208 101.274 18.208C100.997 18.208 100.768 18.1173 100.586 17.936C100.405 17.7653 100.314 17.5467 100.314 17.28ZM102.794 17.28C102.794 17.024 102.885 16.8053 103.066 16.624C103.248 16.4533 103.477 16.368 103.754 16.368C104.032 16.368 104.261 16.4533 104.442 16.624C104.624 16.8053 104.714 17.024 104.714 17.28C104.714 17.5467 104.624 17.7653 104.442 17.936C104.261 18.1173 104.032 18.208 103.754 18.208C103.477 18.208 103.248 18.1173 103.066 17.936C102.885 17.7653 102.794 17.5467 102.794 17.28ZM117.291 12C116.843 12 116.475 11.8987 116.187 11.696C115.899 11.4827 115.675 11.2373 115.515 10.96C115.334 11.2907 115.072 11.5467 114.731 11.728C114.4 11.9093 114.022 12 113.595 12H109.819V10.144H113.467C113.712 10.144 113.878 10.08 113.963 9.952C114.048 9.824 114.091 9.62133 114.091 9.344C114.091 8.91733 114.075 8.544 114.043 8.224C114.011 7.89333 113.931 7.62667 113.803 7.424C113.675 7.21067 113.483 7.05067 113.227 6.944C112.982 6.83733 112.64 6.784 112.203 6.784H110.683V5.024H112.571C113.19 5.024 113.712 5.11467 114.139 5.296C114.566 5.46667 114.907 5.70667 115.163 6.016C115.419 6.32533 115.6 6.69333 115.707 7.12C115.824 7.536 115.883 7.98933 115.883 8.48C115.883 9.024 115.995 9.44 116.219 9.728C116.443 10.0053 116.811 10.144 117.323 10.144H117.899C118.059 10.144 118.171 10.1867 118.235 10.272C118.299 10.3573 118.331 10.4587 118.331 10.576V11.552C118.331 11.6373 118.294 11.7333 118.219 11.84C118.155 11.9467 118.048 12 117.899 12H117.291ZM125.916 11.552C125.916 11.6373 125.878 11.7333 125.804 11.84C125.74 11.9467 125.628 12 125.468 12H125.164C124.822 12 124.481 11.9307 124.14 11.792C123.809 11.6533 123.537 11.488 123.324 11.296C123.132 11.5947 122.918 11.7867 122.684 11.872C122.46 11.9573 122.23 12 121.996 12H117.804C117.644 12 117.532 11.9573 117.468 11.872C117.404 11.7867 117.372 11.6907 117.372 11.584V10.64C117.372 10.5227 117.409 10.4107 117.484 10.304C117.548 10.1973 117.654 10.144 117.804 10.144H122.524C122.428 9.97333 122.337 9.75467 122.252 9.488C122.177 9.22133 122.118 8.84267 122.076 8.352C122.022 7.808 121.878 7.42933 121.644 7.216C121.42 6.992 121.121 6.88 120.748 6.88C120.534 6.88 120.262 6.91733 119.932 6.992C119.601 7.056 119.27 7.168 118.94 7.328L118.492 5.584C118.62 5.54133 118.785 5.488 118.988 5.424C119.201 5.36 119.425 5.30133 119.66 5.248C119.894 5.184 120.134 5.13067 120.38 5.088C120.636 5.04533 120.876 5.024 121.1 5.024C121.612 5.024 122.038 5.11467 122.38 5.296C122.732 5.47733 123.014 5.712 123.228 6C123.452 6.288 123.617 6.608 123.724 6.96C123.83 7.30133 123.9 7.63733 123.932 7.968C123.953 8.18133 123.985 8.416 124.028 8.672C124.081 8.91733 124.15 9.152 124.236 9.376C124.321 9.58933 124.433 9.77067 124.572 9.92C124.71 10.0693 124.886 10.144 125.1 10.144H125.468C125.638 10.144 125.756 10.1867 125.82 10.272C125.884 10.3573 125.916 10.4587 125.916 10.576V11.552ZM120.076 14.016C120.076 13.76 120.166 13.5413 120.348 13.36C120.54 13.1893 120.774 13.104 121.052 13.104C121.318 13.104 121.542 13.1893 121.724 13.36C121.916 13.5413 122.012 13.76 122.012 14.016C122.012 14.2827 121.916 14.5013 121.724 14.672C121.542 14.8533 121.318 14.944 121.052 14.944C120.774 14.944 120.54 14.8533 120.348 14.672C120.166 14.5013 120.076 14.2827 120.076 14.016ZM130.278 10.24C130.779 10.24 131.147 10.0853 131.382 9.776C131.627 9.46667 131.75 9.09333 131.75 8.656C131.75 8.37867 131.707 8.128 131.622 7.904C131.536 7.68 131.424 7.488 131.286 7.328C131.158 7.168 131.003 7.04533 130.822 6.96C130.651 6.87467 130.47 6.832 130.278 6.832C130.075 6.832 129.883 6.87467 129.702 6.96C129.52 7.04533 129.36 7.168 129.222 7.328C129.094 7.488 128.987 7.68 128.902 7.904C128.827 8.128 128.79 8.37867 128.79 8.656C128.79 9.08267 128.902 9.456 129.126 9.776C129.36 10.0853 129.744 10.24 130.278 10.24ZM125.382 12C125.222 12 125.11 11.9573 125.046 11.872C124.982 11.7867 124.95 11.6907 124.95 11.584V10.64C124.95 10.5227 124.987 10.4107 125.062 10.304C125.126 10.1973 125.232 10.144 125.382 10.144H126.006C126.667 10.144 126.998 9.64267 126.998 8.64C126.998 8.128 127.078 7.65333 127.238 7.216C127.408 6.77867 127.643 6.40533 127.942 6.096C128.24 5.776 128.587 5.53067 128.982 5.36C129.387 5.17867 129.83 5.088 130.31 5.088C130.843 5.088 131.307 5.17867 131.702 5.36C132.107 5.54133 132.438 5.792 132.694 6.112C132.96 6.432 133.158 6.816 133.286 7.264C133.414 7.712 133.478 8.20267 133.478 8.736C133.478 9.152 133.419 9.55733 133.302 9.952C133.195 10.3467 133.014 10.6987 132.758 11.008C132.502 11.3067 132.171 11.5467 131.766 11.728C131.371 11.9093 130.886 12 130.31 12C130.075 12 129.84 11.9893 129.606 11.968C129.371 11.936 129.136 11.8827 128.902 11.808C128.678 11.7227 128.459 11.6107 128.246 11.472C128.043 11.3227 127.856 11.136 127.686 10.912C127.526 11.2853 127.302 11.5627 127.014 11.744C126.736 11.9147 126.438 12 126.118 12H125.382ZM150.981 0.544H152.805V10.144H153.893C154.064 10.144 154.181 10.1867 154.245 10.272C154.309 10.3573 154.341 10.4587 154.341 10.576V11.552C154.341 11.6373 154.304 11.7333 154.229 11.84C154.155 11.9467 154.043 12 153.893 12H150.981V0.544ZM153.811 12C153.63 12 153.513 11.9573 153.459 11.872C153.406 11.7867 153.379 11.6907 153.379 11.584V10.64C153.379 10.5227 153.417 10.4107 153.491 10.304C153.555 10.1973 153.662 10.144 153.811 10.144H155.347C155.582 10.144 155.737 10.0693 155.811 9.92C155.897 9.77067 155.939 9.568 155.939 9.312V5.632H157.763V8.672C157.763 9.09867 157.865 9.45067 158.067 9.728C158.27 10.0053 158.638 10.144 159.171 10.144H159.731C159.913 10.144 160.03 10.1867 160.083 10.272C160.137 10.3573 160.163 10.4587 160.163 10.576V11.552C160.163 11.6373 160.126 11.7333 160.051 11.84C159.987 11.9467 159.881 12 159.731 12H159.123C158.654 12 158.275 11.888 157.987 11.664C157.71 11.44 157.497 11.1947 157.347 10.928C157.166 11.2373 156.91 11.4933 156.579 11.696C156.259 11.8987 155.875 12 155.427 12H153.811ZM154.643 14.016C154.643 13.76 154.734 13.5413 154.915 13.36C155.097 13.1893 155.326 13.104 155.603 13.104C155.881 13.104 156.11 13.1893 156.291 13.36C156.473 13.5413 156.563 13.76 156.563 14.016C156.563 14.2827 156.473 14.5013 156.291 14.672C156.11 14.8533 155.881 14.944 155.603 14.944C155.326 14.944 155.097 14.8533 154.915 14.672C154.734 14.5013 154.643 14.2827 154.643 14.016ZM157.123 14.016C157.123 13.76 157.214 13.5413 157.395 13.36C157.577 13.1893 157.806 13.104 158.083 13.104C158.361 13.104 158.59 13.1893 158.771 13.36C158.953 13.5413 159.043 13.76 159.043 14.016C159.043 14.2827 158.953 14.5013 158.771 14.672C158.59 14.8533 158.361 14.944 158.083 14.944C157.806 14.944 157.577 14.8533 157.395 14.672C157.214 14.5013 157.123 14.2827 157.123 14.016ZM159.639 12C159.458 12 159.341 11.9573 159.287 11.872C159.234 11.7867 159.207 11.6907 159.207 11.584V10.64C159.207 10.5227 159.245 10.4107 159.319 10.304C159.383 10.1973 159.49 10.144 159.639 10.144H161.176C161.41 10.144 161.565 10.0693 161.64 9.92C161.725 9.77067 161.768 9.568 161.768 9.312V0.544H163.608V8.672C163.608 9.09867 163.704 9.45067 163.896 9.728C164.098 10.0053 164.472 10.144 165.016 10.144H165.576C165.757 10.144 165.874 10.1867 165.928 10.272C165.981 10.3573 166.008 10.4587 166.008 10.576V11.552C166.008 11.6373 165.97 11.7333 165.896 11.84C165.832 11.9467 165.725 12 165.576 12H164.952C164.493 12 164.12 11.8933 163.832 11.68C163.554 11.456 163.341 11.2107 163.192 10.944C163.01 11.296 162.754 11.5627 162.424 11.744C162.093 11.9147 161.704 12 161.256 12H159.639ZM170.203 6.72C169.851 6.72 169.478 6.768 169.083 6.864C168.689 6.94933 168.369 7.06667 168.123 7.216C168.166 7.312 168.246 7.45067 168.363 7.632C168.481 7.81333 168.625 8.01067 168.795 8.224C168.966 8.43733 169.147 8.64533 169.339 8.848C169.542 9.05067 169.745 9.22133 169.947 9.36C170.182 9.22133 170.401 9.056 170.603 8.864C170.817 8.672 170.998 8.47467 171.147 8.272C171.297 8.06933 171.414 7.872 171.499 7.68C171.585 7.488 171.627 7.31733 171.627 7.168C171.627 7.08267 171.585 7.01333 171.499 6.96C171.414 6.896 171.302 6.848 171.163 6.816C171.025 6.784 170.87 6.76267 170.699 6.752C170.539 6.73067 170.374 6.72 170.203 6.72ZM165.483 12C165.323 12 165.211 11.9573 165.147 11.872C165.083 11.7867 165.051 11.6907 165.051 11.584V10.64C165.051 10.5227 165.089 10.4107 165.163 10.304C165.227 10.1973 165.334 10.144 165.483 10.144H167.115C167.35 10.144 167.558 10.1333 167.739 10.112C167.921 10.0907 168.075 10.064 168.203 10.032C168.011 9.85067 167.819 9.648 167.627 9.424C167.435 9.2 167.259 8.98133 167.099 8.768C166.939 8.544 166.801 8.336 166.683 8.144C166.566 7.94133 166.486 7.776 166.443 7.648L166.379 6.368C166.614 6.176 166.881 5.99467 167.179 5.824C167.478 5.65333 167.793 5.504 168.123 5.376C168.465 5.248 168.811 5.14667 169.163 5.072C169.515 4.99733 169.867 4.96 170.219 4.96C170.763 4.96 171.233 5.01867 171.627 5.136C172.022 5.24267 172.347 5.38667 172.603 5.568C172.859 5.74933 173.051 5.952 173.179 6.176C173.307 6.38933 173.371 6.59733 173.371 6.8C173.371 7.248 173.254 7.74933 173.019 8.304C172.785 8.85867 172.326 9.456 171.643 10.096C171.867 10.128 172.241 10.144 172.763 10.144H174.123C174.294 10.144 174.411 10.1867 174.475 10.272C174.539 10.3573 174.571 10.4587 174.571 10.576V11.552C174.571 11.6373 174.534 11.7333 174.459 11.84C174.395 11.9467 174.283 12 174.123 12H172.731C172.017 12 171.419 11.9253 170.939 11.776C170.459 11.6267 170.091 11.4773 169.835 11.328C169.43 11.5627 168.987 11.7333 168.507 11.84C168.038 11.9467 167.574 12 167.115 12H165.483ZM174.03 12C173.87 12 173.763 11.9573 173.71 11.872C173.646 11.7867 173.614 11.6907 173.614 11.584V10.64C173.614 10.5227 173.646 10.4107 173.71 10.304C173.774 10.1973 173.88 10.144 174.03 10.144H175.918V0.544H177.726V12H174.03ZM180.356 0.544H182.164V12H180.356V0.544ZM187.84 12C187.178 12 186.618 11.9093 186.16 11.728C185.712 11.536 185.344 11.2907 185.056 10.992C184.778 10.6827 184.576 10.336 184.448 9.952C184.32 9.568 184.256 9.17867 184.256 8.784C184.256 8.28267 184.336 7.808 184.496 7.36C184.666 6.90133 184.901 6.50133 185.2 6.16C185.498 5.81867 185.856 5.552 186.272 5.36C186.688 5.15733 187.146 5.056 187.648 5.056C188.117 5.056 188.538 5.136 188.912 5.296C189.296 5.44533 189.621 5.664 189.888 5.952C190.154 6.22933 190.357 6.56533 190.496 6.96C190.645 7.344 190.72 7.77067 190.72 8.24V11.76C190.72 12.432 190.618 13.0027 190.416 13.472C190.213 13.952 189.925 14.336 189.552 14.624C189.189 14.9227 188.752 15.1413 188.24 15.28C187.738 15.4187 187.184 15.488 186.576 15.488C186.352 15.488 186.101 15.4773 185.824 15.456C185.557 15.4453 185.258 15.4133 184.928 15.36L185.056 13.568C185.365 13.6107 185.658 13.6427 185.936 13.664C186.224 13.6853 186.464 13.696 186.656 13.696C186.954 13.696 187.237 13.6747 187.504 13.632C187.77 13.5893 188.005 13.504 188.208 13.376C188.41 13.2587 188.576 13.088 188.704 12.864C188.832 12.6507 188.906 12.3627 188.928 12H187.84ZM188.912 10.144V8.72C188.912 8.112 188.789 7.648 188.544 7.328C188.309 6.99733 187.978 6.832 187.552 6.832C187.36 6.832 187.173 6.87467 186.992 6.96C186.821 7.03467 186.661 7.14667 186.512 7.296C186.373 7.43467 186.261 7.60533 186.176 7.808C186.09 8.01067 186.048 8.24 186.048 8.496C186.048 8.79467 186.096 9.05067 186.192 9.264C186.288 9.46667 186.416 9.63733 186.576 9.776C186.736 9.904 186.922 10 187.136 10.064C187.349 10.1173 187.568 10.144 187.792 10.144H188.912ZM203.877 12C203.429 12 203.061 11.8987 202.773 11.696C202.485 11.4827 202.261 11.2373 202.101 10.96C201.92 11.2907 201.658 11.5467 201.317 11.728C200.986 11.9093 200.608 12 200.181 12H196.405V10.144H200.053C200.298 10.144 200.464 10.08 200.549 9.952C200.634 9.824 200.677 9.62133 200.677 9.344C200.677 8.91733 200.661 8.544 200.629 8.224C200.597 7.89333 200.517 7.62667 200.389 7.424C200.261 7.21067 200.069 7.05067 199.813 6.944C199.568 6.83733 199.226 6.784 198.789 6.784H197.269V5.024H199.157C199.776 5.024 200.298 5.11467 200.725 5.296C201.152 5.46667 201.493 5.70667 201.749 6.016C202.005 6.32533 202.186 6.69333 202.293 7.12C202.41 7.536 202.469 7.98933 202.469 8.48C202.469 9.024 202.581 9.44 202.805 9.728C203.029 10.0053 203.397 10.144 203.909 10.144H204.485C204.645 10.144 204.757 10.1867 204.821 10.272C204.885 10.3573 204.917 10.4587 204.917 10.576V11.552C204.917 11.6373 204.88 11.7333 204.805 11.84C204.741 11.9467 204.634 12 204.485 12H203.877ZM212.502 11.552C212.502 11.6373 212.464 11.7333 212.39 11.84C212.326 11.9467 212.214 12 212.054 12H211.75C211.408 12 211.067 11.9307 210.726 11.792C210.395 11.6533 210.123 11.488 209.91 11.296C209.718 11.5947 209.504 11.7867 209.27 11.872C209.046 11.9573 208.816 12 208.582 12H204.389C204.229 12 204.117 11.9573 204.053 11.872C203.989 11.7867 203.957 11.6907 203.957 11.584V10.64C203.957 10.5227 203.995 10.4107 204.069 10.304C204.133 10.1973 204.24 10.144 204.389 10.144H209.11C209.014 9.97333 208.923 9.75467 208.838 9.488C208.763 9.22133 208.704 8.84267 208.661 8.352C208.608 7.808 208.464 7.42933 208.23 7.216C208.006 6.992 207.707 6.88 207.334 6.88C207.12 6.88 206.848 6.91733 206.518 6.992C206.187 7.056 205.856 7.168 205.526 7.328L205.078 5.584C205.206 5.54133 205.371 5.488 205.574 5.424C205.787 5.36 206.011 5.30133 206.246 5.248C206.48 5.184 206.72 5.13067 206.966 5.088C207.222 5.04533 207.462 5.024 207.686 5.024C208.198 5.024 208.624 5.11467 208.966 5.296C209.318 5.47733 209.6 5.712 209.814 6C210.038 6.288 210.203 6.608 210.31 6.96C210.416 7.30133 210.486 7.63733 210.518 7.968C210.539 8.18133 210.571 8.416 210.614 8.672C210.667 8.91733 210.736 9.152 210.822 9.376C210.907 9.58933 211.019 9.77067 211.158 9.92C211.296 10.0693 211.472 10.144 211.686 10.144H212.054C212.224 10.144 212.342 10.1867 212.406 10.272C212.47 10.3573 212.502 10.4587 212.502 10.576V11.552ZM206.662 14.016C206.662 13.76 206.752 13.5413 206.934 13.36C207.126 13.1893 207.36 13.104 207.638 13.104C207.904 13.104 208.128 13.1893 208.31 13.36C208.502 13.5413 208.598 13.76 208.598 14.016C208.598 14.2827 208.502 14.5013 208.31 14.672C208.128 14.8533 207.904 14.944 207.638 14.944C207.36 14.944 207.126 14.8533 206.934 14.672C206.752 14.5013 206.662 14.2827 206.662 14.016ZM216.832 10.24C217.344 10.24 217.717 10.0907 217.952 9.792C218.197 9.48267 218.32 9.104 218.32 8.656C218.32 8.37867 218.277 8.128 218.192 7.904C218.106 7.68 217.994 7.488 217.856 7.328C217.728 7.168 217.573 7.04533 217.392 6.96C217.21 6.87467 217.024 6.832 216.832 6.832C216.629 6.832 216.437 6.87467 216.256 6.96C216.074 7.04533 215.914 7.168 215.776 7.328C215.648 7.488 215.541 7.68 215.456 7.904C215.381 8.128 215.344 8.37867 215.344 8.656C215.344 9.104 215.461 9.48267 215.696 9.792C215.941 10.0907 216.32 10.24 216.832 10.24ZM211.968 12C211.808 12 211.696 11.9573 211.632 11.872C211.568 11.7867 211.536 11.6907 211.536 11.584V10.64C211.536 10.5227 211.573 10.4107 211.648 10.304C211.712 10.1973 211.818 10.144 211.968 10.144H212.592C212.709 10.144 212.826 10.128 212.944 10.096C213.061 10.0533 213.162 9.97867 213.248 9.872C213.344 9.75467 213.418 9.6 213.472 9.408C213.525 9.20533 213.552 8.94933 213.552 8.64C213.552 8.128 213.632 7.65867 213.792 7.232C213.962 6.79467 214.192 6.42133 214.48 6.112C214.778 5.792 215.13 5.54133 215.536 5.36C215.941 5.17867 216.378 5.088 216.848 5.088C217.882 5.088 218.672 5.41867 219.216 6.08C219.77 6.74133 220.048 7.66933 220.048 8.864C220.048 8.96 220.058 9.08267 220.08 9.232C220.112 9.38133 220.176 9.52533 220.272 9.664C220.368 9.792 220.506 9.904 220.688 10C220.88 10.096 221.136 10.144 221.456 10.144H222.032C222.192 10.144 222.304 10.1867 222.368 10.272C222.442 10.3573 222.48 10.4587 222.48 10.576V11.552C222.48 11.6373 222.442 11.7333 222.368 11.84C222.293 11.9467 222.181 12 222.032 12H221.408C220.96 12 220.565 11.888 220.224 11.664C219.893 11.44 219.648 11.1573 219.488 10.816C219.296 11.1147 219.093 11.3493 218.88 11.52C218.666 11.6907 218.448 11.8187 218.224 11.904C218 11.9787 217.765 12.0267 217.52 12.048C217.274 12.0693 217.024 12.08 216.768 12.08C216.16 12.08 215.653 11.9733 215.248 11.76C214.853 11.5467 214.528 11.2693 214.272 10.928C214.122 11.2373 213.909 11.4933 213.632 11.696C213.354 11.8987 213.04 12 212.688 12H211.968ZM221.952 12C221.771 12 221.653 11.9573 221.6 11.872C221.547 11.7867 221.52 11.6907 221.52 11.584V10.64C221.52 10.5227 221.557 10.4107 221.632 10.304C221.696 10.1973 221.803 10.144 221.952 10.144H223.488C223.723 10.144 223.877 10.0693 223.952 9.92C224.037 9.77067 224.08 9.568 224.08 9.312V0.544H225.92V8.672C225.92 9.09867 226.016 9.45067 226.208 9.728C226.411 10.0053 226.784 10.144 227.328 10.144H227.888C228.069 10.144 228.187 10.1867 228.24 10.272C228.293 10.3573 228.32 10.4587 228.32 10.576V11.552C228.32 11.6373 228.283 11.7333 228.208 11.84C228.144 11.9467 228.037 12 227.888 12H227.264C226.805 12 226.432 11.8933 226.144 11.68C225.867 11.456 225.653 11.2107 225.504 10.944C225.323 11.296 225.067 11.5627 224.736 11.744C224.405 11.9147 224.016 12 223.568 12H221.952ZM227.78 12C227.62 12 227.513 11.9573 227.46 11.872C227.396 11.7867 227.364 11.6907 227.364 11.584V10.64C227.364 10.5227 227.396 10.4107 227.46 10.304C227.524 10.1973 227.63 10.144 227.78 10.144H229.668V0.544H231.476V12H227.78ZM249.226 12V9.088C249.226 8.72533 249.189 8.43733 249.114 8.224C249.05 8 248.943 7.82933 248.794 7.712C248.655 7.59467 248.474 7.52 248.25 7.488C248.037 7.44533 247.786 7.424 247.498 7.424H247.354V10.8C247.354 11.44 247.247 12.0373 247.034 12.592C246.821 13.1573 246.49 13.648 246.042 14.064C245.594 14.48 245.023 14.8107 244.33 15.056C243.637 15.3013 242.815 15.424 241.866 15.424C241.002 15.424 240.261 15.296 239.642 15.04C239.023 14.784 238.517 14.4533 238.122 14.048C237.727 13.6533 237.434 13.2053 237.242 12.704C237.061 12.2027 236.97 11.7013 236.97 11.2C236.97 10.624 237.066 10.0907 237.258 9.6C237.461 9.10933 237.717 8.64 238.026 8.192L239.53 9.072C239.285 9.43467 239.103 9.792 238.986 10.144C238.879 10.4853 238.826 10.8 238.826 11.088C238.826 11.44 238.895 11.76 239.034 12.048C239.173 12.3467 239.375 12.6027 239.642 12.816C239.919 13.0293 240.255 13.1947 240.65 13.312C241.055 13.44 241.514 13.504 242.026 13.504C242.538 13.504 243.007 13.4507 243.434 13.344C243.861 13.248 244.229 13.0987 244.538 12.896C244.858 12.704 245.103 12.4587 245.274 12.16C245.445 11.872 245.53 11.5413 245.53 11.168V5.632H247.754C248.885 5.632 249.717 5.904 250.25 6.448C250.783 6.992 251.05 7.81333 251.05 8.912V10.144H252.074C252.223 10.144 252.33 10.1867 252.394 10.272C252.469 10.3573 252.506 10.4587 252.506 10.576V11.552C252.506 11.6373 252.469 11.7333 252.394 11.84C252.33 11.9467 252.223 12 252.074 12H249.226ZM239.802 17.056C239.802 16.8 239.893 16.5813 240.074 16.4C240.255 16.2293 240.485 16.144 240.762 16.144C241.039 16.144 241.269 16.2293 241.45 16.4C241.631 16.5813 241.722 16.8 241.722 17.056C241.722 17.3227 241.631 17.5413 241.45 17.712C241.269 17.8933 241.039 17.984 240.762 17.984C240.485 17.984 240.255 17.8933 240.074 17.712C239.893 17.5413 239.802 17.3227 239.802 17.056ZM242.282 17.056C242.282 16.8 242.373 16.5813 242.554 16.4C242.735 16.2293 242.965 16.144 243.242 16.144C243.519 16.144 243.749 16.2293 243.93 16.4C244.111 16.5813 244.202 16.8 244.202 17.056C244.202 17.3227 244.111 17.5413 243.93 17.712C243.749 17.8933 243.519 17.984 243.242 17.984C242.965 17.984 242.735 17.8933 242.554 17.712C242.373 17.5413 242.282 17.3227 242.282 17.056ZM254.095 10.144C253.818 9.89867 253.583 9.58933 253.391 9.216C253.199 8.84267 253.103 8.416 253.103 7.936C253.103 7.552 253.167 7.17867 253.295 6.816C253.423 6.45333 253.626 6.128 253.903 5.84C254.191 5.552 254.554 5.32267 254.991 5.152C255.429 4.98133 255.951 4.896 256.559 4.896C256.805 4.896 257.071 4.912 257.359 4.944C257.647 4.96533 257.973 5.00267 258.335 5.056L258.111 6.88C257.845 6.83733 257.605 6.80533 257.391 6.784C257.178 6.76267 256.965 6.752 256.751 6.752C256.175 6.752 255.733 6.88533 255.423 7.152C255.114 7.41867 254.959 7.776 254.959 8.224C254.959 8.53333 255.029 8.81067 255.167 9.056C255.317 9.29067 255.509 9.488 255.743 9.648C255.978 9.808 256.25 9.93067 256.559 10.016C256.869 10.1013 257.189 10.144 257.519 10.144H258.927V12H251.983C251.813 12 251.701 11.9573 251.647 11.872C251.583 11.7867 251.551 11.6907 251.551 11.584V10.64C251.551 10.5227 251.589 10.4107 251.663 10.304C251.727 10.1973 251.834 10.144 251.983 10.144H254.095ZM263.896 11.744C263.896 12.224 263.832 12.672 263.704 13.088C263.576 13.504 263.384 13.8667 263.128 14.176C262.872 14.4853 262.557 14.7253 262.184 14.896C261.81 15.0773 261.378 15.168 260.888 15.168C260.685 15.168 260.498 15.1573 260.328 15.136C260.157 15.1253 260.008 15.1093 259.88 15.088C259.805 15.0773 259.736 15.0667 259.671 15.056C259.597 15.0453 259.522 15.0293 259.447 15.008L259.655 13.184L260.104 13.28C260.232 13.3013 260.365 13.3173 260.504 13.328C260.642 13.3493 260.77 13.36 260.888 13.36C261.357 13.36 261.672 13.2107 261.832 12.912C261.992 12.6133 262.072 12.176 262.072 11.6V5.632H263.896V11.744ZM266.309 0.544H268.133V10.144H269.221C269.392 10.144 269.509 10.1867 269.573 10.272C269.637 10.3573 269.669 10.4587 269.669 10.576V11.552C269.669 11.6373 269.632 11.7333 269.557 11.84C269.483 11.9467 269.371 12 269.221 12H266.309V0.544ZM269.139 12C268.979 12 268.867 11.9573 268.803 11.872C268.739 11.7867 268.707 11.6907 268.707 11.584V10.64C268.707 10.5227 268.745 10.4107 268.819 10.304C268.883 10.1973 268.99 10.144 269.139 10.144H271.892C272.137 10.144 272.297 10.0693 272.372 9.92C272.446 9.77067 272.484 9.568 272.484 9.312V7.12H274.308V8.672C274.308 9.09867 274.409 9.45067 274.612 9.728C274.814 10.0053 275.182 10.144 275.716 10.144H276.116C276.361 10.144 276.521 10.0747 276.596 9.936C276.67 9.79733 276.708 9.58933 276.708 9.312V6.496H278.532V8.672C278.532 9.09867 278.633 9.45067 278.836 9.728C279.038 10.0053 279.406 10.144 279.94 10.144H280.884V5.632H282.692V12H279.892C279.444 12 279.081 11.8933 278.804 11.68C278.526 11.456 278.313 11.2107 278.164 10.944C277.982 11.296 277.721 11.5627 277.38 11.744C277.038 11.9147 276.644 12 276.196 12H275.684C275.204 12 274.825 11.8987 274.548 11.696C274.27 11.4827 274.057 11.2427 273.908 10.976C273.726 11.3067 273.46 11.5627 273.108 11.744C272.766 11.9147 272.356 12 271.876 12H269.139ZM32.2976 57C31.9882 57 31.7056 56.9307 31.4496 56.792C31.1936 56.6533 30.9856 56.4933 30.8256 56.312V56.744C30.8256 57.224 30.7616 57.672 30.6336 58.088C30.5056 58.504 30.3136 58.8667 30.0576 59.176C29.8016 59.4853 29.4869 59.7253 29.1136 59.896C28.7402 60.0773 28.3082 60.168 27.8176 60.168C27.6256 60.168 27.4389 60.1573 27.2576 60.136C27.0869 60.1253 26.9376 60.1093 26.8096 60.088C26.7242 60.0773 26.6496 60.0667 26.5856 60.056C26.5109 60.0453 26.4416 60.0293 26.3776 60.008L26.5696 58.184L27.0176 58.28C27.1456 58.3013 27.2789 58.3173 27.4176 58.328C27.5669 58.3493 27.7002 58.36 27.8176 58.36C28.2869 58.36 28.6016 58.2107 28.7616 57.912C28.9216 57.6133 29.0016 57.176 29.0016 56.6V50.632H30.8256V53.672C30.8256 54.0987 30.9216 54.4507 31.1136 54.728C31.3162 55.0053 31.6949 55.144 32.2496 55.144H32.8096C32.9909 55.144 33.1082 55.1867 33.1616 55.272C33.2149 55.3573 33.2416 55.4587 33.2416 55.576V56.552C33.2416 56.6373 33.2096 56.7333 33.1456 56.84C33.0816 56.9467 32.9696 57 32.8096 57H32.2976ZM41.4938 55.144C41.7178 55.144 41.8671 55.0747 41.9418 54.936C42.0165 54.7867 42.0538 54.552 42.0538 54.232C42.0538 53.4853 41.8938 52.904 41.5738 52.488C41.2538 52.072 40.7365 51.864 40.0218 51.864C39.6058 51.864 39.2058 51.9547 38.8218 52.136C38.4378 52.3067 38.0965 52.5467 37.7978 52.856C37.4991 53.1547 37.2538 53.5013 37.0618 53.896C36.8698 54.2907 36.7525 54.7067 36.7098 55.144H41.4938ZM45.2858 57C44.8058 57 44.4325 56.8933 44.1658 56.68C43.8991 56.4667 43.6911 56.2213 43.5418 55.944C43.3605 56.2747 43.0885 56.536 42.7258 56.728C42.3738 56.9093 41.9578 57 41.4778 57H32.6938C32.5231 57 32.4111 56.9573 32.3578 56.872C32.3045 56.7867 32.2778 56.6907 32.2778 56.584V55.64C32.2778 55.5227 32.3098 55.4107 32.3738 55.304C32.4378 55.1973 32.5445 55.144 32.6938 55.144H34.8858V45.544H36.6778V51.96C37.0618 51.4373 37.5631 50.9947 38.1818 50.632C38.8005 50.2693 39.4831 50.088 40.2298 50.088C40.8165 50.088 41.3338 50.1893 41.7818 50.392C42.2405 50.5947 42.6191 50.8773 42.9178 51.24C43.2271 51.592 43.4618 52.0133 43.6218 52.504C43.7818 52.9947 43.8618 53.528 43.8618 54.104C43.8618 54.4773 43.9845 54.744 44.2298 54.904C44.4751 55.064 44.8378 55.144 45.3178 55.144H45.8938C46.0751 55.144 46.1925 55.1867 46.2458 55.272C46.2991 55.3573 46.3258 55.4587 46.3258 55.576V56.552C46.3258 56.6373 46.2938 56.7333 46.2298 56.84C46.1658 56.9467 46.0538 57 45.8938 57H45.2858ZM45.8196 57C45.6489 57 45.5316 56.9573 45.4676 56.872C45.4036 56.7867 45.3716 56.6907 45.3716 56.584V55.64C45.3716 55.5227 45.4089 55.4107 45.4836 55.304C45.5582 55.1973 45.6702 55.144 45.8196 55.144H48.6196C48.8649 55.144 49.0302 55.08 49.1156 54.952C49.2009 54.824 49.2436 54.6267 49.2436 54.36V52.12H51.0356V53.672C51.0356 54.0773 51.1369 54.424 51.3396 54.712C51.5422 55 51.9156 55.144 52.4596 55.144H52.7476C52.9929 55.144 53.1529 55.0693 53.2276 54.92C53.3022 54.7707 53.3396 54.568 53.3396 54.312V51.496H55.1796V53.672C55.1796 54.0987 55.2809 54.4507 55.4836 54.728C55.6862 55.0053 56.0542 55.144 56.5876 55.144H56.9716C57.2276 55.144 57.3929 55.0693 57.4676 54.92C57.5529 54.7707 57.5956 54.568 57.5956 54.312V50.632H59.4036V53.672C59.4036 54.0987 59.4996 54.4507 59.6916 54.728C59.8942 55.0053 60.2622 55.144 60.7956 55.144H61.4516C61.6222 55.144 61.7396 55.1867 61.8036 55.272C61.8676 55.3573 61.8996 55.4587 61.8996 55.576V56.552C61.8996 56.6373 61.8622 56.7333 61.7876 56.84C61.7236 56.9467 61.6169 57 61.4676 57H60.7956C60.3156 57 59.9316 56.8933 59.6436 56.68C59.3662 56.4667 59.1529 56.2213 59.0036 55.944C58.8222 56.2853 58.5502 56.5467 58.1876 56.728C57.8249 56.9093 57.4196 57 56.9716 57H56.5396C56.0596 57 55.6809 56.8933 55.4036 56.68C55.1369 56.4667 54.9342 56.2267 54.7956 55.96C54.5929 56.312 54.3156 56.5733 53.9636 56.744C53.6116 56.9147 53.2382 57 52.8436 57H52.4276C51.9689 57 51.5956 56.8933 51.3076 56.68C51.0302 56.4667 50.8222 56.2267 50.6836 55.96C50.4809 56.312 50.1929 56.5733 49.8196 56.744C49.4569 56.9147 49.0516 57 48.6036 57H45.8196ZM66.2301 55.24C66.7421 55.24 67.1154 55.0907 67.3501 54.792C67.5954 54.4827 67.7181 54.104 67.7181 53.656C67.7181 53.3787 67.6754 53.128 67.5901 52.904C67.5047 52.68 67.3927 52.488 67.2541 52.328C67.1261 52.168 66.9714 52.0453 66.7901 51.96C66.6087 51.8747 66.4221 51.832 66.2301 51.832C66.0274 51.832 65.8354 51.8747 65.6541 51.96C65.4727 52.0453 65.3127 52.168 65.1741 52.328C65.0461 52.488 64.9394 52.68 64.8541 52.904C64.7794 53.128 64.7421 53.3787 64.7421 53.656C64.7421 54.104 64.8594 54.4827 65.0941 54.792C65.3394 55.0907 65.7181 55.24 66.2301 55.24ZM61.3661 57C61.2061 57 61.0941 56.9573 61.0301 56.872C60.9661 56.7867 60.9341 56.6907 60.9341 56.584V55.64C60.9341 55.5227 60.9714 55.4107 61.0461 55.304C61.1101 55.1973 61.2167 55.144 61.3661 55.144H61.9901C62.1074 55.144 62.2247 55.128 62.3421 55.096C62.4594 55.0533 62.5607 54.9787 62.6461 54.872C62.7421 54.7547 62.8167 54.6 62.8701 54.408C62.9234 54.2053 62.9501 53.9493 62.9501 53.64C62.9501 53.128 63.0301 52.6587 63.1901 52.232C63.3607 51.7947 63.5901 51.4213 63.8781 51.112C64.1767 50.792 64.5287 50.5413 64.9341 50.36C65.3394 50.1787 65.7767 50.088 66.2461 50.088C67.2807 50.088 68.0701 50.4187 68.6141 51.08C69.1687 51.7413 69.4461 52.6693 69.4461 53.864C69.4461 53.96 69.4567 54.0827 69.4781 54.232C69.5101 54.3813 69.5741 54.5253 69.6701 54.664C69.7661 54.792 69.9047 54.904 70.0861 55C70.2781 55.096 70.5341 55.144 70.8541 55.144H71.4301C71.5901 55.144 71.7021 55.1867 71.7661 55.272C71.8407 55.3573 71.8781 55.4587 71.8781 55.576V56.552C71.8781 56.6373 71.8407 56.7333 71.7661 56.84C71.6914 56.9467 71.5794 57 71.4301 57H70.8061C70.3581 57 69.9634 56.888 69.6221 56.664C69.2914 56.44 69.0461 56.1573 68.8861 55.816C68.6941 56.1147 68.4914 56.3493 68.2781 56.52C68.0647 56.6907 67.8461 56.8187 67.6221 56.904C67.3981 56.9787 67.1634 57.0267 66.9181 57.048C66.6727 57.0693 66.4221 57.08 66.1661 57.08C65.5581 57.08 65.0514 56.9733 64.6461 56.76C64.2514 56.5467 63.9261 56.2693 63.6701 55.928C63.5207 56.2373 63.3074 56.4933 63.0301 56.696C62.7527 56.8987 62.4381 57 62.0861 57H61.3661ZM71.3344 57C71.1744 57 71.0678 56.9573 71.0144 56.872C70.9504 56.7867 70.9184 56.6907 70.9184 56.584V55.64C70.9184 55.5227 70.9504 55.4107 71.0144 55.304C71.0784 55.1973 71.1851 55.144 71.3344 55.144H73.2224V45.544H75.0304V57H71.3344ZM77.6606 45.544H79.4686V57H77.6606V45.544ZM88.8564 56.744C88.8564 57.224 88.7924 57.672 88.6644 58.088C88.5364 58.504 88.3444 58.8667 88.0884 59.176C87.8324 59.4853 87.5178 59.7253 87.1444 59.896C86.7711 60.0773 86.3391 60.168 85.8484 60.168C85.6458 60.168 85.4591 60.1573 85.2884 60.136C85.1178 60.1253 84.9684 60.1093 84.8404 60.088C84.7658 60.0773 84.6964 60.0667 84.6324 60.056C84.5578 60.0453 84.4831 60.0293 84.4084 60.008L84.6164 58.184L85.0644 58.28C85.1924 58.3013 85.3258 58.3173 85.4644 58.328C85.6031 58.3493 85.7311 58.36 85.8484 58.36C86.3178 58.36 86.6324 58.2107 86.7924 57.912C86.9524 57.6133 87.0324 57.176 87.0324 56.6V50.632H88.8564V56.744ZM95.6383 55.144V53.72C95.6383 53.112 95.5156 52.648 95.2703 52.328C95.0356 51.9973 94.705 51.832 94.2783 51.832C94.0863 51.832 93.8996 51.8747 93.7183 51.96C93.5476 52.0347 93.393 52.1467 93.2543 52.296C93.1156 52.4347 93.0036 52.6053 92.9183 52.808C92.833 53.0107 92.7903 53.24 92.7903 53.496C92.7903 53.7947 92.8383 54.0507 92.9343 54.264C93.0303 54.4667 93.1583 54.6373 93.3183 54.776C93.4783 54.904 93.6596 55 93.8623 55.064C94.0756 55.1173 94.2943 55.144 94.5183 55.144H95.6383ZM97.4463 57C97.4143 57.6187 97.2916 58.1467 97.0783 58.584C96.865 59.032 96.577 59.3947 96.2143 59.672C95.8516 59.9493 95.425 60.152 94.9343 60.28C94.4436 60.4187 93.905 60.488 93.3183 60.488C93.073 60.488 92.817 60.4773 92.5503 60.456C92.2836 60.4453 91.9903 60.4133 91.6703 60.36L91.7983 58.568C92.1076 58.6107 92.401 58.6427 92.6783 58.664C92.9556 58.6853 93.1956 58.696 93.3983 58.696C93.697 58.696 93.9796 58.6747 94.2463 58.632C94.513 58.5893 94.7476 58.504 94.9503 58.376C95.1636 58.2587 95.329 58.088 95.4463 57.864C95.5743 57.6507 95.6436 57.3627 95.6543 57H94.5823C93.921 57 93.361 56.9093 92.9023 56.728C92.4543 56.536 92.0863 56.2907 91.7983 55.992C91.521 55.6827 91.3183 55.336 91.1903 54.952C91.0623 54.568 90.9983 54.1787 90.9983 53.784C90.9983 53.2827 91.0783 52.808 91.2383 52.36C91.409 51.9013 91.6436 51.5013 91.9423 51.16C92.241 50.8187 92.593 50.552 92.9983 50.36C93.4143 50.1573 93.873 50.056 94.3743 50.056C94.8543 50.056 95.281 50.136 95.6543 50.296C96.0383 50.4453 96.3636 50.664 96.6303 50.952C96.897 51.2293 97.0996 51.5653 97.2383 51.96C97.377 52.344 97.4463 52.7707 97.4463 53.24V55.144H99.0143C99.185 55.144 99.3023 55.1867 99.3663 55.272C99.4303 55.3573 99.4623 55.4587 99.4623 55.576V56.552C99.4623 56.6373 99.425 56.7333 99.3503 56.84C99.2863 56.9467 99.1743 57 99.0143 57H97.4463ZM98.9286 57C98.7472 57 98.6299 56.9573 98.5766 56.872C98.5232 56.7867 98.4966 56.6907 98.4966 56.584V55.64C98.4966 55.5227 98.5339 55.4107 98.6086 55.304C98.6726 55.1973 98.7792 55.144 98.9286 55.144H100.465C100.699 55.144 100.854 55.0693 100.929 54.92C101.014 54.7707 101.057 54.568 101.057 54.312V50.632H102.881V53.672C102.881 54.0987 102.982 54.4507 103.185 54.728C103.387 55.0053 103.755 55.144 104.289 55.144H104.849C105.03 55.144 105.147 55.1867 105.201 55.272C105.254 55.3573 105.281 55.4587 105.281 55.576V56.552C105.281 56.6373 105.243 56.7333 105.169 56.84C105.105 56.9467 104.998 57 104.849 57H104.241C103.771 57 103.393 56.888 103.105 56.664C102.827 56.44 102.614 56.1947 102.465 55.928C102.283 56.2373 102.027 56.4933 101.697 56.696C101.377 56.8987 100.993 57 100.545 57H98.9286ZM101.009 48.136C101.009 47.88 101.099 47.6613 101.281 47.48C101.473 47.2987 101.702 47.208 101.969 47.208C102.246 47.208 102.475 47.2987 102.657 47.48C102.849 47.6613 102.945 47.88 102.945 48.136C102.945 48.392 102.849 48.6107 102.657 48.792C102.475 48.9733 102.246 49.064 101.969 49.064C101.702 49.064 101.473 48.9733 101.281 48.792C101.099 48.6107 101.009 48.392 101.009 48.136ZM104.741 57C104.581 57 104.474 56.9573 104.421 56.872C104.357 56.7867 104.325 56.6907 104.325 56.584V55.64C104.325 55.5227 104.357 55.4107 104.421 55.304C104.485 55.1973 104.591 55.144 104.741 55.144H106.629V45.544H108.437V57H104.741ZM111.067 45.544H112.875V57H111.067V45.544ZM129.591 56.552C129.591 56.6373 129.553 56.7333 129.479 56.84C129.415 56.9467 129.308 57 129.159 57H128.647C128.305 57 128.012 56.9467 127.767 56.84C127.521 56.7333 127.319 56.6 127.159 56.44C127.095 57.0373 126.94 57.576 126.695 58.056C126.449 58.536 126.129 58.9467 125.735 59.288C125.34 59.64 124.876 59.9067 124.343 60.088C123.809 60.28 123.223 60.376 122.583 60.376C121.708 60.376 120.977 60.248 120.391 59.992C119.815 59.7467 119.351 59.4213 118.999 59.016C118.657 58.6213 118.412 58.1733 118.263 57.672C118.124 57.1813 118.055 56.696 118.055 56.216C118.055 55.704 118.14 55.1867 118.311 54.664C118.492 54.1307 118.748 53.64 119.079 53.192L120.615 54.072C120.369 54.4347 120.193 54.7973 120.087 55.16C119.98 55.512 119.927 55.864 119.927 56.216C119.927 56.4507 119.964 56.7013 120.039 56.968C120.124 57.2347 120.268 57.48 120.471 57.704C120.673 57.9387 120.951 58.1307 121.303 58.28C121.655 58.44 122.103 58.52 122.647 58.52C122.999 58.52 123.335 58.472 123.655 58.376C123.985 58.28 124.273 58.1253 124.519 57.912C124.775 57.7093 124.977 57.4427 125.127 57.112C125.287 56.792 125.367 56.408 125.367 55.96V45.544H127.175V53.672C127.175 54.216 127.297 54.6 127.543 54.824C127.788 55.0373 128.14 55.144 128.599 55.144H129.159C129.319 55.144 129.425 55.1867 129.479 55.272C129.543 55.3573 129.58 55.4587 129.591 55.576V56.552ZM133.933 55.24C134.445 55.24 134.819 55.0907 135.053 54.792C135.299 54.4827 135.421 54.104 135.421 53.656C135.421 53.3787 135.379 53.128 135.293 52.904C135.208 52.68 135.096 52.488 134.957 52.328C134.829 52.168 134.675 52.0453 134.493 51.96C134.312 51.8747 134.125 51.832 133.933 51.832C133.731 51.832 133.539 51.8747 133.357 51.96C133.176 52.0453 133.016 52.168 132.877 52.328C132.749 52.488 132.643 52.68 132.557 52.904C132.483 53.128 132.445 53.3787 132.445 53.656C132.445 54.104 132.563 54.4827 132.797 54.792C133.043 55.0907 133.421 55.24 133.933 55.24ZM129.069 57C128.909 57 128.797 56.9573 128.733 56.872C128.669 56.7867 128.637 56.6907 128.637 56.584V55.64C128.637 55.5227 128.675 55.4107 128.749 55.304C128.813 55.1973 128.92 55.144 129.069 55.144H129.693C129.811 55.144 129.928 55.128 130.045 55.096C130.163 55.0533 130.264 54.9787 130.349 54.872C130.445 54.7547 130.52 54.6 130.573 54.408C130.627 54.2053 130.653 53.9493 130.653 53.64C130.653 53.128 130.733 52.6587 130.893 52.232C131.064 51.7947 131.293 51.4213 131.581 51.112C131.88 50.792 132.232 50.5413 132.637 50.36C133.043 50.1787 133.48 50.088 133.949 50.088C134.984 50.088 135.773 50.4187 136.317 51.08C136.872 51.7413 137.149 52.6693 137.149 53.864C137.149 53.96 137.16 54.0827 137.181 54.232C137.213 54.3813 137.277 54.5253 137.373 54.664C137.469 54.792 137.608 54.904 137.789 55C137.981 55.096 138.237 55.144 138.557 55.144H139.133C139.293 55.144 139.405 55.1867 139.469 55.272C139.544 55.3573 139.581 55.4587 139.581 55.576V56.552C139.581 56.6373 139.544 56.7333 139.469 56.84C139.395 56.9467 139.283 57 139.133 57H138.509C138.061 57 137.667 56.888 137.325 56.664C136.995 56.44 136.749 56.1573 136.589 55.816C136.397 56.1147 136.195 56.3493 135.981 56.52C135.768 56.6907 135.549 56.8187 135.325 56.904C135.101 56.9787 134.867 57.0267 134.621 57.048C134.376 57.0693 134.125 57.08 133.869 57.08C133.261 57.08 132.755 56.9733 132.349 56.76C131.955 56.5467 131.629 56.2693 131.373 55.928C131.224 56.2373 131.011 56.4933 130.733 56.696C130.456 56.8987 130.141 57 129.789 57H129.069ZM147.166 56.552C147.166 56.6373 147.128 56.7333 147.054 56.84C146.99 56.9467 146.878 57 146.718 57H146.414C146.072 57 145.731 56.9307 145.39 56.792C145.059 56.6533 144.787 56.488 144.574 56.296C144.382 56.5947 144.168 56.7867 143.934 56.872C143.71 56.9573 143.48 57 143.246 57H139.054C138.894 57 138.782 56.9573 138.718 56.872C138.654 56.7867 138.622 56.6907 138.622 56.584V55.64C138.622 55.5227 138.659 55.4107 138.734 55.304C138.798 55.1973 138.904 55.144 139.054 55.144H143.774C143.678 54.9733 143.587 54.7547 143.502 54.488C143.427 54.2213 143.368 53.8427 143.326 53.352C143.272 52.808 143.128 52.4293 142.894 52.216C142.67 51.992 142.371 51.88 141.998 51.88C141.784 51.88 141.512 51.9173 141.182 51.992C140.851 52.056 140.52 52.168 140.19 52.328L139.742 50.584C139.87 50.5413 140.035 50.488 140.238 50.424C140.451 50.36 140.675 50.3013 140.91 50.248C141.144 50.184 141.384 50.1307 141.63 50.088C141.886 50.0453 142.126 50.024 142.35 50.024C142.862 50.024 143.288 50.1147 143.63 50.296C143.982 50.4773 144.264 50.712 144.478 51C144.702 51.288 144.867 51.608 144.974 51.96C145.08 52.3013 145.15 52.6373 145.182 52.968C145.203 53.1813 145.235 53.416 145.278 53.672C145.331 53.9173 145.4 54.152 145.486 54.376C145.571 54.5893 145.683 54.7707 145.822 54.92C145.96 55.0693 146.136 55.144 146.35 55.144H146.718C146.888 55.144 147.006 55.1867 147.07 55.272C147.134 55.3573 147.166 55.4587 147.166 55.576V56.552ZM146.616 57C146.466 57 146.36 56.9573 146.296 56.872C146.232 56.7867 146.2 56.6907 146.2 56.584V55.64C146.2 55.5227 146.237 55.4107 146.312 55.304C146.376 55.1973 146.477 55.144 146.616 55.144H148.808V50.632H150.632V57H146.616ZM146.744 59.016C146.744 58.76 146.834 58.5413 147.016 58.36C147.197 58.1893 147.426 58.104 147.704 58.104C147.981 58.104 148.21 58.1893 148.392 58.36C148.573 58.5413 148.664 58.76 148.664 59.016C148.664 59.2827 148.573 59.5013 148.392 59.672C148.21 59.8533 147.981 59.944 147.704 59.944C147.426 59.944 147.197 59.8533 147.016 59.672C146.834 59.5013 146.744 59.2827 146.744 59.016ZM149.224 59.016C149.224 58.76 149.314 58.5413 149.496 58.36C149.677 58.1893 149.906 58.104 150.184 58.104C150.461 58.104 150.69 58.1893 150.872 58.36C151.053 58.5413 151.144 58.76 151.144 59.016C151.144 59.2827 151.053 59.5013 150.872 59.672C150.69 59.8533 150.461 59.944 150.184 59.944C149.906 59.944 149.677 59.8533 149.496 59.672C149.314 59.5013 149.224 59.2827 149.224 59.016ZM172.93 57C172.621 57 172.338 56.9307 172.082 56.792C171.826 56.6533 171.618 56.4933 171.458 56.312V56.744C171.458 57.224 171.394 57.672 171.266 58.088C171.138 58.504 170.946 58.8667 170.69 59.176C170.434 59.4853 170.12 59.7253 169.746 59.896C169.373 60.0773 168.941 60.168 168.45 60.168C168.258 60.168 168.072 60.1573 167.89 60.136C167.72 60.1253 167.57 60.1093 167.442 60.088C167.357 60.0773 167.282 60.0667 167.218 60.056C167.144 60.0453 167.074 60.0293 167.01 60.008L167.202 58.184L167.65 58.28C167.778 58.3013 167.912 58.3173 168.05 58.328C168.2 58.3493 168.333 58.36 168.45 58.36C168.92 58.36 169.234 58.2107 169.394 57.912C169.554 57.6133 169.634 57.176 169.634 56.6V50.632H171.458V53.672C171.458 54.0987 171.554 54.4507 171.746 54.728C171.949 55.0053 172.328 55.144 172.882 55.144H173.442C173.624 55.144 173.741 55.1867 173.794 55.272C173.848 55.3573 173.874 55.4587 173.874 55.576V56.552C173.874 56.6373 173.842 56.7333 173.778 56.84C173.714 56.9467 173.602 57 173.442 57H172.93ZM182.415 55.144C182.639 55.144 182.783 55.0747 182.847 54.936C182.911 54.7867 182.943 54.5573 182.943 54.248C182.943 53.48 182.756 52.8933 182.383 52.488C182.009 52.072 181.455 51.864 180.719 51.864C180.303 51.864 179.903 51.9547 179.519 52.136C179.145 52.3067 178.809 52.5467 178.511 52.856C178.223 53.1547 177.983 53.5013 177.791 53.896C177.599 54.2907 177.481 54.7067 177.439 55.144H182.415ZM173.327 57C173.156 57 173.044 56.9573 172.991 56.872C172.937 56.7867 172.911 56.6907 172.911 56.584V55.64C172.911 55.5227 172.943 55.4107 173.007 55.304C173.071 55.1973 173.177 55.144 173.327 55.144H175.583V50.616H177.407V51.96C177.791 51.4373 178.287 50.9947 178.895 50.632C179.503 50.2693 180.18 50.088 180.927 50.088C181.513 50.088 182.041 50.1893 182.511 50.392C182.991 50.5947 183.396 50.8773 183.727 51.24C184.068 51.592 184.329 52.0187 184.511 52.52C184.692 53.0107 184.783 53.544 184.783 54.12C184.783 54.4933 184.9 54.76 185.135 54.92C185.38 55.0693 185.748 55.144 186.239 55.144H186.655C186.836 55.144 186.953 55.1867 187.007 55.272C187.06 55.3573 187.087 55.4587 187.087 55.576V56.552C187.087 56.6373 187.055 56.7333 186.991 56.84C186.927 56.9467 186.815 57 186.655 57H186.207C185.748 57 185.375 56.8933 185.087 56.68C184.799 56.4667 184.58 56.2267 184.431 55.96C184.26 56.312 183.999 56.5733 183.647 56.744C183.295 56.9147 182.879 57 182.399 57H173.327ZM180.143 48.136C180.143 47.88 180.233 47.6613 180.415 47.48C180.607 47.2987 180.836 47.208 181.103 47.208C181.38 47.208 181.609 47.2987 181.791 47.48C181.983 47.6613 182.079 47.88 182.079 48.136C182.079 48.392 181.983 48.6107 181.791 48.792C181.609 48.9733 181.38 49.064 181.103 49.064C180.836 49.064 180.607 48.9733 180.415 48.792C180.233 48.6107 180.143 48.392 180.143 48.136ZM190.833 53.352C190.78 52.808 190.647 52.4293 190.433 52.216C190.22 51.992 189.911 51.88 189.505 51.88C189.281 51.88 188.999 51.9173 188.657 51.992C188.327 52.0667 188.007 52.1787 187.697 52.328L187.233 50.568C187.361 50.5147 187.527 50.456 187.729 50.392C187.932 50.328 188.145 50.2693 188.369 50.216C188.604 50.1627 188.844 50.12 189.089 50.088C189.345 50.0453 189.596 50.024 189.841 50.024C190.3 50.024 190.695 50.0987 191.025 50.248C191.367 50.3867 191.649 50.5893 191.873 50.856C192.108 51.112 192.289 51.4213 192.417 51.784C192.545 52.1467 192.636 52.5413 192.689 52.968C192.711 53.1813 192.737 53.3947 192.769 53.608C192.801 53.8107 192.855 54.0133 192.929 54.216C193.015 54.4187 193.121 54.6053 193.249 54.776C193.388 54.9467 193.564 55.096 193.777 55.224V57H186.561C186.401 57 186.289 56.9573 186.225 56.872C186.161 56.7867 186.129 56.6907 186.129 56.584V55.64C186.129 55.5227 186.167 55.4107 186.241 55.304C186.305 55.1973 186.412 55.144 186.561 55.144H191.553C191.457 55.0267 191.324 54.824 191.153 54.536C190.993 54.2373 190.887 53.8427 190.833 53.352ZM188.769 48.136C188.769 47.88 188.86 47.6613 189.041 47.48C189.233 47.2987 189.463 47.208 189.729 47.208C190.007 47.208 190.236 47.2987 190.417 47.48C190.609 47.6613 190.705 47.88 190.705 48.136C190.705 48.392 190.609 48.6107 190.417 48.792C190.236 48.9733 190.007 49.064 189.729 49.064C189.463 49.064 189.233 48.9733 189.041 48.792C188.86 48.6107 188.769 48.392 188.769 48.136ZM195.731 45.544H197.539V57H195.731V45.544ZM197.651 42.232C197.459 42.1787 197.267 42.152 197.075 42.152C196.915 42.152 196.782 42.2 196.675 42.296C196.568 42.3813 196.515 42.5147 196.515 42.696C196.515 42.856 196.584 43.0053 196.723 43.144C196.872 43.2827 197.102 43.352 197.411 43.352H197.907V44.2H195.203V43.352H195.923C195.838 43.2347 195.758 43.1067 195.683 42.968C195.608 42.8293 195.571 42.6693 195.571 42.488C195.571 42.1787 195.688 41.9067 195.923 41.672C196.158 41.4373 196.515 41.32 196.995 41.32C197.123 41.32 197.256 41.3307 197.395 41.352C197.544 41.3733 197.678 41.4 197.795 41.432L197.651 42.232ZM210.511 57C209.753 57 209.119 56.904 208.607 56.712C208.095 56.52 207.679 56.264 207.359 55.944C207.049 55.6133 206.825 55.24 206.687 54.824C206.559 54.3973 206.495 53.96 206.495 53.512C206.495 53.0427 206.585 52.6 206.767 52.184C206.948 51.7573 207.199 51.3893 207.519 51.08C207.839 50.76 208.212 50.5093 208.639 50.328C209.076 50.1467 209.545 50.056 210.047 50.056C210.505 50.056 210.916 50.136 211.279 50.296C211.652 50.4453 211.967 50.6587 212.223 50.936C212.479 51.2133 212.676 51.544 212.815 51.928C212.953 52.3013 213.023 52.7173 213.023 53.176V56.76C213.023 57.368 212.921 57.96 212.719 58.536C212.516 59.1227 212.201 59.64 211.775 60.088C211.348 60.5467 210.809 60.9147 210.159 61.192C209.508 61.4693 208.735 61.608 207.839 61.608C206.921 61.608 206.137 61.4853 205.487 61.24C204.836 60.9947 204.303 60.6747 203.887 60.28C203.481 59.896 203.183 59.464 202.991 58.984C202.809 58.504 202.719 58.0293 202.719 57.56C202.719 57.08 202.772 56.6373 202.879 56.232C202.985 55.816 203.097 55.4587 203.215 55.16C203.343 54.8507 203.46 54.6107 203.567 54.44C203.673 54.2693 203.727 54.1893 203.727 54.2L205.215 55C205.097 55.192 204.985 55.4107 204.879 55.656C204.793 55.8587 204.713 56.0827 204.639 56.328C204.575 56.5733 204.543 56.8347 204.543 57.112C204.543 57.4747 204.607 57.816 204.735 58.136C204.863 58.456 205.065 58.7333 205.343 58.968C205.62 59.2133 205.972 59.4053 206.399 59.544C206.836 59.6827 207.359 59.752 207.967 59.752C208.553 59.752 209.049 59.672 209.455 59.512C209.86 59.352 210.191 59.144 210.447 58.888C210.703 58.632 210.889 58.3387 211.007 58.008C211.135 57.6773 211.209 57.3413 211.231 57H210.511ZM211.183 55.144V53.096C211.183 52.7547 211.065 52.4613 210.831 52.216C210.596 51.96 210.271 51.832 209.855 51.832C209.663 51.832 209.476 51.8693 209.295 51.944C209.113 52.0187 208.948 52.1307 208.799 52.28C208.649 52.4187 208.527 52.5893 208.431 52.792C208.345 52.9947 208.303 53.2293 208.303 53.496C208.303 53.784 208.356 54.0347 208.463 54.248C208.58 54.4507 208.729 54.6213 208.911 54.76C209.103 54.888 209.321 54.984 209.567 55.048C209.812 55.112 210.073 55.144 210.351 55.144H211.183ZM207.839 48.136C207.839 47.88 207.929 47.6613 208.111 47.48C208.292 47.2987 208.521 47.208 208.799 47.208C209.076 47.208 209.305 47.2987 209.487 47.48C209.668 47.6613 209.759 47.88 209.759 48.136C209.759 48.392 209.668 48.6107 209.487 48.792C209.305 48.9733 209.076 49.064 208.799 49.064C208.521 49.064 208.292 48.9733 208.111 48.792C207.929 48.6107 207.839 48.392 207.839 48.136ZM210.335 48.136C210.335 47.88 210.425 47.6613 210.607 47.48C210.788 47.2987 211.017 47.208 211.295 47.208C211.572 47.208 211.801 47.2987 211.983 47.48C212.164 47.6613 212.255 47.88 212.255 48.136C212.255 48.392 212.164 48.6107 211.983 48.792C211.801 48.9733 211.572 49.064 211.295 49.064C211.017 49.064 210.788 48.9733 210.607 48.792C210.425 48.6107 210.335 48.392 210.335 48.136ZM215.325 45.544H217.149V55.144H218.237C218.408 55.144 218.525 55.1867 218.589 55.272C218.653 55.3573 218.685 55.4587 218.685 55.576V56.552C218.685 56.6373 218.648 56.7333 218.573 56.84C218.498 56.9467 218.386 57 218.237 57H215.325V45.544ZM226.283 55.144H227.835C228.006 55.144 228.118 55.1867 228.171 55.272C228.235 55.3573 228.267 55.4587 228.267 55.576V56.552C228.267 56.6373 228.23 56.7333 228.155 56.84C228.091 56.9467 227.984 57 227.835 57H218.155C217.984 57 217.872 56.9573 217.819 56.872C217.755 56.7867 217.723 56.6907 217.723 56.584V55.64C217.723 55.5227 217.76 55.4107 217.835 55.304C217.899 55.1973 218.006 55.144 218.155 55.144H220.187C220.112 55.0267 220.022 54.8347 219.915 54.568C219.819 54.2907 219.771 53.9387 219.771 53.512C219.771 53.0747 219.856 52.648 220.027 52.232C220.198 51.816 220.438 51.448 220.747 51.128C221.056 50.808 221.43 50.552 221.867 50.36C222.315 50.1573 222.806 50.056 223.339 50.056C223.787 50.056 224.192 50.1307 224.555 50.28C224.918 50.4293 225.227 50.6427 225.483 50.92C225.739 51.1867 225.936 51.512 226.075 51.896C226.214 52.28 226.283 52.7067 226.283 53.176V55.144ZM224.443 55.144V53.096C224.443 52.9467 224.416 52.7973 224.363 52.648C224.32 52.4987 224.246 52.3653 224.139 52.248C224.032 52.12 223.899 52.0187 223.739 51.944C223.579 51.8693 223.382 51.832 223.147 51.832C222.944 51.832 222.747 51.8747 222.555 51.96C222.374 52.0347 222.208 52.1467 222.059 52.296C221.92 52.4347 221.808 52.6053 221.723 52.808C221.638 53.0107 221.595 53.24 221.595 53.496C221.595 53.88 221.67 54.184 221.819 54.408C221.968 54.6213 222.134 54.7867 222.315 54.904C222.518 55.032 222.763 55.112 223.051 55.144H224.443ZM222.203 48.136C222.203 47.88 222.294 47.6613 222.475 47.48C222.667 47.2987 222.896 47.208 223.163 47.208C223.44 47.208 223.67 47.2987 223.851 47.48C224.043 47.6613 224.139 47.88 224.139 48.136C224.139 48.392 224.043 48.6107 223.851 48.792C223.67 48.9733 223.44 49.064 223.163 49.064C222.896 49.064 222.667 48.9733 222.475 48.792C222.294 48.6107 222.203 48.392 222.203 48.136ZM235.845 56.552C235.845 56.6373 235.808 56.7333 235.733 56.84C235.669 56.9467 235.557 57 235.397 57H235.093C234.752 57 234.411 56.9307 234.069 56.792C233.739 56.6533 233.467 56.488 233.253 56.296C233.061 56.5947 232.848 56.7867 232.613 56.872C232.389 56.9573 232.16 57 231.925 57H227.733C227.573 57 227.461 56.9573 227.397 56.872C227.333 56.7867 227.301 56.6907 227.301 56.584V55.64C227.301 55.5227 227.339 55.4107 227.413 55.304C227.477 55.1973 227.584 55.144 227.733 55.144H232.453C232.357 54.9733 232.267 54.7547 232.181 54.488C232.107 54.2213 232.048 53.8427 232.005 53.352C231.952 52.808 231.808 52.4293 231.573 52.216C231.349 51.992 231.051 51.88 230.677 51.88C230.464 51.88 230.192 51.9173 229.861 51.992C229.531 52.056 229.2 52.168 228.869 52.328L228.421 50.584C228.549 50.5413 228.715 50.488 228.917 50.424C229.131 50.36 229.355 50.3013 229.589 50.248C229.824 50.184 230.064 50.1307 230.309 50.088C230.565 50.0453 230.805 50.024 231.029 50.024C231.541 50.024 231.968 50.1147 232.309 50.296C232.661 50.4773 232.944 50.712 233.157 51C233.381 51.288 233.547 51.608 233.653 51.96C233.76 52.3013 233.829 52.6373 233.861 52.968C233.883 53.1813 233.915 53.416 233.957 53.672C234.011 53.9173 234.08 54.152 234.165 54.376C234.251 54.5893 234.363 54.7707 234.501 54.92C234.64 55.0693 234.816 55.144 235.029 55.144H235.397C235.568 55.144 235.685 55.1867 235.749 55.272C235.813 55.3573 235.845 55.4587 235.845 55.576V56.552ZM229.861 48.136C229.861 47.88 229.952 47.6613 230.133 47.48C230.325 47.2987 230.555 47.208 230.821 47.208C231.099 47.208 231.328 47.2987 231.509 47.48C231.701 47.6613 231.797 47.88 231.797 48.136C231.797 48.392 231.701 48.6107 231.509 48.792C231.328 48.9733 231.099 49.064 230.821 49.064C230.555 49.064 230.325 48.9733 230.133 48.792C229.952 48.6107 229.861 48.392 229.861 48.136ZM235.295 57C235.135 57 235.029 56.9573 234.975 56.872C234.911 56.7867 234.879 56.6907 234.879 56.584V55.64C234.879 55.5227 234.911 55.4107 234.975 55.304C235.039 55.1973 235.146 55.144 235.295 55.144H237.183V45.544H238.991V57H235.295ZM241.622 45.544H243.43V57H241.622V45.544ZM248.609 58.824C248.609 58.3227 248.684 57.88 248.833 57.496C248.983 57.112 249.175 56.776 249.409 56.488C249.655 56.1893 249.921 55.9333 250.209 55.72C250.508 55.5067 250.801 55.32 251.089 55.16C250.908 54.9893 250.721 54.7973 250.529 54.584C250.337 54.3707 250.156 54.152 249.985 53.928C249.815 53.704 249.665 53.4853 249.537 53.272C249.409 53.048 249.313 52.84 249.249 52.648L249.169 51.384C249.436 51.16 249.735 50.9573 250.065 50.776C250.396 50.5947 250.732 50.4453 251.073 50.328C251.415 50.2107 251.751 50.12 252.081 50.056C252.423 49.992 252.737 49.96 253.025 49.96C253.527 49.96 253.969 50.0133 254.353 50.12C254.748 50.2267 255.079 50.3707 255.345 50.552C255.623 50.7227 255.831 50.92 255.969 51.144C256.108 51.3573 256.177 51.576 256.177 51.8C256.177 51.9813 256.151 52.1947 256.097 52.44C256.055 52.6747 255.969 52.936 255.841 53.224C255.713 53.5013 255.532 53.8 255.297 54.12C255.063 54.44 254.759 54.7707 254.385 55.112C254.492 55.1333 254.625 55.144 254.785 55.144C254.956 55.144 255.175 55.144 255.441 55.144H256.737C256.887 55.144 256.993 55.1867 257.057 55.272C257.132 55.3573 257.169 55.4587 257.169 55.576V56.552C257.169 56.6373 257.132 56.7333 257.057 56.84C256.993 56.9467 256.887 57 256.737 57H255.425C254.785 57 254.22 56.9253 253.729 56.776C253.249 56.6267 252.871 56.4773 252.593 56.328C252.327 56.456 252.071 56.5947 251.825 56.744C251.58 56.8933 251.361 57.064 251.169 57.256C250.977 57.448 250.823 57.6613 250.705 57.896C250.599 58.1413 250.545 58.424 250.545 58.744C250.545 59.288 250.727 59.7253 251.089 60.056C251.463 60.3867 252.017 60.552 252.753 60.552C252.881 60.552 253.025 60.5413 253.185 60.52C253.356 60.4987 253.521 60.472 253.681 60.44C253.841 60.408 253.991 60.3707 254.129 60.328C254.279 60.296 254.396 60.264 254.481 60.232L254.737 61.896C254.652 61.9387 254.524 61.9813 254.353 62.024C254.193 62.0773 254.007 62.1253 253.793 62.168C253.58 62.2107 253.351 62.2427 253.105 62.264C252.871 62.296 252.641 62.312 252.417 62.312C251.959 62.312 251.5 62.2427 251.041 62.104C250.593 61.976 250.188 61.768 249.825 61.48C249.463 61.2027 249.169 60.8453 248.945 60.408C248.721 59.9707 248.609 59.4427 248.609 58.824ZM252.977 51.72C252.807 51.72 252.62 51.736 252.417 51.768C252.225 51.7893 252.033 51.8213 251.841 51.864C251.66 51.9067 251.484 51.96 251.313 52.024C251.153 52.088 251.015 52.1573 250.897 52.232C250.972 52.3813 251.073 52.552 251.201 52.744C251.34 52.936 251.489 53.1333 251.649 53.336C251.809 53.5387 251.98 53.736 252.161 53.928C252.353 54.1093 252.54 54.264 252.721 54.392C252.935 54.264 253.143 54.104 253.345 53.912C253.548 53.72 253.724 53.5227 253.873 53.32C254.033 53.1067 254.161 52.8987 254.257 52.696C254.353 52.4933 254.401 52.3173 254.401 52.168C254.401 52.0827 254.359 52.0133 254.273 51.96C254.199 51.896 254.092 51.848 253.953 51.816C253.815 51.784 253.66 51.7627 253.489 51.752C253.319 51.7307 253.148 51.72 252.977 51.72ZM264.832 57H256.639C256.479 57 256.367 56.9573 256.303 56.872C256.239 56.7867 256.207 56.6907 256.207 56.584V55.64C256.207 55.5227 256.245 55.4107 256.319 55.304C256.383 55.1973 256.49 55.144 256.639 55.144H258.736C258.65 55.0267 258.56 54.8347 258.464 54.568C258.368 54.2907 258.32 53.9387 258.32 53.512C258.32 53.0747 258.405 52.648 258.576 52.232C258.746 51.816 258.986 51.448 259.296 51.128C259.605 50.808 259.978 50.552 260.416 50.36C260.853 50.1573 261.338 50.056 261.872 50.056C262.33 50.056 262.741 50.1307 263.104 50.28C263.466 50.4293 263.776 50.6427 264.032 50.92C264.288 51.1867 264.485 51.512 264.624 51.896C264.762 52.28 264.832 52.7067 264.832 53.176V57ZM262.992 55.144V53.096C262.992 52.9467 262.965 52.7973 262.912 52.648C262.869 52.4987 262.794 52.3653 262.688 52.248C262.581 52.12 262.442 52.0187 262.272 51.944C262.112 51.8693 261.92 51.832 261.696 51.832C261.493 51.832 261.296 51.8747 261.104 51.96C260.922 52.0347 260.757 52.1467 260.608 52.296C260.469 52.4347 260.352 52.6053 260.256 52.808C260.17 53.0107 260.128 53.24 260.128 53.496C260.128 53.88 260.202 54.184 260.352 54.408C260.512 54.6213 260.682 54.7867 260.864 54.904C261.066 55.032 261.312 55.112 261.6 55.144H262.992ZM260.88 48.136C260.88 47.88 260.97 47.6613 261.152 47.48C261.344 47.2987 261.573 47.208 261.84 47.208C262.117 47.208 262.346 47.2987 262.528 47.48C262.72 47.6613 262.816 47.88 262.816 48.136C262.816 48.392 262.72 48.6107 262.528 48.792C262.346 48.9733 262.117 49.064 261.84 49.064C261.573 49.064 261.344 48.9733 261.152 48.792C260.97 48.6107 260.88 48.392 260.88 48.136ZM270.161 56.744C270.161 57.224 270.097 57.672 269.969 58.088C269.841 58.504 269.649 58.8667 269.393 59.176C269.137 59.4853 268.822 59.7253 268.449 59.896C268.076 60.0773 267.644 60.168 267.153 60.168C266.95 60.168 266.764 60.1573 266.593 60.136C266.422 60.1253 266.273 60.1093 266.145 60.088C266.07 60.0773 266.001 60.0667 265.937 60.056C265.862 60.0453 265.788 60.0293 265.713 60.008L265.921 58.184L266.369 58.28C266.497 58.3013 266.63 58.3173 266.769 58.328C266.908 58.3493 267.036 58.36 267.153 58.36C267.622 58.36 267.937 58.2107 268.097 57.912C268.257 57.6133 268.337 57.176 268.337 56.6V50.632H270.161V56.744ZM272.559 45.544H274.367V57H272.559V45.544ZM280.043 57C279.382 57 278.822 56.9093 278.363 56.728C277.915 56.536 277.547 56.2907 277.259 55.992C276.982 55.6827 276.779 55.336 276.651 54.952C276.523 54.568 276.459 54.1787 276.459 53.784C276.459 53.2827 276.539 52.808 276.699 52.36C276.87 51.9013 277.104 51.5013 277.403 51.16C277.702 50.8187 278.059 50.552 278.475 50.36C278.891 50.1573 279.35 50.056 279.851 50.056C280.32 50.056 280.742 50.136 281.115 50.296C281.499 50.4453 281.824 50.664 282.091 50.952C282.358 51.2293 282.56 51.5653 282.699 51.96C282.848 52.344 282.923 52.7707 282.923 53.24V56.76C282.923 57.432 282.822 58.0027 282.619 58.472C282.416 58.952 282.128 59.336 281.755 59.624C281.392 59.9227 280.955 60.1413 280.443 60.28C279.942 60.4187 279.387 60.488 278.779 60.488C278.555 60.488 278.304 60.4773 278.027 60.456C277.76 60.4453 277.462 60.4133 277.131 60.36L277.259 58.568C277.568 58.6107 277.862 58.6427 278.139 58.664C278.427 58.6853 278.667 58.696 278.859 58.696C279.158 58.696 279.44 58.6747 279.707 58.632C279.974 58.5893 280.208 58.504 280.411 58.376C280.614 58.2587 280.779 58.088 280.907 57.864C281.035 57.6507 281.11 57.3627 281.131 57H280.043ZM281.115 55.144V53.72C281.115 53.112 280.992 52.648 280.747 52.328C280.512 51.9973 280.182 51.832 279.755 51.832C279.563 51.832 279.376 51.8747 279.195 51.96C279.024 52.0347 278.864 52.1467 278.715 52.296C278.576 52.4347 278.464 52.6053 278.379 52.808C278.294 53.0107 278.251 53.24 278.251 53.496C278.251 53.7947 278.299 54.0507 278.395 54.264C278.491 54.4667 278.619 54.6373 278.779 54.776C278.939 54.904 279.126 55 279.339 55.064C279.552 55.1173 279.771 55.144 279.995 55.144H281.115ZM130.827 102V99.088C130.827 98.7253 130.79 98.4373 130.715 98.224C130.651 98 130.545 97.8293 130.395 97.712C130.257 97.5947 130.075 97.52 129.851 97.488C129.638 97.4453 129.387 97.424 129.099 97.424H128.955V100.8C128.955 101.44 128.849 102.037 128.635 102.592C128.422 103.157 128.091 103.648 127.643 104.064C127.195 104.48 126.625 104.811 125.931 105.056C125.238 105.301 124.417 105.424 123.467 105.424C122.603 105.424 121.862 105.296 121.243 105.04C120.625 104.784 120.118 104.453 119.723 104.048C119.329 103.653 119.035 103.205 118.843 102.704C118.662 102.203 118.571 101.701 118.571 101.2C118.571 100.624 118.667 100.091 118.859 99.6C119.062 99.1093 119.318 98.64 119.627 98.192L121.131 99.072C120.886 99.4347 120.705 99.792 120.587 100.144C120.481 100.485 120.427 100.8 120.427 101.088C120.427 101.44 120.497 101.76 120.635 102.048C120.774 102.347 120.977 102.603 121.243 102.816C121.521 103.029 121.857 103.195 122.251 103.312C122.657 103.44 123.115 103.504 123.627 103.504C124.139 103.504 124.609 103.451 125.035 103.344C125.462 103.248 125.83 103.099 126.139 102.896C126.459 102.704 126.705 102.459 126.875 102.16C127.046 101.872 127.131 101.541 127.131 101.168V95.632H129.355C130.486 95.632 131.318 95.904 131.851 96.448C132.385 96.992 132.651 97.8133 132.651 98.912V100.144H133.675C133.825 100.144 133.931 100.187 133.995 100.272C134.07 100.357 134.107 100.459 134.107 100.576V101.552C134.107 101.637 134.07 101.733 133.995 101.84C133.931 101.947 133.825 102 133.675 102H130.827ZM121.403 107.056C121.403 106.8 121.494 106.581 121.675 106.4C121.857 106.229 122.086 106.144 122.363 106.144C122.641 106.144 122.87 106.229 123.051 106.4C123.233 106.581 123.323 106.8 123.323 107.056C123.323 107.323 123.233 107.541 123.051 107.712C122.87 107.893 122.641 107.984 122.363 107.984C122.086 107.984 121.857 107.893 121.675 107.712C121.494 107.541 121.403 107.323 121.403 107.056ZM123.883 107.056C123.883 106.8 123.974 106.581 124.155 106.4C124.337 106.229 124.566 106.144 124.843 106.144C125.121 106.144 125.35 106.229 125.531 106.4C125.713 106.581 125.803 106.8 125.803 107.056C125.803 107.323 125.713 107.541 125.531 107.712C125.35 107.893 125.121 107.984 124.843 107.984C124.566 107.984 124.337 107.893 124.155 107.712C123.974 107.541 123.883 107.323 123.883 107.056ZM133.585 102C133.403 102 133.286 101.957 133.233 101.872C133.179 101.787 133.153 101.691 133.153 101.584V100.64C133.153 100.523 133.19 100.411 133.265 100.304C133.329 100.197 133.435 100.144 133.585 100.144H135.121C135.355 100.144 135.51 100.069 135.585 99.92C135.67 99.7707 135.713 99.568 135.713 99.312V95.632H137.537V98.672C137.537 99.0987 137.638 99.4507 137.841 99.728C138.043 100.005 138.411 100.144 138.945 100.144H139.505C139.686 100.144 139.803 100.187 139.857 100.272C139.91 100.357 139.937 100.459 139.937 100.576V101.552C139.937 101.637 139.899 101.733 139.825 101.84C139.761 101.947 139.654 102 139.505 102H138.897C138.427 102 138.049 101.888 137.761 101.664C137.483 101.44 137.27 101.195 137.121 100.928C136.939 101.237 136.683 101.493 136.353 101.696C136.033 101.899 135.649 102 135.201 102H133.585ZM135.665 93.136C135.665 92.88 135.755 92.6613 135.937 92.48C136.129 92.2987 136.358 92.208 136.625 92.208C136.902 92.208 137.131 92.2987 137.313 92.48C137.505 92.6613 137.601 92.88 137.601 93.136C137.601 93.392 137.505 93.6107 137.313 93.792C137.131 93.9733 136.902 94.064 136.625 94.064C136.358 94.064 136.129 93.9733 135.937 93.792C135.755 93.6107 135.665 93.392 135.665 93.136ZM148.805 99.232C148.805 98.784 148.757 98.4107 148.661 98.112C148.565 97.8027 148.426 97.5573 148.245 97.376C148.074 97.1947 147.861 97.0667 147.605 96.992C147.36 96.9067 147.088 96.864 146.789 96.864C146.437 96.864 146.08 96.944 145.717 97.104C145.354 97.2533 145.018 97.472 144.709 97.76C144.4 98.0373 144.133 98.3787 143.909 98.784C143.696 99.1893 143.557 99.6427 143.493 100.144H148.805V99.232ZM139.413 102C139.253 102 139.141 101.957 139.077 101.872C139.013 101.787 138.981 101.691 138.981 101.584V100.64C138.981 100.523 139.018 100.411 139.093 100.304C139.157 100.197 139.264 100.144 139.413 100.144H141.621V90.544H143.461V96.96C143.909 96.352 144.448 95.888 145.077 95.568C145.706 95.248 146.346 95.088 146.997 95.088C147.594 95.088 148.117 95.1893 148.565 95.392C149.024 95.5947 149.408 95.8773 149.717 96.24C150.026 96.592 150.256 97.0133 150.405 97.504C150.565 97.9947 150.645 98.528 150.645 99.104V102H139.413ZM157.326 100.144V98.72C157.326 98.112 157.203 97.648 156.958 97.328C156.723 96.9973 156.392 96.832 155.966 96.832C155.774 96.832 155.587 96.8747 155.406 96.96C155.235 97.0347 155.08 97.1467 154.942 97.296C154.803 97.4347 154.691 97.6053 154.606 97.808C154.52 98.0107 154.478 98.24 154.478 98.496C154.478 98.7947 154.526 99.0507 154.622 99.264C154.718 99.4667 154.846 99.6373 155.006 99.776C155.166 99.904 155.347 100 155.55 100.064C155.763 100.117 155.982 100.144 156.206 100.144H157.326ZM159.134 102C159.102 102.619 158.979 103.147 158.766 103.584C158.552 104.032 158.264 104.395 157.902 104.672C157.539 104.949 157.112 105.152 156.622 105.28C156.131 105.419 155.592 105.488 155.006 105.488C154.76 105.488 154.504 105.477 154.238 105.456C153.971 105.445 153.678 105.413 153.358 105.36L153.486 103.568C153.795 103.611 154.088 103.643 154.366 103.664C154.643 103.685 154.883 103.696 155.086 103.696C155.384 103.696 155.667 103.675 155.934 103.632C156.2 103.589 156.435 103.504 156.638 103.376C156.851 103.259 157.016 103.088 157.134 102.864C157.262 102.651 157.331 102.363 157.342 102H156.27C155.608 102 155.048 101.909 154.59 101.728C154.142 101.536 153.774 101.291 153.486 100.992C153.208 100.683 153.006 100.336 152.878 99.952C152.75 99.568 152.686 99.1787 152.686 98.784C152.686 98.2827 152.766 97.808 152.926 97.36C153.096 96.9013 153.331 96.5013 153.63 96.16C153.928 95.8187 154.28 95.552 154.686 95.36C155.102 95.1573 155.56 95.056 156.062 95.056C156.542 95.056 156.968 95.136 157.342 95.296C157.726 95.4453 158.051 95.664 158.318 95.952C158.584 96.2293 158.787 96.5653 158.926 96.96C159.064 97.344 159.134 97.7707 159.134 98.24V100.144H160.702C160.872 100.144 160.99 100.187 161.054 100.272C161.118 100.357 161.15 100.459 161.15 100.576V101.552C161.15 101.637 161.112 101.733 161.038 101.84C160.974 101.947 160.862 102 160.702 102H159.134ZM165.512 100.24C166.013 100.24 166.381 100.085 166.616 99.776C166.861 99.4667 166.984 99.0933 166.984 98.656C166.984 98.3787 166.941 98.128 166.856 97.904C166.771 97.68 166.659 97.488 166.52 97.328C166.392 97.168 166.237 97.0453 166.056 96.96C165.885 96.8747 165.704 96.832 165.512 96.832C165.309 96.832 165.117 96.8747 164.936 96.96C164.755 97.0453 164.595 97.168 164.456 97.328C164.328 97.488 164.221 97.68 164.136 97.904C164.061 98.128 164.024 98.3787 164.024 98.656C164.024 99.0827 164.136 99.456 164.36 99.776C164.595 100.085 164.979 100.24 165.512 100.24ZM160.616 102C160.456 102 160.344 101.957 160.28 101.872C160.216 101.787 160.184 101.691 160.184 101.584V100.64C160.184 100.523 160.221 100.411 160.296 100.304C160.36 100.197 160.467 100.144 160.616 100.144H161.24C161.901 100.144 162.232 99.6427 162.232 98.64C162.232 98.128 162.312 97.6533 162.472 97.216C162.643 96.7787 162.877 96.4053 163.176 96.096C163.475 95.776 163.821 95.5307 164.216 95.36C164.621 95.1787 165.064 95.088 165.544 95.088C166.077 95.088 166.541 95.1787 166.936 95.36C167.341 95.5413 167.672 95.792 167.928 96.112C168.195 96.432 168.392 96.816 168.52 97.264C168.648 97.712 168.712 98.2027 168.712 98.736C168.712 99.152 168.653 99.5573 168.536 99.952C168.429 100.347 168.248 100.699 167.992 101.008C167.736 101.307 167.405 101.547 167 101.728C166.605 101.909 166.12 102 165.544 102C165.309 102 165.075 101.989 164.84 101.968C164.605 101.936 164.371 101.883 164.136 101.808C163.912 101.723 163.693 101.611 163.48 101.472C163.277 101.323 163.091 101.136 162.92 100.912C162.76 101.285 162.536 101.563 162.248 101.744C161.971 101.915 161.672 102 161.352 102H160.616ZM170.833 90.544H172.657V100.144H173.745C173.915 100.144 174.033 100.187 174.097 100.272C174.161 100.357 174.193 100.459 174.193 100.576V101.552C174.193 101.637 174.155 101.733 174.081 101.84C174.006 101.947 173.894 102 173.745 102H170.833V90.544ZM173.647 102C173.498 102 173.391 101.957 173.327 101.872C173.263 101.787 173.231 101.691 173.231 101.584V100.64C173.231 100.523 173.268 100.411 173.343 100.304C173.407 100.197 173.508 100.144 173.647 100.144H175.839V95.632H177.663V102H173.647ZM173.775 104.016C173.775 103.76 173.866 103.541 174.047 103.36C174.228 103.189 174.458 103.104 174.735 103.104C175.012 103.104 175.242 103.189 175.423 103.36C175.604 103.541 175.695 103.76 175.695 104.016C175.695 104.283 175.604 104.501 175.423 104.672C175.242 104.853 175.012 104.944 174.735 104.944C174.458 104.944 174.228 104.853 174.047 104.672C173.866 104.501 173.775 104.283 173.775 104.016ZM176.255 104.016C176.255 103.76 176.346 103.541 176.527 103.36C176.708 103.189 176.938 103.104 177.215 103.104C177.492 103.104 177.722 103.189 177.903 103.36C178.084 103.541 178.175 103.76 178.175 104.016C178.175 104.283 178.084 104.501 177.903 104.672C177.722 104.853 177.492 104.944 177.215 104.944C176.938 104.944 176.708 104.853 176.527 104.672C176.346 104.501 176.255 104.283 176.255 104.016ZM201.962 102C201.652 102 201.37 101.931 201.114 101.792C200.858 101.653 200.65 101.493 200.49 101.312V101.744C200.49 102.224 200.426 102.672 200.298 103.088C200.17 103.504 199.978 103.867 199.722 104.176C199.466 104.485 199.151 104.725 198.778 104.896C198.404 105.077 197.972 105.168 197.482 105.168C197.29 105.168 197.103 105.157 196.922 105.136C196.751 105.125 196.602 105.109 196.474 105.088C196.388 105.077 196.314 105.067 196.25 105.056C196.175 105.045 196.106 105.029 196.042 105.008L196.234 103.184L196.682 103.28C196.81 103.301 196.943 103.317 197.082 103.328C197.231 103.349 197.364 103.36 197.482 103.36C197.951 103.36 198.266 103.211 198.426 102.912C198.586 102.613 198.666 102.176 198.666 101.6V95.632H200.49V98.672C200.49 99.0987 200.586 99.4507 200.778 99.728C200.98 100.005 201.359 100.144 201.914 100.144H202.474C202.655 100.144 202.772 100.187 202.826 100.272C202.879 100.357 202.906 100.459 202.906 100.576V101.552C202.906 101.637 202.874 101.733 202.81 101.84C202.746 101.947 202.634 102 202.474 102H201.962ZM202.374 102C202.193 102 202.075 101.957 202.022 101.872C201.969 101.787 201.942 101.691 201.942 101.584V100.64C201.942 100.523 201.979 100.411 202.054 100.304C202.118 100.197 202.225 100.144 202.374 100.144H203.91C204.145 100.144 204.299 100.069 204.374 99.92C204.459 99.7707 204.502 99.568 204.502 99.312V95.632H206.326V98.672C206.326 99.0987 206.427 99.4507 206.63 99.728C206.833 100.005 207.201 100.144 207.734 100.144H208.294C208.475 100.144 208.593 100.187 208.646 100.272C208.699 100.357 208.726 100.459 208.726 100.576V101.552C208.726 101.637 208.689 101.733 208.614 101.84C208.55 101.947 208.443 102 208.294 102H207.686C207.217 102 206.838 101.888 206.55 101.664C206.273 101.44 206.059 101.195 205.91 100.928C205.729 101.237 205.473 101.493 205.142 101.696C204.822 101.899 204.438 102 203.99 102H202.374ZM204.294 104.016C204.294 103.76 204.385 103.541 204.566 103.36C204.758 103.189 204.993 103.104 205.27 103.104C205.537 103.104 205.761 103.189 205.942 103.36C206.134 103.541 206.23 103.76 206.23 104.016C206.23 104.283 206.134 104.501 205.942 104.672C205.761 104.853 205.537 104.944 205.27 104.944C204.993 104.944 204.758 104.853 204.566 104.672C204.385 104.501 204.294 104.283 204.294 104.016ZM208.202 102C208.042 102 207.93 101.957 207.866 101.872C207.802 101.787 207.77 101.691 207.77 101.584V100.64C207.77 100.523 207.807 100.411 207.882 100.304C207.946 100.197 208.053 100.144 208.202 100.144H213.13V98.624C213.13 98.24 213.077 97.9413 212.97 97.728C212.874 97.504 212.741 97.3387 212.57 97.232C212.399 97.1147 212.197 97.0453 211.962 97.024C211.738 96.992 211.498 96.976 211.242 96.976H209.306V95.36L212.41 90.432L213.914 91.44L211.466 95.2H211.626C212.053 95.2 212.469 95.248 212.874 95.344C213.279 95.44 213.631 95.6107 213.93 95.856C214.239 96.1013 214.485 96.4373 214.666 96.864C214.858 97.2907 214.954 97.8293 214.954 98.48V102H208.202ZM217.215 90.544H219.023V102H217.215V90.544ZM219.135 87.232C218.943 87.1787 218.751 87.152 218.559 87.152C218.399 87.152 218.266 87.2 218.159 87.296C218.053 87.3813 217.999 87.5147 217.999 87.696C217.999 87.856 218.069 88.0053 218.207 88.144C218.357 88.2827 218.586 88.352 218.895 88.352H219.391V89.2H216.687V88.352H217.407C217.322 88.2347 217.242 88.1067 217.167 87.968C217.093 87.8293 217.055 87.6693 217.055 87.488C217.055 87.1787 217.173 86.9067 217.407 86.672C217.642 86.4373 217.999 86.32 218.479 86.32C218.607 86.32 218.741 86.3307 218.879 86.352C219.029 86.3733 219.162 86.4 219.279 86.432L219.135 87.232ZM228.859 100.144V98.72C228.859 98.112 228.742 97.648 228.507 97.328C228.283 96.9973 227.947 96.832 227.499 96.832C227.307 96.832 227.12 96.8747 226.939 96.96C226.768 97.0347 226.614 97.1467 226.475 97.296C226.336 97.4347 226.224 97.6053 226.139 97.808C226.054 98.0107 226.011 98.24 226.011 98.496C226.011 98.7947 226.059 99.0507 226.155 99.264C226.251 99.4667 226.379 99.6373 226.539 99.776C226.699 99.904 226.88 100 227.083 100.064C227.296 100.117 227.515 100.144 227.739 100.144H228.859ZM227.787 102C227.136 102 226.582 101.909 226.123 101.728C225.675 101.536 225.307 101.291 225.019 100.992C224.731 100.683 224.523 100.336 224.395 99.952C224.267 99.568 224.203 99.1787 224.203 98.784C224.203 98.2827 224.288 97.808 224.459 97.36C224.63 96.9013 224.864 96.5013 225.163 96.16C225.462 95.8187 225.819 95.552 226.235 95.36C226.651 95.1573 227.11 95.056 227.611 95.056C228.07 95.056 228.486 95.136 228.859 95.296C229.243 95.4453 229.568 95.664 229.835 95.952C230.112 96.2293 230.32 96.5653 230.459 96.96C230.608 97.344 230.683 97.7707 230.683 98.24V100.144H231.819C231.968 100.144 232.075 100.187 232.139 100.272C232.214 100.357 232.251 100.459 232.251 100.576V101.552C232.251 101.637 232.214 101.733 232.139 101.84C232.075 101.947 231.968 102 231.819 102H227.787ZM231.718 102C231.536 102 231.419 101.957 231.366 101.872C231.312 101.787 231.286 101.691 231.286 101.584V100.64C231.286 100.523 231.323 100.411 231.398 100.304C231.462 100.197 231.568 100.144 231.718 100.144H233.254C233.488 100.144 233.643 100.069 233.718 99.92C233.803 99.7707 233.846 99.568 233.846 99.312V90.544H235.686V98.672C235.686 99.0987 235.782 99.4507 235.974 99.728C236.176 100.005 236.55 100.144 237.094 100.144H237.654C237.835 100.144 237.952 100.187 238.006 100.272C238.059 100.357 238.086 100.459 238.086 100.576V101.552C238.086 101.637 238.048 101.733 237.974 101.84C237.91 101.947 237.803 102 237.654 102H237.03C236.571 102 236.198 101.893 235.91 101.68C235.632 101.456 235.419 101.211 235.27 100.944C235.088 101.296 234.832 101.563 234.502 101.744C234.171 101.915 233.782 102 233.334 102H231.718ZM237.545 102C237.385 102 237.279 101.957 237.225 101.872C237.161 101.787 237.129 101.691 237.129 101.584V100.64C237.129 100.523 237.161 100.411 237.225 100.304C237.289 100.197 237.396 100.144 237.545 100.144H239.433V90.544H241.241V102H237.545ZM243.872 90.544H245.68V102H243.872V90.544ZM259.355 101.824C259.355 101.611 259.259 101.397 259.067 101.184C258.875 100.971 258.657 100.757 258.411 100.544C258.23 100.384 258.043 100.213 257.851 100.032C257.67 99.8507 257.505 99.6587 257.355 99.456C257.206 99.2427 257.083 99.0187 256.987 98.784C256.891 98.5387 256.843 98.272 256.843 97.984C256.843 97.4827 256.939 97.0507 257.131 96.688C257.334 96.3253 257.59 96.0267 257.899 95.792C258.219 95.5573 258.566 95.3867 258.939 95.28C259.323 95.1627 259.697 95.104 260.059 95.104C260.305 95.104 260.545 95.1253 260.779 95.168C261.014 95.2 261.227 95.2427 261.419 95.296C261.633 95.3387 261.846 95.4027 262.059 95.488L261.627 97.312C261.393 97.1947 261.121 97.104 260.811 97.04C260.502 96.9653 260.193 96.928 259.883 96.928C259.542 96.928 259.254 97.0027 259.019 97.152C258.795 97.3013 258.683 97.5093 258.683 97.776C258.683 98 258.79 98.2347 259.003 98.48C259.217 98.7147 259.462 98.9547 259.739 99.2C259.921 99.36 260.102 99.5307 260.283 99.712C260.465 99.8827 260.625 100.064 260.763 100.256C260.913 100.448 261.03 100.651 261.115 100.864C261.201 101.077 261.243 101.307 261.243 101.552C261.243 101.968 261.137 102.4 260.923 102.848C260.71 103.307 260.379 103.728 259.931 104.112C259.483 104.496 258.913 104.811 258.219 105.056C257.526 105.301 256.705 105.424 255.755 105.424C254.891 105.424 254.15 105.296 253.531 105.04C252.913 104.784 252.406 104.453 252.011 104.048C251.617 103.653 251.323 103.205 251.131 102.704C250.95 102.203 250.859 101.701 250.859 101.2C250.859 100.624 250.961 100.091 251.163 99.6C251.366 99.1093 251.622 98.64 251.931 98.192L253.435 99.072C253.19 99.4347 253.009 99.792 252.891 100.144C252.785 100.485 252.731 100.8 252.731 101.088C252.731 101.44 252.801 101.76 252.939 102.048C253.078 102.347 253.281 102.603 253.547 102.816C253.825 103.029 254.161 103.195 254.555 103.312C254.95 103.44 255.409 103.504 255.931 103.504C256.433 103.504 256.891 103.451 257.307 103.344C257.734 103.237 258.097 103.104 258.395 102.944C258.705 102.784 258.939 102.603 259.099 102.4C259.27 102.208 259.355 102.016 259.355 101.824ZM253.931 107.28C253.931 107.024 254.022 106.805 254.203 106.624C254.385 106.453 254.614 106.368 254.891 106.368C255.169 106.368 255.398 106.453 255.579 106.624C255.761 106.805 255.851 107.024 255.851 107.28C255.851 107.547 255.761 107.765 255.579 107.936C255.398 108.117 255.169 108.208 254.891 108.208C254.614 108.208 254.385 108.117 254.203 107.936C254.022 107.765 253.931 107.547 253.931 107.28ZM256.411 107.28C256.411 107.024 256.502 106.805 256.683 106.624C256.865 106.453 257.094 106.368 257.371 106.368C257.649 106.368 257.878 106.453 258.059 106.624C258.241 106.805 258.331 107.024 258.331 107.28C258.331 107.547 258.241 107.765 258.059 107.936C257.878 108.117 257.649 108.208 257.371 108.208C257.094 108.208 256.865 108.117 256.683 107.936C256.502 107.765 256.411 107.547 256.411 107.28ZM263.42 102V100.144H267.788V98.528C267.788 98.1653 267.745 97.872 267.66 97.648C267.575 97.424 267.447 97.248 267.276 97.12C267.116 96.992 266.913 96.9067 266.668 96.864C266.433 96.8213 266.167 96.8 265.868 96.8H264.316V95.024H266.236C266.673 95.024 267.095 95.0667 267.5 95.152C267.916 95.2373 268.279 95.4027 268.588 95.648C268.908 95.8933 269.159 96.2347 269.34 96.672C269.532 97.1093 269.628 97.68 269.628 98.384V102H263.42ZM271.295 102V100.144H275.663V98.528C275.663 98.1653 275.62 97.872 275.535 97.648C275.45 97.424 275.322 97.248 275.151 97.12C274.991 96.992 274.788 96.9067 274.543 96.864C274.308 96.8213 274.042 96.8 273.743 96.8H272.191V95.024H274.111C274.548 95.024 274.97 95.0667 275.375 95.152C275.791 95.2373 276.154 95.4027 276.463 95.648C276.783 95.8933 277.034 96.2347 277.215 96.672C277.407 97.1093 277.503 97.68 277.503 98.384V102H271.295ZM282.786 101.744C282.786 102.224 282.722 102.672 282.594 103.088C282.466 103.504 282.274 103.867 282.018 104.176C281.762 104.485 281.447 104.725 281.074 104.896C280.701 105.077 280.269 105.168 279.778 105.168C279.575 105.168 279.389 105.157 279.218 105.136C279.047 105.125 278.898 105.109 278.77 105.088C278.695 105.077 278.626 105.067 278.562 105.056C278.487 105.045 278.413 105.029 278.338 105.008L278.546 103.184L278.994 103.28C279.122 103.301 279.255 103.317 279.394 103.328C279.533 103.349 279.661 103.36 279.778 103.36C280.247 103.36 280.562 103.211 280.722 102.912C280.882 102.613 280.962 102.176 280.962 101.6V95.632H282.786V101.744Z" fill="#43515F"/>
<path d="M3.23297 12H0.792969L2.49297 6.72H4.63297L3.23297 12ZM142.526 12H139.598L141.638 5.664H144.206L142.526 12ZM19.3468 57H16.4188L18.4588 50.664H21.0268L19.3468 57ZM159.98 57H157.052L159.092 50.664H161.66L159.98 57ZM187.011 102H184.083L186.123 95.664H188.691L187.011 102Z" fill="#A84720"/>
</svg>
