<svg width="23" height="24" viewBox="0 0 23 24" fill="none" xmlns="http://www.w3.org/2000/svg">
<path d="M9.31111 0.998689C8.83116 1.00282 8.37216 1.15572 8.03507 1.42375C7.69798 1.69177 7.51042 2.05297 7.51365 2.42788C7.51688 2.80279 7.71063 3.1607 8.05229 3.42287C8.39395 3.68505 8.85552 3.83001 9.33547 3.82588L12.9548 3.79469C13.4347 3.79056 13.8937 3.63766 14.2308 3.36963C14.5679 3.10161 14.7555 2.74041 14.7522 2.3655C14.749 1.99059 14.5552 1.63268 14.2136 1.37051C13.8719 1.10833 13.4103 0.963366 12.9304 0.967502L9.31111 0.998689Z" fill="#758BA0"/>
<path fill-rule="evenodd" clip-rule="evenodd" d="M0.299508 5.31745C0.293047 4.56764 0.668167 3.84524 1.34235 3.30919C2.01653 2.77315 2.93454 2.46735 3.89444 2.45908C3.90413 3.5838 4.4854 4.65753 5.51038 5.44406C6.53535 6.23059 7.92007 6.66549 9.35992 6.65308L12.9792 6.62189C14.419 6.60949 15.7961 6.15079 16.8073 5.34672C17.8186 4.54264 18.3813 3.45906 18.3716 2.33433C19.3315 2.32606 20.2546 2.61599 20.938 3.14034C21.6213 3.66469 22.0088 4.38051 22.0153 5.13033L22.1492 20.6799C22.1557 21.4297 21.7806 22.1521 21.1064 22.6881C20.4322 23.2242 19.5142 23.53 18.5543 23.5382L4.07715 23.663C3.11725 23.6713 2.19411 23.3813 1.51079 22.857C0.827471 22.3326 0.439958 21.6168 0.433497 20.867L0.299508 5.31745ZM5.77717 10.9251C5.29722 10.9292 4.83821 11.0821 4.50112 11.3501C4.16403 11.6181 3.97647 11.9793 3.9797 12.3542C3.98293 12.7291 4.17669 13.0871 4.51835 13.3492C4.86001 13.6114 5.32158 13.7564 5.80153 13.7522L5.81963 13.7521C6.29957 13.7479 6.75858 13.5951 7.09567 13.327C7.43276 13.059 7.62032 12.6978 7.61709 12.3229C7.61386 11.948 7.4201 11.5901 7.07844 11.3279C6.73679 11.0657 6.27521 10.9208 5.79526 10.9249L5.77717 10.9251ZM11.2061 10.8783C10.7262 10.8824 10.2671 11.0353 9.93006 11.3033C9.59297 11.5714 9.40541 11.9325 9.40864 12.3075C9.41187 12.6824 9.60563 13.0403 9.94728 13.3025C10.2889 13.5646 10.7505 13.7096 11.2305 13.7055L16.6594 13.6587C17.1393 13.6545 17.5984 13.5016 17.9354 13.2336C18.2725 12.9656 18.4601 12.6044 18.4569 12.2295C18.4536 11.8546 18.2599 11.4967 17.9182 11.2345C17.5766 10.9723 17.115 10.8274 16.635 10.8315L11.2061 10.8783ZM5.82589 16.5794C5.34594 16.5836 4.88694 16.7365 4.54985 17.0045C4.21276 17.2725 4.0252 17.6337 4.02843 18.0086C4.03166 18.3835 4.22541 18.7414 4.56707 19.0036C4.90873 19.2658 5.3703 19.4108 5.85025 19.4066L5.86835 19.4065C6.3483 19.4023 6.8073 19.2494 7.14439 18.9814C7.48148 18.7134 7.66904 18.3522 7.66581 17.9773C7.66258 17.6024 7.46883 17.2445 7.12717 16.9823C6.78551 16.7201 6.32394 16.5751 5.84399 16.5793L5.82589 16.5794ZM11.2548 16.5326C10.7749 16.5368 10.3159 16.6897 9.97878 16.9577C9.64169 17.2257 9.45413 17.5869 9.45736 17.9618C9.46059 18.3367 9.65435 18.6947 9.99601 18.9568C10.3377 19.219 10.7992 19.364 11.2792 19.3598L16.7081 19.3131C17.1881 19.3089 17.6471 19.156 17.9842 18.888C18.3213 18.62 18.5088 18.2588 18.5056 17.8839C18.5024 17.509 18.3086 17.151 17.9669 16.8889C17.6253 16.6267 17.1637 16.4817 16.6838 16.4859L11.2548 16.5326Z" fill="#758BA0"/>
</svg>
