<svg width="102" height="99" viewBox="0 0 102 99" fill="none" xmlns="http://www.w3.org/2000/svg">
<path d="M101.051 79.3638L81.7137 78.2366L77.3616 98.21L46.3089 58.7998L69.9987 39.9537L101.051 79.3638Z" fill="#EBEBEB"/>
<path d="M0.0515302 79.0892L19.3948 78.0672L23.6383 98.0639L54.9047 58.8232L31.318 39.8485L0.0515302 79.0892Z" fill="#EBEBEB"/>
<path d="M50.8989 4.80784L57.9648 0.202261L62.3795 7.15145L70.6462 5.63239L71.6317 13.7285L80.0905 15.6783L77.4494 23.572L84.288 28.4079L78.6286 34.559L82.8413 41.7003L74.9724 45.1475L75.7564 53.243L67.2918 53.4127L64.4495 61.113L56.5984 58.0084L50.7381 63.9662L44.9099 57.9767L37.0421 61.0385L34.2417 53.3229L25.7782 53.1071L26.6064 45.016L18.7564 41.526L23.0078 34.4078L17.3818 28.226L24.2468 23.4273L21.6484 15.5194L30.1177 13.6156L31.1472 5.525L39.4057 7.08899L43.858 0.163908L50.8989 4.80784Z" fill="#B1B1B1"/>
<path d="M50.8059 52.8821C61.2834 52.9105 69.8023 43.6698 69.8334 32.2424C69.8644 20.8149 61.3959 11.528 50.9184 11.4995C40.441 11.471 31.9221 20.7117 31.891 32.1392C31.8599 43.5667 40.3284 52.8536 50.8059 52.8821Z" fill="#EBEBEB"/>
</svg>
