<svg width="103" height="102" viewBox="0 0 103 102" fill="none" xmlns="http://www.w3.org/2000/svg">
<g clip-path="url(#clip0_439_1024)">
<path d="M102.043 82.3747L82.7054 81.2475L78.3533 101.221L47.3006 61.8107L70.9904 42.9645L102.043 82.3747Z" fill="#E14A4A"/>
<path d="M1.04323 82.1001L20.3865 81.078L24.63 101.075L55.8964 61.8341L32.3097 42.8594L1.04323 82.1001Z" fill="#F16D6E"/>
<path d="M51.8906 7.81874L58.9565 3.21316L63.3712 10.1623L71.6379 8.64328L72.6234 16.7393L81.0822 18.6892L78.4411 26.5828L85.2797 31.4188L79.6203 37.5699L83.833 44.7111L75.9641 48.1584L76.7481 56.2539L68.2835 56.4236L65.4412 64.1239L57.5901 61.0193L51.7297 66.9771L45.9016 60.9876L38.0338 64.0494L35.2334 56.3338L26.7699 56.118L27.5981 48.0269L19.7481 44.5369L23.9995 37.4187L18.3735 31.2369L25.2385 26.4382L22.6401 18.5303L31.1094 16.6265L32.1389 8.53589L40.3974 10.0999L44.8497 3.1748L51.8906 7.81874Z" fill="#53C2EF"/>
<path d="M51.7976 55.8929C62.2751 55.9214 70.794 46.6807 70.8251 35.2532C70.8561 23.8258 62.3876 14.5389 51.9101 14.5104C41.4327 14.4819 32.9138 23.7226 32.8827 35.1501C32.8516 46.5776 41.3201 55.8645 51.7976 55.8929Z" fill="#FEC656"/>
</g>
<defs>
<clipPath id="clip0_439_1024">
<rect width="101" height="101" fill="white" transform="translate(1.26636 0.0108643) rotate(0.155774)"/>
</clipPath>
</defs>
</svg>
