<svg width="31" height="30" viewBox="0 0 31 30" fill="none" xmlns="http://www.w3.org/2000/svg">
<rect width="30.4271" height="30" rx="10" fill="white"/>
<path d="M24.7252 5.71717C23.9817 5.59533 23.2288 5.53261 22.4743 5.52967C19.9001 5.52766 17.3796 6.2299 15.2133 7.55269C13.0414 6.24727 10.5213 5.56226 7.95228 5.57901C7.19781 5.58195 6.4449 5.64467 5.70137 5.76651C5.45782 5.80646 5.23727 5.92782 5.07943 6.10874C4.92159 6.28966 4.83683 6.51825 4.84042 6.75335V18.5955C4.8382 18.7405 4.8696 18.8841 4.93238 19.0163C4.99516 19.1484 5.08778 19.2658 5.20365 19.36C5.31953 19.4542 5.4558 19.523 5.60278 19.5614C5.74976 19.5998 5.90384 19.607 6.05405 19.5823C7.5405 19.3374 9.06343 19.3781 10.5331 19.7018C12.0028 20.0255 13.3896 20.6257 14.6117 21.4672L14.7361 21.5362H14.8502C14.9653 21.5818 15.0887 21.6053 15.2133 21.6053C15.3379 21.6053 15.4613 21.5818 15.5763 21.5362H15.6904L15.8149 21.4672C17.0285 20.6069 18.4113 19.9872 19.8812 19.6448C21.3512 19.3024 22.8785 19.2442 24.3725 19.4737C24.5227 19.4984 24.6768 19.4913 24.8238 19.4529C24.9708 19.4144 25.107 19.3457 25.2229 19.2515C25.3388 19.1572 25.4314 19.0399 25.4942 18.9077C25.557 18.7756 25.5884 18.6319 25.5862 18.4869V6.6448C25.5754 6.41995 25.4841 6.20537 25.3275 6.03665C25.1709 5.86792 24.9584 5.7552 24.7252 5.71717ZM14.176 18.8323C12.2569 17.8718 10.1207 17.3705 7.95228 17.3718C7.60998 17.3718 7.26767 17.3718 6.915 17.3718V7.50335C7.26047 7.48441 7.60681 7.48441 7.95228 7.50335C10.1652 7.50102 12.3299 8.11884 14.176 9.27967V18.8323ZM23.5116 17.4112C23.1589 17.4112 22.8166 17.4112 22.4743 17.4112C20.3058 17.41 18.1697 17.9113 16.2506 18.8718V9.27967C18.0967 8.11884 20.2614 7.50102 22.4743 7.50335C22.8198 7.48441 23.1661 7.48441 23.5116 7.50335V17.4112ZM24.7252 21.5066C23.9817 21.3848 23.2288 21.3221 22.4743 21.3191C19.9001 21.3171 17.3796 22.0194 15.2133 23.3422C13.0469 22.0194 10.5264 21.3171 7.95228 21.3191C7.19781 21.3221 6.4449 21.3848 5.70137 21.5066C5.56634 21.527 5.43689 21.5726 5.32044 21.6408C5.20399 21.7089 5.10286 21.7983 5.02285 21.9038C4.94284 22.0092 4.88553 22.1287 4.85422 22.2553C4.82292 22.3819 4.81823 22.5132 4.84042 22.6415C4.89314 22.8978 5.05046 23.1237 5.27794 23.2698C5.50542 23.416 5.7845 23.4704 6.05405 23.4211C7.5405 23.1763 9.06343 23.2169 10.5331 23.5406C12.0028 23.8643 13.3896 24.4646 14.6117 25.306C14.7873 25.425 14.9976 25.4889 15.2133 25.4889C15.4289 25.4889 15.6392 25.425 15.8149 25.306C17.037 24.4646 18.4238 23.8643 19.8935 23.5406C21.3632 23.2169 22.8861 23.1763 24.3725 23.4211C24.6421 23.4704 24.9212 23.416 25.1486 23.2698C25.3761 23.1237 25.5334 22.8978 25.5862 22.6415C25.6084 22.5132 25.6037 22.3819 25.5724 22.2553C25.541 22.1287 25.4837 22.0092 25.4037 21.9038C25.3237 21.7983 25.2226 21.7089 25.1061 21.6408C24.9897 21.5726 24.8602 21.527 24.7252 21.5066Z" fill="#43515F"/>
</svg>
