<svg width="55" height="57" viewBox="0 0 55 57" fill="none" xmlns="http://www.w3.org/2000/svg">
<rect width="55" height="57" rx="10" fill="white"/>
<path d="M42.8375 24.1062C41.4888 23.8622 40.1206 23.743 38.75 23.75C37.9625 23.75 37.1938 23.75 36.425 23.9C35.468 22.6229 34.2464 21.5676 32.8438 20.8063C34.0485 19.4905 34.7174 17.7715 34.7188 15.9875C34.7188 14.068 33.9562 12.2271 32.5989 10.8698C31.2416 9.51252 29.4008 8.75 27.4813 8.75C25.5618 8.75 23.7209 9.51252 22.3636 10.8698C21.0063 12.2271 20.2438 14.068 20.2438 15.9875C20.2451 17.7715 20.914 19.4905 22.1188 20.8063C20.7245 21.5715 19.5049 22.6188 18.5375 23.8812C17.8063 23.75 17.0375 23.75 16.25 23.75C14.8783 23.7553 13.51 23.8871 12.1625 24.1438C11.7257 24.2236 11.3314 24.4559 11.0499 24.7993C10.7683 25.1426 10.6178 25.5748 10.625 26.0188V41.4875C10.6246 41.763 10.6848 42.0351 10.8015 42.2847C10.9181 42.5342 11.0883 42.755 11.3 42.9312C11.5103 43.1086 11.7571 43.2375 12.0228 43.3088C12.2885 43.3801 12.5667 43.392 12.8375 43.3438C13.9595 43.0994 15.1021 42.9613 16.25 42.9312C19.8821 42.9273 23.4353 43.99 26.4688 45.9875V45.9875L26.7125 46.0812C26.9612 46.1892 27.2289 46.2465 27.5 46.25C27.679 46.2478 27.8563 46.2161 28.025 46.1563H28.1563L28.4 46.0625C31.4623 44.0137 35.0655 42.9236 38.75 42.9312C39.8956 42.9366 41.0381 43.0496 42.1625 43.2687C42.4333 43.317 42.7115 43.3051 42.9772 43.2338C43.2429 43.1625 43.4897 43.0336 43.7 42.8563C43.9117 42.68 44.0819 42.4592 44.1985 42.2097C44.3152 41.9601 44.3755 41.688 44.375 41.4125V25.9438C44.3734 25.5062 44.2188 25.083 43.938 24.7474C43.6572 24.4118 43.2679 24.185 42.8375 24.1062V24.1062ZM27.5 12.5C28.3783 12.5645 29.1997 12.959 29.7992 13.6042C30.3987 14.2493 30.732 15.0974 30.732 15.9781C30.732 16.8588 30.3987 17.7069 29.7992 18.3521C29.1997 18.9973 28.3783 19.3917 27.5 19.4563V19.4563C26.6217 19.3917 25.8003 18.9973 25.2008 18.3521C24.6013 17.7069 24.268 16.8588 24.268 15.9781C24.268 15.0974 24.6013 14.2493 25.2008 13.6042C25.8003 12.959 26.6217 12.5645 27.5 12.5V12.5ZM25.625 41.2437C22.6863 39.8854 19.4875 39.1816 16.25 39.1812C15.6313 39.1812 15.0125 39.1813 14.375 39.275V27.5C15.9473 27.3241 17.5359 27.3556 19.1 27.5938H19.3063C21.5405 28.0044 23.6815 28.8176 25.625 29.9937V41.2437ZM27.5 26.75C26.6662 26.269 25.8019 25.8431 24.9125 25.475H24.8C24.1813 25.2313 23.5625 24.9875 22.925 24.8C24.2268 23.7638 25.8363 23.19 27.5 23.1687V23.1687C29.1593 23.1793 30.7683 23.7398 32.075 24.7625C30.4833 25.2594 28.9495 25.9257 27.5 26.75V26.75ZM40.625 39.275C36.775 38.8882 32.8915 39.5354 29.375 41.15V29.9C31.322 28.754 33.4644 27.9784 35.6938 27.6125H36.0688C37.5762 27.3778 39.1078 27.3399 40.625 27.5V39.275Z" fill="#43515F"/>
</svg>
