<svg width="42" height="56" viewBox="0 4 42 56" fill="none" xmlns="http://www.w3.org/2000/svg">
<path d="M17.6564 21.6667C17.6564 19.5956 19.3773 17.9167 21.5002 17.9167C23.623 17.9167 25.3439 19.5956 25.3439 21.6667C25.3439 23.7377 23.623 25.4167 21.5002 25.4167C19.3773 25.4167 17.6564 23.7377 17.6564 21.6667Z" fill="#43515F"/>
<path fill-rule="evenodd" clip-rule="evenodd" d="M13.7677 12.7374C13.7677 9.84487 16.1712 7.5 19.136 7.5H23.8642C26.8291 7.5 29.2326 9.84487 29.2326 12.7374C29.2326 12.7621 29.2521 12.7827 29.2773 12.7847L33.0862 13.0865C34.7924 13.2217 36.1955 14.4526 36.514 16.0935C37.3266 20.2807 37.3872 24.5738 36.6931 28.7812L36.5269 29.7882C36.2138 31.6864 34.6124 33.1305 32.6482 33.2861L29.3301 33.549C24.1187 33.9619 18.8816 33.9619 13.6702 33.549L10.3521 33.2861C8.38784 33.1305 6.7865 31.6864 6.47334 29.7882L6.3072 28.7812C5.61305 24.5738 5.67365 20.2807 6.48628 16.0935C6.80473 14.4526 8.2079 13.2217 9.91406 13.0865L13.723 12.7847C13.7482 12.7827 13.7677 12.7621 13.7677 12.7374ZM21.5002 15.4167C17.9621 15.4167 15.0939 18.2149 15.0939 21.6667C15.0939 25.1184 17.9621 27.9167 21.5002 27.9167C25.0383 27.9167 27.9064 25.1184 27.9064 21.6667C27.9064 18.2149 25.0383 15.4167 21.5002 15.4167Z" fill="#43515F"/>
<path d="M6.44779 43.124H7.69079V51H6.44779V43.124ZM12.418 51C12.2053 51 12.011 50.9523 11.835 50.857C11.659 50.7617 11.516 50.6517 11.406 50.527V50.824C11.406 51.154 11.362 51.462 11.274 51.748C11.186 52.034 11.054 52.2833 10.878 52.496C10.702 52.7087 10.4856 52.8737 10.229 52.991C9.97229 53.1157 9.67529 53.178 9.33795 53.178C9.20595 53.178 9.07762 53.1707 8.95295 53.156C8.83562 53.1487 8.73295 53.1377 8.64495 53.123C8.58629 53.1157 8.53495 53.1083 8.49095 53.101C8.43962 53.0937 8.39195 53.0827 8.34795 53.068L8.47995 51.814L8.78795 51.88C8.87595 51.8947 8.96762 51.9057 9.06295 51.913C9.16562 51.9277 9.25729 51.935 9.33795 51.935C9.66062 51.935 9.87695 51.8323 9.98695 51.627C10.097 51.4217 10.152 51.121 10.152 50.725V46.622H11.406V48.712C11.406 49.0053 11.472 49.2473 11.604 49.438C11.7433 49.6287 12.0036 49.724 12.385 49.724H12.77C12.8946 49.724 12.9753 49.7533 13.012 49.812C13.0486 49.8707 13.067 49.9403 13.067 50.021V50.692C13.067 50.7507 13.045 50.8167 13.001 50.89C12.957 50.9633 12.88 51 12.77 51H12.418ZM12.7014 51C12.5767 51 12.496 50.9707 12.4594 50.912C12.4227 50.8533 12.4044 50.7873 12.4044 50.714V50.065C12.4044 49.9843 12.43 49.9073 12.4814 49.834C12.5254 49.7607 12.5987 49.724 12.7014 49.724H13.7574C13.9187 49.724 14.025 49.6727 14.0764 49.57C14.135 49.4673 14.1644 49.328 14.1644 49.152V46.622H15.4184V48.712C15.4184 49.0053 15.488 49.2473 15.6274 49.438C15.7667 49.6287 16.0197 49.724 16.3864 49.724H16.7714C16.896 49.724 16.9767 49.7533 17.0134 49.812C17.05 49.8707 17.0684 49.9403 17.0684 50.021V50.692C17.0684 50.7507 17.0427 50.8167 16.9914 50.89C16.9474 50.9633 16.874 51 16.7714 51H16.3534C16.0307 51 15.7704 50.923 15.5724 50.769C15.3817 50.615 15.235 50.4463 15.1324 50.263C15.0077 50.4757 14.8317 50.6517 14.6044 50.791C14.3844 50.9303 14.1204 51 13.8124 51H12.7014ZM13.2734 52.386C13.2734 52.21 13.3357 52.0597 13.4604 51.935C13.585 51.8177 13.7427 51.759 13.9334 51.759C14.124 51.759 14.2817 51.8177 14.4064 51.935C14.531 52.0597 14.5934 52.21 14.5934 52.386C14.5934 52.5693 14.531 52.7197 14.4064 52.837C14.2817 52.9617 14.124 53.024 13.9334 53.024C13.7427 53.024 13.585 52.9617 13.4604 52.837C13.3357 52.7197 13.2734 52.5693 13.2734 52.386ZM14.9784 52.386C14.9784 52.21 15.0407 52.0597 15.1654 51.935C15.29 51.8177 15.4477 51.759 15.6384 51.759C15.829 51.759 15.9867 51.8177 16.1114 51.935C16.236 52.0597 16.2984 52.21 16.2984 52.386C16.2984 52.5693 16.236 52.7197 16.1114 52.837C15.9867 52.9617 15.829 53.024 15.6384 53.024C15.4477 53.024 15.29 52.9617 15.1654 52.837C15.0407 52.7197 14.9784 52.5693 14.9784 52.386ZM20.0742 49.79C20.4189 49.79 20.6719 49.6837 20.8332 49.471C21.0019 49.2583 21.0862 49.0017 21.0862 48.701C21.0862 48.5103 21.0569 48.338 20.9982 48.184C20.9395 48.03 20.8625 47.898 20.7672 47.788C20.6792 47.678 20.5729 47.5937 20.4482 47.535C20.3309 47.4763 20.2062 47.447 20.0742 47.447C19.9349 47.447 19.8029 47.4763 19.6782 47.535C19.5535 47.5937 19.4435 47.678 19.3482 47.788C19.2602 47.898 19.1869 48.03 19.1282 48.184C19.0769 48.338 19.0512 48.5103 19.0512 48.701C19.0512 48.9943 19.1282 49.251 19.2822 49.471C19.4435 49.6837 19.7075 49.79 20.0742 49.79ZM16.7082 51C16.5982 51 16.5212 50.9707 16.4772 50.912C16.4332 50.8533 16.4112 50.7873 16.4112 50.714V50.065C16.4112 49.9843 16.4369 49.9073 16.4882 49.834C16.5322 49.7607 16.6055 49.724 16.7082 49.724H17.1372C17.5919 49.724 17.8192 49.3793 17.8192 48.69C17.8192 48.338 17.8742 48.0117 17.9842 47.711C18.1015 47.4103 18.2629 47.1537 18.4682 46.941C18.6735 46.721 18.9119 46.5523 19.1832 46.435C19.4619 46.3103 19.7662 46.248 20.0962 46.248C20.4629 46.248 20.7819 46.3103 21.0532 46.435C21.3319 46.5597 21.5592 46.732 21.7352 46.952C21.9185 47.172 22.0542 47.436 22.1422 47.744C22.2302 48.052 22.2742 48.3893 22.2742 48.756C22.2742 49.042 22.2339 49.3207 22.1532 49.592C22.0799 49.8633 21.9552 50.1053 21.7792 50.318C21.6032 50.5233 21.3759 50.6883 21.0972 50.813C20.8259 50.9377 20.4922 51 20.0962 51C19.9349 51 19.7735 50.9927 19.6122 50.978C19.4509 50.956 19.2895 50.9193 19.1282 50.868C18.9742 50.8093 18.8239 50.7323 18.6772 50.637C18.5379 50.5343 18.4095 50.406 18.2922 50.252C18.1822 50.5087 18.0282 50.6993 17.8302 50.824C17.6395 50.9413 17.4342 51 17.2142 51H16.7082ZM23.7322 43.124H24.9862V49.724H25.7342C25.8516 49.724 25.9322 49.7533 25.9762 49.812C26.0202 49.8707 26.0422 49.9403 26.0422 50.021V50.692C26.0422 50.7507 26.0166 50.8167 25.9652 50.89C25.9139 50.9633 25.8369 51 25.7342 51H23.7322V43.124ZM25.6779 51C25.5679 51 25.4909 50.9707 25.4469 50.912C25.4029 50.8533 25.3809 50.7873 25.3809 50.714V50.065C25.3809 49.9843 25.4066 49.9073 25.4579 49.834C25.5019 49.7607 25.5753 49.724 25.6779 49.724H28.6149C28.7909 49.724 28.9046 49.6763 28.9559 49.581C29.0146 49.4857 29.0439 49.35 29.0439 49.174C29.0439 48.8587 29.0329 48.5983 29.0109 48.393C28.9889 48.1803 28.9339 48.0117 28.8459 47.887C28.7579 47.7623 28.6296 47.6743 28.4609 47.623C28.2923 47.5717 28.0613 47.546 27.7679 47.546H26.3819V46.435L28.5159 43.047L29.5499 43.74L27.8669 46.325H28.0099C28.3473 46.325 28.6553 46.3653 28.9339 46.446C29.2126 46.5193 29.4509 46.644 29.6489 46.82C29.8543 46.996 30.0119 47.227 30.1219 47.513C30.2319 47.799 30.2869 48.1547 30.2869 48.58C30.2943 48.998 30.3786 49.295 30.5399 49.471C30.7013 49.6397 30.9469 49.724 31.2769 49.724H31.6839C31.7866 49.724 31.8599 49.7533 31.9039 49.812C31.9479 49.8707 31.9699 49.9403 31.9699 50.021V50.692C31.9699 50.7507 31.9443 50.8167 31.8929 50.89C31.8489 50.9633 31.7793 51 31.6839 51H31.2439C30.9213 51 30.6646 50.9267 30.4739 50.78C30.2906 50.6333 30.1476 50.4683 30.0449 50.285C29.9203 50.505 29.7369 50.681 29.4949 50.813C29.2529 50.9377 28.9889 51 28.7029 51H25.6779ZM31.5966 51C31.4866 51 31.4133 50.9707 31.3766 50.912C31.3326 50.8533 31.3106 50.7873 31.3106 50.714V50.065C31.3106 49.9843 31.3326 49.9073 31.3766 49.834C31.4206 49.7607 31.494 49.724 31.5966 49.724H32.8946V43.124H34.1376V51H31.5966ZM35.9458 43.124H37.1888V51H35.9458V43.124Z" fill="#43515F"/>
</svg>
