<svg width="33" height="40" viewBox="2 0 36 30" fill="#BFC4CD" xmlns="http://www.w3.org/2000/svg">
<path fill-rule="evenodd" clip-rule="evenodd" d="M11.3436 17.3333C11.3436 14.5719 13.6521 12.3333 16.4998 12.3333C19.3475 12.3333 21.6561 14.5719 21.6561 17.3333C21.6561 20.0947 19.3475 22.3333 16.4998 22.3333C13.6521 22.3333 11.3436 20.0947 11.3436 17.3333ZM16.4998 14.3333C14.7912 14.3333 13.4061 15.6764 13.4061 17.3333C13.4061 18.9901 14.7912 20.3333 16.4998 20.3333C18.2084 20.3333 19.5936 18.9901 19.5936 17.3333C19.5936 15.6764 18.2084 14.3333 16.4998 14.3333Z" fill="#BFC4CD"/>
<path fill-rule="evenodd" clip-rule="evenodd" d="M14.597 7.66663C13.1599 7.66663 11.9949 8.79633 11.9949 10.1899C11.9949 11.0778 11.2919 11.8171 10.3792 11.8889L7.31355 12.1304C6.71161 12.1778 6.21657 12.6094 6.10422 13.1848C5.4872 16.3448 5.44119 19.5848 5.96825 22.76L6.10197 23.5656C6.22826 24.3265 6.874 24.9053 7.66608 24.9677L10.3368 25.178C14.4387 25.501 18.5609 25.501 22.6628 25.178L25.3335 24.9677C26.1256 24.9053 26.7714 24.3265 26.8976 23.5656L27.0314 22.76C27.5584 19.5848 27.5124 16.3448 26.8954 13.1848C26.783 12.6094 26.288 12.1778 25.6861 12.1304L22.6204 11.8889C21.7077 11.8171 21.0047 11.0778 21.0047 10.1899C21.0047 8.79633 19.8397 7.66663 18.4026 7.66663H14.597ZM9.94073 9.9169C10.0863 7.54588 12.1153 5.66663 14.597 5.66663H18.4026C20.8843 5.66663 22.9133 7.54588 23.0589 9.9169L25.853 10.1369C27.3805 10.2572 28.6368 11.3526 28.9219 12.8127C29.5834 16.2004 29.6327 19.6738 29.0676 23.0779L28.9339 23.8835C28.6567 25.5536 27.2392 26.8242 25.5005 26.9611L22.8298 27.1714C18.6167 27.5032 14.3829 27.5032 10.1698 27.1714L7.49912 26.9611C5.7604 26.8242 4.34289 25.5536 4.06568 23.8835L3.93196 23.0779C3.36693 19.6738 3.41625 16.2004 4.07773 12.8127C4.36284 11.3526 5.61908 10.2572 7.14659 10.1369L9.94073 9.9169Z" fill="#BFC4CD"/>
</svg>
