<svg width="40" height="59" viewBox="0 5 40 59" fill="none" xmlns="http://www.w3.org/2000/svg">
<path d="M4.44779 45.124H5.69079V53H4.44779V45.124ZM10.418 53C10.2053 53 10.011 52.9523 9.83495 52.857C9.65895 52.7617 9.51595 52.6517 9.40595 52.527V52.824C9.40595 53.154 9.36195 53.462 9.27395 53.748C9.18595 54.034 9.05395 54.2833 8.87795 54.496C8.70195 54.7087 8.48562 54.8737 8.22895 54.991C7.97229 55.1157 7.67529 55.178 7.33795 55.178C7.20595 55.178 7.07762 55.1707 6.95295 55.156C6.83562 55.1487 6.73295 55.1377 6.64495 55.123C6.58629 55.1157 6.53495 55.1083 6.49095 55.101C6.43962 55.0937 6.39195 55.0827 6.34795 55.068L6.47995 53.814L6.78795 53.88C6.87595 53.8947 6.96762 53.9057 7.06295 53.913C7.16562 53.9277 7.25729 53.935 7.33795 53.935C7.66062 53.935 7.87695 53.8323 7.98695 53.627C8.09695 53.4217 8.15195 53.121 8.15195 52.725V48.622H9.40595V50.712C9.40595 51.0053 9.47195 51.2473 9.60395 51.438C9.74329 51.6287 10.0036 51.724 10.385 51.724H10.77C10.8946 51.724 10.9753 51.7533 11.012 51.812C11.0486 51.8707 11.067 51.9403 11.067 52.021V52.692C11.067 52.7507 11.045 52.8167 11.001 52.89C10.957 52.9633 10.88 53 10.77 53H10.418ZM10.7014 53C10.5767 53 10.496 52.9707 10.4594 52.912C10.4227 52.8533 10.4044 52.7873 10.4044 52.714V52.065C10.4044 51.9843 10.43 51.9073 10.4814 51.834C10.5254 51.7607 10.5987 51.724 10.7014 51.724H11.7574C11.9187 51.724 12.025 51.6727 12.0764 51.57C12.135 51.4673 12.1644 51.328 12.1644 51.152V48.622H13.4184V50.712C13.4184 51.0053 13.488 51.2473 13.6274 51.438C13.7667 51.6287 14.0197 51.724 14.3864 51.724H14.7714C14.896 51.724 14.9767 51.7533 15.0134 51.812C15.05 51.8707 15.0684 51.9403 15.0684 52.021V52.692C15.0684 52.7507 15.0427 52.8167 14.9914 52.89C14.9474 52.9633 14.874 53 14.7714 53H14.3534C14.0307 53 13.7704 52.923 13.5724 52.769C13.3817 52.615 13.235 52.4463 13.1324 52.263C13.0077 52.4757 12.8317 52.6517 12.6044 52.791C12.3844 52.9303 12.1204 53 11.8124 53H10.7014ZM11.2734 54.386C11.2734 54.21 11.3357 54.0597 11.4604 53.935C11.585 53.8177 11.7427 53.759 11.9334 53.759C12.124 53.759 12.2817 53.8177 12.4064 53.935C12.531 54.0597 12.5934 54.21 12.5934 54.386C12.5934 54.5693 12.531 54.7197 12.4064 54.837C12.2817 54.9617 12.124 55.024 11.9334 55.024C11.7427 55.024 11.585 54.9617 11.4604 54.837C11.3357 54.7197 11.2734 54.5693 11.2734 54.386ZM12.9784 54.386C12.9784 54.21 13.0407 54.0597 13.1654 53.935C13.29 53.8177 13.4477 53.759 13.6384 53.759C13.829 53.759 13.9867 53.8177 14.1114 53.935C14.236 54.0597 14.2984 54.21 14.2984 54.386C14.2984 54.5693 14.236 54.7197 14.1114 54.837C13.9867 54.9617 13.829 55.024 13.6384 55.024C13.4477 55.024 13.29 54.9617 13.1654 54.837C13.0407 54.7197 12.9784 54.5693 12.9784 54.386ZM18.0742 51.79C18.4189 51.79 18.6719 51.6837 18.8332 51.471C19.0019 51.2583 19.0862 51.0017 19.0862 50.701C19.0862 50.5103 19.0569 50.338 18.9982 50.184C18.9395 50.03 18.8625 49.898 18.7672 49.788C18.6792 49.678 18.5729 49.5937 18.4482 49.535C18.3309 49.4763 18.2062 49.447 18.0742 49.447C17.9349 49.447 17.8029 49.4763 17.6782 49.535C17.5535 49.5937 17.4435 49.678 17.3482 49.788C17.2602 49.898 17.1869 50.03 17.1282 50.184C17.0769 50.338 17.0512 50.5103 17.0512 50.701C17.0512 50.9943 17.1282 51.251 17.2822 51.471C17.4435 51.6837 17.7075 51.79 18.0742 51.79ZM14.7082 53C14.5982 53 14.5212 52.9707 14.4772 52.912C14.4332 52.8533 14.4112 52.7873 14.4112 52.714V52.065C14.4112 51.9843 14.4369 51.9073 14.4882 51.834C14.5322 51.7607 14.6055 51.724 14.7082 51.724H15.1372C15.5919 51.724 15.8192 51.3793 15.8192 50.69C15.8192 50.338 15.8742 50.0117 15.9842 49.711C16.1015 49.4103 16.2629 49.1537 16.4682 48.941C16.6735 48.721 16.9119 48.5523 17.1832 48.435C17.4619 48.3103 17.7662 48.248 18.0962 48.248C18.4629 48.248 18.7819 48.3103 19.0532 48.435C19.3319 48.5597 19.5592 48.732 19.7352 48.952C19.9185 49.172 20.0542 49.436 20.1422 49.744C20.2302 50.052 20.2742 50.3893 20.2742 50.756C20.2742 51.042 20.2339 51.3207 20.1532 51.592C20.0799 51.8633 19.9552 52.1053 19.7792 52.318C19.6032 52.5233 19.3759 52.6883 19.0972 52.813C18.8259 52.9377 18.4922 53 18.0962 53C17.9349 53 17.7735 52.9927 17.6122 52.978C17.4509 52.956 17.2895 52.9193 17.1282 52.868C16.9742 52.8093 16.8239 52.7323 16.6772 52.637C16.5379 52.5343 16.4095 52.406 16.2922 52.252C16.1822 52.5087 16.0282 52.6993 15.8302 52.824C15.6395 52.9413 15.4342 53 15.2142 53H14.7082ZM21.7322 45.124H22.9862V51.724H23.7342C23.8516 51.724 23.9322 51.7533 23.9762 51.812C24.0202 51.8707 24.0422 51.9403 24.0422 52.021V52.692C24.0422 52.7507 24.0166 52.8167 23.9652 52.89C23.9139 52.9633 23.8369 53 23.7342 53H21.7322V45.124ZM23.6779 53C23.5679 53 23.4909 52.9707 23.4469 52.912C23.4029 52.8533 23.3809 52.7873 23.3809 52.714V52.065C23.3809 51.9843 23.4066 51.9073 23.4579 51.834C23.5019 51.7607 23.5753 51.724 23.6779 51.724H26.6149C26.7909 51.724 26.9046 51.6763 26.9559 51.581C27.0146 51.4857 27.0439 51.35 27.0439 51.174C27.0439 50.8587 27.0329 50.5983 27.0109 50.393C26.9889 50.1803 26.9339 50.0117 26.8459 49.887C26.7579 49.7623 26.6296 49.6743 26.4609 49.623C26.2923 49.5717 26.0613 49.546 25.7679 49.546H24.3819V48.435L26.5159 45.047L27.5499 45.74L25.8669 48.325H26.0099C26.3473 48.325 26.6553 48.3653 26.9339 48.446C27.2126 48.5193 27.4509 48.644 27.6489 48.82C27.8543 48.996 28.0119 49.227 28.1219 49.513C28.2319 49.799 28.2869 50.1547 28.2869 50.58C28.2943 50.998 28.3786 51.295 28.5399 51.471C28.7013 51.6397 28.9469 51.724 29.2769 51.724H29.6839C29.7866 51.724 29.8599 51.7533 29.9039 51.812C29.9479 51.8707 29.9699 51.9403 29.9699 52.021V52.692C29.9699 52.7507 29.9443 52.8167 29.8929 52.89C29.8489 52.9633 29.7793 53 29.6839 53H29.2439C28.9213 53 28.6646 52.9267 28.4739 52.78C28.2906 52.6333 28.1476 52.4683 28.0449 52.285C27.9203 52.505 27.7369 52.681 27.4949 52.813C27.2529 52.9377 26.9889 53 26.7029 53H23.6779ZM29.5966 53C29.4866 53 29.4133 52.9707 29.3766 52.912C29.3326 52.8533 29.3106 52.7873 29.3106 52.714V52.065C29.3106 51.9843 29.3326 51.9073 29.3766 51.834C29.4206 51.7607 29.494 51.724 29.5966 51.724H30.8946V45.124H32.1376V53H29.5966ZM33.9458 45.124H35.1888V53H33.9458V45.124Z" fill="#43515F"/>
<path fill-rule="evenodd" clip-rule="evenodd" d="M13.7499 22.2084C13.7499 18.6703 16.5481 15.8021 19.9999 15.8021C23.4517 15.8021 26.2499 18.6703 26.2499 22.2084C26.2499 25.7464 23.4517 28.6146 19.9999 28.6146C16.5481 28.6146 13.7499 25.7464 13.7499 22.2084ZM19.9999 18.3646C17.9288 18.3646 16.2499 20.0855 16.2499 22.2084C16.2499 24.3312 17.9288 26.0521 19.9999 26.0521C22.071 26.0521 23.7499 24.3312 23.7499 22.2084C23.7499 20.0855 22.071 18.3646 19.9999 18.3646Z" fill="#43515F"/>
<path fill-rule="evenodd" clip-rule="evenodd" d="M17.6935 9.82294C15.9515 9.82294 14.5394 11.2704 14.5394 13.0559C14.5394 14.1936 13.6873 15.1407 12.581 15.2328L8.86504 15.5421C8.13542 15.6029 7.53537 16.1559 7.39919 16.8931C6.65128 20.9419 6.59552 25.0931 7.23438 29.1614L7.39646 30.1936C7.54953 31.1683 8.33226 31.91 9.29235 31.9899L12.5296 32.2594C17.5016 32.6733 22.4982 32.6733 27.4702 32.2594L30.7074 31.9899C31.6675 31.91 32.4503 31.1683 32.6033 30.1936L32.7654 29.1614C33.4043 25.093 33.3485 20.9419 32.6006 16.8931C32.4644 16.1559 31.8644 15.6029 31.1348 15.5421L27.4188 15.2328C26.3125 15.1407 25.4604 14.1936 25.4604 13.0559C25.4604 11.2704 24.0483 9.82294 22.3063 9.82294H17.6935ZM12.0495 12.7061C12.2259 9.66823 14.6854 7.26044 17.6935 7.26044H22.3063C25.3144 7.26044 27.7739 9.66823 27.9503 12.7061L31.3371 12.988C33.1886 13.1422 34.7114 14.5456 35.057 16.4164C35.8587 20.7569 35.9185 25.2071 35.2336 29.5686L35.0716 30.6008C34.7355 32.7406 33.0174 34.3685 30.9098 34.544L27.6726 34.8135C22.5659 35.2386 17.4339 35.2386 12.3272 34.8135L9.08998 34.544C6.98244 34.3685 5.26425 32.7406 4.92823 30.6008L4.76614 29.5686C4.08126 25.2071 4.14104 20.7569 4.94283 16.4164C5.28842 14.5456 6.81114 13.1422 8.66267 12.988L12.0495 12.7061Z" fill="#43515F"/>
</svg>
