<svg width="38" height="37" viewBox="0 0 38 37" fill="none" xmlns="http://www.w3.org/2000/svg">
<path d="M37.5 18.5C37.5 28.4286 29.2299 36.5 19 36.5C8.77008 36.5 0.5 28.4286 0.5 18.5C0.5 8.57136 8.77008 0.5 19 0.5C29.2299 0.5 37.5 8.57136 37.5 18.5Z" fill="url(#paint0_linear_871_304)" stroke="#DAE2E9"/>
<path d="M27.5947 10.9271L23.2917 8.26041C23.1461 8.16898 22.9808 8.12085 22.8126 8.12085C22.6444 8.12085 22.4791 8.16898 22.3334 8.26041L18.5001 10.6354L14.6667 8.26041C14.5211 8.16898 14.3558 8.12085 14.1876 8.12085C14.0194 8.12085 13.8541 8.16898 13.7084 8.26041L9.4055 10.9271C9.25747 11.0175 9.13421 11.1491 9.04833 11.3083C8.96245 11.4676 8.91704 11.6487 8.91675 11.8333V17.1667C8.91704 17.3512 8.96245 17.5324 9.04833 17.6917C9.13421 17.8509 9.25747 17.9825 9.4055 18.0729L13.2388 20.4375V25.1667C13.2391 25.3512 13.2845 25.5324 13.3704 25.6917C13.4563 25.8509 13.5796 25.9825 13.7276 26.0729L18.0401 28.7396C18.1858 28.831 18.351 28.8791 18.5192 28.8791C18.6875 28.8791 18.8527 28.831 18.9984 28.7396L23.2917 26.0729C23.4398 25.9825 23.563 25.8509 23.6489 25.6917C23.7348 25.5324 23.7802 25.3512 23.7805 25.1667V20.4375L27.6138 18.0729C27.7619 17.9825 27.8851 17.8509 27.971 17.6917C28.0569 17.5324 28.1023 17.3512 28.1026 17.1667V11.8333C28.1004 11.6467 28.0521 11.4641 27.9628 11.3046C27.8734 11.1452 27.7463 11.0148 27.5947 10.9271ZM10.8334 16.5625V12.3958L14.1876 10.3125L17.5417 12.3958V16.5625L14.1876 18.6458L10.8334 16.5625ZM21.8542 24.5625L18.5001 26.6458L15.1459 24.5625V20.3958L18.5001 18.3125L21.8542 20.3958V24.5625ZM26.1667 16.5625L22.8126 18.6458L19.4584 16.5625V12.3958L22.8126 10.3125L26.1667 12.3958V16.5625Z" fill="black"/>
<defs>
<linearGradient id="paint0_linear_871_304" x1="19" y1="0" x2="19" y2="37" gradientUnits="userSpaceOnUse">
<stop offset="0.260417" stop-color="#DAE2E9"/>
<stop offset="1" stop-color="#EFA17A"/>
</linearGradient>
</defs>
</svg>
