<svg width="301" height="146" viewBox="0 0 301 146" fill="none" xmlns="http://www.w3.org/2000/svg">
<g filter="url(#filter0_d_838_13237)">
<rect x="1" width="293" height="135" rx="10" fill="#EFEFEE"/>
<path d="M251 14L243.909 31.0909L225 37.5L243.909 43.9091L251 61L258.091 43.9091L277 37.5L258.091 31.0909L251 14Z" fill="#208FF9" fill-opacity="0.1"/>
<path d="M251 14L243.909 31.0909L225 37.5L243.909 43.9091L251 61L258.091 43.9091L277 37.5L258.091 31.0909L251 14Z" fill="#43515F" fill-opacity="0.1"/>
<path d="M149.5 84L145.545 94.1818L135 98L145.545 101.818L149.5 112L153.455 101.818L164 98L153.455 94.1818L149.5 84Z" fill="#43515F" fill-opacity="0.1"/>
<path d="M149.5 84L145.545 94.1818L135 98L145.545 101.818L149.5 112L153.455 101.818L164 98L153.455 94.1818L149.5 84Z" fill="#F39E2B" fill-opacity="0.37"/>
<path d="M44.5 8L37.5455 23.6364L19 29.5L37.5455 35.3636L44.5 51L51.4545 35.3636L70 29.5L51.4545 23.6364L44.5 8Z" fill="#43515F" fill-opacity="0.1"/>
<path d="M44.5 8L37.5455 23.6364L19 29.5L37.5455 35.3636L44.5 51L51.4545 35.3636L70 29.5L51.4545 23.6364L44.5 8Z" fill="#F8D3C1" fill-opacity="0.7"/>
<path d="M108.5 16L106.727 20.7273L102 22.5L106.727 24.2727L108.5 29L110.273 24.2727L115 22.5L110.273 20.7273L108.5 16Z" fill="#43515F" fill-opacity="0.1"/>
<path d="M108.5 16L106.727 20.7273L102 22.5L106.727 24.2727L108.5 29L110.273 24.2727L115 22.5L110.273 20.7273L108.5 16Z" fill="#43515F" fill-opacity="0.1"/>
<path d="M25.5 65L23.7273 69.7273L19 71.5L23.7273 73.2727L25.5 78L27.2727 73.2727L32 71.5L27.2727 69.7273L25.5 65Z" fill="#43515F" fill-opacity="0.1"/>
<path d="M25.5 65L23.7273 69.7273L19 71.5L23.7273 73.2727L25.5 78L27.2727 73.2727L32 71.5L27.2727 69.7273L25.5 65Z" fill="white"/>
<path d="M273.5 65L271.727 69.7273L267 71.5L271.727 73.2727L273.5 78L275.273 73.2727L280 71.5L275.273 69.7273L273.5 65Z" fill="#43515F" fill-opacity="0.1"/>
<path d="M273.5 65L271.727 69.7273L267 71.5L271.727 73.2727L273.5 78L275.273 73.2727L280 71.5L275.273 69.7273L273.5 65Z" fill="white"/>
<path d="M193.5 103L191.727 107.727L187 109.5L191.727 111.273L193.5 116L195.273 111.273L200 109.5L195.273 107.727L193.5 103Z" fill="#43515F" fill-opacity="0.1"/>
<path d="M193.5 103L191.727 107.727L187 109.5L191.727 111.273L193.5 116L195.273 111.273L200 109.5L195.273 107.727L193.5 103Z" fill="white"/>
<path d="M95.5 112L93.7273 116.727L89 118.5L93.7273 120.273L95.5 125L97.2727 120.273L102 118.5L97.2727 116.727L95.5 112Z" fill="#43515F" fill-opacity="0.1"/>
<path d="M95.5 112L93.7273 116.727L89 118.5L93.7273 120.273L95.5 125L97.2727 120.273L102 118.5L97.2727 116.727L95.5 112Z" fill="white"/>
<path d="M46.5 94L43.6364 100.545L36 103L43.6364 105.455L46.5 112L49.3636 105.455L57 103L49.3636 100.545L46.5 94Z" fill="#43515F" fill-opacity="0.1"/>
<path d="M46.5 94L43.6364 100.545L36 103L43.6364 105.455L46.5 112L49.3636 105.455L57 103L49.3636 100.545L46.5 94Z" fill="#43515F" fill-opacity="0.1"/>
<path d="M235 78L231.455 87.0909L222 90.5L231.455 93.9091L235 103L238.545 93.9091L248 90.5L238.545 87.0909L235 78Z" fill="#43515F" fill-opacity="0.1"/>
<path d="M235 78L231.455 87.0909L222 90.5L231.455 93.9091L235 103L238.545 93.9091L248 90.5L238.545 87.0909L235 78Z" fill="#43515F" fill-opacity="0.1"/>
<path d="M175.5 20L172.364 28L164 31L172.364 34L175.5 42L178.636 34L187 31L178.636 28L175.5 20Z" fill="#43515F" fill-opacity="0.1"/>
<path d="M175.5 20L172.364 28L164 31L172.364 34L175.5 42L178.636 34L187 31L178.636 28L175.5 20Z" fill="#43515F" fill-opacity="0.1"/>
<path d="M74.7016 76C73.0922 76 71.7436 75.796 70.6556 75.388C69.5676 74.98 68.6836 74.436 68.0036 73.756C67.3462 73.0533 66.8702 72.26 66.5756 71.376C66.3036 70.4693 66.1676 69.54 66.1676 68.588C66.1676 67.5907 66.3602 66.65 66.7456 65.766C67.1309 64.8593 67.6636 64.0773 68.3436 63.42C69.0236 62.74 69.8169 62.2073 70.7236 61.822C71.6529 61.4367 72.6502 61.244 73.7156 61.244C74.6902 61.244 75.5629 61.414 76.3336 61.754C77.1269 62.0713 77.7956 62.5247 78.3396 63.114C78.8836 63.7033 79.3029 64.406 79.5976 65.222C79.8922 66.0153 80.0396 66.8993 80.0396 67.874V75.49C80.0396 76.782 79.8242 78.04 79.3936 79.264C78.9629 80.5107 78.2942 81.61 77.3876 82.562C76.4809 83.5367 75.3362 84.3187 73.9536 84.908C72.5709 85.4973 70.9276 85.792 69.0236 85.792C67.0742 85.792 65.4082 85.5313 64.0256 85.01C62.6429 84.4887 61.5096 83.8087 60.6256 82.97C59.7642 82.154 59.1296 81.236 58.7216 80.216C58.3362 79.196 58.1436 78.1873 58.1436 77.19C58.1436 76.17 58.2569 75.2293 58.4836 74.368C58.7102 73.484 58.9482 72.7247 59.1976 72.09C59.4696 71.4327 59.7189 70.9227 59.9456 70.56C60.1722 70.1973 60.2856 70.0273 60.2856 70.05L63.4476 71.75C63.1982 72.158 62.9602 72.6227 62.7336 73.144C62.5522 73.5747 62.3822 74.0507 62.2236 74.572C62.0876 75.0933 62.0196 75.6487 62.0196 76.238C62.0196 77.0087 62.1556 77.734 62.4276 78.414C62.6996 79.094 63.1302 79.6833 63.7196 80.182C64.3089 80.7033 65.0569 81.1113 65.9636 81.406C66.8929 81.7007 68.0036 81.848 69.2956 81.848C70.5422 81.848 71.5962 81.678 72.4576 81.338C73.3189 80.998 74.0216 80.556 74.5656 80.012C75.1096 79.468 75.5062 78.8447 75.7556 78.142C76.0276 77.4393 76.1862 76.7253 76.2316 76H74.7016ZM76.1296 72.056V67.704C76.1296 66.9787 75.8802 66.3553 75.3816 65.834C74.8829 65.29 74.1916 65.018 73.3076 65.018C72.8996 65.018 72.5029 65.0973 72.1176 65.256C71.7322 65.4147 71.3809 65.6527 71.0636 65.97C70.7462 66.2647 70.4856 66.6273 70.2816 67.058C70.1002 67.4887 70.0096 67.9873 70.0096 68.554C70.0096 69.166 70.1229 69.6987 70.3496 70.152C70.5989 70.5827 70.9162 70.9453 71.3016 71.24C71.7096 71.512 72.1742 71.716 72.6956 71.852C73.2169 71.988 73.7722 72.056 74.3616 72.056H76.1296ZM69.0236 57.164C69.0236 56.62 69.2162 56.1553 69.6016 55.77C69.9869 55.3847 70.4742 55.192 71.0636 55.192C71.6529 55.192 72.1402 55.3847 72.5256 55.77C72.9109 56.1553 73.1036 56.62 73.1036 57.164C73.1036 57.708 72.9109 58.1727 72.5256 58.558C72.1402 58.9433 71.6529 59.136 71.0636 59.136C70.4742 59.136 69.9869 58.9433 69.6016 58.558C69.2162 58.1727 69.0236 57.708 69.0236 57.164ZM74.3276 57.164C74.3276 56.62 74.5202 56.1553 74.9056 55.77C75.2909 55.3847 75.7782 55.192 76.3676 55.192C76.9569 55.192 77.4442 55.3847 77.8296 55.77C78.2149 56.1553 78.4076 56.62 78.4076 57.164C78.4076 57.708 78.2149 58.1727 77.8296 58.558C77.4442 58.9433 76.9569 59.136 76.3676 59.136C75.7782 59.136 75.2909 58.9433 74.9056 58.558C74.5202 58.1727 74.3276 57.708 74.3276 57.164ZM94.2138 72.056V69.03C94.2138 67.738 93.9532 66.752 93.4318 66.072C92.9332 65.3693 92.2305 65.018 91.3238 65.018C90.9158 65.018 90.5192 65.1087 90.1338 65.29C89.7712 65.4487 89.4425 65.6867 89.1478 66.004C88.8532 66.2987 88.6152 66.6613 88.4338 67.092C88.2525 67.5227 88.1618 68.01 88.1618 68.554C88.1618 69.1887 88.2638 69.7327 88.4678 70.186C88.6718 70.6167 88.9438 70.9793 89.2838 71.274C89.6238 71.546 90.0092 71.75 90.4398 71.886C90.8932 71.9993 91.3578 72.056 91.8338 72.056H94.2138ZM98.0558 76C97.9878 77.3147 97.7272 78.4367 97.2738 79.366C96.8205 80.318 96.2085 81.0887 95.4378 81.678C94.6672 82.2673 93.7605 82.698 92.7178 82.97C91.6752 83.2647 90.5305 83.412 89.2838 83.412C88.7625 83.412 88.2185 83.3893 87.6518 83.344C87.0852 83.3213 86.4618 83.2533 85.7818 83.14L86.0538 79.332C86.7112 79.4227 87.3345 79.4907 87.9238 79.536C88.5132 79.5813 89.0232 79.604 89.4538 79.604C90.0885 79.604 90.6892 79.5587 91.2558 79.468C91.8225 79.3773 92.3212 79.196 92.7518 78.924C93.2052 78.6747 93.5565 78.312 93.8058 77.836C94.0778 77.3827 94.2252 76.7707 94.2478 76H91.9698C90.5645 76 89.3745 75.8073 88.3998 75.422C87.4478 75.014 86.6658 74.4927 86.0538 73.858C85.4645 73.2007 85.0338 72.464 84.7618 71.648C84.4898 70.832 84.3538 70.0047 84.3538 69.166C84.3538 68.1007 84.5238 67.092 84.8638 66.14C85.2265 65.1653 85.7252 64.3153 86.3598 63.59C86.9945 62.8647 87.7425 62.298 88.6038 61.89C89.4878 61.4593 90.4625 61.244 91.5278 61.244C92.5478 61.244 93.4545 61.414 94.2478 61.754C95.0638 62.0713 95.7552 62.536 96.3218 63.148C96.8885 63.7373 97.3192 64.4513 97.6138 65.29C97.9085 66.106 98.0558 67.0127 98.0558 68.01V72.056H101.388C101.751 72.056 102 72.1467 102.136 72.328C102.272 72.5093 102.34 72.7247 102.34 72.974V75.048C102.34 75.2293 102.261 75.4333 102.102 75.66C101.966 75.8867 101.728 76 101.388 76H98.0558ZM118.478 72.056H121.776C122.138 72.056 122.376 72.1467 122.49 72.328C122.626 72.5093 122.694 72.7247 122.694 72.974V75.048C122.694 75.2293 122.614 75.4333 122.456 75.66C122.32 75.8867 122.093 76 121.776 76H101.206C100.843 76 100.605 75.9093 100.492 75.728C100.356 75.5467 100.288 75.3427 100.288 75.116V73.11C100.288 72.8607 100.367 72.6227 100.526 72.396C100.662 72.1693 100.888 72.056 101.206 72.056H105.524C105.365 71.8067 105.172 71.3987 104.946 70.832C104.742 70.2427 104.64 69.4947 104.64 68.588C104.64 67.6587 104.821 66.752 105.184 65.868C105.546 64.984 106.056 64.202 106.714 63.522C107.371 62.842 108.164 62.298 109.094 61.89C110.046 61.4593 111.088 61.244 112.222 61.244C113.174 61.244 114.035 61.4027 114.806 61.72C115.576 62.0373 116.234 62.4907 116.778 63.08C117.322 63.6467 117.741 64.338 118.036 65.154C118.33 65.97 118.478 66.8767 118.478 67.874V72.056ZM114.568 72.056V67.704C114.568 67.3867 114.511 67.0693 114.398 66.752C114.307 66.4347 114.148 66.1513 113.922 65.902C113.695 65.63 113.412 65.4147 113.072 65.256C112.732 65.0973 112.312 65.018 111.814 65.018C111.383 65.018 110.964 65.1087 110.556 65.29C110.17 65.4487 109.819 65.6867 109.502 66.004C109.207 66.2987 108.969 66.6613 108.788 67.092C108.606 67.5227 108.516 68.01 108.516 68.554C108.516 69.37 108.674 70.016 108.992 70.492C109.309 70.9453 109.66 71.2967 110.046 71.546C110.476 71.818 110.998 71.988 111.61 72.056H114.568ZM109.808 57.164C109.808 56.62 110 56.1553 110.386 55.77C110.794 55.3847 111.281 55.192 111.848 55.192C112.437 55.192 112.924 55.3847 113.31 55.77C113.718 56.1553 113.922 56.62 113.922 57.164C113.922 57.708 113.718 58.1727 113.31 58.558C112.924 58.9433 112.437 59.136 111.848 59.136C111.281 59.136 110.794 58.9433 110.386 58.558C110 58.1727 109.808 57.708 109.808 57.164ZM121.559 76C121.174 76 120.924 75.9093 120.811 75.728C120.698 75.5467 120.641 75.3427 120.641 75.116V73.11C120.641 72.8607 120.72 72.6227 120.879 72.396C121.015 72.1693 121.242 72.056 121.559 72.056H124.823C125.322 72.056 125.65 71.8973 125.809 71.58C125.99 71.2627 126.081 70.832 126.081 70.288V62.468H129.957V68.928C129.957 69.8347 130.172 70.5827 130.603 71.172C131.034 71.7613 131.816 72.056 132.949 72.056H134.139C134.524 72.056 134.774 72.1467 134.887 72.328C135 72.5093 135.057 72.7247 135.057 72.974V75.048C135.057 75.2293 134.978 75.4333 134.819 75.66C134.683 75.8867 134.456 76 134.139 76H132.847C131.85 76 131.045 75.762 130.433 75.286C129.844 74.81 129.39 74.2887 129.073 73.722C128.688 74.3793 128.144 74.9233 127.441 75.354C126.761 75.7847 125.945 76 124.993 76H121.559ZM123.803 57.164C123.803 56.62 123.996 56.1553 124.381 55.77C124.766 55.3847 125.254 55.192 125.843 55.192C126.432 55.192 126.92 55.3847 127.305 55.77C127.69 56.1553 127.883 56.62 127.883 57.164C127.883 57.708 127.69 58.1727 127.305 58.558C126.92 58.9433 126.432 59.136 125.843 59.136C125.254 59.136 124.766 58.9433 124.381 58.558C123.996 58.1727 123.803 57.708 123.803 57.164ZM129.107 57.164C129.107 56.62 129.3 56.1553 129.685 55.77C130.07 55.3847 130.558 55.192 131.147 55.192C131.736 55.192 132.224 55.3847 132.609 55.77C132.994 56.1553 133.187 56.62 133.187 57.164C133.187 57.708 132.994 58.1727 132.609 58.558C132.224 58.9433 131.736 59.136 131.147 59.136C130.558 59.136 130.07 58.9433 129.685 58.558C129.3 58.1727 129.107 57.708 129.107 57.164ZM133.91 76C133.57 76 133.343 75.9093 133.23 75.728C133.094 75.5467 133.026 75.3427 133.026 75.116V73.11C133.026 72.8607 133.094 72.6227 133.23 72.396C133.366 72.1693 133.593 72.056 133.91 72.056H137.922V51.656H141.764V76H133.91ZM147.353 51.656H151.195V76H147.353V51.656ZM172.096 72.056V69.03C172.096 67.738 171.847 66.752 171.348 66.072C170.872 65.3693 170.158 65.018 169.206 65.018C168.798 65.018 168.401 65.1087 168.016 65.29C167.653 65.4487 167.325 65.6867 167.03 66.004C166.735 66.2987 166.497 66.6613 166.316 67.092C166.135 67.5227 166.044 68.01 166.044 68.554C166.044 69.1887 166.146 69.7327 166.35 70.186C166.554 70.6167 166.826 70.9793 167.166 71.274C167.506 71.546 167.891 71.75 168.322 71.886C168.775 71.9993 169.24 72.056 169.716 72.056H172.096ZM169.818 76C168.435 76 167.257 75.8073 166.282 75.422C165.33 75.014 164.548 74.4927 163.936 73.858C163.324 73.2007 162.882 72.464 162.61 71.648C162.338 70.832 162.202 70.0047 162.202 69.166C162.202 68.1007 162.383 67.092 162.746 66.14C163.109 65.1653 163.607 64.3153 164.242 63.59C164.877 62.8647 165.636 62.298 166.52 61.89C167.404 61.4593 168.379 61.244 169.444 61.244C170.419 61.244 171.303 61.414 172.096 61.754C172.912 62.0713 173.603 62.536 174.17 63.148C174.759 63.7373 175.201 64.4513 175.496 65.29C175.813 66.106 175.972 67.0127 175.972 68.01V72.056H178.386C178.703 72.056 178.93 72.1467 179.066 72.328C179.225 72.5093 179.304 72.7247 179.304 72.974V75.048C179.304 75.2293 179.225 75.4333 179.066 75.66C178.93 75.8867 178.703 76 178.386 76H169.818ZM164.65 57.164C164.65 56.62 164.843 56.1553 165.228 55.77C165.613 55.3847 166.101 55.192 166.69 55.192C167.279 55.192 167.767 55.3847 168.152 55.77C168.537 56.1553 168.73 56.62 168.73 57.164C168.73 57.708 168.537 58.1727 168.152 58.558C167.767 58.9433 167.279 59.136 166.69 59.136C166.101 59.136 165.613 58.9433 165.228 58.558C164.843 58.1727 164.65 57.708 164.65 57.164ZM169.954 57.164C169.954 56.62 170.147 56.1553 170.532 55.77C170.917 55.3847 171.405 55.192 171.994 55.192C172.583 55.192 173.071 55.3847 173.456 55.77C173.841 56.1553 174.034 56.62 174.034 57.164C174.034 57.708 173.841 58.1727 173.456 58.558C173.071 58.9433 172.583 59.136 171.994 59.136C171.405 59.136 170.917 58.9433 170.532 58.558C170.147 58.1727 169.954 57.708 169.954 57.164ZM187.248 68.248C187.135 67.092 186.852 66.2873 186.398 65.834C185.945 65.358 185.288 65.12 184.426 65.12C183.95 65.12 183.35 65.1993 182.624 65.358C181.922 65.5167 181.242 65.7547 180.584 66.072L179.598 62.332C179.87 62.2187 180.222 62.094 180.652 61.958C181.083 61.822 181.536 61.6973 182.012 61.584C182.511 61.4707 183.021 61.38 183.542 61.312C184.086 61.2213 184.619 61.176 185.14 61.176C186.115 61.176 186.954 61.3347 187.656 61.652C188.382 61.9467 188.982 62.3773 189.458 62.944C189.957 63.488 190.342 64.1453 190.614 64.916C190.886 65.6867 191.079 66.5253 191.192 67.432C191.238 67.8853 191.294 68.3387 191.362 68.792C191.43 69.2227 191.544 69.6533 191.702 70.084C191.884 70.5147 192.11 70.9113 192.382 71.274C192.677 71.6367 193.051 71.954 193.504 72.226V76H178.17C177.83 76 177.592 75.9093 177.456 75.728C177.32 75.5467 177.252 75.3427 177.252 75.116V73.11C177.252 72.8607 177.332 72.6227 177.49 72.396C177.626 72.1693 177.853 72.056 178.17 72.056H188.778C188.574 71.8067 188.291 71.376 187.928 70.764C187.588 70.1293 187.362 69.2907 187.248 68.248ZM206.972 72.056V69.03C206.972 67.738 206.711 66.752 206.19 66.072C205.691 65.3693 204.988 65.018 204.082 65.018C203.674 65.018 203.277 65.1087 202.892 65.29C202.529 65.4487 202.2 65.6867 201.906 66.004C201.611 66.2987 201.373 66.6613 201.192 67.092C201.01 67.5227 200.92 68.01 200.92 68.554C200.92 69.1887 201.022 69.7327 201.226 70.186C201.43 70.6167 201.702 70.9793 202.042 71.274C202.382 71.546 202.767 71.75 203.198 71.886C203.651 71.9993 204.116 72.056 204.592 72.056H206.972ZM210.814 76C210.746 77.3147 210.485 78.4367 210.032 79.366C209.578 80.318 208.966 81.0887 208.196 81.678C207.425 82.2673 206.518 82.698 205.476 82.97C204.433 83.2647 203.288 83.412 202.042 83.412C201.52 83.412 200.976 83.3893 200.41 83.344C199.843 83.3213 199.22 83.2533 198.54 83.14L198.812 79.332C199.469 79.4227 200.092 79.4907 200.682 79.536C201.271 79.5813 201.781 79.604 202.212 79.604C202.846 79.604 203.447 79.5587 204.014 79.468C204.58 79.3773 205.079 79.196 205.51 78.924C205.963 78.6747 206.314 78.312 206.564 77.836C206.836 77.3827 206.983 76.7707 207.006 76H204.728C203.322 76 202.132 75.8073 201.158 75.422C200.206 75.014 199.424 74.4927 198.812 73.858C198.222 73.2007 197.792 72.464 197.52 71.648C197.248 70.832 197.112 70.0047 197.112 69.166C197.112 68.1007 197.282 67.092 197.622 66.14C197.984 65.1653 198.483 64.3153 199.118 63.59C199.752 62.8647 200.5 62.298 201.362 61.89C202.246 61.4593 203.22 61.244 204.286 61.244C205.306 61.244 206.212 61.414 207.006 61.754C207.822 62.0713 208.513 62.536 209.08 63.148C209.646 63.7373 210.077 64.4513 210.372 65.29C210.666 66.106 210.814 67.0127 210.814 68.01V72.056H214.146C214.508 72.056 214.758 72.1467 214.894 72.328C215.03 72.5093 215.098 72.7247 215.098 72.974V75.048C215.098 75.2293 215.018 75.4333 214.86 75.66C214.724 75.8867 214.486 76 214.146 76H210.814ZM213.929 76C213.589 76 213.363 75.9093 213.249 75.728C213.113 75.5467 213.045 75.3427 213.045 75.116V73.11C213.045 72.8607 213.113 72.6227 213.249 72.396C213.385 72.1693 213.612 72.056 213.929 72.056H217.941V51.656H221.783V76H213.929Z" fill="#43515F"/>
</g>
<defs>
<filter id="filter0_d_838_13237" x="0" y="0" width="301" height="146" filterUnits="userSpaceOnUse" color-interpolation-filters="sRGB">
<feFlood flood-opacity="0" result="BackgroundImageFix"/>
<feColorMatrix in="SourceAlpha" type="matrix" values="0 0 0 0 0 0 0 0 0 0 0 0 0 0 0 0 0 0 127 0" result="hardAlpha"/>
<feOffset dx="3" dy="7"/>
<feGaussianBlur stdDeviation="2"/>
<feComposite in2="hardAlpha" operator="out"/>
<feColorMatrix type="matrix" values="0 0 0 0 0 0 0 0 0 0 0 0 0 0 0 0 0 0 0.25 0"/>
<feBlend mode="normal" in2="BackgroundImageFix" result="effect1_dropShadow_838_13237"/>
<feBlend mode="normal" in="SourceGraphic" in2="effect1_dropShadow_838_13237" result="shape"/>
</filter>
</defs>
</svg>
