<svg width="35" height="28" viewBox="0 0 35 28" fill="none" xmlns="http://www.w3.org/2000/svg">
<path d="M6.49863 12.6585L6.63434 12.6584C7.39342 12.658 8.13206 12.4472 8.75657 12.0571C9.3807 11.6673 9.86001 11.1179 10.141 10.4837C10.4216 9.85018 10.494 9.15606 10.3512 8.48699C10.2083 7.81748 9.85479 7.19604 9.32757 6.70398C8.79989 6.21148 8.12248 5.87166 7.37892 5.73369C6.63525 5.59571 5.86489 5.66706 5.16689 5.93716C4.46913 6.20718 3.87982 6.66161 3.4686 7.23643C3.05786 7.81057 2.84183 8.48045 2.84178 9.16156L6.49863 12.6585ZM6.49863 12.6585C5.52912 12.6261 4.61387 12.2522 3.93709 11.6201C3.23024 10.9601 2.84212 10.0747 2.84178 9.16176L6.49863 12.6585ZM24.2383 19.5241L24.1731 19.558C23.8641 19.6935 23.4521 19.6268 22.7877 19.0322L21.3466 17.7426L21.7162 19.6408C21.8426 20.2899 21.9167 20.9922 21.9167 21.7281C21.9167 23.3798 21.5693 24.8417 21.0416 25.867C20.4957 26.9274 19.8606 27.35 19.3476 27.35C19.0758 27.35 18.8653 27.2386 18.6644 26.933C18.442 26.5948 18.2645 26.0558 18.1432 25.312L16.8601 25.3122C16.7382 26.0619 16.5606 26.5997 16.3385 26.9356C16.1391 27.2372 15.9279 27.35 15.6482 27.35C15.1312 27.35 14.4972 26.9273 13.9537 25.8681C13.4278 24.8433 13.083 23.3812 13.083 21.7281L13.083 21.7275C13.0824 21.0272 13.1491 20.3282 13.2823 19.6387L13.6498 17.7367L12.2094 19.0321C11.5133 19.6582 11.0876 19.6949 10.772 19.5271L10.7721 19.5271L10.7658 19.5238C10.3392 19.303 10.0042 18.6782 10.079 17.5076C10.1511 16.3779 10.6082 14.9442 11.4681 13.4977L11.4682 13.4976C12.1057 12.4247 12.8616 11.5352 13.6244 10.8715C14.7829 11.5627 16.1274 11.9318 17.5016 11.9347L17.5049 11.9347C18.8768 11.9307 20.2188 11.5616 21.3753 10.8715C22.139 11.5352 22.8961 12.4239 23.5308 13.4965L23.5313 13.4975C24.3908 14.9447 24.8483 16.3787 24.9213 17.5085C24.997 18.6797 24.6628 19.3038 24.2383 19.5241ZM8.08901 14.7553C7.65392 16.0051 7.46377 17.2127 7.54054 18.2836C7.64645 19.7611 8.27444 21.0468 9.5403 21.704L9.94744 21.9153L9.97621 21.8885C10.0147 21.9018 10.0534 21.9144 10.0924 21.9262C10.1271 22.2275 10.1482 22.534 10.1482 22.8497C10.1482 24.1903 9.86593 25.3712 9.44281 26.1933C9.00159 27.0505 8.51056 27.3476 8.15569 27.3476C7.97797 27.3476 7.83865 27.2822 7.69101 27.058C7.52174 26.801 7.37904 26.3779 7.27995 25.7721L5.99683 25.7732C5.89836 26.3816 5.75569 26.8032 5.58678 27.0581C5.44033 27.2792 5.3001 27.3465 5.11621 27.3465C4.75701 27.3465 4.26684 27.0491 3.82786 26.1937C3.40633 25.3723 3.12626 24.1913 3.12626 22.8486C3.12627 22.2804 3.17957 21.7133 3.28559 21.1536L3.644 19.2615L2.21226 20.5494C1.65071 21.0545 1.35657 21.041 1.16598 20.939L1.16601 20.9389L1.15766 20.9346C0.872101 20.787 0.597803 20.3385 0.658058 19.3923C0.715668 18.4877 1.08266 17.3286 1.78062 16.1533C2.28262 15.3097 2.87119 14.6089 3.4655 14.0799C4.38992 14.6124 5.47095 14.9278 6.63595 14.9278L6.63828 14.9278C7.1291 14.926 7.61622 14.8677 8.08901 14.7553ZM28.3485 12.6587L28.2942 12.6601C27.3015 12.6426 26.3611 12.2666 25.6697 11.621C24.9628 10.9611 24.5747 10.0758 24.5746 9.16284C24.5744 8.24991 24.9622 7.36453 25.6689 6.70438C26.3751 6.04476 27.3411 5.66626 28.3574 5.66393C29.3538 5.69328 30.2908 6.0831 30.973 6.73908C31.6559 7.39567 32.0293 8.26541 32.0293 9.16116C32.0293 10.0569 31.6559 10.9267 30.973 11.5833C30.2888 12.2412 29.3482 12.6314 28.3485 12.6587ZM26.921 14.7562C27.3833 14.8664 27.8676 14.9266 28.3687 14.9266L28.3707 14.9266C29.4889 14.9232 30.5838 14.6302 31.5352 14.0808C32.1303 14.6105 32.7188 15.3109 33.218 16.154L33.2176 16.1543C33.9157 17.3286 34.2834 18.4874 34.3417 19.3922C34.4027 20.3385 34.129 20.788 33.8434 20.9363L33.8434 20.9363L33.8354 20.9406C33.6439 21.0434 33.3521 21.0574 32.7844 20.5478L31.343 19.2537L31.712 21.1553C31.8148 21.685 31.8771 22.2538 31.8771 22.8497C31.8771 24.1901 31.5944 25.371 31.1709 26.1931C30.7292 27.0508 30.2381 27.3476 29.8847 27.3476C29.7049 27.3476 29.5652 27.2815 29.4181 27.058C29.2491 26.8015 29.107 26.3788 29.0091 25.7734L27.7258 25.7733C27.6273 26.3823 27.4846 26.8042 27.3157 27.0593C27.1692 27.2804 27.029 27.3476 26.8452 27.3476C26.4862 27.3476 25.996 27.0502 25.5569 26.1942C25.1353 25.3724 24.8552 24.1907 24.8552 22.8474C24.8552 22.5335 24.8758 22.2281 24.9101 21.9276C25.0959 21.8706 25.2763 21.7976 25.449 21.7089L25.4508 21.708C26.9564 20.9294 27.6088 19.2992 27.48 17.3522C27.4285 16.521 27.2324 15.6408 26.921 14.7562ZM19.3678 9.13247C18.7785 9.3533 18.1467 9.46291 17.5095 9.45403C16.2462 9.43641 15.0493 8.95522 14.175 8.12679C13.3022 7.29973 12.8215 6.19497 12.8211 5.05379C12.8207 3.91261 13.3005 2.80756 14.1727 1.97995C15.0463 1.15096 16.2428 0.668994 17.5061 0.650548C18.1433 0.641245 18.7752 0.75044 19.3647 0.970891C19.9542 1.19133 20.488 1.51802 20.9362 1.92992C21.3843 2.34173 21.7376 2.83018 21.9778 3.36553C22.218 3.90075 22.3411 4.47345 22.3413 5.05074C22.3416 5.62802 22.2189 6.2008 21.9791 6.73616C21.7392 7.27166 21.3864 7.76034 20.9386 8.17243C20.4907 8.58461 19.9571 8.91165 19.3678 9.13247Z" fill="white" stroke="#3B3E43" stroke-width="1.3"/>
</svg>
