<svg width="388" height="871" viewBox="0 0 388 871" fill="none" xmlns="http://www.w3.org/2000/svg">
<path d="M77 170.5L88.5 162L101.5 186.5L88.5 195L77 170.5Z" fill="#AAD5D0"/>
<path d="M297 76.7273L287.143 69L276 91.2727L287.143 99L297 76.7273Z" fill="#84CCEA"/>
<path d="M66 446.727L56.1429 439L45 461.273L56.1429 469L66 446.727Z" fill="#84CCEA"/>
<path d="M39 299.955L49.7959 293L62 313.045L49.7959 320L39 299.955Z" fill="#AFC3D6"/>
<path d="M339 559.727L327.735 552L315 574.273L327.735 582L339 559.727Z" fill="#84CCEA"/>
<path d="M280 409.727L268.735 402L256 424.273L268.735 432L280 409.727Z" fill="#EBC06F"/>
<path d="M326 726.864L338.204 723L352 734.136L338.204 738L326 726.864Z" fill="#EBC06F"/>
<path d="M292 811.864L304.204 808L318 819.136L304.204 823L292 811.864Z" fill="#84CCEA"/>
<path d="M336 159.091L327.551 156L318 164.909L327.551 168L336 159.091Z" fill="#AAD5D0"/>
<path d="M362 491.864L374.204 488L388 499.136L374.204 503L362 491.864Z" fill="#AAD5D0"/>
<path d="M0 859.864L12.2041 856L26 867.136L12.2041 871L0 859.864Z" fill="#EFA17A"/>
<path d="M232 299.955L245.143 293L260 313.045L245.143 320L232 299.955Z" fill="#EE7C60"/>
<path d="M142 427.636L129.327 423L115 436.364L129.327 441L142 427.636Z" fill="#EE7C60"/>
<path d="M101 676.955L114.143 670L129 690.045L114.143 697L101 676.955Z" fill="#EE7C5F"/>
<path d="M287 148.364L300.143 153L315 139.636L300.143 135L287 148.364Z" fill="#EFA17A"/>
<path d="M327 56.3636L340.143 61L355 47.6364L340.143 43L327 56.3636Z" fill="#EBC06F"/>
<path d="M73 51.3636L86.1429 56L101 42.6364L86.1429 38L73 51.3636Z" fill="#AFC3D6"/>
<circle cx="62.5" cy="251.5" r="7.5" fill="white"/>
<circle cx="287.5" cy="689.5" r="7.5" fill="white"/>
<circle cx="287.5" cy="689.5" r="7.5" fill="white"/>
<circle cx="265.5" cy="825.5" r="5.5" fill="white"/>
<circle cx="81.5" cy="106.5" r="7.5" fill="white"/>
<circle cx="286.5" cy="25.5" r="7.5" fill="white"/>
<circle cx="161.5" cy="336.5" r="3.5" fill="white"/>
<circle cx="358.5" cy="398.5" r="3.5" fill="white"/>
<circle cx="121.5" cy="138.5" r="3.5" fill="white"/>
<circle cx="132.5" cy="29.5" r="3.5" fill="white"/>
<circle cx="318.5" cy="55.5" r="3.5" fill="white"/>
<circle cx="35.5" cy="660.5" r="3.5" fill="white"/>
<circle cx="87.5" cy="768.5" r="3.5" fill="white"/>
<circle cx="256.5" cy="713.5" r="3.5" fill="white"/>
<circle cx="72" cy="551" r="2" fill="white"/>
<circle cx="243" cy="358" r="2" fill="white"/>
<circle cx="274" cy="340" r="2" fill="white"/>
<circle cx="315" cy="441" r="2" fill="white"/>
<circle cx="85" cy="562" r="2" fill="white"/>
<circle cx="126" cy="787" r="2" fill="white"/>
<path d="M172 110.136L181.388 114L192 102.864L181.388 99L172 110.136Z" fill="#EE7C5F"/>
<path d="M14 4.63636L1.32653 0L-13 13.3636L1.32653 18L14 4.63636Z" fill="#EE7C60"/>
</svg>
