<svg width="168" height="129" viewBox="0 0 168 129" fill="none" xmlns="http://www.w3.org/2000/svg">
<path d="M0.206876 34C-6.81187 159.094 167.097 162.117 167.097 34H0.206876Z" fill="#EFA17A" fill-opacity="0.22"/>
<g filter="url(#filter0_d_723_295)">
<ellipse cx="82" cy="49" rx="50" ry="48" fill="#EFA17A"/>
</g>
<path fill-rule="evenodd" clip-rule="evenodd" d="M60 49.1458C60 37.4673 69.7938 28 81.875 28C93.9562 28 103.75 37.4673 103.75 49.1458C103.75 60.8244 93.9562 70.2917 81.875 70.2917C69.7938 70.2917 60 60.8244 60 49.1458ZM84.375 39.4792C84.375 40.8139 83.2557 41.8958 81.875 41.8958C80.4943 41.8958 79.375 40.8139 79.375 39.4792C79.375 38.1445 80.4943 37.0625 81.875 37.0625C83.2557 37.0625 84.375 38.1445 84.375 39.4792ZM81.875 46.125C82.9105 46.125 83.75 46.9365 83.75 47.9375V60.0208C83.75 61.0218 82.9105 61.8333 81.875 61.8333C80.8395 61.8333 80 61.0218 80 60.0208V47.9375C80 46.9365 80.8395 46.125 81.875 46.125Z" fill="white"/>
<defs>
<filter id="filter0_d_723_295" x="25" y="0" width="112" height="108" filterUnits="userSpaceOnUse" color-interpolation-filters="sRGB">
<feFlood flood-opacity="0" result="BackgroundImageFix"/>
<feColorMatrix in="SourceAlpha" type="matrix" values="0 0 0 0 0 0 0 0 0 0 0 0 0 0 0 0 0 0 127 0" result="hardAlpha"/>
<feOffset dx="-1" dy="5"/>
<feGaussianBlur stdDeviation="3"/>
<feComposite in2="hardAlpha" operator="out"/>
<feColorMatrix type="matrix" values="0 0 0 0 0 0 0 0 0 0 0 0 0 0 0 0 0 0 0.25 0"/>
<feBlend mode="normal" in2="BackgroundImageFix" result="effect1_dropShadow_723_295"/>
<feBlend mode="normal" in="SourceGraphic" in2="effect1_dropShadow_723_295" result="shape"/>
</filter>
</defs>
</svg>
