<svg width="168" height="129" viewBox="0 0 168 129" fill="none" xmlns="http://www.w3.org/2000/svg">
<path d="M0.206876 34C-6.81187 159.094 167.097 162.117 167.097 34H0.206876Z" fill="#EFA17A" fill-opacity="0.22"/>
<g filter="url(#filter0_d_723_295)">
<ellipse cx="82" cy="49" rx="50" ry="48" fill="#E14A4A"/>
</g>
<path d="M76.8619 33.2862C76.8619 32.5563 77.474 31.9646 78.2291 31.9646H85.5208C86.2758 31.9646 86.8879 32.5563 86.8879 33.2862V34.6077H94.6353C95.3904 34.6077 96.0025 35.1994 96.0025 35.9293C96.0025 36.6592 95.3904 37.2508 94.6353 37.2508H69.1145C68.3594 37.2508 67.7473 36.6592 67.7473 35.9293C67.7473 35.1994 68.3594 34.6077 69.1145 34.6077H76.8619V33.2862Z" fill="white"/>
<path fill-rule="evenodd" clip-rule="evenodd" d="M71.3747 41.9993C71.426 41.5531 71.8162 41.2155 72.2806 41.2155H91.4692C91.9336 41.2155 92.3238 41.5531 92.3751 41.9993L92.7399 45.1734C93.3976 50.8948 93.3976 56.6691 92.7399 62.3905L92.704 62.703C92.4645 64.7868 90.7938 66.4484 88.6457 66.7391C84.1537 67.347 79.5961 67.347 75.1041 66.7391C72.9561 66.4484 71.2853 64.7868 71.0458 62.703L71.0099 62.3905C70.3522 56.6691 70.3522 50.8948 71.0099 45.1734L71.3747 41.9993ZM79.5963 48.0877C79.5963 47.3578 78.9842 46.7661 78.2291 46.7661C77.474 46.7661 76.8619 47.3578 76.8619 48.0877L76.8619 60.4222C76.8619 61.1521 77.474 61.7438 78.2291 61.7438C78.9842 61.7438 79.5963 61.1521 79.5963 60.4222L79.5963 48.0877ZM86.8879 48.0877C86.8879 47.3578 86.2758 46.7661 85.5208 46.7661C84.7657 46.7661 84.1536 47.3578 84.1536 48.0877V60.4222C84.1536 61.1521 84.7657 61.7438 85.5208 61.7438C86.2758 61.7438 86.8879 61.1521 86.8879 60.4222V48.0877Z" fill="white"/>
<defs>
<filter id="filter0_d_723_295" x="25" y="0" width="112" height="108" filterUnits="userSpaceOnUse" color-interpolation-filters="sRGB">
<feFlood flood-opacity="0" result="BackgroundImageFix"/>
<feColorMatrix in="SourceAlpha" type="matrix" values="0 0 0 0 0 0 0 0 0 0 0 0 0 0 0 0 0 0 127 0" result="hardAlpha"/>
<feOffset dx="-1" dy="5"/>
<feGaussianBlur stdDeviation="3"/>
<feComposite in2="hardAlpha" operator="out"/>
<feColorMatrix type="matrix" values="0 0 0 0 0 0 0 0 0 0 0 0 0 0 0 0 0 0 0.25 0"/>
<feBlend mode="normal" in2="BackgroundImageFix" result="effect1_dropShadow_723_295"/>
<feBlend mode="normal" in="SourceGraphic" in2="effect1_dropShadow_723_295" result="shape"/>
</filter>
</defs>
</svg>
