<svg width="380" height="52" viewBox="0 -8 357 52" fill="none" xmlns="http://www.w3.org/2000/svg">
<path fill-rule="evenodd" clip-rule="evenodd" d="M349.417 26.3334C350.19 26.3334 350.932 26.0261 351.479 25.4791C352.026 24.9321 352.333 24.1903 352.333 23.4167C352.333 22.6432 352.026 21.9013 351.479 21.3543C350.932 20.8073 350.19 20.5 349.417 20.5C348.643 20.5 347.901 20.8073 347.354 21.3543C346.807 21.9013 346.5 22.6432 346.5 23.4167C346.5 24.1903 346.807 24.9321 347.354 25.4791C347.901 26.0261 348.643 26.3334 349.417 26.3334ZM349.417 27.5C350.5 27.5 351.538 27.0698 352.304 26.3041C353.07 25.5383 353.5 24.4997 353.5 23.4167C353.5 22.3337 353.07 21.2951 352.304 20.5294C351.538 19.7636 350.5 19.3334 349.417 19.3334C348.334 19.3334 347.295 19.7636 346.529 20.5294C345.763 21.2951 345.333 22.3337 345.333 23.4167C345.333 24.4997 345.763 25.5383 346.529 26.3041C347.295 27.0698 348.334 27.5 349.417 27.5V27.5Z" fill="#43515F"/>
<path fill-rule="evenodd" clip-rule="evenodd" d="M349.417 21.375C349.571 21.375 349.72 21.4365 349.829 21.5459C349.938 21.6553 350 21.8036 350 21.9583V23.1752L350.412 23.5876C350.519 23.6976 350.577 23.845 350.576 23.9979C350.575 24.1509 350.513 24.2972 350.405 24.4053C350.297 24.5135 350.151 24.5748 349.998 24.5761C349.845 24.5775 349.698 24.5187 349.588 24.4124L348.833 23.6582V21.9583C348.833 21.8036 348.895 21.6553 349.004 21.5459C349.114 21.4365 349.262 21.375 349.417 21.375ZM337.167 16.4167H336V17.5833H337.167V16.4167ZM336 15.25C335.69 15.25 335.394 15.3729 335.175 15.5917C334.956 15.8105 334.833 16.1072 334.833 16.4167V17.5833C334.833 17.8928 334.956 18.1895 335.175 18.4083C335.394 18.6271 335.69 18.75 336 18.75H337.167C337.476 18.75 337.773 18.6271 337.992 18.4083C338.21 18.1895 338.333 17.8928 338.333 17.5833V16.4167C338.333 16.1072 338.21 15.8105 337.992 15.5917C337.773 15.3729 337.476 15.25 337.167 15.25H336ZM341.833 16.4167H340.667V17.5833H341.833V16.4167ZM340.667 15.25C340.357 15.25 340.06 15.3729 339.842 15.5917C339.623 15.8105 339.5 16.1072 339.5 16.4167V17.5833C339.5 17.8928 339.623 18.1895 339.842 18.4083C340.06 18.6271 340.357 18.75 340.667 18.75H341.833C342.143 18.75 342.439 18.6271 342.658 18.4083C342.877 18.1895 343 17.8928 343 17.5833V16.4167C343 16.1072 342.877 15.8105 342.658 15.5917C342.439 15.3729 342.143 15.25 341.833 15.25H340.667ZM346.5 16.4167H345.333V17.5833H346.5V16.4167ZM345.333 15.25C345.024 15.25 344.727 15.3729 344.508 15.5917C344.29 15.8105 344.167 16.1072 344.167 16.4167V17.5833C344.167 17.8928 344.29 18.1895 344.508 18.4083C344.727 18.6271 345.024 18.75 345.333 18.75H346.5C346.809 18.75 347.106 18.6271 347.325 18.4083C347.544 18.1895 347.667 17.8928 347.667 17.5833V16.4167C347.667 16.1072 347.544 15.8105 347.325 15.5917C347.106 15.3729 346.809 15.25 346.5 15.25H345.333ZM337.167 21.0833H336V22.25H337.167V21.0833ZM336 19.9167C335.69 19.9167 335.394 20.0396 335.175 20.2584C334.956 20.4772 334.833 20.7739 334.833 21.0833V22.25C334.833 22.5594 334.956 22.8562 335.175 23.075C335.394 23.2938 335.69 23.4167 336 23.4167H337.167C337.476 23.4167 337.773 23.2938 337.992 23.075C338.21 22.8562 338.333 22.5594 338.333 22.25V21.0833C338.333 20.7739 338.21 20.4772 337.992 20.2584C337.773 20.0396 337.476 19.9167 337.167 19.9167H336ZM341.833 21.0833H340.667V22.25H341.833V21.0833ZM340.667 19.9167C340.357 19.9167 340.06 20.0396 339.842 20.2584C339.623 20.4772 339.5 20.7739 339.5 21.0833V22.25C339.5 22.5594 339.623 22.8562 339.842 23.075C340.06 23.2938 340.357 23.4167 340.667 23.4167H341.833C342.143 23.4167 342.439 23.2938 342.658 23.075C342.877 22.8562 343 22.5594 343 22.25V21.0833C343 20.7739 342.877 20.4772 342.658 20.2584C342.439 20.0396 342.143 19.9167 341.833 19.9167H340.667Z" fill="#43515F"/>
<path fill-rule="evenodd" clip-rule="evenodd" d="M333.667 10C333.667 9.84529 333.728 9.69692 333.838 9.58752C333.947 9.47812 334.095 9.41667 334.25 9.41667H337.167V8.25H334.25C333.786 8.25 333.341 8.43437 333.013 8.76256C332.684 9.09075 332.5 9.53587 332.5 10V24C332.5 24.4641 332.684 24.9092 333.013 25.2374C333.341 25.5656 333.786 25.75 334.25 25.75H346.065C345.817 25.3937 345.627 24.9998 345.503 24.5833H334.25C334.095 24.5833 333.947 24.5219 333.838 24.4125C333.728 24.3031 333.667 24.1547 333.667 24V10ZM348.833 19.3742C349.22 19.3188 349.613 19.3188 350 19.3742V10C350 9.53587 349.816 9.09075 349.487 8.76256C349.159 8.43437 348.714 8.25 348.25 8.25H346.5V9.41667H348.25C348.405 9.41667 348.553 9.47812 348.662 9.58752C348.772 9.69692 348.833 9.84529 348.833 10V19.3742ZM338.333 9.41667H344.495V8.25H338.333V9.41667Z" fill="#43515F"/>
<path fill-rule="evenodd" clip-rule="evenodd" d="M345.333 8.25H338.333V10C338.333 10.1547 338.272 10.3031 338.162 10.4125C338.053 10.5219 337.905 10.5833 337.75 10.5833C337.595 10.5833 337.447 10.5219 337.337 10.4125C337.228 10.3031 337.167 10.1547 337.167 10V8.25H334.25C333.94 8.25 333.644 8.37292 333.425 8.59171C333.206 8.8105 333.083 9.10725 333.083 9.41667V12.3333C333.083 12.6428 333.206 12.9395 333.425 13.1583C333.644 13.3771 333.94 13.5 334.25 13.5H348.25C348.559 13.5 348.856 13.3771 349.075 13.1583C349.294 12.9395 349.417 12.6428 349.417 12.3333V9.41667C349.417 9.10725 349.294 8.8105 349.075 8.59171C348.856 8.37292 348.559 8.25 348.25 8.25H346.5V10C346.5 10.1547 346.438 10.3031 346.329 10.4125C346.22 10.5219 346.071 10.5833 345.917 10.5833C345.762 10.5833 345.614 10.5219 345.504 10.4125C345.395 10.3031 345.333 10.1547 345.333 10V8.25Z" fill="#43515F"/>
<path fill-rule="evenodd" clip-rule="evenodd" d="M350 13.5H333.667V12.3334H350V13.5Z" fill="#43515F"/>
<path d="M336 7.08333C336 6.92862 336.061 6.78025 336.171 6.67085C336.28 6.56146 336.429 6.5 336.583 6.5C336.738 6.5 336.886 6.56146 336.996 6.67085C337.105 6.78025 337.167 6.92862 337.167 7.08333V9.41667C337.167 9.57138 337.105 9.71975 336.996 9.82915C336.886 9.93854 336.738 10 336.583 10C336.429 10 336.28 9.93854 336.171 9.82915C336.061 9.71975 336 9.57138 336 9.41667V7.08333ZM344.167 7.08333C344.167 6.92862 344.228 6.78025 344.338 6.67085C344.447 6.56146 344.595 6.5 344.75 6.5C344.905 6.5 345.053 6.56146 345.162 6.67085C345.272 6.78025 345.333 6.92862 345.333 7.08333V9.41667C345.333 9.57138 345.272 9.71975 345.162 9.82915C345.053 9.93854 344.905 10 344.75 10C344.595 10 344.447 9.93854 344.338 9.82915C344.228 9.71975 344.167 9.57138 344.167 9.41667V7.08333Z" fill="#43515F"/>
<path d="M209.126 15.688C208.902 15.688 208.694 15.7253 208.502 15.8C208.31 15.864 208.14 15.976 207.99 16.136C207.852 16.296 207.74 16.504 207.654 16.76C207.569 17.016 207.526 17.3307 207.526 17.704V19.112H209.03C209.649 19.112 210.065 18.9733 210.278 18.696C210.502 18.4187 210.614 18.008 210.614 17.464C210.614 16.9093 210.486 16.4773 210.23 16.168C209.974 15.848 209.606 15.688 209.126 15.688ZM214.87 20.552C214.87 20.6373 214.833 20.7333 214.758 20.84C214.694 20.9467 214.588 21 214.438 21H213.83C213.382 21 212.977 20.8773 212.614 20.632C212.262 20.376 211.99 20.0773 211.798 19.736C211.478 20.184 211.057 20.5093 210.534 20.712C210.022 20.904 209.43 21 208.758 21H205.238C204.897 21 204.641 21.096 204.47 21.288C204.31 21.4907 204.23 21.864 204.23 22.408V26.344H202.406V21.96C202.406 21.0213 202.657 20.312 203.158 19.832C203.66 19.352 204.31 19.112 205.11 19.112H205.686V17.544C205.686 17.0853 205.761 16.6373 205.91 16.2C206.07 15.752 206.294 15.3573 206.582 15.016C206.87 14.6747 207.222 14.4027 207.638 14.2C208.065 13.9867 208.545 13.88 209.078 13.88C209.601 13.88 210.07 13.9707 210.486 14.152C210.902 14.3227 211.254 14.5627 211.542 14.872C211.841 15.1813 212.065 15.5547 212.214 15.992C212.374 16.4293 212.454 16.904 212.454 17.416V17.864C212.454 17.9493 212.465 18.0667 212.486 18.216C212.508 18.3547 212.566 18.4933 212.662 18.632C212.758 18.7707 212.897 18.8933 213.078 19C213.27 19.096 213.526 19.144 213.846 19.144H214.438C214.598 19.144 214.71 19.1867 214.774 19.272C214.838 19.3573 214.87 19.4587 214.87 19.576V20.552ZM214.343 21C214.161 21 214.044 20.9573 213.991 20.872C213.937 20.7867 213.911 20.6907 213.911 20.584V19.64C213.911 19.5227 213.948 19.4107 214.023 19.304C214.087 19.1973 214.193 19.144 214.343 19.144H215.879C216.113 19.144 216.268 19.0693 216.343 18.92C216.428 18.7707 216.471 18.568 216.471 18.312V14.632H218.295V17.672C218.295 18.0987 218.396 18.4507 218.599 18.728C218.801 19.0053 219.169 19.144 219.703 19.144H220.263C220.444 19.144 220.561 19.1867 220.615 19.272C220.668 19.3573 220.695 19.4587 220.695 19.576V20.552C220.695 20.6373 220.657 20.7333 220.583 20.84C220.519 20.9467 220.412 21 220.263 21H219.655C219.185 21 218.807 20.888 218.519 20.664C218.241 20.44 218.028 20.1947 217.879 19.928C217.697 20.2373 217.441 20.4933 217.111 20.696C216.791 20.8987 216.407 21 215.959 21H214.343ZM215.175 23.016C215.175 22.76 215.265 22.5413 215.447 22.36C215.628 22.1893 215.857 22.104 216.135 22.104C216.412 22.104 216.641 22.1893 216.823 22.36C217.004 22.5413 217.095 22.76 217.095 23.016C217.095 23.2827 217.004 23.5013 216.823 23.672C216.641 23.8533 216.412 23.944 216.135 23.944C215.857 23.944 215.628 23.8533 215.447 23.672C215.265 23.5013 215.175 23.2827 215.175 23.016ZM217.655 23.016C217.655 22.76 217.745 22.5413 217.927 22.36C218.108 22.1893 218.337 22.104 218.615 22.104C218.892 22.104 219.121 22.1893 219.303 22.36C219.484 22.5413 219.575 22.76 219.575 23.016C219.575 23.2827 219.484 23.5013 219.303 23.672C219.121 23.8533 218.892 23.944 218.615 23.944C218.337 23.944 218.108 23.8533 217.927 23.672C217.745 23.5013 217.655 23.2827 217.655 23.016ZM220.171 21C219.989 21 219.872 20.9573 219.819 20.872C219.765 20.7867 219.739 20.6907 219.739 20.584V19.64C219.739 19.5227 219.776 19.4107 219.851 19.304C219.915 19.1973 220.021 19.144 220.171 19.144H221.707C221.941 19.144 222.096 19.0693 222.171 18.92C222.256 18.7707 222.299 18.568 222.299 18.312V9.544H224.139V17.672C224.139 18.0987 224.235 18.4507 224.427 18.728C224.629 19.0053 225.003 19.144 225.547 19.144H226.107C226.288 19.144 226.405 19.1867 226.459 19.272C226.512 19.3573 226.539 19.4587 226.539 19.576V20.552C226.539 20.6373 226.501 20.7333 226.427 20.84C226.363 20.9467 226.256 21 226.107 21H225.483C225.024 21 224.651 20.8933 224.363 20.68C224.085 20.456 223.872 20.2107 223.723 19.944C223.541 20.296 223.285 20.5627 222.955 20.744C222.624 20.9147 222.235 21 221.787 21H220.171ZM226.03 21C225.86 21 225.742 20.9573 225.678 20.872C225.614 20.7867 225.582 20.6907 225.582 20.584V19.64C225.582 19.5227 225.62 19.4107 225.694 19.304C225.769 19.1973 225.881 19.144 226.03 19.144H228.831C229.076 19.144 229.241 19.08 229.327 18.952C229.412 18.824 229.455 18.6267 229.455 18.36V16.12H231.247V17.672C231.247 18.0773 231.348 18.424 231.551 18.712C231.753 19 232.127 19.144 232.671 19.144H232.959C233.204 19.144 233.364 19.0693 233.439 18.92C233.513 18.7707 233.551 18.568 233.551 18.312V15.496H235.391V17.672C235.391 18.0987 235.492 18.4507 235.695 18.728C235.897 19.0053 236.265 19.144 236.799 19.144H237.183C237.439 19.144 237.604 19.0693 237.679 18.92C237.764 18.7707 237.807 18.568 237.807 18.312V14.632H239.615V17.672C239.615 18.0987 239.711 18.4507 239.903 18.728C240.105 19.0053 240.473 19.144 241.007 19.144H241.663C241.833 19.144 241.951 19.1867 242.015 19.272C242.079 19.3573 242.111 19.4587 242.111 19.576V20.552C242.111 20.6373 242.073 20.7333 241.999 20.84C241.935 20.9467 241.828 21 241.679 21H241.007C240.527 21 240.143 20.8933 239.855 20.68C239.577 20.4667 239.364 20.2213 239.215 19.944C239.033 20.2853 238.761 20.5467 238.399 20.728C238.036 20.9093 237.631 21 237.183 21H236.751C236.271 21 235.892 20.8933 235.615 20.68C235.348 20.4667 235.145 20.2267 235.007 19.96C234.804 20.312 234.527 20.5733 234.175 20.744C233.823 20.9147 233.449 21 233.055 21H232.639C232.18 21 231.807 20.8933 231.519 20.68C231.241 20.4667 231.033 20.2267 230.895 19.96C230.692 20.312 230.404 20.5733 230.031 20.744C229.668 20.9147 229.263 21 228.815 21H226.03ZM241.577 21C241.396 21 241.278 20.9573 241.225 20.872C241.172 20.7867 241.145 20.6907 241.145 20.584V19.64C241.145 19.5227 241.182 19.4107 241.257 19.304C241.321 19.1973 241.428 19.144 241.577 19.144H243.113C243.348 19.144 243.502 19.0693 243.577 18.92C243.662 18.7707 243.705 18.568 243.705 18.312V14.632H245.529V17.672C245.529 18.0987 245.63 18.4507 245.833 18.728C246.036 19.0053 246.404 19.144 246.937 19.144H247.497C247.678 19.144 247.796 19.1867 247.849 19.272C247.902 19.3573 247.929 19.4587 247.929 19.576V20.552C247.929 20.6373 247.892 20.7333 247.817 20.84C247.753 20.9467 247.646 21 247.497 21H246.889C246.42 21 246.041 20.888 245.753 20.664C245.476 20.44 245.262 20.1947 245.113 19.928C244.932 20.2373 244.676 20.4933 244.345 20.696C244.025 20.8987 243.641 21 243.193 21H241.577ZM242.633 12.136C242.633 11.88 242.724 11.6613 242.905 11.48C243.086 11.2987 243.316 11.208 243.593 11.208C243.87 11.208 244.1 11.2987 244.281 11.48C244.462 11.6613 244.553 11.88 244.553 12.136C244.553 12.392 244.462 12.6107 244.281 12.792C244.1 12.9733 243.87 13.064 243.593 13.064C243.316 13.064 243.086 12.9733 242.905 12.792C242.724 12.6107 242.633 12.392 242.633 12.136ZM245.129 12.136C245.129 11.88 245.22 11.6613 245.401 11.48C245.582 11.2987 245.812 11.208 246.089 11.208C246.366 11.208 246.596 11.2987 246.777 11.48C246.958 11.6613 247.049 11.88 247.049 12.136C247.049 12.392 246.958 12.6107 246.777 12.792C246.596 12.9733 246.366 13.064 246.089 13.064C245.812 13.064 245.582 12.9733 245.401 12.792C245.22 12.6107 245.129 12.392 245.129 12.136ZM247.389 21C247.229 21 247.122 20.9573 247.069 20.872C247.005 20.7867 246.973 20.6907 246.973 20.584V19.64C246.973 19.5227 247.005 19.4107 247.069 19.304C247.133 19.1973 247.24 19.144 247.389 19.144H249.277V9.544H251.085V21H247.389ZM253.715 9.544H255.523V21H253.715V9.544ZM260.703 26.344V21.96C260.703 21.0213 260.954 20.312 261.455 19.832C261.967 19.352 262.623 19.112 263.423 19.112H263.983V17.544C263.983 17.0853 264.058 16.6373 264.207 16.2C264.367 15.752 264.591 15.3573 264.879 15.016C265.178 14.6747 265.535 14.4027 265.951 14.2C266.378 13.9867 266.858 13.88 267.391 13.88C267.903 13.88 268.367 13.9707 268.783 14.152C269.199 14.3227 269.551 14.5627 269.839 14.872C270.138 15.1813 270.367 15.5547 270.527 15.992C270.687 16.4293 270.767 16.904 270.767 17.416C270.767 18.056 270.676 18.6053 270.495 19.064C270.314 19.512 270.058 19.88 269.727 20.168C269.396 20.456 269.002 20.6693 268.543 20.808C268.095 20.936 267.599 21 267.055 21H263.551C263.21 21 262.954 21.096 262.783 21.288C262.612 21.4907 262.527 21.864 262.527 22.408V26.344H260.703ZM267.439 15.688C267.215 15.688 267.007 15.7253 266.815 15.8C266.623 15.864 266.452 15.976 266.303 16.136C266.164 16.296 266.052 16.504 265.967 16.76C265.882 17.016 265.839 17.3307 265.839 17.704V19.112H267.343C267.951 19.112 268.362 18.9733 268.575 18.696C268.799 18.4187 268.911 18.008 268.911 17.464C268.911 16.9093 268.783 16.4773 268.527 16.168C268.282 15.848 267.919 15.688 267.439 15.688ZM277.287 19.144V17.72C277.287 17.112 277.164 16.648 276.919 16.328C276.684 15.9973 276.353 15.832 275.927 15.832C275.735 15.832 275.548 15.8747 275.367 15.96C275.196 16.0347 275.041 16.1467 274.903 16.296C274.764 16.4347 274.652 16.6053 274.567 16.808C274.481 17.0107 274.439 17.24 274.439 17.496C274.439 17.7947 274.487 18.0507 274.583 18.264C274.679 18.4667 274.807 18.6373 274.967 18.776C275.127 18.904 275.308 19 275.511 19.064C275.724 19.1173 275.943 19.144 276.167 19.144H277.287ZM279.095 21C279.063 21.6187 278.94 22.1467 278.727 22.584C278.513 23.032 278.225 23.3947 277.863 23.672C277.5 23.9493 277.073 24.152 276.583 24.28C276.092 24.4187 275.553 24.488 274.967 24.488C274.721 24.488 274.465 24.4773 274.199 24.456C273.932 24.4453 273.639 24.4133 273.319 24.36L273.447 22.568C273.756 22.6107 274.049 22.6427 274.327 22.664C274.604 22.6853 274.844 22.696 275.047 22.696C275.345 22.696 275.628 22.6747 275.895 22.632C276.161 22.5893 276.396 22.504 276.599 22.376C276.812 22.2587 276.977 22.088 277.095 21.864C277.223 21.6507 277.292 21.3627 277.303 21H276.231C275.569 21 275.009 20.9093 274.551 20.728C274.103 20.536 273.735 20.2907 273.447 19.992C273.169 19.6827 272.967 19.336 272.839 18.952C272.711 18.568 272.647 18.1787 272.647 17.784C272.647 17.2827 272.727 16.808 272.887 16.36C273.057 15.9013 273.292 15.5013 273.591 15.16C273.889 14.8187 274.241 14.552 274.647 14.36C275.063 14.1573 275.521 14.056 276.023 14.056C276.503 14.056 276.929 14.136 277.303 14.296C277.687 14.4453 278.012 14.664 278.279 14.952C278.545 15.2293 278.748 15.5653 278.887 15.96C279.025 16.344 279.095 16.7707 279.095 17.24V19.144H280.663C280.833 19.144 280.951 19.1867 281.015 19.272C281.079 19.3573 281.111 19.4587 281.111 19.576V20.552C281.111 20.6373 281.073 20.7333 280.999 20.84C280.935 20.9467 280.823 21 280.663 21H279.095ZM280.561 21C280.412 21 280.305 20.9573 280.241 20.872C280.177 20.7867 280.145 20.6907 280.145 20.584V19.64C280.145 19.5227 280.182 19.4107 280.257 19.304C280.321 19.1973 280.422 19.144 280.561 19.144H282.753V14.632H284.577V21H280.561ZM280.689 23.016C280.689 22.76 280.78 22.5413 280.961 22.36C281.142 22.1893 281.372 22.104 281.649 22.104C281.926 22.104 282.156 22.1893 282.337 22.36C282.518 22.5413 282.609 22.76 282.609 23.016C282.609 23.2827 282.518 23.5013 282.337 23.672C282.156 23.8533 281.926 23.944 281.649 23.944C281.372 23.944 281.142 23.8533 280.961 23.672C280.78 23.5013 280.689 23.2827 280.689 23.016ZM283.169 23.016C283.169 22.76 283.26 22.5413 283.441 22.36C283.622 22.1893 283.852 22.104 284.129 22.104C284.406 22.104 284.636 22.1893 284.817 22.36C284.998 22.5413 285.089 22.76 285.089 23.016C285.089 23.2827 284.998 23.5013 284.817 23.672C284.636 23.8533 284.406 23.944 284.129 23.944C283.852 23.944 283.622 23.8533 283.441 23.672C283.26 23.5013 283.169 23.2827 283.169 23.016ZM297.877 21C297.429 21 297.061 20.8987 296.773 20.696C296.485 20.4827 296.261 20.2373 296.101 19.96C295.92 20.2907 295.658 20.5467 295.317 20.728C294.986 20.9093 294.608 21 294.181 21H290.405V19.144H294.053C294.298 19.144 294.464 19.08 294.549 18.952C294.634 18.824 294.677 18.6213 294.677 18.344C294.677 17.9173 294.661 17.544 294.629 17.224C294.597 16.8933 294.517 16.6267 294.389 16.424C294.261 16.2107 294.069 16.0507 293.813 15.944C293.568 15.8373 293.226 15.784 292.789 15.784H291.269V14.024H293.157C293.776 14.024 294.298 14.1147 294.725 14.296C295.152 14.4667 295.493 14.7067 295.749 15.016C296.005 15.3253 296.186 15.6933 296.293 16.12C296.41 16.536 296.469 16.9893 296.469 17.48C296.469 18.024 296.581 18.44 296.805 18.728C297.029 19.0053 297.397 19.144 297.909 19.144H298.485C298.645 19.144 298.757 19.1867 298.821 19.272C298.885 19.3573 298.917 19.4587 298.917 19.576V20.552C298.917 20.6373 298.88 20.7333 298.805 20.84C298.741 20.9467 298.634 21 298.485 21H297.877ZM298.373 21C298.224 21 298.117 20.9573 298.053 20.872C297.989 20.7867 297.957 20.6907 297.957 20.584V19.64C297.957 19.5227 297.995 19.4107 298.069 19.304C298.133 19.1973 298.235 19.144 298.373 19.144H300.566V14.632H302.39V21H298.373ZM298.502 23.016C298.502 22.76 298.592 22.5413 298.774 22.36C298.955 22.1893 299.184 22.104 299.462 22.104C299.739 22.104 299.968 22.1893 300.15 22.36C300.331 22.5413 300.422 22.76 300.422 23.016C300.422 23.2827 300.331 23.5013 300.15 23.672C299.968 23.8533 299.739 23.944 299.462 23.944C299.184 23.944 298.955 23.8533 298.774 23.672C298.592 23.5013 298.502 23.2827 298.502 23.016ZM300.982 23.016C300.982 22.76 301.072 22.5413 301.254 22.36C301.435 22.1893 301.664 22.104 301.942 22.104C302.219 22.104 302.448 22.1893 302.63 22.36C302.811 22.5413 302.902 22.76 302.902 23.016C302.902 23.2827 302.811 23.5013 302.63 23.672C302.448 23.8533 302.219 23.944 301.942 23.944C301.664 23.944 301.435 23.8533 301.254 23.672C301.072 23.5013 300.982 23.2827 300.982 23.016ZM311.689 21C311.241 21 310.873 20.8987 310.585 20.696C310.297 20.4827 310.073 20.2373 309.913 19.96C309.732 20.2907 309.471 20.5467 309.129 20.728C308.799 20.9093 308.42 21 307.993 21H304.217V19.144H307.865C308.111 19.144 308.276 19.08 308.361 18.952C308.447 18.824 308.489 18.6213 308.489 18.344C308.489 17.9173 308.473 17.544 308.441 17.224C308.409 16.8933 308.329 16.6267 308.201 16.424C308.073 16.2107 307.881 16.0507 307.625 15.944C307.38 15.8373 307.039 15.784 306.601 15.784H305.081V14.024H306.969C307.588 14.024 308.111 14.1147 308.537 14.296C308.964 14.4667 309.305 14.7067 309.561 15.016C309.817 15.3253 309.999 15.6933 310.105 16.12C310.223 16.536 310.281 16.9893 310.281 17.48C310.281 18.024 310.393 18.44 310.617 18.728C310.841 19.0053 311.209 19.144 311.721 19.144H312.297C312.457 19.144 312.569 19.1867 312.633 19.272C312.697 19.3573 312.729 19.4587 312.729 19.576V20.552C312.729 20.6373 312.692 20.7333 312.617 20.84C312.553 20.9467 312.447 21 312.297 21H311.689ZM320.314 20.552C320.314 20.6373 320.277 20.7333 320.202 20.84C320.138 20.9467 320.026 21 319.866 21H319.562C319.221 21 318.879 20.9307 318.538 20.792C318.207 20.6533 317.935 20.488 317.722 20.296C317.53 20.5947 317.317 20.7867 317.082 20.872C316.858 20.9573 316.629 21 316.394 21H312.202C312.042 21 311.93 20.9573 311.866 20.872C311.802 20.7867 311.77 20.6907 311.77 20.584V19.64C311.77 19.5227 311.807 19.4107 311.882 19.304C311.946 19.1973 312.053 19.144 312.202 19.144H316.922C316.826 18.9733 316.735 18.7547 316.65 18.488C316.575 18.2213 316.517 17.8427 316.474 17.352C316.421 16.808 316.277 16.4293 316.042 16.216C315.818 15.992 315.519 15.88 315.146 15.88C314.933 15.88 314.661 15.9173 314.33 15.992C313.999 16.056 313.669 16.168 313.338 16.328L312.89 14.584C313.018 14.5413 313.183 14.488 313.386 14.424C313.599 14.36 313.823 14.3013 314.058 14.248C314.293 14.184 314.533 14.1307 314.778 14.088C315.034 14.0453 315.274 14.024 315.498 14.024C316.01 14.024 316.437 14.1147 316.778 14.296C317.13 14.4773 317.413 14.712 317.626 15C317.85 15.288 318.015 15.608 318.122 15.96C318.229 16.3013 318.298 16.6373 318.33 16.968C318.351 17.1813 318.383 17.416 318.426 17.672C318.479 17.9173 318.549 18.152 318.634 18.376C318.719 18.5893 318.831 18.7707 318.97 18.92C319.109 19.0693 319.285 19.144 319.498 19.144H319.866C320.037 19.144 320.154 19.1867 320.218 19.272C320.282 19.3573 320.314 19.4587 320.314 19.576V20.552ZM319.764 21C319.615 21 319.508 20.9573 319.444 20.872C319.38 20.7867 319.348 20.6907 319.348 20.584V19.64C319.348 19.5227 319.385 19.4107 319.46 19.304C319.524 19.1973 319.625 19.144 319.764 19.144H321.956V14.632H323.78V21H319.764ZM320.596 12.136C320.596 11.88 320.687 11.6613 320.868 11.48C321.049 11.2987 321.279 11.208 321.556 11.208C321.833 11.208 322.063 11.2987 322.244 11.48C322.425 11.6613 322.516 11.88 322.516 12.136C322.516 12.392 322.425 12.6107 322.244 12.792C322.063 12.9733 321.833 13.064 321.556 13.064C321.279 13.064 321.049 12.9733 320.868 12.792C320.687 12.6107 320.596 12.392 320.596 12.136ZM323.092 12.136C323.092 11.88 323.183 11.6613 323.364 11.48C323.545 11.2987 323.775 11.208 324.052 11.208C324.329 11.208 324.559 11.2987 324.74 11.48C324.921 11.6613 325.012 11.88 325.012 12.136C325.012 12.392 324.921 12.6107 324.74 12.792C324.559 12.9733 324.329 13.064 324.052 13.064C323.775 13.064 323.545 12.9733 323.364 12.792C323.183 12.6107 323.092 12.392 323.092 12.136Z" fill="#43515F"/>
</svg>
