<svg width="24" height="23" viewBox="0 0 24 23" fill="none" xmlns="http://www.w3.org/2000/svg">
<path fill-rule="evenodd" clip-rule="evenodd" d="M17.5 19.1667C18.163 19.1667 18.7989 18.9143 19.2678 18.465C19.7366 18.0157 20 17.4063 20 16.7709C20 16.1354 19.7366 15.526 19.2678 15.0767C18.7989 14.6274 18.163 14.375 17.5 14.375C16.837 14.375 16.2011 14.6274 15.7322 15.0767C15.2634 15.526 15 16.1354 15 16.7709C15 17.4063 15.2634 18.0157 15.7322 18.465C16.2011 18.9143 16.837 19.1667 17.5 19.1667ZM17.5 20.125C18.4283 20.125 19.3185 19.7716 19.9749 19.1426C20.6313 18.5136 21 17.6604 21 16.7709C21 15.8813 20.6313 15.0281 19.9749 14.3991C19.3185 13.7701 18.4283 13.4167 17.5 13.4167C16.5717 13.4167 15.6815 13.7701 15.0251 14.3991C14.3687 15.0281 14 15.8813 14 16.7709C14 17.6604 14.3687 18.5136 15.0251 19.1426C15.6815 19.7716 16.5717 20.125 17.5 20.125Z" fill="#43515F"/>
<path fill-rule="evenodd" clip-rule="evenodd" d="M17.5 15.0938C17.6326 15.0938 17.7598 15.1442 17.8536 15.2341C17.9473 15.324 18 15.4458 18 15.5729V16.5725L18.3535 16.9112C18.4446 17.0016 18.495 17.1226 18.4938 17.2483C18.4927 17.3739 18.4401 17.4941 18.3474 17.5829C18.2547 17.6718 18.1293 17.7222 17.9982 17.7233C17.8671 17.7244 17.7408 17.6761 17.6465 17.5888L17 16.9692V15.5729C17 15.4458 17.0527 15.324 17.1464 15.2341C17.2402 15.1442 17.3674 15.0938 17.5 15.0938ZM7 11.0208H6V11.9792H7V11.0208ZM6 10.0625C5.73478 10.0625 5.48043 10.1635 5.29289 10.3432C5.10536 10.5229 5 10.7667 5 11.0208V11.9792C5 12.2333 5.10536 12.4771 5.29289 12.6568C5.48043 12.8365 5.73478 12.9375 6 12.9375H7C7.26522 12.9375 7.51957 12.8365 7.70711 12.6568C7.89464 12.4771 8 12.2333 8 11.9792V11.0208C8 10.7667 7.89464 10.5229 7.70711 10.3432C7.51957 10.1635 7.26522 10.0625 7 10.0625H6ZM11 11.0208H10V11.9792H11V11.0208ZM10 10.0625C9.73478 10.0625 9.48043 10.1635 9.29289 10.3432C9.10536 10.5229 9 10.7667 9 11.0208V11.9792C9 12.2333 9.10536 12.4771 9.29289 12.6568C9.48043 12.8365 9.73478 12.9375 10 12.9375H11C11.2652 12.9375 11.5196 12.8365 11.7071 12.6568C11.8946 12.4771 12 12.2333 12 11.9792V11.0208C12 10.7667 11.8946 10.5229 11.7071 10.3432C11.5196 10.1635 11.2652 10.0625 11 10.0625H10ZM15 11.0208H14V11.9792H15V11.0208ZM14 10.0625C13.7348 10.0625 13.4804 10.1635 13.2929 10.3432C13.1054 10.5229 13 10.7667 13 11.0208V11.9792C13 12.2333 13.1054 12.4771 13.2929 12.6568C13.4804 12.8365 13.7348 12.9375 14 12.9375H15C15.2652 12.9375 15.5196 12.8365 15.7071 12.6568C15.8946 12.4771 16 12.2333 16 11.9792V11.0208C16 10.7667 15.8946 10.5229 15.7071 10.3432C15.5196 10.1635 15.2652 10.0625 15 10.0625H14ZM7 14.8542H6V15.8125H7V14.8542ZM6 13.8958C5.73478 13.8958 5.48043 13.9968 5.29289 14.1765C5.10536 14.3562 5 14.6 5 14.8542V15.8125C5 16.0667 5.10536 16.3104 5.29289 16.4901C5.48043 16.6699 5.73478 16.7708 6 16.7708H7C7.26522 16.7708 7.51957 16.6699 7.70711 16.4901C7.89464 16.3104 8 16.0667 8 15.8125V14.8542C8 14.6 7.89464 14.3562 7.70711 14.1765C7.51957 13.9968 7.26522 13.8958 7 13.8958H6ZM11 14.8542H10V15.8125H11V14.8542ZM10 13.8958C9.73478 13.8958 9.48043 13.9968 9.29289 14.1765C9.10536 14.3562 9 14.6 9 14.8542V15.8125C9 16.0667 9.10536 16.3104 9.29289 16.4901C9.48043 16.6699 9.73478 16.7708 10 16.7708H11C11.2652 16.7708 11.5196 16.6699 11.7071 16.4901C11.8946 16.3104 12 16.0667 12 15.8125V14.8542C12 14.6 11.8946 14.3562 11.7071 14.1765C11.5196 13.9968 11.2652 13.8958 11 13.8958H10Z" fill="#43515F"/>
<path fill-rule="evenodd" clip-rule="evenodd" d="M4 5.75C4 5.62292 4.05268 5.50104 4.14645 5.41118C4.24021 5.32132 4.36739 5.27083 4.5 5.27083H7V4.3125H4.5C4.10218 4.3125 3.72064 4.46395 3.43934 4.73353C3.15804 5.00312 3 5.36875 3 5.75V17.25C3 17.6312 3.15804 17.9969 3.43934 18.2665C3.72064 18.536 4.10218 18.6875 4.5 18.6875H14.6275C14.4143 18.3948 14.2514 18.0713 14.145 17.7292H4.5C4.36739 17.7292 4.24021 17.6787 4.14645 17.5888C4.05268 17.499 4 17.3771 4 17.25V5.75ZM17 13.4502C17.3316 13.4047 17.6684 13.4047 18 13.4502V5.75C18 5.36875 17.842 5.00312 17.5607 4.73353C17.2794 4.46395 16.8978 4.3125 16.5 4.3125H15V5.27083H16.5C16.6326 5.27083 16.7598 5.32132 16.8536 5.41118C16.9473 5.50104 17 5.62292 17 5.75V13.4502ZM8 5.27083H13.2815V4.3125H8V5.27083Z" fill="#43515F"/>
<path fill-rule="evenodd" clip-rule="evenodd" d="M14 4.3125H8V5.75C8 5.87708 7.94732 5.99896 7.85355 6.08882C7.75979 6.17868 7.63261 6.22917 7.5 6.22917C7.36739 6.22917 7.24022 6.17868 7.14645 6.08882C7.05268 5.99896 7 5.87708 7 5.75V4.3125H4.5C4.23478 4.3125 3.98043 4.41347 3.79289 4.59319C3.60536 4.77291 3.5 5.01667 3.5 5.27083V7.66667C3.5 7.92083 3.60536 8.16459 3.79289 8.34431C3.98043 8.52403 4.23478 8.625 4.5 8.625H16.5C16.7652 8.625 17.0196 8.52403 17.2071 8.34431C17.3946 8.16459 17.5 7.92083 17.5 7.66667V5.27083C17.5 5.01667 17.3946 4.77291 17.2071 4.59319C17.0196 4.41347 16.7652 4.3125 16.5 4.3125H15V5.75C15 5.87708 14.9473 5.99896 14.8536 6.08882C14.7598 6.17868 14.6326 6.22917 14.5 6.22917C14.3674 6.22917 14.2402 6.17868 14.1464 6.08882C14.0527 5.99896 14 5.87708 14 5.75V4.3125Z" fill="#43515F"/>
<path fill-rule="evenodd" clip-rule="evenodd" d="M18 8.62502H4V7.66669H18V8.62502Z" fill="#43515F"/>
<path d="M6 3.35417C6 3.22708 6.05268 3.10521 6.14645 3.01534C6.24021 2.92548 6.36739 2.875 6.5 2.875C6.63261 2.875 6.75979 2.92548 6.85355 3.01534C6.94732 3.10521 7 3.22708 7 3.35417V5.27083C7 5.39792 6.94732 5.51979 6.85355 5.60966C6.75979 5.69952 6.63261 5.75 6.5 5.75C6.36739 5.75 6.24021 5.69952 6.14645 5.60966C6.05268 5.51979 6 5.39792 6 5.27083V3.35417ZM13 3.35417C13 3.22708 13.0527 3.10521 13.1464 3.01534C13.2402 2.92548 13.3674 2.875 13.5 2.875C13.6326 2.875 13.7598 2.92548 13.8536 3.01534C13.9473 3.10521 14 3.22708 14 3.35417V5.27083C14 5.39792 13.9473 5.51979 13.8536 5.60966C13.7598 5.69952 13.6326 5.75 13.5 5.75C13.3674 5.75 13.2402 5.69952 13.1464 5.60966C13.0527 5.51979 13 5.39792 13 5.27083V3.35417Z" fill="#43515F"/>
</svg>
