<svg width="168" height="135" viewBox="0 0 168 135" fill="none" xmlns="http://www.w3.org/2000/svg">
<path d="M0.566983 39.2612C-6.45176 164.355 167.457 167.378 167.457 39.2612H0.566983Z" fill="#E96332" fill-opacity="0.19"/>
<g filter="url(#filter0_d_655_306)">
<ellipse cx="83.9998" cy="58" rx="50" ry="48" fill="#E14A4A"/>
</g>
<path fill-rule="evenodd" clip-rule="evenodd" d="M78.8916 40.1516C81.3485 36.8897 86.6513 36.8897 89.1082 40.1516L90.0801 41.4419C96.1687 49.5253 101.4 58.1138 105.703 67.0923L105.906 67.5158C107.423 70.6799 105.132 74.2727 101.353 74.6559C89.8201 75.8255 78.1797 75.8255 66.647 74.6559C62.8681 74.2727 60.5768 70.6799 62.0934 67.5158L62.2964 67.0923C66.6 58.1138 71.8312 49.5252 77.9198 41.4418L78.8916 40.1516ZM86.25 50.375C86.25 51.5026 85.2426 52.4167 84 52.4167C82.7573 52.4167 81.75 51.5026 81.75 50.375C81.75 49.2474 82.7573 48.3333 84 48.3333C85.2426 48.3333 86.25 49.2474 86.25 50.375ZM84 55.9896C84.9319 55.9896 85.6875 56.6751 85.6875 57.5208V67.7292C85.6875 68.5749 84.9319 69.2604 84 69.2604C83.068 69.2604 82.3125 68.5749 82.3125 67.7292V57.5208C82.3125 56.6751 83.068 55.9896 84 55.9896Z" fill="white"/>
<defs>
<filter id="filter0_d_655_306" x="26.9998" y="9" width="112" height="108" filterUnits="userSpaceOnUse" color-interpolation-filters="sRGB">
<feFlood flood-opacity="0" result="BackgroundImageFix"/>
<feColorMatrix in="SourceAlpha" type="matrix" values="0 0 0 0 0 0 0 0 0 0 0 0 0 0 0 0 0 0 127 0" result="hardAlpha"/>
<feOffset dx="-1" dy="5"/>
<feGaussianBlur stdDeviation="3"/>
<feComposite in2="hardAlpha" operator="out"/>
<feColorMatrix type="matrix" values="0 0 0 0 0 0 0 0 0 0 0 0 0 0 0 0 0 0 0.25 0"/>
<feBlend mode="normal" in2="BackgroundImageFix" result="effect1_dropShadow_655_306"/>
<feBlend mode="normal" in="SourceGraphic" in2="effect1_dropShadow_655_306" result="shape"/>
</filter>
</defs>
</svg>
