<svg width="23" height="26" viewBox="0 0 23 26" fill="none" xmlns="http://www.w3.org/2000/svg">
<path d="M13.9695 2.34249C12.6187 1.03194 10.3813 1.03194 9.03044 2.34248L2.43253 8.74364C2.05361 9.11126 1.79898 9.57602 1.70072 10.0793C0.899428 14.1842 0.840281 18.3866 1.52576 22.51L1.76846 23.9698C1.84511 24.4309 2.26787 24.7708 2.76467 24.7708H7.37499C7.75469 24.7708 8.06249 24.4817 8.06249 24.125V15.0833H14.9375V24.125C14.9375 24.4817 15.2453 24.7708 15.625 24.7708H20.2352C20.732 24.7708 21.1548 24.4309 21.2315 23.9698L21.4742 22.51C22.1596 18.3866 22.1005 14.1842 21.2992 10.0793C21.2009 9.57602 20.9463 9.11127 20.5674 8.74364L13.9695 2.34249Z" fill="white" stroke="#3B3E43" stroke-width="2"/>
</svg>
