<svg width="38" height="37" viewBox="0 0 38 37" fill="none" xmlns="http://www.w3.org/2000/svg">
<path d="M37.5 18.5C37.5 28.4286 29.2299 36.5 19 36.5C8.77008 36.5 0.5 28.4286 0.5 18.5C0.5 8.57136 8.77008 0.5 19 0.5C29.2299 0.5 37.5 8.57136 37.5 18.5Z" fill="url(#paint0_linear_871_306)" stroke="#DAE2E9"/>
<path d="M22.3333 20.5833H14.6667C14.4125 20.5833 14.1687 20.6931 13.989 20.8884C13.8093 21.0838 13.7083 21.3487 13.7083 21.625C13.7083 21.9012 13.8093 22.1662 13.989 22.3616C14.1687 22.5569 14.4125 22.6666 14.6667 22.6666H22.3333C22.5875 22.6666 22.8313 22.5569 23.011 22.3616C23.1907 22.1662 23.2917 21.9012 23.2917 21.625C23.2917 21.3487 23.1907 21.0838 23.011 20.8884C22.8313 20.6931 22.5875 20.5833 22.3333 20.5833ZM22.3333 16.4166H16.5833C16.3292 16.4166 16.0854 16.5264 15.9057 16.7217C15.726 16.9171 15.625 17.182 15.625 17.4583C15.625 17.7346 15.726 17.9995 15.9057 18.1949C16.0854 18.3902 16.3292 18.5 16.5833 18.5H22.3333C22.5875 18.5 22.8313 18.3902 23.011 18.1949C23.1907 17.9995 23.2917 17.7346 23.2917 17.4583C23.2917 17.182 23.1907 16.9171 23.011 16.7217C22.8313 16.5264 22.5875 16.4166 22.3333 16.4166ZM26.1667 10.1666H23.2917V9.12498C23.2917 8.84871 23.1907 8.58376 23.011 8.38841C22.8313 8.19306 22.5875 8.08331 22.3333 8.08331C22.0792 8.08331 21.8354 8.19306 21.6557 8.38841C21.476 8.58376 21.375 8.84871 21.375 9.12498V10.1666H19.4583V9.12498C19.4583 8.84871 19.3574 8.58376 19.1776 8.38841C18.9979 8.19306 18.7542 8.08331 18.5 8.08331C18.2458 8.08331 18.0021 8.19306 17.8224 8.38841C17.6426 8.58376 17.5417 8.84871 17.5417 9.12498V10.1666H15.625V9.12498C15.625 8.84871 15.524 8.58376 15.3443 8.38841C15.1646 8.19306 14.9208 8.08331 14.6667 8.08331C14.4125 8.08331 14.1687 8.19306 13.989 8.38841C13.8093 8.58376 13.7083 8.84871 13.7083 9.12498V10.1666H10.8333C10.5792 10.1666 10.3354 10.2764 10.1557 10.4717C9.97597 10.6671 9.875 10.932 9.875 11.2083V25.7916C9.875 26.6204 10.1779 27.4153 10.7171 28.0014C11.2562 28.5874 11.9875 28.9166 12.75 28.9166H24.25C25.0125 28.9166 25.7438 28.5874 26.2829 28.0014C26.8221 27.4153 27.125 26.6204 27.125 25.7916V11.2083C27.125 10.932 27.024 10.6671 26.8443 10.4717C26.6646 10.2764 26.4208 10.1666 26.1667 10.1666V10.1666ZM25.2083 25.7916C25.2083 26.0679 25.1074 26.3329 24.9276 26.5282C24.7479 26.7236 24.5042 26.8333 24.25 26.8333H12.75C12.4958 26.8333 12.2521 26.7236 12.0724 26.5282C11.8926 26.3329 11.7917 26.0679 11.7917 25.7916V12.25H13.7083V13.2916C13.7083 13.5679 13.8093 13.8329 13.989 14.0282C14.1687 14.2236 14.4125 14.3333 14.6667 14.3333C14.9208 14.3333 15.1646 14.2236 15.3443 14.0282C15.524 13.8329 15.625 13.5679 15.625 13.2916V12.25H17.5417V13.2916C17.5417 13.5679 17.6426 13.8329 17.8224 14.0282C18.0021 14.2236 18.2458 14.3333 18.5 14.3333C18.7542 14.3333 18.9979 14.2236 19.1776 14.0282C19.3574 13.8329 19.4583 13.5679 19.4583 13.2916V12.25H21.375V13.2916C21.375 13.5679 21.476 13.8329 21.6557 14.0282C21.8354 14.2236 22.0792 14.3333 22.3333 14.3333C22.5875 14.3333 22.8313 14.2236 23.011 14.0282C23.1907 13.8329 23.2917 13.5679 23.2917 13.2916V12.25H25.2083V25.7916Z" fill="black"/>
<defs>
<linearGradient id="paint0_linear_871_306" x1="19" y1="0" x2="19" y2="37" gradientUnits="userSpaceOnUse">
<stop offset="0.260417" stop-color="#DAE2E9"/>
<stop offset="1" stop-color="#EFA17A" stop-opacity="0.67"/>
</linearGradient>
</defs>
</svg>
