<svg width="38" height="37" viewBox="0 0 38 37" fill="none" xmlns="http://www.w3.org/2000/svg">
<path d="M37.5 18.5C37.5 28.4286 29.2299 36.5 19 36.5C8.77008 36.5 0.5 28.4286 0.5 18.5C0.5 8.57136 8.77008 0.5 19 0.5C29.2299 0.5 37.5 8.57136 37.5 18.5Z" fill="url(#paint0_linear_871_305)" stroke="#DAE2E9"/>
<path d="M26.6667 9.3H25.5V7H23.1667V9.3H13.8333V7H11.5V9.3H10.3333C9.03833 9.3 8 10.335 8 11.6V27.7C8 28.965 9.03833 30 10.3333 30H26.6667C27.95 30 29 28.965 29 27.7V11.6C29 10.335 27.95 9.3 26.6667 9.3ZM18.5 12.75C20.4367 12.75 22 14.291 22 16.2C22 18.109 20.4367 19.65 18.5 19.65C16.5633 19.65 15 18.109 15 16.2C15 14.291 16.5633 12.75 18.5 12.75ZM25.5 26.55H11.5V25.4C11.5 23.1 16.1667 21.835 18.5 21.835C20.8333 21.835 25.5 23.1 25.5 25.4V26.55Z" fill="black"/>
<defs>
<linearGradient id="paint0_linear_871_305" x1="19" y1="0" x2="19" y2="37" gradientUnits="userSpaceOnUse">
<stop offset="0.260417" stop-color="#DAE2E9"/>
<stop offset="1" stop-color="#EFA17A" stop-opacity="0.75"/>
</linearGradient>
</defs>
</svg>
