<svg width="21" height="20" viewBox="0 0 21 20" fill="none" xmlns="http://www.w3.org/2000/svg">
<path d="M18.5 15C19.0304 15 19.5391 14.7893 19.9142 14.4142C20.2893 14.0391 20.5 13.5304 20.5 13V2C20.5 1.46957 20.2893 0.960859 19.9142 0.585786C19.5391 0.210714 19.0304 0 18.5 0H7.96C8.31 0.61 8.5 1.3 8.5 2H18.5V13H9.5V15H18.5ZM13.5 5V7H7.5V20H5.5V14H3.5V20H1.5V12H0V7C0 6.46957 0.210714 5.96086 0.585786 5.58579C0.960859 5.21071 1.46957 5 2 5H13.5ZM6.5 2C6.5 2.53043 6.28929 3.03914 5.91421 3.41421C5.53914 3.78929 5.03043 4 4.5 4C3.96957 4 3.46086 3.78929 3.08579 3.41421C2.71071 3.03914 2.5 2.53043 2.5 2C2.5 1.46957 2.71071 0.960859 3.08579 0.585786C3.46086 0.210714 3.96957 0 4.5 0C5.03043 0 5.53914 0.210714 5.91421 0.585786C6.28929 0.960859 6.5 1.46957 6.5 2Z" fill="#43515F"/>
</svg>
