<svg width="38" height="37" viewBox="0 0 38 37" fill="none" xmlns="http://www.w3.org/2000/svg">
<path d="M37.5 18.5C37.5 28.4286 29.2299 36.5 19 36.5C8.77008 36.5 0.5 28.4286 0.5 18.5C0.5 8.57136 8.77008 0.5 19 0.5C29.2299 0.5 37.5 8.57136 37.5 18.5Z" fill="url(#paint0_linear_879_526)" stroke="#DAE2E9"/>
<path d="M11.8333 26.8333H15.6666V22.6666H19.4999V18.5H23.3333V14.3333H27.1666" stroke="black" stroke-width="2" stroke-linecap="round" stroke-linejoin="round"/>
<path d="M11.0973 16.7813C10.7234 17.1877 10.7498 17.8204 11.1562 18.1943C11.5626 18.5682 12.1953 18.5419 12.5692 18.1354L11.0973 16.7813ZM18.5416 10.1667H19.5416C19.5416 9.75463 19.2888 9.38477 18.905 9.23504C18.5211 9.08531 18.0846 9.18639 17.8057 9.48963L18.5416 10.1667ZM17.5416 14.3334C17.5416 14.8856 17.9893 15.3334 18.5416 15.3334C19.0939 15.3334 19.5416 14.8856 19.5416 14.3334H17.5416ZM14.7083 9.16669C14.156 9.16669 13.7083 9.6144 13.7083 10.1667C13.7083 10.719 14.156 11.1667 14.7083 11.1667V9.16669ZM18.5416 11.1667C19.0939 11.1667 19.5416 10.719 19.5416 10.1667C19.5416 9.6144 19.0939 9.16669 18.5416 9.16669V11.1667ZM12.5692 18.1354L19.2775 10.8437L17.8057 9.48963L11.0973 16.7813L12.5692 18.1354ZM17.5416 10.1667V14.3334H19.5416V10.1667H17.5416ZM14.7083 11.1667H18.5416V9.16669H14.7083V11.1667Z" fill="black"/>
<defs>
<linearGradient id="paint0_linear_879_526" x1="19" y1="0" x2="19" y2="37" gradientUnits="userSpaceOnUse">
<stop offset="0.260417" stop-color="#DAE2E9"/>
<stop offset="1" stop-color="#EFA17A" stop-opacity="0.67"/>
</linearGradient>
</defs>
</svg>
