<svg width="49" height="55" viewBox="0 0 49 55" fill="none" xmlns="http://www.w3.org/2000/svg">
<path d="M46.654 22.5979C44.706 22.2454 42.7296 22.0732 40.7499 22.0834C39.6124 22.0834 38.502 22.0834 37.3915 22.3C36.0091 20.4553 34.2446 18.931 32.2186 17.8313C33.9589 15.9307 34.925 13.4478 34.927 10.8709C34.927 8.09824 33.8255 5.43918 31.865 3.47864C29.9045 1.5181 27.2454 0.416687 24.4728 0.416687C21.7002 0.416687 19.0411 1.5181 17.0806 3.47864C15.12 5.43918 14.0186 8.09824 14.0186 10.8709C14.0206 13.4478 14.9867 15.9307 16.727 17.8313C14.713 18.9367 12.9513 20.4494 11.554 22.2729C10.4978 22.0834 9.38737 22.0834 8.24987 22.0834C6.26852 22.091 4.29209 22.2814 2.34571 22.6521C1.71478 22.7675 1.14527 23.103 0.738578 23.599C0.331888 24.0949 0.114412 24.7191 0.124872 25.3604V47.7042C0.124226 48.1021 0.211255 48.4952 0.37977 48.8556C0.548286 49.2161 0.794148 49.535 1.09987 49.7896C1.40367 50.0458 1.76011 50.2319 2.14392 50.3349C2.52772 50.4379 2.92949 50.4551 3.32071 50.3854C4.9414 50.0325 6.59175 49.833 8.24987 49.7896C13.4962 49.7839 18.6287 51.3189 23.0103 54.2042V54.2042L23.3624 54.3396C23.7216 54.4955 24.1083 54.5784 24.4999 54.5834C24.7584 54.5801 25.0146 54.5344 25.2582 54.4479H25.4478L25.7999 54.3125C30.2232 51.3531 35.4279 49.7786 40.7499 49.7896C42.4046 49.7973 44.0549 49.9605 45.679 50.2771C46.0703 50.3468 46.472 50.3295 46.8558 50.2266C47.2396 50.1236 47.5961 49.9374 47.8999 49.6813C48.2056 49.4266 48.4515 49.1078 48.62 48.7473C48.7885 48.3869 48.8755 47.9937 48.8749 47.5959V25.2521C48.8726 24.6201 48.6493 24.0088 48.2437 23.524C47.8381 23.0393 47.2757 22.7117 46.654 22.5979V22.5979ZM24.4999 5.83335C25.7686 5.92657 26.955 6.49634 27.821 7.42825C28.6869 8.36015 29.1683 9.58518 29.1683 10.8573C29.1683 12.1294 28.6869 13.3545 27.821 14.2864C26.955 15.2183 25.7686 15.7881 24.4999 15.8813V15.8813C23.2312 15.7881 22.0447 15.2183 21.1787 14.2864C20.3128 13.3545 19.8315 12.1294 19.8315 10.8573C19.8315 9.58518 20.3128 8.36015 21.1787 7.42825C22.0447 6.49634 23.2312 5.92657 24.4999 5.83335V5.83335ZM21.7915 47.3521C17.5467 45.39 12.9263 44.3735 8.24987 44.3729C7.35612 44.3729 6.46237 44.3729 5.54154 44.5084V27.5C7.81265 27.246 10.1073 27.2915 12.3665 27.6354H12.6645C15.8917 28.2286 18.9843 29.4032 21.7915 31.1021V47.3521ZM24.4999 26.4167C23.2955 25.7219 22.047 25.1067 20.7624 24.575H20.5999C19.7061 24.2229 18.8124 23.8709 17.8915 23.6C19.772 22.1033 22.0967 21.2744 24.4999 21.2438V21.2438C26.8967 21.259 29.2207 22.0686 31.1082 23.5459C28.8091 24.2636 26.5936 25.2261 24.4999 26.4167V26.4167ZM43.4582 44.5084C37.8971 43.9496 32.2875 44.8845 27.2082 47.2167V30.9667C30.0205 29.3113 33.1151 28.1911 36.3353 27.6625H36.877C39.0544 27.3234 41.2667 27.2688 43.4582 27.5V44.5084Z" fill="#43515F"/>
</svg>
