<svg width="33" height="33" viewBox="0 0 33 33" fill="none" xmlns="http://www.w3.org/2000/svg">
<path d="M19.4782 4.38438C17.5132 3.98174 15.4868 3.98174 13.5218 4.38438C12.9115 4.50943 12.4416 4.99791 12.3403 5.61255L12.2658 6.06492C11.6521 9.78821 11.6521 13.5868 12.2658 17.3101L12.3403 17.7625C12.4416 18.3771 12.9115 18.8656 13.5218 18.9907C15.4868 19.3933 17.5132 19.3933 19.4782 18.9907C20.0885 18.8656 20.5584 18.3771 20.6597 17.7625L20.7343 17.3101C21.3479 13.5868 21.3479 9.78821 20.7343 6.06492L20.6597 5.61255C20.5584 4.99791 20.0885 4.50943 19.4782 4.38438Z" fill="#43515F"/>
<path d="M6.73032 14.104C7.29424 14.0241 7.81615 14.4164 7.89606 14.9804L8.51551 19.3519C8.68287 20.533 9.61913 21.4565 10.8024 21.6076C14.5854 22.0909 18.4146 22.0909 22.1976 21.6076C23.3809 21.4565 24.3171 20.533 24.4845 19.3519L25.104 14.9804C25.1839 14.4164 25.7058 14.0241 26.2697 14.104C26.8336 14.1839 27.226 14.7058 27.1461 15.2697L26.5266 19.6413C26.2289 21.7421 24.5636 23.3847 22.4589 23.6535C20.8223 23.8626 19.1775 23.9851 17.5313 24.0212V29.5625C17.5313 30.1321 17.0696 30.5938 16.5 30.5938C15.9305 30.5938 15.4688 30.1321 15.4688 29.5625V24.0212C13.8225 23.9851 12.1777 23.8626 10.5411 23.6535C8.4364 23.3847 6.77109 21.7421 6.47341 19.6413L5.85396 15.2697C5.77405 14.7058 6.16641 14.1839 6.73032 14.104Z" fill="#43515F"/>
<path d="M19.4782 4.38438C17.5132 3.98174 15.4868 3.98174 13.5218 4.38438C12.9115 4.50943 12.4416 4.99791 12.3403 5.61255L12.2658 6.06492C11.6521 9.78821 11.6521 13.5868 12.2658 17.3101L12.3403 17.7625C12.4416 18.3771 12.9115 18.8656 13.5218 18.9907C15.4868 19.3933 17.5132 19.3933 19.4782 18.9907C20.0885 18.8656 20.5584 18.3771 20.6597 17.7625L20.7343 17.3101C21.3479 13.5868 21.3479 9.78821 20.7343 6.06492L20.6597 5.61255C20.5584 4.99791 20.0885 4.50943 19.4782 4.38438Z" stroke="#43515F" stroke-linecap="round"/>
<path d="M6.73032 14.104C7.29424 14.0241 7.81615 14.4164 7.89606 14.9804L8.51551 19.3519C8.68287 20.533 9.61913 21.4565 10.8024 21.6076C14.5854 22.0909 18.4146 22.0909 22.1976 21.6076C23.3809 21.4565 24.3171 20.533 24.4845 19.3519L25.104 14.9804C25.1839 14.4164 25.7058 14.0241 26.2697 14.104C26.8336 14.1839 27.226 14.7058 27.1461 15.2697L26.5266 19.6413C26.2289 21.7421 24.5636 23.3847 22.4589 23.6535C20.8223 23.8626 19.1775 23.9851 17.5313 24.0212V29.5625C17.5313 30.1321 17.0696 30.5938 16.5 30.5938C15.9305 30.5938 15.4688 30.1321 15.4688 29.5625V24.0212C13.8225 23.9851 12.1777 23.8626 10.5411 23.6535C8.4364 23.3847 6.77109 21.7421 6.47341 19.6413L5.85396 15.2697C5.77405 14.7058 6.16641 14.1839 6.73032 14.104Z" stroke="#43515F" stroke-linecap="round"/>
</svg>
