<svg width="66" height="50" viewBox="0 -2 67 50" fill="none" xmlns="http://www.w3.org/2000/svg">
<path d="M2.26262 44C1.93995 44 1.66862 43.956 1.44862 43.868C1.22862 43.78 1.05262 43.6627 0.920617 43.516C0.788617 43.3693 0.693284 43.197 0.634617 42.999C0.583284 42.801 0.557617 42.5957 0.557617 42.383V40.524H1.81162V42.163C1.81162 42.3977 1.85195 42.5517 1.93262 42.625C2.01328 42.691 2.14895 42.724 2.33962 42.724H7.45462V39.622H8.71962V44H2.26262ZM3.39562 37.906C3.39562 37.73 3.45795 37.5797 3.58262 37.455C3.70728 37.3303 3.86495 37.268 4.05562 37.268C4.24628 37.268 4.40395 37.3303 4.52862 37.455C4.65328 37.5797 4.71562 37.73 4.71562 37.906C4.71562 38.082 4.65328 38.2323 4.52862 38.357C4.40395 38.4817 4.24628 38.544 4.05562 38.544C3.86495 38.544 3.70728 38.4817 3.58262 38.357C3.45795 38.2323 3.39562 38.082 3.39562 37.906ZM5.11162 37.906C5.11162 37.73 5.17395 37.5797 5.29862 37.455C5.42328 37.3303 5.58095 37.268 5.77162 37.268C5.96228 37.268 6.11995 37.3303 6.24462 37.455C6.36928 37.5797 6.43162 37.73 6.43162 37.906C6.43162 38.082 6.36928 38.2323 6.24462 38.357C6.11995 38.4817 5.96228 38.544 5.77162 38.544C5.58095 38.544 5.42328 38.4817 5.29862 38.357C5.17395 38.2323 5.11162 38.082 5.11162 37.906ZM13.4305 42.724V41.745C13.4305 41.327 13.3462 41.008 13.1775 40.788C13.0162 40.5607 12.7889 40.447 12.4955 40.447C12.3635 40.447 12.2352 40.4763 12.1105 40.535C11.9932 40.5863 11.8869 40.6633 11.7915 40.766C11.6962 40.8613 11.6192 40.9787 11.5605 41.118C11.5019 41.2573 11.4725 41.415 11.4725 41.591C11.4725 41.7963 11.5055 41.9723 11.5715 42.119C11.6375 42.2583 11.7255 42.3757 11.8355 42.471C11.9455 42.559 12.0702 42.625 12.2095 42.669C12.3562 42.7057 12.5065 42.724 12.6605 42.724H13.4305ZM14.6735 44C14.6515 44.4253 14.5672 44.7883 14.4205 45.089C14.2739 45.397 14.0759 45.6463 13.8265 45.837C13.5772 46.0277 13.2839 46.167 12.9465 46.255C12.6092 46.3503 12.2389 46.398 11.8355 46.398C11.6669 46.398 11.4909 46.3907 11.3075 46.376C11.1242 46.3687 10.9225 46.3467 10.7025 46.31L10.7905 45.078C11.0032 45.1073 11.2049 45.1293 11.3955 45.144C11.5862 45.1587 11.7512 45.166 11.8905 45.166C12.0959 45.166 12.2902 45.1513 12.4735 45.122C12.6569 45.0927 12.8182 45.034 12.9575 44.946C13.1042 44.8653 13.2179 44.748 13.2985 44.594C13.3865 44.4473 13.4342 44.2493 13.4415 44H12.7045C12.2499 44 11.8649 43.9377 11.5495 43.813C11.2415 43.681 10.9885 43.5123 10.7905 43.307C10.5999 43.0943 10.4605 42.856 10.3725 42.592C10.2845 42.328 10.2405 42.0603 10.2405 41.789C10.2405 41.4443 10.2955 41.118 10.4055 40.81C10.5229 40.4947 10.6842 40.2197 10.8895 39.985C11.0949 39.7503 11.3369 39.567 11.6155 39.435C11.9015 39.2957 12.2169 39.226 12.5615 39.226C12.8915 39.226 13.1849 39.281 13.4415 39.391C13.7055 39.4937 13.9292 39.644 14.1125 39.842C14.2959 40.0327 14.4352 40.2637 14.5305 40.535C14.6259 40.799 14.6735 41.0923 14.6735 41.415V42.724H15.7515C15.8689 42.724 15.9495 42.7533 15.9935 42.812C16.0375 42.8707 16.0595 42.9403 16.0595 43.021V43.692C16.0595 43.7507 16.0339 43.8167 15.9825 43.89C15.9385 43.9633 15.8615 44 15.7515 44H14.6735ZM21.9296 42.724C22.0836 42.724 22.1826 42.6763 22.2266 42.581C22.2706 42.4783 22.2926 42.3207 22.2926 42.108C22.2926 41.58 22.1643 41.1767 21.9076 40.898C21.6509 40.612 21.2696 40.469 20.7636 40.469C20.4776 40.469 20.2026 40.5313 19.9386 40.656C19.6819 40.7733 19.4509 40.9383 19.2456 41.151C19.0476 41.3563 18.8826 41.5947 18.7506 41.866C18.6186 42.1373 18.5379 42.4233 18.5086 42.724H21.9296ZM15.6816 44C15.5643 44 15.4873 43.9707 15.4506 43.912C15.4139 43.8533 15.3956 43.7873 15.3956 43.714V43.065C15.3956 42.9843 15.4176 42.9073 15.4616 42.834C15.5056 42.7607 15.5789 42.724 15.6816 42.724H17.2326V39.611H18.4866V40.535C18.7506 40.1757 19.0916 39.8713 19.5096 39.622C19.9276 39.3727 20.3933 39.248 20.9066 39.248C21.3099 39.248 21.6729 39.3177 21.9956 39.457C22.3256 39.5963 22.6043 39.7907 22.8316 40.04C23.0663 40.282 23.2459 40.5753 23.3706 40.92C23.4953 41.2573 23.5576 41.624 23.5576 42.02C23.5576 42.2767 23.6383 42.46 23.7996 42.57C23.9683 42.6727 24.2213 42.724 24.5586 42.724H24.8446C24.9693 42.724 25.0499 42.7533 25.0866 42.812C25.1233 42.8707 25.1416 42.9403 25.1416 43.021V43.692C25.1416 43.7507 25.1196 43.8167 25.0756 43.89C25.0316 43.9633 24.9546 44 24.8446 44H24.5366C24.2213 44 23.9646 43.9267 23.7666 43.78C23.5686 43.6333 23.4183 43.4683 23.3156 43.285C23.1983 43.527 23.0186 43.7067 22.7766 43.824C22.5346 43.9413 22.2486 44 21.9186 44H15.6816ZM24.7695 44C24.6595 44 24.5861 43.9707 24.5495 43.912C24.5055 43.8533 24.4835 43.7873 24.4835 43.714V43.065C24.4835 42.9843 24.5055 42.9073 24.5495 42.834C24.5935 42.7607 24.6668 42.724 24.7695 42.724H26.0675V36.124H27.3105V44H24.7695ZM29.1187 36.124H30.3617V44H29.1187V36.124ZM41.8539 43.692C41.8539 43.7507 41.8282 43.8167 41.7769 43.89C41.7329 43.9633 41.6595 44 41.5569 44H41.2049C40.9702 44 40.7685 43.9633 40.5999 43.89C40.4312 43.8167 40.2919 43.725 40.1819 43.615C40.1379 44.0257 40.0315 44.396 39.8629 44.726C39.6942 45.056 39.4742 45.3383 39.2029 45.573C38.9315 45.815 38.6125 45.9983 38.2459 46.123C37.8792 46.255 37.4759 46.321 37.0359 46.321C36.4345 46.321 35.9322 46.233 35.5289 46.057C35.1329 45.8883 34.8139 45.6647 34.5719 45.386C34.3372 45.1147 34.1685 44.8067 34.0659 44.462C33.9705 44.1247 33.9229 43.791 33.9229 43.461C33.9229 43.109 33.9815 42.7533 34.0989 42.394C34.2235 42.0273 34.3995 41.69 34.6269 41.382L35.6829 41.987C35.5142 42.2363 35.3932 42.4857 35.3199 42.735C35.2465 42.977 35.2099 43.219 35.2099 43.461C35.2099 43.6223 35.2355 43.7947 35.2869 43.978C35.3455 44.1613 35.4445 44.33 35.5839 44.484C35.7232 44.6453 35.9139 44.7773 36.1559 44.88C36.3979 44.99 36.7059 45.045 37.0799 45.045C37.3219 45.045 37.5529 45.012 37.7729 44.946C38.0002 44.88 38.1982 44.7737 38.3669 44.627C38.5429 44.4877 38.6822 44.3043 38.7849 44.077C38.8949 43.857 38.9499 43.593 38.9499 43.285V36.124H40.1929V41.712C40.1929 42.086 40.2772 42.35 40.4459 42.504C40.6145 42.6507 40.8565 42.724 41.1719 42.724H41.5569C41.6669 42.724 41.7402 42.7533 41.7769 42.812C41.8209 42.8707 41.8465 42.9403 41.8539 43.021V43.692ZM41.4953 44C41.3707 44 41.29 43.9707 41.2533 43.912C41.2167 43.8533 41.1983 43.7873 41.1983 43.714V43.065C41.1983 42.9843 41.224 42.9073 41.2753 42.834C41.3193 42.7607 41.3927 42.724 41.4953 42.724H42.5513C42.7127 42.724 42.819 42.6727 42.8703 42.57C42.929 42.4673 42.9583 42.328 42.9583 42.152V39.622H44.2123V41.712C44.2123 42.0053 44.282 42.2473 44.4213 42.438C44.5607 42.6287 44.8137 42.724 45.1803 42.724H45.5653C45.69 42.724 45.7707 42.7533 45.8073 42.812C45.844 42.8707 45.8623 42.9403 45.8623 43.021V43.692C45.8623 43.7507 45.8367 43.8167 45.7853 43.89C45.7413 43.9633 45.668 44 45.5653 44H45.1473C44.8247 44 44.5643 43.923 44.3663 43.769C44.1757 43.615 44.029 43.4463 43.9263 43.263C43.8017 43.4757 43.6257 43.6517 43.3983 43.791C43.1783 43.9303 42.9143 44 42.6063 44H41.4953ZM42.0673 45.386C42.0673 45.21 42.1297 45.0597 42.2543 44.935C42.379 44.8177 42.5367 44.759 42.7273 44.759C42.918 44.759 43.0757 44.8177 43.2003 44.935C43.325 45.0597 43.3873 45.21 43.3873 45.386C43.3873 45.5693 43.325 45.7197 43.2003 45.837C43.0757 45.9617 42.918 46.024 42.7273 46.024C42.5367 46.024 42.379 45.9617 42.2543 45.837C42.1297 45.7197 42.0673 45.5693 42.0673 45.386ZM43.7723 45.386C43.7723 45.21 43.8347 45.0597 43.9593 44.935C44.084 44.8177 44.2417 44.759 44.4323 44.759C44.623 44.759 44.7807 44.8177 44.9053 44.935C45.03 45.0597 45.0923 45.21 45.0923 45.386C45.0923 45.5693 45.03 45.7197 44.9053 45.837C44.7807 45.9617 44.623 46.024 44.4323 46.024C44.2417 46.024 44.084 45.9617 43.9593 45.837C43.8347 45.7197 43.7723 45.5693 43.7723 45.386ZM51.0792 43.692C51.0792 43.7507 51.0535 43.8167 51.0022 43.89C50.9582 43.9633 50.8812 44 50.7712 44H50.5622C50.3275 44 50.0928 43.9523 49.8582 43.857C49.6308 43.7617 49.4438 43.648 49.2972 43.516C49.1652 43.7213 49.0185 43.8533 48.8572 43.912C48.7032 43.9707 48.5455 44 48.3842 44H45.5022C45.3922 44 45.3152 43.9707 45.2712 43.912C45.2272 43.8533 45.2052 43.7873 45.2052 43.714V43.065C45.2052 42.9843 45.2308 42.9073 45.2822 42.834C45.3262 42.7607 45.3995 42.724 45.5022 42.724H48.7472C48.6812 42.6067 48.6188 42.4563 48.5602 42.273C48.5088 42.0897 48.4685 41.8293 48.4392 41.492C48.4025 41.118 48.3035 40.8577 48.1422 40.711C47.9882 40.557 47.7828 40.48 47.5262 40.48C47.3795 40.48 47.1925 40.5057 46.9652 40.557C46.7378 40.601 46.5105 40.678 46.2832 40.788L45.9752 39.589C46.0632 39.5597 46.1768 39.523 46.3162 39.479C46.4628 39.435 46.6168 39.3947 46.7782 39.358C46.9395 39.314 47.1045 39.2773 47.2732 39.248C47.4492 39.2187 47.6142 39.204 47.7682 39.204C48.1202 39.204 48.4135 39.2663 48.6482 39.391C48.8902 39.5157 49.0845 39.677 49.2312 39.875C49.3852 40.073 49.4988 40.293 49.5722 40.535C49.6455 40.7697 49.6932 41.0007 49.7152 41.228C49.7298 41.3747 49.7518 41.536 49.7812 41.712C49.8178 41.8807 49.8655 42.042 49.9242 42.196C49.9828 42.3427 50.0598 42.4673 50.1552 42.57C50.2505 42.6727 50.3715 42.724 50.5182 42.724H50.7712C50.8885 42.724 50.9692 42.7533 51.0132 42.812C51.0572 42.8707 51.0792 42.9403 51.0792 43.021V43.692ZM47.0642 45.386C47.0642 45.21 47.1265 45.0597 47.2512 44.935C47.3832 44.8177 47.5445 44.759 47.7352 44.759C47.9185 44.759 48.0725 44.8177 48.1972 44.935C48.3292 45.0597 48.3952 45.21 48.3952 45.386C48.3952 45.5693 48.3292 45.7197 48.1972 45.837C48.0725 45.9617 47.9185 46.024 47.7352 46.024C47.5445 46.024 47.3832 45.9617 47.2512 45.837C47.1265 45.7197 47.0642 45.5693 47.0642 45.386ZM50.7231 44C50.6058 44 50.5251 43.9707 50.4811 43.912C50.4371 43.8533 50.4151 43.7873 50.4151 43.714V43.065C50.4151 42.9843 50.4408 42.9073 50.4921 42.834C50.5435 42.7607 50.6205 42.724 50.7231 42.724H52.6481C52.8168 42.724 52.9305 42.68 52.9891 42.592C53.0478 42.504 53.0771 42.3683 53.0771 42.185V40.645H54.3091V41.712C54.3091 41.9907 54.3788 42.229 54.5181 42.427C54.6575 42.625 54.9141 42.724 55.2881 42.724H55.4861C55.6548 42.724 55.7648 42.6727 55.8161 42.57C55.8675 42.4673 55.8931 42.328 55.8931 42.152V40.216H57.1581V41.712C57.1581 42.0053 57.2278 42.2473 57.3671 42.438C57.5065 42.6287 57.7595 42.724 58.1261 42.724H58.3901C58.5661 42.724 58.6798 42.6727 58.7311 42.57C58.7898 42.4673 58.8191 42.328 58.8191 42.152V39.622H60.0621V41.712C60.0621 42.0053 60.1281 42.2473 60.2601 42.438C60.3995 42.6287 60.6525 42.724 61.0191 42.724H61.4701C61.5875 42.724 61.6681 42.7533 61.7121 42.812C61.7561 42.8707 61.7781 42.9403 61.7781 43.021V43.692C61.7781 43.7507 61.7525 43.8167 61.7011 43.89C61.6571 43.9633 61.5838 44 61.4811 44H61.0191C60.6891 44 60.4251 43.9267 60.2271 43.78C60.0365 43.6333 59.8898 43.4647 59.7871 43.274C59.6625 43.5087 59.4755 43.6883 59.2261 43.813C58.9768 43.9377 58.6981 44 58.3901 44H58.0931C57.7631 44 57.5028 43.9267 57.3121 43.78C57.1288 43.6333 56.9895 43.4683 56.8941 43.285C56.7548 43.527 56.5641 43.7067 56.3221 43.824C56.0801 43.9413 55.8235 44 55.5521 44H55.2661C54.9508 44 54.6941 43.9267 54.4961 43.78C54.3055 43.6333 54.1625 43.4683 54.0671 43.285C53.9278 43.527 53.7298 43.7067 53.4731 43.824C53.2238 43.9413 52.9451 44 52.6371 44H50.7231ZM61.4003 44C61.2977 44 61.2243 43.9707 61.1803 43.912C61.1363 43.8533 61.1143 43.7873 61.1143 43.714V43.065C61.1143 42.9843 61.14 42.9073 61.1913 42.834C61.2353 42.7607 61.305 42.724 61.4003 42.724H62.9073V39.622H64.1613V44H61.4003ZM61.9723 37.906C61.9723 37.73 62.0347 37.5797 62.1593 37.455C62.284 37.3303 62.4417 37.268 62.6323 37.268C62.823 37.268 62.9807 37.3303 63.1053 37.455C63.23 37.5797 63.2923 37.73 63.2923 37.906C63.2923 38.082 63.23 38.2323 63.1053 38.357C62.9807 38.4817 62.823 38.544 62.6323 38.544C62.4417 38.544 62.284 38.4817 62.1593 38.357C62.0347 38.2323 61.9723 38.082 61.9723 37.906ZM63.6883 37.906C63.6883 37.73 63.7507 37.5797 63.8753 37.455C64 37.3303 64.1577 37.268 64.3483 37.268C64.539 37.268 64.6967 37.3303 64.8213 37.455C64.946 37.5797 65.0083 37.73 65.0083 37.906C65.0083 38.082 64.946 38.2323 64.8213 38.357C64.6967 38.4817 64.539 38.544 64.3483 38.544C64.1577 38.544 64 38.4817 63.8753 38.357C63.7507 38.2323 63.6883 38.082 63.6883 37.906Z" fill="#43515F"/>
<path d="M34.4784 4.38438C32.5133 3.98174 30.487 3.98174 28.5219 4.38438C27.9116 4.50943 27.4417 4.99791 27.3404 5.61255L27.2659 6.06492C26.6523 9.78821 26.6523 13.5868 27.2659 17.3101L27.3404 17.7625C27.4417 18.3771 27.9116 18.8656 28.5219 18.9907C30.487 19.3933 32.5133 19.3933 34.4784 18.9907C35.0886 18.8656 35.5585 18.3771 35.6598 17.7625L35.7344 17.3101C36.348 13.5868 36.348 9.78821 35.7344 6.06492L35.6598 5.61255C35.5585 4.99791 35.0886 4.50943 34.4784 4.38438Z" fill="#43515F"/>
<path d="M21.7304 14.104C22.2944 14.0241 22.8163 14.4164 22.8962 14.9804L23.5156 19.3519C23.683 20.533 24.6193 21.4565 25.8026 21.6076C29.5856 22.0909 33.4147 22.0909 37.1977 21.6076C38.381 21.4565 39.3173 20.533 39.4846 19.3519L40.1041 14.9804C40.184 14.4164 40.7059 14.0241 41.2698 14.104C41.8337 14.1839 42.2261 14.7058 42.1462 15.2697L41.5267 19.6413C41.229 21.7421 39.5637 23.3847 37.459 23.6535C35.8225 23.8626 34.1777 23.9851 32.5314 24.0212V29.5625C32.5314 30.1321 32.0697 30.5938 31.5002 30.5938C30.9306 30.5938 30.4689 30.1321 30.4689 29.5625V24.0212C28.8227 23.9851 27.1778 23.8626 25.5412 23.6535C23.4365 23.3847 21.7712 21.7421 21.4735 19.6413L20.8541 15.2697C20.7742 14.7058 21.1665 14.1839 21.7304 14.104Z" fill="#43515F"/>
<path d="M34.4784 4.38438C32.5133 3.98174 30.487 3.98174 28.5219 4.38438C27.9116 4.50943 27.4417 4.99791 27.3404 5.61255L27.2659 6.06492C26.6523 9.78821 26.6523 13.5868 27.2659 17.3101L27.3404 17.7625C27.4417 18.3771 27.9116 18.8656 28.5219 18.9907C30.487 19.3933 32.5133 19.3933 34.4784 18.9907C35.0886 18.8656 35.5585 18.3771 35.6598 17.7625L35.7344 17.3101C36.348 13.5868 36.348 9.78821 35.7344 6.06492L35.6598 5.61255C35.5585 4.99791 35.0886 4.50943 34.4784 4.38438Z" stroke="#43515F" stroke-linecap="round"/>
<path d="M21.7304 14.104C22.2944 14.0241 22.8163 14.4164 22.8962 14.9804L23.5156 19.3519C23.683 20.533 24.6193 21.4565 25.8026 21.6076C29.5856 22.0909 33.4147 22.0909 37.1977 21.6076C38.381 21.4565 39.3173 20.533 39.4846 19.3519L40.1041 14.9804C40.184 14.4164 40.7059 14.0241 41.2698 14.104C41.8337 14.1839 42.2261 14.7058 42.1462 15.2697L41.5267 19.6413C41.229 21.7421 39.5637 23.3847 37.459 23.6535C35.8225 23.8626 34.1777 23.9851 32.5314 24.0212V29.5625C32.5314 30.1321 32.0697 30.5938 31.5002 30.5938C30.9306 30.5938 30.4689 30.1321 30.4689 29.5625V24.0212C28.8227 23.9851 27.1778 23.8626 25.5412 23.6535C23.4365 23.3847 21.7712 21.7421 21.4735 19.6413L20.8541 15.2697C20.7742 14.7058 21.1665 14.1839 21.7304 14.104Z" stroke="#43515F" stroke-linecap="round"/>
</svg>
