<svg width="354" height="52" viewBox="1 -8 366 52" fill="none" xmlns="http://www.w3.org/2000/svg">
<path d="M343.346 7.32143C341.798 7.01639 340.202 7.01639 338.653 7.32143C338.173 7.41616 337.802 7.78622 337.723 8.25186L337.664 8.59456C337.18 11.4152 337.18 14.293 337.664 17.1137L337.723 17.4564C337.802 17.922 338.173 18.2921 338.653 18.3868C340.202 18.6918 341.798 18.6918 343.346 18.3868C343.827 18.2921 344.197 17.922 344.277 17.4564L344.336 17.1137C344.819 14.293 344.819 11.4152 344.336 8.59456L344.277 8.25186C344.197 7.78622 343.827 7.41616 343.346 7.32143Z" fill="#43515F"/>
<path d="M333.303 14.6848C333.747 14.6242 334.158 14.9215 334.221 15.3487L334.709 18.6604C334.841 19.5552 335.579 20.2549 336.511 20.3694C339.491 20.7354 342.508 20.7354 345.489 20.3694C346.421 20.2549 347.159 19.5552 347.291 18.6604L347.779 15.3487C347.842 14.9215 348.253 14.6242 348.697 14.6848C349.142 14.7453 349.451 15.1407 349.388 15.5679L348.9 18.8797C348.665 20.4712 347.353 21.7156 345.695 21.9193C344.405 22.0776 343.11 22.1705 341.812 22.1978V26.3958C341.812 26.8273 341.449 27.177 341 27.177C340.551 27.177 340.187 26.8273 340.187 26.3958V22.1978C338.89 22.1705 337.594 22.0776 336.305 21.9193C334.647 21.7156 333.335 20.4712 333.1 18.8797L332.612 15.5679C332.549 15.1407 332.858 14.7453 333.303 14.6848Z" fill="#43515F"/>
<path d="M343.346 7.32143C341.798 7.01639 340.202 7.01639 338.653 7.32143C338.173 7.41616 337.802 7.78622 337.723 8.25186L337.664 8.59456C337.18 11.4152 337.18 14.293 337.664 17.1137L337.723 17.4564C337.802 17.922 338.173 18.2921 338.653 18.3868C340.202 18.6918 341.798 18.6918 343.346 18.3868C343.827 18.2921 344.197 17.922 344.277 17.4564L344.336 17.1137C344.819 14.293 344.819 11.4152 344.336 8.59456L344.277 8.25186C344.197 7.78622 343.827 7.41616 343.346 7.32143Z" stroke="#43515F" stroke-linecap="round"/>
<path d="M333.303 14.6848C333.747 14.6242 334.158 14.9215 334.221 15.3487L334.709 18.6604C334.841 19.5552 335.579 20.2549 336.511 20.3694C339.491 20.7354 342.508 20.7354 345.489 20.3694C346.421 20.2549 347.159 19.5552 347.291 18.6604L347.779 15.3487C347.842 14.9215 348.253 14.6242 348.697 14.6848C349.142 14.7453 349.451 15.1407 349.388 15.5679L348.9 18.8797C348.665 20.4712 347.353 21.7156 345.695 21.9193C344.405 22.0776 343.11 22.1705 341.812 22.1978V26.3958C341.812 26.8273 341.449 27.177 341 27.177C340.551 27.177 340.187 26.8273 340.187 26.3958V22.1978C338.89 22.1705 337.594 22.0776 336.305 21.9193C334.647 21.7156 333.335 20.4712 333.1 18.8797L332.612 15.5679C332.549 15.1407 332.858 14.7453 333.303 14.6848Z" stroke="#43515F" stroke-linecap="round"/>
<path d="M133.605 10.12L133.589 10.184C132.949 11.0907 132.447 12.0773 132.085 13.144C131.722 14.2107 131.541 15.2933 131.541 16.392C131.541 17.512 131.722 18.6053 132.085 19.672C132.447 20.728 132.949 21.7093 133.589 22.616L132.245 23.496C131.509 22.472 130.933 21.3627 130.517 20.168C130.111 18.9733 129.909 17.7147 129.909 16.392C129.909 15.08 130.111 13.8267 130.517 12.632C130.933 11.4267 131.509 10.312 132.245 9.288L133.605 10.12ZM142.371 20.824C142.371 20.6107 142.275 20.3973 142.083 20.184C141.891 19.9707 141.672 19.7573 141.427 19.544C141.246 19.384 141.059 19.2133 140.867 19.032C140.686 18.8507 140.52 18.6587 140.371 18.456C140.222 18.2427 140.099 18.0187 140.003 17.784C139.907 17.5387 139.859 17.272 139.859 16.984C139.859 16.4827 139.955 16.0507 140.147 15.688C140.35 15.3253 140.606 15.0267 140.915 14.792C141.235 14.5573 141.582 14.3867 141.955 14.28C142.339 14.1627 142.712 14.104 143.075 14.104C143.32 14.104 143.56 14.1253 143.795 14.168C144.03 14.2 144.243 14.2427 144.435 14.296C144.648 14.3387 144.862 14.4027 145.075 14.488L144.643 16.312C144.408 16.1947 144.136 16.104 143.827 16.04C143.518 15.9653 143.208 15.928 142.899 15.928C142.558 15.928 142.27 16.0027 142.035 16.152C141.811 16.3013 141.699 16.5093 141.699 16.776C141.699 17 141.806 17.2347 142.019 17.48C142.232 17.7147 142.478 17.9547 142.755 18.2C142.936 18.36 143.118 18.5307 143.299 18.712C143.48 18.8827 143.64 19.064 143.779 19.256C143.928 19.448 144.046 19.6507 144.131 19.864C144.216 20.0773 144.259 20.3067 144.259 20.552C144.259 20.968 144.152 21.4 143.939 21.848C143.726 22.3067 143.395 22.728 142.947 23.112C142.499 23.496 141.928 23.8107 141.235 24.056C140.542 24.3013 139.72 24.424 138.771 24.424C137.907 24.424 137.166 24.296 136.547 24.04C135.928 23.784 135.422 23.4533 135.027 23.048C134.632 22.6533 134.339 22.2053 134.147 21.704C133.966 21.2027 133.875 20.7013 133.875 20.2C133.875 19.624 133.976 19.0907 134.179 18.6C134.382 18.1093 134.638 17.64 134.947 17.192L136.451 18.072C136.206 18.4347 136.024 18.792 135.907 19.144C135.8 19.4853 135.747 19.8 135.747 20.088C135.747 20.44 135.816 20.76 135.955 21.048C136.094 21.3467 136.296 21.6027 136.563 21.816C136.84 22.0293 137.176 22.1947 137.571 22.312C137.966 22.44 138.424 22.504 138.947 22.504C139.448 22.504 139.907 22.4507 140.323 22.344C140.75 22.2373 141.112 22.104 141.411 21.944C141.72 21.784 141.955 21.6027 142.115 21.4C142.286 21.208 142.371 21.016 142.371 20.824ZM136.947 26.28C136.947 26.024 137.038 25.8053 137.219 25.624C137.4 25.4533 137.63 25.368 137.907 25.368C138.184 25.368 138.414 25.4533 138.595 25.624C138.776 25.8053 138.867 26.024 138.867 26.28C138.867 26.5467 138.776 26.7653 138.595 26.936C138.414 27.1173 138.184 27.208 137.907 27.208C137.63 27.208 137.4 27.1173 137.219 26.936C137.038 26.7653 136.947 26.5467 136.947 26.28ZM139.427 26.28C139.427 26.024 139.518 25.8053 139.699 25.624C139.88 25.4533 140.11 25.368 140.387 25.368C140.664 25.368 140.894 25.4533 141.075 25.624C141.256 25.8053 141.347 26.024 141.347 26.28C141.347 26.5467 141.256 26.7653 141.075 26.936C140.894 27.1173 140.664 27.208 140.387 27.208C140.11 27.208 139.88 27.1173 139.699 26.936C139.518 26.7653 139.427 26.5467 139.427 26.28ZM150.052 20.744C150.052 21.224 149.988 21.672 149.86 22.088C149.732 22.504 149.54 22.8667 149.284 23.176C149.028 23.4853 148.713 23.7253 148.34 23.896C147.966 24.0773 147.534 24.168 147.044 24.168C146.841 24.168 146.654 24.1573 146.484 24.136C146.313 24.1253 146.164 24.1093 146.036 24.088C145.961 24.0773 145.892 24.0667 145.828 24.056C145.753 24.0453 145.678 24.0293 145.604 24.008L145.812 22.184L146.26 22.28C146.388 22.3013 146.521 22.3173 146.66 22.328C146.798 22.3493 146.926 22.36 147.044 22.36C147.513 22.36 147.828 22.2107 147.988 21.912C148.148 21.6133 148.228 21.176 148.228 20.6V14.632H150.052V20.744ZM152.466 9.544H154.29V19.144H155.378C155.548 19.144 155.666 19.1867 155.73 19.272C155.794 19.3573 155.826 19.4587 155.826 19.576V20.552C155.826 20.6373 155.788 20.7333 155.714 20.84C155.639 20.9467 155.527 21 155.378 21H152.466V9.544ZM155.296 21C155.114 21 154.997 20.9573 154.944 20.872C154.89 20.7867 154.864 20.6907 154.864 20.584V19.64C154.864 19.5227 154.901 19.4107 154.976 19.304C155.04 19.1973 155.146 19.144 155.296 19.144H156.832C157.066 19.144 157.221 19.0693 157.296 18.92C157.381 18.7707 157.424 18.568 157.424 18.312V14.632H159.248V17.672C159.248 18.0987 159.349 18.4507 159.552 18.728C159.754 19.0053 160.122 19.144 160.656 19.144H161.216C161.397 19.144 161.514 19.1867 161.568 19.272C161.621 19.3573 161.648 19.4587 161.648 19.576V20.552C161.648 20.6373 161.61 20.7333 161.536 20.84C161.472 20.9467 161.365 21 161.216 21H160.608C160.138 21 159.76 20.888 159.472 20.664C159.194 20.44 158.981 20.1947 158.832 19.928C158.65 20.2373 158.394 20.4933 158.064 20.696C157.744 20.8987 157.36 21 156.912 21H155.296ZM156.128 23.016C156.128 22.76 156.218 22.5413 156.4 22.36C156.581 22.1893 156.81 22.104 157.088 22.104C157.365 22.104 157.594 22.1893 157.776 22.36C157.957 22.5413 158.048 22.76 158.048 23.016C158.048 23.2827 157.957 23.5013 157.776 23.672C157.594 23.8533 157.365 23.944 157.088 23.944C156.81 23.944 156.581 23.8533 156.4 23.672C156.218 23.5013 156.128 23.2827 156.128 23.016ZM158.608 23.016C158.608 22.76 158.698 22.5413 158.88 22.36C159.061 22.1893 159.29 22.104 159.568 22.104C159.845 22.104 160.074 22.1893 160.256 22.36C160.437 22.5413 160.528 22.76 160.528 23.016C160.528 23.2827 160.437 23.5013 160.256 23.672C160.074 23.8533 159.845 23.944 159.568 23.944C159.29 23.944 159.061 23.8533 158.88 23.672C158.698 23.5013 158.608 23.2827 158.608 23.016ZM161.124 21C160.943 21 160.825 20.9573 160.772 20.872C160.719 20.7867 160.692 20.6907 160.692 20.584V19.64C160.692 19.5227 160.729 19.4107 160.804 19.304C160.868 19.1973 160.975 19.144 161.124 19.144H162.66C162.895 19.144 163.049 19.0693 163.124 18.92C163.209 18.7707 163.252 18.568 163.252 18.312V14.632H165.076V17.672C165.076 18.0987 165.177 18.4507 165.38 18.728C165.583 19.0053 165.951 19.144 166.484 19.144H167.044C167.225 19.144 167.343 19.1867 167.396 19.272C167.449 19.3573 167.476 19.4587 167.476 19.576V20.552C167.476 20.6373 167.439 20.7333 167.364 20.84C167.3 20.9467 167.193 21 167.044 21H166.436C165.967 21 165.588 20.888 165.3 20.664C165.023 20.44 164.809 20.1947 164.66 19.928C164.479 20.2373 164.223 20.4933 163.892 20.696C163.572 20.8987 163.188 21 162.74 21H161.124ZM162.18 12.136C162.18 11.88 162.271 11.6613 162.452 11.48C162.633 11.2987 162.863 11.208 163.14 11.208C163.417 11.208 163.647 11.2987 163.828 11.48C164.009 11.6613 164.1 11.88 164.1 12.136C164.1 12.392 164.009 12.6107 163.828 12.792C163.647 12.9733 163.417 13.064 163.14 13.064C162.863 13.064 162.633 12.9733 162.452 12.792C162.271 12.6107 162.18 12.392 162.18 12.136ZM164.676 12.136C164.676 11.88 164.767 11.6613 164.948 11.48C165.129 11.2987 165.359 11.208 165.636 11.208C165.913 11.208 166.143 11.2987 166.324 11.48C166.505 11.6613 166.596 11.88 166.596 12.136C166.596 12.392 166.505 12.6107 166.324 12.792C166.143 12.9733 165.913 13.064 165.636 13.064C165.359 13.064 165.129 12.9733 164.948 12.792C164.767 12.6107 164.676 12.392 164.676 12.136ZM171.224 17.352C171.171 16.808 171.037 16.4293 170.824 16.216C170.611 15.992 170.301 15.88 169.896 15.88C169.672 15.88 169.389 15.9173 169.048 15.992C168.717 16.0667 168.397 16.1787 168.088 16.328L167.624 14.568C167.752 14.5147 167.917 14.456 168.12 14.392C168.323 14.328 168.536 14.2693 168.76 14.216C168.995 14.1627 169.235 14.12 169.48 14.088C169.736 14.0453 169.987 14.024 170.232 14.024C170.691 14.024 171.085 14.0987 171.416 14.248C171.757 14.3867 172.04 14.5893 172.264 14.856C172.499 15.112 172.68 15.4213 172.808 15.784C172.936 16.1467 173.027 16.5413 173.08 16.968C173.101 17.1813 173.128 17.3947 173.16 17.608C173.192 17.8107 173.245 18.0133 173.32 18.216C173.405 18.4187 173.512 18.6053 173.64 18.776C173.779 18.9467 173.955 19.096 174.168 19.224V21H166.952C166.792 21 166.68 20.9573 166.616 20.872C166.552 20.7867 166.52 20.6907 166.52 20.584V19.64C166.52 19.5227 166.557 19.4107 166.632 19.304C166.696 19.1973 166.803 19.144 166.952 19.144H171.944C171.848 19.0267 171.715 18.824 171.544 18.536C171.384 18.2373 171.277 17.8427 171.224 17.352ZM169.16 12.136C169.16 11.88 169.251 11.6613 169.432 11.48C169.624 11.2987 169.853 11.208 170.12 11.208C170.397 11.208 170.627 11.2987 170.808 11.48C171 11.6613 171.096 11.88 171.096 12.136C171.096 12.392 171 12.6107 170.808 12.792C170.627 12.9733 170.397 13.064 170.12 13.064C169.853 13.064 169.624 12.9733 169.432 12.792C169.251 12.6107 169.16 12.392 169.16 12.136ZM176.122 9.544H177.93V21H176.122V9.544ZM179.381 22.664L179.397 22.6C180.037 21.6933 180.539 20.7067 180.901 19.64C181.264 18.5733 181.445 17.4907 181.445 16.392C181.445 15.272 181.264 14.184 180.901 13.128C180.539 12.072 180.037 11.0907 179.397 10.184L180.741 9.288C181.477 10.312 182.048 11.4213 182.453 12.616C182.869 13.8107 183.077 15.0693 183.077 16.392C183.077 17.704 182.869 18.9627 182.453 20.168C182.048 21.3627 181.477 22.472 180.741 23.496L179.381 22.664ZM196.852 21C196.745 21.5013 196.564 21.96 196.308 22.376C196.052 22.792 195.732 23.144 195.348 23.432C194.964 23.7307 194.521 23.96 194.02 24.12C193.518 24.2907 192.969 24.376 192.372 24.376C191.497 24.376 190.766 24.248 190.18 23.992C189.604 23.7467 189.14 23.4213 188.788 23.016C188.446 22.6213 188.201 22.1733 188.052 21.672C187.913 21.1813 187.844 20.696 187.844 20.216C187.844 19.704 187.929 19.1867 188.1 18.664C188.27 18.1307 188.521 17.64 188.852 17.192L190.404 18.072C190.158 18.4347 189.977 18.7973 189.86 19.16C189.753 19.512 189.7 19.864 189.7 20.216C189.7 20.4507 189.737 20.7013 189.812 20.968C189.897 21.2347 190.041 21.48 190.244 21.704C190.457 21.9387 190.74 22.1307 191.092 22.28C191.444 22.44 191.892 22.52 192.436 22.52C192.777 22.52 193.108 22.472 193.428 22.376C193.758 22.28 194.052 22.1253 194.308 21.912C194.564 21.7093 194.766 21.4427 194.916 21.112C195.076 20.792 195.156 20.408 195.156 19.96V14.616H196.98V15.96C197.364 15.4373 197.86 14.9947 198.468 14.632C199.086 14.2693 199.764 14.088 200.5 14.088C201.086 14.088 201.62 14.1893 202.1 14.392C202.58 14.5947 202.985 14.8773 203.316 15.24C203.657 15.592 203.918 16.0133 204.1 16.504C204.292 16.9947 204.388 17.528 204.388 18.104C204.388 18.4773 204.505 18.744 204.74 18.904C204.974 19.064 205.348 19.144 205.86 19.144H206.228C206.377 19.144 206.484 19.1867 206.548 19.272C206.612 19.3573 206.644 19.4587 206.644 19.576V20.552C206.644 20.6373 206.601 20.7333 206.516 20.84C206.441 20.9467 206.345 21 206.228 21H205.796C205.348 21 204.985 20.8933 204.708 20.68C204.43 20.456 204.217 20.2107 204.068 19.944C203.886 20.296 203.614 20.5627 203.252 20.744C202.9 20.9147 202.484 21 202.004 21H196.852ZM202.004 19.144C202.238 19.144 202.388 19.0747 202.452 18.936C202.526 18.7867 202.564 18.552 202.564 18.232C202.564 17.4853 202.377 16.904 202.004 16.488C201.63 16.072 201.076 15.864 200.34 15.864C199.924 15.864 199.518 15.9547 199.124 16.136C198.74 16.3067 198.393 16.5467 198.084 16.856C197.785 17.1547 197.534 17.5013 197.332 17.896C197.14 18.2907 197.028 18.7067 196.996 19.144H202.004ZM206.108 21C205.927 21 205.81 20.9573 205.756 20.872C205.703 20.7867 205.676 20.6907 205.676 20.584V19.64C205.676 19.5227 205.714 19.4107 205.788 19.304C205.852 19.1973 205.959 19.144 206.108 19.144H207.644C207.879 19.144 208.034 19.0693 208.108 18.92C208.194 18.7707 208.236 18.568 208.236 18.312V14.632H210.06V17.672C210.06 18.0987 210.162 18.4507 210.364 18.728C210.567 19.0053 210.935 19.144 211.468 19.144H212.028C212.21 19.144 212.327 19.1867 212.38 19.272C212.434 19.3573 212.46 19.4587 212.46 19.576V20.552C212.46 20.6373 212.423 20.7333 212.348 20.84C212.284 20.9467 212.178 21 212.028 21H211.42C210.951 21 210.572 20.888 210.284 20.664C210.007 20.44 209.794 20.1947 209.644 19.928C209.463 20.2373 209.207 20.4933 208.876 20.696C208.556 20.8987 208.172 21 207.724 21H206.108ZM208.188 12.136C208.188 11.88 208.279 11.6613 208.46 11.48C208.652 11.2987 208.882 11.208 209.148 11.208C209.426 11.208 209.655 11.2987 209.836 11.48C210.028 11.6613 210.124 11.88 210.124 12.136C210.124 12.392 210.028 12.6107 209.836 12.792C209.655 12.9733 209.426 13.064 209.148 13.064C208.882 13.064 208.652 12.9733 208.46 12.792C208.279 12.6107 208.188 12.392 208.188 12.136ZM211.92 21C211.76 21 211.654 20.9573 211.6 20.872C211.536 20.7867 211.504 20.6907 211.504 20.584V19.64C211.504 19.5227 211.536 19.4107 211.6 19.304C211.664 19.1973 211.771 19.144 211.92 19.144H213.808V9.544H215.616V21H211.92ZM218.247 9.544H220.055V21H218.247V9.544ZM225.234 22.824C225.234 22.3227 225.309 21.88 225.458 21.496C225.608 21.112 225.8 20.776 226.034 20.488C226.28 20.1893 226.546 19.9333 226.834 19.72C227.133 19.5067 227.426 19.32 227.714 19.16C227.533 18.9893 227.346 18.7973 227.154 18.584C226.962 18.3707 226.781 18.152 226.61 17.928C226.44 17.704 226.29 17.4853 226.162 17.272C226.034 17.048 225.938 16.84 225.874 16.648L225.794 15.384C226.061 15.16 226.36 14.9573 226.69 14.776C227.021 14.5947 227.357 14.4453 227.698 14.328C228.04 14.2107 228.376 14.12 228.706 14.056C229.048 13.992 229.362 13.96 229.65 13.96C230.152 13.96 230.594 14.0133 230.978 14.12C231.373 14.2267 231.704 14.3707 231.97 14.552C232.248 14.7227 232.456 14.92 232.594 15.144C232.733 15.3573 232.802 15.576 232.802 15.8C232.802 15.9813 232.776 16.1947 232.722 16.44C232.68 16.6747 232.594 16.936 232.466 17.224C232.338 17.5013 232.157 17.8 231.922 18.12C231.688 18.44 231.384 18.7707 231.01 19.112C231.117 19.1333 231.25 19.144 231.41 19.144C231.581 19.144 231.8 19.144 232.066 19.144H233.362C233.512 19.144 233.618 19.1867 233.682 19.272C233.757 19.3573 233.794 19.4587 233.794 19.576V20.552C233.794 20.6373 233.757 20.7333 233.682 20.84C233.618 20.9467 233.512 21 233.362 21H232.05C231.41 21 230.845 20.9253 230.354 20.776C229.874 20.6267 229.496 20.4773 229.218 20.328C228.952 20.456 228.696 20.5947 228.45 20.744C228.205 20.8933 227.986 21.064 227.794 21.256C227.602 21.448 227.448 21.6613 227.33 21.896C227.224 22.1413 227.17 22.424 227.17 22.744C227.17 23.288 227.352 23.7253 227.714 24.056C228.088 24.3867 228.642 24.552 229.378 24.552C229.506 24.552 229.65 24.5413 229.81 24.52C229.981 24.4987 230.146 24.472 230.306 24.44C230.466 24.408 230.616 24.3707 230.754 24.328C230.904 24.296 231.021 24.264 231.106 24.232L231.362 25.896C231.277 25.9387 231.149 25.9813 230.978 26.024C230.818 26.0773 230.632 26.1253 230.418 26.168C230.205 26.2107 229.976 26.2427 229.73 26.264C229.496 26.296 229.266 26.312 229.042 26.312C228.584 26.312 228.125 26.2427 227.666 26.104C227.218 25.976 226.813 25.768 226.45 25.48C226.088 25.2027 225.794 24.8453 225.57 24.408C225.346 23.9707 225.234 23.4427 225.234 22.824ZM229.602 15.72C229.432 15.72 229.245 15.736 229.042 15.768C228.85 15.7893 228.658 15.8213 228.466 15.864C228.285 15.9067 228.109 15.96 227.938 16.024C227.778 16.088 227.64 16.1573 227.522 16.232C227.597 16.3813 227.698 16.552 227.826 16.744C227.965 16.936 228.114 17.1333 228.274 17.336C228.434 17.5387 228.605 17.736 228.786 17.928C228.978 18.1093 229.165 18.264 229.346 18.392C229.56 18.264 229.768 18.104 229.97 17.912C230.173 17.72 230.349 17.5227 230.498 17.32C230.658 17.1067 230.786 16.8987 230.882 16.696C230.978 16.4933 231.026 16.3173 231.026 16.168C231.026 16.0827 230.984 16.0133 230.898 15.96C230.824 15.896 230.717 15.848 230.578 15.816C230.44 15.784 230.285 15.7627 230.114 15.752C229.944 15.7307 229.773 15.72 229.602 15.72ZM238.161 19.24C238.662 19.24 239.03 19.0853 239.265 18.776C239.51 18.4667 239.633 18.0933 239.633 17.656C239.633 17.3787 239.59 17.128 239.505 16.904C239.419 16.68 239.307 16.488 239.169 16.328C239.041 16.168 238.886 16.0453 238.705 15.96C238.534 15.8747 238.353 15.832 238.161 15.832C237.958 15.832 237.766 15.8747 237.585 15.96C237.403 16.0453 237.243 16.168 237.105 16.328C236.977 16.488 236.87 16.68 236.785 16.904C236.71 17.128 236.673 17.3787 236.673 17.656C236.673 18.0827 236.785 18.456 237.009 18.776C237.243 19.0853 237.627 19.24 238.161 19.24ZM233.264 21C233.104 21 232.992 20.9573 232.928 20.872C232.864 20.7867 232.832 20.6907 232.832 20.584V19.64C232.832 19.5227 232.87 19.4107 232.944 19.304C233.008 19.1973 233.115 19.144 233.264 19.144H233.889C234.55 19.144 234.881 18.6427 234.881 17.64C234.881 17.128 234.961 16.6533 235.121 16.216C235.291 15.7787 235.526 15.4053 235.825 15.096C236.123 14.776 236.47 14.5307 236.865 14.36C237.27 14.1787 237.713 14.088 238.193 14.088C238.726 14.088 239.19 14.1787 239.585 14.36C239.99 14.5413 240.321 14.792 240.577 15.112C240.843 15.432 241.041 15.816 241.169 16.264C241.297 16.712 241.361 17.2027 241.361 17.736C241.361 18.152 241.302 18.5573 241.185 18.952C241.078 19.3467 240.897 19.6987 240.641 20.008C240.385 20.3067 240.054 20.5467 239.649 20.728C239.254 20.9093 238.769 21 238.193 21C237.958 21 237.723 20.9893 237.489 20.968C237.254 20.936 237.019 20.8827 236.785 20.808C236.561 20.7227 236.342 20.6107 236.129 20.472C235.926 20.3227 235.739 20.136 235.569 19.912C235.409 20.2853 235.185 20.5627 234.897 20.744C234.619 20.9147 234.321 21 234.001 21H233.264ZM248.761 21C248.292 21 247.897 20.936 247.577 20.808C247.257 20.68 247.001 20.5093 246.809 20.296C246.617 20.0827 246.479 19.832 246.393 19.544C246.319 19.256 246.281 18.9573 246.281 18.648V15.944H248.105V18.328C248.105 18.6693 248.164 18.8933 248.281 19C248.399 19.096 248.596 19.144 248.873 19.144H256.313V14.632H258.153V21H248.761ZM250.409 12.136C250.409 11.88 250.5 11.6613 250.681 11.48C250.863 11.2987 251.092 11.208 251.369 11.208C251.647 11.208 251.876 11.2987 252.057 11.48C252.239 11.6613 252.329 11.88 252.329 12.136C252.329 12.392 252.239 12.6107 252.057 12.792C251.876 12.9733 251.647 13.064 251.369 13.064C251.092 13.064 250.863 12.9733 250.681 12.792C250.5 12.6107 250.409 12.392 250.409 12.136ZM252.905 12.136C252.905 11.88 252.996 11.6613 253.177 11.48C253.359 11.2987 253.588 11.208 253.865 11.208C254.143 11.208 254.372 11.2987 254.553 11.48C254.735 11.6613 254.825 11.88 254.825 12.136C254.825 12.392 254.735 12.6107 254.553 12.792C254.372 12.9733 254.143 13.064 253.865 13.064C253.588 13.064 253.359 12.9733 253.177 12.792C252.996 12.6107 252.905 12.392 252.905 12.136ZM265.006 19.144V17.72C265.006 17.112 264.883 16.648 264.638 16.328C264.403 15.9973 264.072 15.832 263.646 15.832C263.454 15.832 263.267 15.8747 263.086 15.96C262.915 16.0347 262.76 16.1467 262.622 16.296C262.483 16.4347 262.371 16.6053 262.286 16.808C262.2 17.0107 262.158 17.24 262.158 17.496C262.158 17.7947 262.206 18.0507 262.302 18.264C262.398 18.4667 262.526 18.6373 262.686 18.776C262.846 18.904 263.027 19 263.23 19.064C263.443 19.1173 263.662 19.144 263.886 19.144H265.006ZM266.814 21C266.782 21.6187 266.659 22.1467 266.446 22.584C266.232 23.032 265.944 23.3947 265.582 23.672C265.219 23.9493 264.792 24.152 264.302 24.28C263.811 24.4187 263.272 24.488 262.686 24.488C262.44 24.488 262.184 24.4773 261.918 24.456C261.651 24.4453 261.358 24.4133 261.038 24.36L261.166 22.568C261.475 22.6107 261.768 22.6427 262.046 22.664C262.323 22.6853 262.563 22.696 262.766 22.696C263.064 22.696 263.347 22.6747 263.614 22.632C263.88 22.5893 264.115 22.504 264.318 22.376C264.531 22.2587 264.696 22.088 264.814 21.864C264.942 21.6507 265.011 21.3627 265.022 21H263.95C263.288 21 262.728 20.9093 262.27 20.728C261.822 20.536 261.454 20.2907 261.166 19.992C260.888 19.6827 260.686 19.336 260.558 18.952C260.43 18.568 260.366 18.1787 260.366 17.784C260.366 17.2827 260.446 16.808 260.606 16.36C260.776 15.9013 261.011 15.5013 261.31 15.16C261.608 14.8187 261.96 14.552 262.366 14.36C262.782 14.1573 263.24 14.056 263.742 14.056C264.222 14.056 264.648 14.136 265.022 14.296C265.406 14.4453 265.731 14.664 265.998 14.952C266.264 15.2293 266.467 15.5653 266.606 15.96C266.744 16.344 266.814 16.7707 266.814 17.24V19.144H268.382C268.552 19.144 268.67 19.1867 268.734 19.272C268.798 19.3573 268.83 19.4587 268.83 19.576V20.552C268.83 20.6373 268.792 20.7333 268.718 20.84C268.654 20.9467 268.542 21 268.382 21H266.814ZM277.704 18.232C277.704 17.784 277.656 17.4107 277.56 17.112C277.464 16.8027 277.325 16.5573 277.144 16.376C276.973 16.1947 276.76 16.0667 276.504 15.992C276.258 15.9067 275.986 15.864 275.688 15.864C275.336 15.864 274.978 15.944 274.616 16.104C274.253 16.2533 273.917 16.472 273.608 16.76C273.298 17.0373 273.032 17.3787 272.808 17.784C272.594 18.1893 272.456 18.6427 272.392 19.144H277.704V18.232ZM268.296 21C268.136 21 268.024 20.9573 267.96 20.872C267.896 20.7867 267.864 20.6907 267.864 20.584V19.64C267.864 19.5227 267.901 19.4107 267.976 19.304C268.04 19.1973 268.146 19.144 268.296 19.144H270.52V14.616H272.36V15.96C272.808 15.3733 273.346 14.9147 273.976 14.584C274.605 14.2533 275.245 14.088 275.896 14.088C276.493 14.088 277.016 14.1893 277.464 14.392C277.922 14.5947 278.306 14.8773 278.616 15.24C278.925 15.592 279.154 16.0133 279.304 16.504C279.464 16.9947 279.544 17.528 279.544 18.104V21H268.296ZM292.448 21C291.691 21 291.056 20.904 290.544 20.712C290.032 20.52 289.616 20.264 289.296 19.944C288.987 19.6133 288.763 19.24 288.624 18.824C288.496 18.3973 288.432 17.96 288.432 17.512C288.432 17.0427 288.523 16.6 288.704 16.184C288.886 15.7573 289.136 15.3893 289.456 15.08C289.776 14.76 290.15 14.5093 290.576 14.328C291.014 14.1467 291.483 14.056 291.984 14.056C292.443 14.056 292.854 14.136 293.216 14.296C293.59 14.4453 293.904 14.6587 294.16 14.936C294.416 15.2133 294.614 15.544 294.752 15.928C294.891 16.3013 294.96 16.7173 294.96 17.176V20.76C294.96 21.368 294.859 21.96 294.656 22.536C294.454 23.1227 294.139 23.64 293.712 24.088C293.286 24.5467 292.747 24.9147 292.096 25.192C291.446 25.4693 290.672 25.608 289.776 25.608C288.859 25.608 288.075 25.4853 287.424 25.24C286.774 24.9947 286.24 24.6747 285.824 24.28C285.419 23.896 285.12 23.464 284.928 22.984C284.747 22.504 284.656 22.0293 284.656 21.56C284.656 21.08 284.71 20.6373 284.816 20.232C284.923 19.816 285.035 19.4587 285.152 19.16C285.28 18.8507 285.398 18.6107 285.504 18.44C285.611 18.2693 285.664 18.1893 285.664 18.2L287.152 19C287.035 19.192 286.923 19.4107 286.816 19.656C286.731 19.8587 286.651 20.0827 286.576 20.328C286.512 20.5733 286.48 20.8347 286.48 21.112C286.48 21.4747 286.544 21.816 286.672 22.136C286.8 22.456 287.003 22.7333 287.28 22.968C287.558 23.2133 287.91 23.4053 288.336 23.544C288.774 23.6827 289.296 23.752 289.904 23.752C290.491 23.752 290.987 23.672 291.392 23.512C291.798 23.352 292.128 23.144 292.384 22.888C292.64 22.632 292.827 22.3387 292.944 22.008C293.072 21.6773 293.147 21.3413 293.168 21H292.448ZM293.12 19.144V17.096C293.12 16.7547 293.003 16.4613 292.768 16.216C292.534 15.96 292.208 15.832 291.792 15.832C291.6 15.832 291.414 15.8693 291.232 15.944C291.051 16.0187 290.886 16.1307 290.736 16.28C290.587 16.4187 290.464 16.5893 290.368 16.792C290.283 16.9947 290.24 17.2293 290.24 17.496C290.24 17.784 290.294 18.0347 290.4 18.248C290.518 18.4507 290.667 18.6213 290.848 18.76C291.04 18.888 291.259 18.984 291.504 19.048C291.75 19.112 292.011 19.144 292.288 19.144H293.12ZM289.776 12.136C289.776 11.88 289.867 11.6613 290.048 11.48C290.23 11.2987 290.459 11.208 290.736 11.208C291.014 11.208 291.243 11.2987 291.424 11.48C291.606 11.6613 291.696 11.88 291.696 12.136C291.696 12.392 291.606 12.6107 291.424 12.792C291.243 12.9733 291.014 13.064 290.736 13.064C290.459 13.064 290.23 12.9733 290.048 12.792C289.867 12.6107 289.776 12.392 289.776 12.136ZM292.272 12.136C292.272 11.88 292.363 11.6613 292.544 11.48C292.726 11.2987 292.955 11.208 293.232 11.208C293.51 11.208 293.739 11.2987 293.92 11.48C294.102 11.6613 294.192 11.88 294.192 12.136C294.192 12.392 294.102 12.6107 293.92 12.792C293.739 12.9733 293.51 13.064 293.232 13.064C292.955 13.064 292.726 12.9733 292.544 12.792C292.363 12.6107 292.272 12.392 292.272 12.136ZM297.263 9.544H299.087V19.144H300.174C300.345 19.144 300.463 19.1867 300.527 19.272C300.591 19.3573 300.623 19.4587 300.623 19.576V20.552C300.623 20.6373 300.585 20.7333 300.511 20.84C300.436 20.9467 300.324 21 300.174 21H297.263V9.544ZM308.285 21H300.093C299.933 21 299.821 20.9573 299.757 20.872C299.693 20.7867 299.661 20.6907 299.661 20.584V19.64C299.661 19.5227 299.698 19.4107 299.773 19.304C299.837 19.1973 299.943 19.144 300.093 19.144H302.189C302.103 19.0267 302.013 18.8347 301.917 18.568C301.821 18.2907 301.773 17.9387 301.773 17.512C301.773 17.0747 301.858 16.648 302.029 16.232C302.199 15.816 302.439 15.448 302.749 15.128C303.058 14.808 303.431 14.552 303.869 14.36C304.306 14.1573 304.791 14.056 305.325 14.056C305.783 14.056 306.194 14.1307 306.557 14.28C306.919 14.4293 307.229 14.6427 307.485 14.92C307.741 15.1867 307.938 15.512 308.077 15.896C308.215 16.28 308.285 16.7067 308.285 17.176V21ZM306.445 19.144V17.096C306.445 16.9467 306.418 16.7973 306.365 16.648C306.322 16.4987 306.247 16.3653 306.141 16.248C306.034 16.12 305.895 16.0187 305.725 15.944C305.565 15.8693 305.373 15.832 305.149 15.832C304.946 15.832 304.749 15.8747 304.557 15.96C304.375 16.0347 304.21 16.1467 304.061 16.296C303.922 16.4347 303.805 16.6053 303.709 16.808C303.623 17.0107 303.581 17.24 303.581 17.496C303.581 17.88 303.655 18.184 303.805 18.408C303.965 18.6213 304.135 18.7867 304.317 18.904C304.519 19.032 304.765 19.112 305.053 19.144H306.445ZM304.333 12.136C304.333 11.88 304.423 11.6613 304.605 11.48C304.797 11.2987 305.026 11.208 305.293 11.208C305.57 11.208 305.799 11.2987 305.981 11.48C306.173 11.6613 306.269 11.88 306.269 12.136C306.269 12.392 306.173 12.6107 305.981 12.792C305.799 12.9733 305.57 13.064 305.293 13.064C305.026 13.064 304.797 12.9733 304.605 12.792C304.423 12.6107 304.333 12.392 304.333 12.136ZM313.614 20.744C313.614 21.224 313.55 21.672 313.422 22.088C313.294 22.504 313.102 22.8667 312.846 23.176C312.59 23.4853 312.276 23.7253 311.902 23.896C311.529 24.0773 311.097 24.168 310.606 24.168C310.404 24.168 310.217 24.1573 310.046 24.136C309.876 24.1253 309.726 24.1093 309.598 24.088C309.524 24.0773 309.454 24.0667 309.39 24.056C309.316 24.0453 309.241 24.0293 309.166 24.008L309.374 22.184L309.822 22.28C309.95 22.3013 310.084 22.3173 310.222 22.328C310.361 22.3493 310.489 22.36 310.606 22.36C311.076 22.36 311.39 22.2107 311.55 21.912C311.71 21.6133 311.79 21.176 311.79 20.6V14.632H313.614V20.744ZM316.012 9.544H317.82V21H316.012V9.544ZM317.884 23.256C317.692 23.2027 317.5 23.176 317.308 23.176C317.148 23.176 317.015 23.2187 316.908 23.304C316.801 23.4 316.748 23.5387 316.748 23.72C316.748 23.88 316.817 24.0293 316.956 24.168C317.105 24.3067 317.335 24.376 317.644 24.376H318.14V25.224H315.436V24.376H316.156C316.071 24.2587 315.991 24.1307 315.916 23.992C315.841 23.8533 315.804 23.6933 315.804 23.512C315.804 23.2027 315.921 22.9307 316.156 22.696C316.391 22.4613 316.748 22.344 317.228 22.344C317.356 22.344 317.489 22.3547 317.628 22.376C317.777 22.3973 317.911 22.424 318.028 22.456L317.884 23.256Z" fill="#43515F"/>
</svg>
