<svg width="23" height="25" viewBox="0 0 18 22" fill="none" xmlns="http://www.w3.org/2000/svg">
<path d="M10.5002 2C10.5002 1.17157 9.82861 0.5 9.00018 0.5C8.17176 0.5 7.50018 1.17157 7.50018 2V2.25H7.44277C4.95367 2.25 2.89355 4.18529 2.73817 6.66953L2.51717 10.203C2.43862 11.4589 2.01699 12.6691 1.29819 13.702C0.386067 15.0126 1.19809 16.8227 2.78348 17.013L5.75018 17.369V18C5.75018 19.7949 7.20526 21.25 9.00018 21.25C10.7951 21.25 12.2502 19.7949 12.2502 18V17.369L15.2169 17.013C16.8023 16.8227 17.6143 15.0126 16.7022 13.702C15.9834 12.6691 15.5617 11.4589 15.4832 10.203L15.2622 6.66953C15.1068 4.18529 13.0467 2.25 10.5576 2.25H10.5002V2ZM9.00018 18.75C8.58597 18.75 8.25018 18.4142 8.25018 18V17.75H9.75018V18C9.75018 18.4142 9.4144 18.75 9.00018 18.75Z" stroke="#43515F" stroke-width="1.5" />
</svg>
