<svg width="20" height="27" viewBox="0 0 20 27" fill="none" xmlns="http://www.w3.org/2000/svg">
<path fill-rule="evenodd" clip-rule="evenodd" d="M11.25 1.875C11.25 1.16163 10.6904 0.583336 10 0.583336C9.30964 0.583336 8.75 1.16163 8.75 1.875V2.84375H8.05323C5.27189 2.84375 2.96989 5.07835 2.79627 7.9468L2.52002 12.5108C2.41469 14.251 1.84933 15.9279 0.885505 17.359C0.0146524 18.652 0.789928 20.4378 2.30359 20.6255L6.5625 21.1536V22.5417C6.5625 24.5034 8.10152 26.0938 10 26.0938C11.8985 26.0938 13.4375 24.5034 13.4375 22.5417V21.1536L17.6964 20.6255C19.2101 20.4378 19.9853 18.652 19.1145 17.359C18.1507 15.9279 17.5853 14.251 17.48 12.5108L17.2037 7.9468C17.0301 5.07835 14.7281 2.84375 11.9468 2.84375H11.25V1.875ZM8.05323 4.78125C6.26197 4.78125 4.77943 6.22039 4.66761 8.06774L4.39136 12.6318C4.26462 14.7258 3.5843 16.7436 2.42449 18.4657C2.36155 18.5592 2.41758 18.6882 2.52699 18.7018L7.19906 19.2812C9.05967 19.5119 10.9403 19.5119 12.8009 19.2812L17.473 18.7018C17.5824 18.6883 17.6384 18.5592 17.5755 18.4657C16.4157 16.7436 15.7354 14.7258 15.6086 12.6318L15.3324 8.06774C15.2206 6.22039 13.738 4.78125 11.9468 4.78125H8.05323ZM10 24.1563C9.13705 24.1563 8.4375 23.4334 8.4375 22.5417V21.5729H11.5625V22.5417C11.5625 23.4334 10.8629 24.1563 10 24.1563Z" stroke="#43515F" stroke-width="1"/>
</svg>
