<svg width="75" height="50" viewBox="0 -2 75 50" fill="none" xmlns="http://www.w3.org/2000/svg">
<path d="M3.58577 42.724V41.745C3.58577 41.327 3.5051 41.008 3.34377 40.788C3.18977 40.5607 2.95877 40.447 2.65077 40.447C2.51877 40.447 2.39043 40.4763 2.26577 40.535C2.14843 40.5863 2.0421 40.6633 1.94677 40.766C1.85143 40.8613 1.77443 40.9787 1.71577 41.118C1.6571 41.2573 1.62777 41.415 1.62777 41.591C1.62777 41.7963 1.66077 41.9723 1.72677 42.119C1.79277 42.2583 1.88077 42.3757 1.99077 42.471C2.10077 42.559 2.22543 42.625 2.36477 42.669C2.51143 42.7057 2.66177 42.724 2.81577 42.724H3.58577ZM2.84877 44C2.40143 44 2.0201 43.9377 1.70477 43.813C1.39677 43.681 1.14377 43.5123 0.945766 43.307C0.747766 43.0943 0.604766 42.856 0.516766 42.592C0.428766 42.328 0.384766 42.0603 0.384766 41.789C0.384766 41.4443 0.443432 41.118 0.560766 40.81C0.678099 40.4947 0.839432 40.2197 1.04477 39.985C1.2501 39.7503 1.49577 39.567 1.78177 39.435C2.06777 39.2957 2.3831 39.226 2.72777 39.226C3.0431 39.226 3.3291 39.281 3.58577 39.391C3.84977 39.4937 4.07343 39.644 4.25677 39.842C4.44743 40.0327 4.59043 40.2637 4.68577 40.535C4.78843 40.799 4.83977 41.0923 4.83977 41.415V42.724H5.62077C5.72343 42.724 5.79677 42.7533 5.84077 42.812C5.8921 42.8707 5.91777 42.9403 5.91777 43.021V43.692C5.91777 43.7507 5.8921 43.8167 5.84077 43.89C5.79677 43.9633 5.72343 44 5.62077 44H2.84877ZM1.17677 37.906C1.17677 37.73 1.2391 37.5797 1.36377 37.455C1.48843 37.3303 1.6461 37.268 1.83677 37.268C2.02743 37.268 2.1851 37.3303 2.30977 37.455C2.43443 37.5797 2.49677 37.73 2.49677 37.906C2.49677 38.082 2.43443 38.2323 2.30977 38.357C2.1851 38.4817 2.02743 38.544 1.83677 38.544C1.6461 38.544 1.48843 38.4817 1.36377 38.357C1.2391 38.2323 1.17677 38.082 1.17677 37.906ZM2.89277 37.906C2.89277 37.73 2.9551 37.5797 3.07977 37.455C3.20443 37.3303 3.3621 37.268 3.55277 37.268C3.74343 37.268 3.9011 37.3303 4.02577 37.455C4.15043 37.5797 4.21277 37.73 4.21277 37.906C4.21277 38.082 4.15043 38.2323 4.02577 38.357C3.9011 38.4817 3.74343 38.544 3.55277 38.544C3.3621 38.544 3.20443 38.4817 3.07977 38.357C2.9551 38.2323 2.89277 38.082 2.89277 37.906ZM11.139 42.724H12.206C12.3233 42.724 12.4003 42.7533 12.437 42.812C12.481 42.8707 12.503 42.9403 12.503 43.021V43.692C12.503 43.7507 12.4773 43.8167 12.426 43.89C12.382 43.9633 12.3087 44 12.206 44H5.55098C5.43365 44 5.35665 43.9707 5.31998 43.912C5.27598 43.8533 5.25398 43.7873 5.25398 43.714V43.065C5.25398 42.9843 5.27965 42.9073 5.33098 42.834C5.37498 42.7607 5.44832 42.724 5.55098 42.724H6.94798C6.89665 42.6433 6.83432 42.5113 6.76098 42.328C6.69498 42.1373 6.66198 41.8953 6.66198 41.602C6.66198 41.3013 6.72065 41.008 6.83798 40.722C6.95532 40.436 7.12032 40.183 7.33298 39.963C7.54565 39.743 7.80232 39.567 8.10298 39.435C8.41098 39.2957 8.74832 39.226 9.11498 39.226C9.42298 39.226 9.70165 39.2773 9.95098 39.38C10.2003 39.4827 10.413 39.6293 10.589 39.82C10.765 40.0033 10.9007 40.227 10.996 40.491C11.0913 40.755 11.139 41.0483 11.139 41.371V42.724ZM9.87398 42.724V41.316C9.87398 41.2133 9.85565 41.1107 9.81898 41.008C9.78965 40.9053 9.73832 40.8137 9.66498 40.733C9.59165 40.645 9.49998 40.5753 9.38998 40.524C9.27998 40.4727 9.14432 40.447 8.98298 40.447C8.84365 40.447 8.70798 40.4763 8.57598 40.535C8.45132 40.5863 8.33765 40.6633 8.23498 40.766C8.13965 40.8613 8.06265 40.9787 8.00398 41.118C7.94532 41.2573 7.91598 41.415 7.91598 41.591C7.91598 41.855 7.96732 42.064 8.06998 42.218C8.17265 42.3647 8.28632 42.4783 8.41098 42.559C8.55032 42.647 8.71898 42.702 8.91698 42.724H9.87398ZM7.50898 37.906C7.50898 37.73 7.57132 37.5797 7.69598 37.455C7.82065 37.3303 7.97832 37.268 8.16898 37.268C8.35965 37.268 8.51732 37.3303 8.64198 37.455C8.76665 37.5797 8.82898 37.73 8.82898 37.906C8.82898 38.082 8.76665 38.2323 8.64198 38.357C8.51732 38.4817 8.35965 38.544 8.16898 38.544C7.97832 38.544 7.82065 38.4817 7.69598 38.357C7.57132 38.2323 7.50898 38.082 7.50898 37.906ZM9.22498 37.906C9.22498 37.73 9.28732 37.5797 9.41198 37.455C9.53665 37.3303 9.69432 37.268 9.88498 37.268C10.0757 37.268 10.2333 37.3303 10.358 37.455C10.4827 37.5797 10.545 37.73 10.545 37.906C10.545 38.082 10.4827 38.2323 10.358 38.357C10.2333 38.4817 10.0757 38.544 9.88498 38.544C9.69432 38.544 9.53665 38.4817 9.41198 38.357C9.28732 38.2323 9.22498 38.082 9.22498 37.906ZM12.1249 44C12.0223 44 11.9489 43.9707 11.9049 43.912C11.8609 43.8533 11.8389 43.7873 11.8389 43.714V43.065C11.8389 42.9843 11.8646 42.9073 11.9159 42.834C11.9599 42.7607 12.0296 42.724 12.1249 42.724H13.6319V39.622H14.8859V44H12.1249ZM13.4229 45.386C13.4229 45.21 13.4853 45.0597 13.6099 44.935C13.7419 44.8177 13.9033 44.759 14.0939 44.759C14.2773 44.759 14.4313 44.8177 14.5559 44.935C14.6879 45.0597 14.7539 45.21 14.7539 45.386C14.7539 45.5693 14.6879 45.7197 14.5559 45.837C14.4313 45.9617 14.2773 46.024 14.0939 46.024C13.9033 46.024 13.7419 45.9617 13.6099 45.837C13.4853 45.7197 13.4229 45.5693 13.4229 45.386ZM16.5496 36.124H17.8036V42.724H18.5516C18.6689 42.724 18.7496 42.7533 18.7936 42.812C18.8376 42.8707 18.8596 42.9403 18.8596 43.021V43.692C18.8596 43.7507 18.8339 43.8167 18.7826 43.89C18.7313 43.9633 18.6543 44 18.5516 44H16.5496V36.124ZM18.5063 44C18.389 44 18.3083 43.9707 18.2643 43.912C18.2203 43.8533 18.1983 43.7873 18.1983 43.714V43.065C18.1983 42.9843 18.224 42.9073 18.2753 42.834C18.3267 42.7607 18.4037 42.724 18.5063 42.724H20.4313C20.6 42.724 20.7137 42.68 20.7723 42.592C20.831 42.504 20.8603 42.3683 20.8603 42.185V40.645H22.0923V41.712C22.0923 41.9907 22.162 42.229 22.3013 42.427C22.4407 42.625 22.6973 42.724 23.0713 42.724H23.2693C23.438 42.724 23.548 42.6727 23.5993 42.57C23.6507 42.4673 23.6763 42.328 23.6763 42.152V40.216H24.9413V41.712C24.9413 42.0053 25.011 42.2473 25.1503 42.438C25.2897 42.6287 25.5427 42.724 25.9093 42.724H26.1733C26.3493 42.724 26.463 42.6727 26.5143 42.57C26.573 42.4673 26.6023 42.328 26.6023 42.152V39.622H27.8453V41.712C27.8453 42.0053 27.9113 42.2473 28.0433 42.438C28.1827 42.6287 28.4357 42.724 28.8023 42.724H29.2533C29.3707 42.724 29.4513 42.7533 29.4953 42.812C29.5393 42.8707 29.5613 42.9403 29.5613 43.021V43.692C29.5613 43.7507 29.5357 43.8167 29.4843 43.89C29.4403 43.9633 29.367 44 29.2643 44H28.8023C28.4723 44 28.2083 43.9267 28.0103 43.78C27.8197 43.6333 27.673 43.4647 27.5703 43.274C27.4457 43.5087 27.2587 43.6883 27.0093 43.813C26.76 43.9377 26.4813 44 26.1733 44H25.8763C25.5463 44 25.286 43.9267 25.0953 43.78C24.912 43.6333 24.7727 43.4683 24.6773 43.285C24.538 43.527 24.3473 43.7067 24.1053 43.824C23.8633 43.9413 23.6067 44 23.3353 44H23.0493C22.734 44 22.4773 43.9267 22.2793 43.78C22.0887 43.6333 21.9457 43.4683 21.8503 43.285C21.711 43.527 21.513 43.7067 21.2563 43.824C21.007 43.9413 20.7283 44 20.4203 44H18.5063ZM29.1835 44C29.0735 44 29.0002 43.9707 28.9635 43.912C28.9195 43.8533 28.8975 43.7873 28.8975 43.714V43.065C28.8975 42.9843 28.9195 42.9073 28.9635 42.834C29.0075 42.7607 29.0809 42.724 29.1835 42.724H30.4815V36.124H31.7245V44H29.1835ZM33.5328 36.124H34.7758V44H33.5328V36.124ZM40.0419 44C39.7192 44 39.4479 43.956 39.2279 43.868C39.0079 43.78 38.8319 43.6627 38.6999 43.516C38.5679 43.3693 38.4726 43.197 38.4139 42.999C38.3626 42.801 38.3369 42.5957 38.3369 42.383V40.524H39.5909V42.163C39.5909 42.3977 39.6312 42.5517 39.7119 42.625C39.7926 42.691 39.9282 42.724 40.1189 42.724H45.2339V39.622H46.4989V44H40.0419ZM41.1749 37.906C41.1749 37.73 41.2372 37.5797 41.3619 37.455C41.4866 37.3303 41.6442 37.268 41.8349 37.268C42.0256 37.268 42.1832 37.3303 42.3079 37.455C42.4326 37.5797 42.4949 37.73 42.4949 37.906C42.4949 38.082 42.4326 38.2323 42.3079 38.357C42.1832 38.4817 42.0256 38.544 41.8349 38.544C41.6442 38.544 41.4866 38.4817 41.3619 38.357C41.2372 38.2323 41.1749 38.082 41.1749 37.906ZM42.8909 37.906C42.8909 37.73 42.9532 37.5797 43.0779 37.455C43.2026 37.3303 43.3602 37.268 43.5509 37.268C43.7416 37.268 43.8992 37.3303 44.0239 37.455C44.1486 37.5797 44.2109 37.73 44.2109 37.906C44.2109 38.082 44.1486 38.2323 44.0239 38.357C43.8992 38.4817 43.7416 38.544 43.5509 38.544C43.3602 38.544 43.2026 38.4817 43.0779 38.357C42.9532 38.2323 42.8909 38.082 42.8909 37.906ZM48.2068 36.124H49.4608V42.724H50.2088C50.3262 42.724 50.4068 42.7533 50.4508 42.812C50.4948 42.8707 50.5168 42.9403 50.5168 43.021V43.692C50.5168 43.7507 50.4912 43.8167 50.4398 43.89C50.3885 43.9633 50.3115 44 50.2088 44H48.2068V36.124ZM50.1525 44C50.0279 44 49.9472 43.9707 49.9105 43.912C49.8739 43.8533 49.8555 43.7873 49.8555 43.714V43.065C49.8555 42.9843 49.8812 42.9073 49.9325 42.834C49.9765 42.7607 50.0499 42.724 50.1525 42.724H51.2085C51.3699 42.724 51.4762 42.6727 51.5275 42.57C51.5862 42.4673 51.6155 42.328 51.6155 42.152V39.622H52.8695V41.712C52.8695 42.0053 52.9392 42.2473 53.0785 42.438C53.2179 42.6287 53.4709 42.724 53.8375 42.724H54.2225C54.3472 42.724 54.4279 42.7533 54.4645 42.812C54.5012 42.8707 54.5195 42.9403 54.5195 43.021V43.692C54.5195 43.7507 54.4939 43.8167 54.4425 43.89C54.3985 43.9633 54.3252 44 54.2225 44H53.8045C53.4819 44 53.2215 43.923 53.0235 43.769C52.8329 43.615 52.6862 43.4463 52.5835 43.263C52.4589 43.4757 52.2829 43.6517 52.0555 43.791C51.8355 43.9303 51.5715 44 51.2635 44H50.1525ZM51.4725 45.386C51.4725 45.21 51.5349 45.0597 51.6595 44.935C51.7915 44.8177 51.9529 44.759 52.1435 44.759C52.3269 44.759 52.4809 44.8177 52.6055 44.935C52.7375 45.0597 52.8035 45.21 52.8035 45.386C52.8035 45.5693 52.7375 45.7197 52.6055 45.837C52.4809 45.9617 52.3269 46.024 52.1435 46.024C51.9529 46.024 51.7915 45.9617 51.6595 45.837C51.5349 45.7197 51.4725 45.5693 51.4725 45.386ZM57.0964 41.492C57.0597 41.118 56.968 40.8577 56.8214 40.711C56.6747 40.557 56.462 40.48 56.1834 40.48C56.0294 40.48 55.835 40.5057 55.6004 40.557C55.373 40.6083 55.153 40.6853 54.9404 40.788L54.6214 39.578C54.7094 39.5413 54.823 39.501 54.9624 39.457C55.1017 39.413 55.2484 39.3727 55.4024 39.336C55.5637 39.2993 55.7287 39.27 55.8974 39.248C56.0734 39.2187 56.2457 39.204 56.4144 39.204C56.7297 39.204 57.001 39.2553 57.2284 39.358C57.463 39.4533 57.6574 39.5927 57.8114 39.776C57.9727 39.952 58.0974 40.1647 58.1854 40.414C58.2734 40.6633 58.3357 40.9347 58.3724 41.228C58.387 41.3747 58.4054 41.5213 58.4274 41.668C58.4494 41.8073 58.486 41.9467 58.5374 42.086C58.596 42.2253 58.6694 42.3537 58.7574 42.471C58.8527 42.5883 58.9737 42.691 59.1204 42.779V44H54.1594C54.0494 44 53.9724 43.9707 53.9284 43.912C53.8844 43.8533 53.8624 43.7873 53.8624 43.714V43.065C53.8624 42.9843 53.888 42.9073 53.9394 42.834C53.9834 42.7607 54.0567 42.724 54.1594 42.724H57.5914C57.5254 42.6433 57.4337 42.504 57.3164 42.306C57.2064 42.1007 57.133 41.8293 57.0964 41.492ZM56.0954 45.386C56.0954 45.21 56.1577 45.0597 56.2824 44.935C56.4144 44.8177 56.5757 44.759 56.7664 44.759C56.9497 44.759 57.1037 44.8177 57.2284 44.935C57.3604 45.0597 57.4264 45.21 57.4264 45.386C57.4264 45.5693 57.3604 45.7197 57.2284 45.837C57.1037 45.9617 56.9497 46.024 56.7664 46.024C56.5757 46.024 56.4144 45.9617 56.2824 45.837C56.1577 45.7197 56.0954 45.5693 56.0954 45.386ZM60.4634 36.124H61.7064V44H60.4634V36.124ZM66.3456 42.724V41.745C66.3456 41.327 66.2612 41.008 66.0926 40.788C65.9312 40.5607 65.7039 40.447 65.4106 40.447C65.2786 40.447 65.1502 40.4763 65.0256 40.535C64.9082 40.5863 64.8019 40.6633 64.7066 40.766C64.6112 40.8613 64.5342 40.9787 64.4756 41.118C64.4169 41.2573 64.3876 41.415 64.3876 41.591C64.3876 41.7963 64.4206 41.9723 64.4866 42.119C64.5526 42.2583 64.6406 42.3757 64.7506 42.471C64.8606 42.559 64.9852 42.625 65.1246 42.669C65.2712 42.7057 65.4216 42.724 65.5756 42.724H66.3456ZM67.5886 44C67.5666 44.4253 67.4822 44.7883 67.3356 45.089C67.1889 45.397 66.9909 45.6463 66.7416 45.837C66.4922 46.0277 66.1989 46.167 65.8616 46.255C65.5242 46.3503 65.1539 46.398 64.7506 46.398C64.5819 46.398 64.4059 46.3907 64.2226 46.376C64.0392 46.3687 63.8376 46.3467 63.6176 46.31L63.7056 45.078C63.9182 45.1073 64.1199 45.1293 64.3106 45.144C64.5012 45.1587 64.6662 45.166 64.8056 45.166C65.0109 45.166 65.2052 45.1513 65.3886 45.122C65.5719 45.0927 65.7332 45.034 65.8726 44.946C66.0192 44.8653 66.1329 44.748 66.2136 44.594C66.3016 44.4473 66.3492 44.2493 66.3566 44H65.6196C65.1649 44 64.7799 43.9377 64.4646 43.813C64.1566 43.681 63.9036 43.5123 63.7056 43.307C63.5149 43.0943 63.3756 42.856 63.2876 42.592C63.1996 42.328 63.1556 42.0603 63.1556 41.789C63.1556 41.4443 63.2106 41.118 63.3206 40.81C63.4379 40.4947 63.5992 40.2197 63.8046 39.985C64.0099 39.7503 64.2519 39.567 64.5306 39.435C64.8166 39.2957 65.1319 39.226 65.4766 39.226C65.8066 39.226 66.0999 39.281 66.3566 39.391C66.6206 39.4937 66.8442 39.644 67.0276 39.842C67.2109 40.0327 67.3502 40.2637 67.4456 40.535C67.5409 40.799 67.5886 41.0923 67.5886 41.415V42.724H68.6666C68.7839 42.724 68.8646 42.7533 68.9086 42.812C68.9526 42.8707 68.9746 42.9403 68.9746 43.021V43.692C68.9746 43.7507 68.9489 43.8167 68.8976 43.89C68.8536 43.9633 68.7766 44 68.6666 44H67.5886ZM68.5966 44C68.4866 44 68.4133 43.9707 68.3766 43.912C68.3326 43.8533 68.3106 43.7873 68.3106 43.714V43.065C68.3106 42.9843 68.3326 42.9073 68.3766 42.834C68.4206 42.7607 68.494 42.724 68.5966 42.724H69.8946V36.124H71.1376V44H68.5966ZM72.9458 36.124H74.1888V44H72.9458V36.124Z" fill="#43515F"/>
<path d="M46.9504 13.5L48.8929 11.6625C49.5712 11.0208 50.4346 10.6708 51.375 10.5833V9.125L42.125 0.375H26.7083C24.9971 0.375 23.625 1.67292 23.625 3.29167V23.7083C23.625 24.4819 23.9499 25.2237 24.5281 25.7707C25.1063 26.3177 25.8906 26.625 26.7083 26.625H35.9583V23.8979L36.1587 23.7083H26.7083V3.29167H37.5V13.5H46.9504ZM40.5833 2.5625L49.0625 10.5833H40.5833V2.5625ZM48.4921 16.1688L51.6371 19.1438L42.1867 28.0833H39.0417V25.1083L48.4921 16.1688V16.1688ZM54.2271 16.6938L52.7163 18.1229L49.5712 15.1479L51.0821 13.7188C51.375 13.4271 51.8838 13.4271 52.1921 13.7188L54.2271 15.6438C54.5354 15.9354 54.5354 16.4167 54.2271 16.6938V16.6938Z" fill="#43515F"/>
</svg>
