<svg width="40" height="41" viewBox="0 0 40 41" fill="none" xmlns="http://www.w3.org/2000/svg">
<path fill-rule="evenodd" clip-rule="evenodd" d="M39.6977 7.28282C40.0982 7.8893 40.0314 8.71349 39.4975 9.24741L20.3467 28.3982C20.1504 28.5945 19.9053 28.735 19.6367 28.8051L11.6608 30.8885C11.4007 30.9564 11.1326 30.9551 10.8806 30.8909C10.6128 30.8228 10.3632 30.6837 10.1611 30.4815C9.76889 30.0893 9.61401 29.5185 9.7542 28.9818L11.8375 21.0059C11.8989 20.7709 12.0141 20.5388 12.1735 20.3567L31.3952 1.14515C31.5635 0.976888 31.7662 0.850959 31.9868 0.774232C32.1503 0.717342 32.3237 0.6875 32.5001 0.6875C32.9145 0.6875 33.3119 0.85212 33.6049 1.14515L39.4975 7.0377C39.5738 7.11398 39.6405 7.19617 39.6977 7.28282ZM36.1829 8.14256L32.5001 4.45971L14.7539 22.2059L13.4519 27.1908L18.4368 25.8887L36.1829 8.14256Z" fill="#43515F"/>
<path d="M35.9196 31.7507C36.4892 26.8806 36.6704 21.9766 36.4633 17.085C36.4534 16.8508 36.5415 16.6229 36.7072 16.4571L38.7558 14.4085C39.0077 14.1566 39.4381 14.3165 39.4616 14.672C39.8469 20.4837 39.7008 26.3219 39.0234 32.1137C38.5306 36.3273 35.1466 39.6294 30.9548 40.0979C23.7328 40.905 16.2675 40.905 9.04545 40.0979C4.85366 39.6294 1.46964 36.3273 0.976817 32.1137C0.113196 24.7297 0.113196 17.2703 0.976817 9.88631C1.46964 5.67271 4.85367 2.3706 9.04545 1.90211C14.5241 1.28979 20.1427 1.14198 25.6889 1.45867C26.0464 1.47908 26.2094 1.91161 25.9562 2.16478L23.8884 4.2326C23.7244 4.39655 23.4996 4.48459 23.2679 4.47678C18.6295 4.32034 13.9596 4.49734 9.39255 5.00777C6.6215 5.31748 4.40173 7.50417 4.08066 10.2493C3.24525 17.3921 3.24525 24.6079 4.08066 31.7507C4.40173 34.4958 6.62149 36.6825 9.39255 36.9922C16.3839 37.7736 23.6163 37.7736 30.6077 36.9922C33.3787 36.6825 35.5985 34.4958 35.9196 31.7507Z" fill="#43515F"/>
</svg>
