<svg width="31" height="30" viewBox="0 0 31 30" fill="none" xmlns="http://www.w3.org/2000/svg">
<path d="M9.05118 15C9.05118 14.4822 9.4849 14.0625 10.0199 14.0625H14.5312V9.69671C14.5312 9.17894 14.9649 8.75921 15.5 8.75921C16.035 8.75921 16.4687 9.17894 16.4687 9.69671V14.0625H20.9801C21.5151 14.0625 21.9488 14.4822 21.9488 15C21.9488 15.5178 21.5151 15.9375 20.9801 15.9375H16.4687V20.3033C16.4687 20.8211 16.035 21.2408 15.5 21.2408C14.9649 21.2408 14.5312 20.8211 14.5312 20.3033V15.9375H10.0199C9.4849 15.9375 9.05118 15.5178 9.05118 15Z" fill="#43515F"/>
<path fill-rule="evenodd" clip-rule="evenodd" d="M9.45075 4.71096C13.4388 4.27961 17.5611 4.27961 21.5491 4.71096C23.9082 4.96612 25.8133 6.76442 26.0908 9.06062C26.5677 13.0068 26.5677 16.9933 26.0908 20.9394C25.8133 23.2356 23.9082 25.0339 21.5491 25.2891C17.5611 25.7204 13.4388 25.7204 9.45075 25.2891C7.09167 25.0339 5.1866 23.2356 4.90908 20.9394C4.43216 16.9933 4.43216 13.0068 4.90908 9.06062C5.1866 6.76442 7.09168 4.96612 9.45075 4.71096ZM21.3339 6.57436C17.4889 6.15848 13.511 6.15848 9.66596 6.57436C8.18773 6.73424 7.0045 7.8633 6.83347 9.27844C6.37403 13.0799 6.37403 16.9202 6.83347 20.7216C7.0045 22.1367 8.18773 23.2658 9.66595 23.4257C13.511 23.8416 17.4889 23.8416 21.3339 23.4257C22.8122 23.2658 23.9954 22.1367 24.1664 20.7216C24.6259 16.9202 24.6259 13.0799 24.1664 9.27844C23.9954 7.8633 22.8122 6.73424 21.3339 6.57436Z" fill="#43515F"/>
</svg>
