<svg width="24" height="24" viewBox="0 0 18 18" fill="none" xmlns="http://www.w3.org/2000/svg">
<path fill-rule="evenodd" clip-rule="evenodd" d="M4.34426 1.01703C7.41336 0.674011 10.5861 0.674011 13.6552 1.01703C15.3679 1.20845 16.7497 2.55786 16.9508 4.27735C17.3178 7.41497 17.3178 10.5847 16.9508 13.7223C16.7497 15.4418 15.3679 16.7912 13.6552 16.9826C10.5861 17.3256 7.41336 17.3256 4.34426 16.9826C2.63153 16.7912 1.24978 15.4418 1.04867 13.7223C0.681694 10.5847 0.681694 7.41497 1.04867 4.27735C1.24978 2.55786 2.63154 1.20845 4.34426 1.01703ZM8.99976 4.00717C9.41397 4.00717 9.74976 4.34296 9.74976 4.75717V8.24982H13.2424C13.6566 8.24982 13.9924 8.5856 13.9924 8.99982C13.9924 9.41403 13.6566 9.74982 13.2424 9.74982H9.74976V13.2425C9.74976 13.6567 9.41397 13.9925 8.99976 13.9925C8.58554 13.9925 8.24976 13.6567 8.24976 13.2425V9.74982H4.75714C4.34293 9.74982 4.00714 9.41403 4.00714 8.99982C4.00714 8.5856 4.34293 8.24982 4.75714 8.24982H8.24976V4.75717C8.24976 4.34296 8.58554 4.00717 8.99976 4.00717Z" fill="#43515F"/>
</svg>
