<svg width="65" height="64" viewBox="0 0 65 64" fill="none" xmlns="http://www.w3.org/2000/svg">
<g filter="url(#filter0_d_869_298)">
<ellipse cx="32.5" cy="28" rx="28.5" ry="28" fill="white"/>
</g>
<path d="M43.2112 20.2891C43.0817 20.1004 42.9166 19.9482 42.7283 19.8439C42.5401 19.7397 42.3338 19.6862 42.1249 19.6875H26.9999V18.8958C27.0016 18.2066 27.1986 17.5368 27.5609 16.9881C27.9232 16.4395 28.4311 16.0419 29.0074 15.8558C29.3777 16.2672 29.8681 16.5044 30.3824 16.5208H31.7574C32.3044 16.5208 32.829 16.2706 33.2158 15.8252C33.6026 15.3798 33.8199 14.7757 33.8199 14.1458C33.8199 13.5159 33.6026 12.9118 33.2158 12.4664C32.829 12.021 32.3044 11.7708 31.7574 11.7708H30.3824C30.0724 11.7713 29.7666 11.8528 29.4879 12.0091C29.2093 12.1654 28.9651 12.3925 28.7737 12.6733C27.5063 12.9365 26.3593 13.7035 25.5326 14.8406C24.7059 15.9778 24.252 17.4129 24.2499 18.8958V19.6875H22.8749C22.6661 19.6862 22.4597 19.7397 22.2715 19.8439C22.0833 19.9482 21.9181 20.1004 21.7887 20.2891C21.6509 20.4771 21.5531 20.6995 21.503 20.9386C21.4529 21.1777 21.4518 21.427 21.4999 21.6666L22.3524 25.6091C22.556 26.5172 22.9884 27.3356 23.5953 27.9612C24.2021 28.5867 24.9562 28.9913 25.7624 29.1241L26.8349 40.2075H25.6249C25.2602 40.2075 24.9105 40.3743 24.6526 40.6712C24.3948 40.9682 24.2499 41.3709 24.2499 41.7908C24.2499 42.2107 24.3948 42.6135 24.6526 42.9104C24.9105 43.2073 25.2602 43.3741 25.6249 43.3741H39.3749C39.7396 43.3741 40.0893 43.2073 40.3472 42.9104C40.605 42.6135 40.7499 42.2107 40.7499 41.7908C40.7499 41.3709 40.605 40.9682 40.3472 40.6712C40.0893 40.3743 39.7396 40.2075 39.3749 40.2075H38.1649L39.2374 29.1241C40.038 28.9815 40.7843 28.5707 41.3834 27.9428C41.9825 27.3148 42.4078 26.4977 42.6062 25.5933L43.4999 21.6666C43.548 21.427 43.547 21.1777 43.4968 20.9386C43.4467 20.6995 43.3489 20.4771 43.2112 20.2891V20.2891ZM35.3874 40.2708H29.6124L28.5399 29.1875H36.4599L35.3874 40.2708ZM39.9387 24.8333C39.8634 25.1846 39.6859 25.4956 39.4357 25.7146C39.1855 25.9335 38.8778 26.0472 38.5637 26.0366H26.3949C26.0808 26.0472 25.7731 25.9335 25.5229 25.7146C25.2727 25.4956 25.0952 25.1846 25.0199 24.8333L24.6349 22.8541H40.3649L39.9387 24.8333Z" fill="#43515F"/>
<defs>
<filter id="filter0_d_869_298" x="0" y="0" width="65" height="64" filterUnits="userSpaceOnUse" color-interpolation-filters="sRGB">
<feFlood flood-opacity="0" result="BackgroundImageFix"/>
<feColorMatrix in="SourceAlpha" type="matrix" values="0 0 0 0 0 0 0 0 0 0 0 0 0 0 0 0 0 0 127 0" result="hardAlpha"/>
<feOffset dy="4"/>
<feGaussianBlur stdDeviation="2"/>
<feComposite in2="hardAlpha" operator="out"/>
<feColorMatrix type="matrix" values="0 0 0 0 0 0 0 0 0 0 0 0 0 0 0 0 0 0 0.25 0"/>
<feBlend mode="normal" in2="BackgroundImageFix" result="effect1_dropShadow_869_298"/>
<feBlend mode="normal" in="SourceGraphic" in2="effect1_dropShadow_869_298" result="shape"/>
</filter>
</defs>
</svg>
