<svg width="414" height="704" viewBox="0 0 414 704" fill="none" xmlns="http://www.w3.org/2000/svg">
<path d="M-0.478724 190.627L-0.5 190.698V190.771V704V704.5H0H414H414.5V704V351.907V4V2.31413L413.581 3.7274C365.302 77.9591 319.361 113.373 276.643 128.126C233.924 142.88 194.346 137.001 158.715 128.471C151.382 126.715 144.204 124.844 137.199 123.018C127.212 120.415 117.578 117.903 108.348 115.949C92.6256 112.621 77.9664 110.883 64.5133 113.036C51.041 115.193 38.8003 121.248 27.9202 133.456C17.0518 145.651 7.55701 163.969 -0.478724 190.627Z" fill="white" stroke="#DAE2E9"/>
</svg>
