<svg width="23" height="24" viewBox="0 0 23 24" fill="none" xmlns="http://www.w3.org/2000/svg">
<path fill-rule="evenodd" clip-rule="evenodd" d="M5.65625 6.3125C5.65625 3.08509 8.27259 0.46875 11.5 0.46875C14.7274 0.46875 17.3438 3.08509 17.3438 6.3125C17.3438 9.53991 14.7274 12.1562 11.5 12.1562C8.27259 12.1562 5.65625 9.53991 5.65625 6.3125ZM11.5 2.53125C9.41167 2.53125 7.71875 4.22417 7.71875 6.3125C7.71875 8.40083 9.41167 10.0938 11.5 10.0938C13.5883 10.0938 15.2812 8.40083 15.2812 6.3125C15.2812 4.22417 13.5883 2.53125 11.5 2.53125Z" fill="#43515F"/>
<path fill-rule="evenodd" clip-rule="evenodd" d="M6 16.2812C4.29137 16.2812 2.90625 17.6664 2.90625 19.375V21.0089C2.90625 21.0338 2.92428 21.055 2.94883 21.059C8.61212 21.9836 14.3879 21.9836 20.0512 21.059C20.0757 21.055 20.0938 21.0338 20.0938 21.0089V19.375C20.0938 17.6664 18.7086 16.2812 17 16.2812H16.5313C16.4951 16.2812 16.4591 16.287 16.4246 16.2982L15.2345 16.6868C12.8079 17.4792 10.1921 17.4792 7.76548 16.6868L6.5754 16.2982C6.54095 16.287 6.50493 16.2812 6.46869 16.2812H6ZM0.84375 19.375C0.84375 16.5273 3.15228 14.2188 6 14.2188H6.46869C6.72237 14.2188 6.97445 14.2589 7.2156 14.3376L8.40568 14.7262C10.4163 15.3827 12.5837 15.3827 14.5943 14.7262L15.7844 14.3376C16.0255 14.2589 16.2776 14.2188 16.5313 14.2188H17C19.8477 14.2188 22.1562 16.5273 22.1562 19.375V21.0089C22.1562 22.0446 21.4057 22.9277 20.3835 23.0945C14.5001 24.0551 8.49989 24.0551 2.6165 23.0945C1.59434 22.9277 0.84375 22.0446 0.84375 21.0089V19.375Z" fill="#43515F"/>
</svg>
