<svg width="23" height="25" viewBox="0 0 23 25" fill="none" xmlns="http://www.w3.org/2000/svg">
<path d="M11.5 1.15625C8.65228 1.15625 6.34375 3.46478 6.34375 6.3125C6.34375 9.16022 8.65228 11.4688 11.5 11.4688C14.3477 11.4688 16.6562 9.16022 16.6562 6.3125C16.6562 3.46478 14.3477 1.15625 11.5 1.15625Z"/>
<path d="M6 14.2188C3.15228 14.2188 0.84375 16.5273 0.84375 19.375V21.0089C0.84375 22.0446 1.59434 22.9277 2.6165 23.0945C8.49989 24.0551 14.5001 24.0551 20.3835 23.0945C21.4057 22.9277 22.1562 22.0446 22.1562 21.0089V19.375C22.1562 16.5273 19.8477 14.2188 17 14.2188H16.5313C16.2776 14.2188 16.0255 14.2589 15.7844 14.3376L14.5943 14.7262C12.5837 15.3827 10.4163 15.3827 8.40568 14.7262L7.2156 14.3376C6.97445 14.2589 6.72237 14.2188 6.46869 14.2188H6Z"/>
<path d="M11.5 1.15625C8.65228 1.15625 6.34375 3.46478 6.34375 6.3125C6.34375 9.16022 8.65228 11.4688 11.5 11.4688C14.3477 11.4688 16.6562 9.16022 16.6562 6.3125C16.6562 3.46478 14.3477 1.15625 11.5 1.15625Z" stroke="#43515F" stroke-width="2" stroke-linecap="round" stroke-linejoin="round"/>
<path d="M6 14.2188C3.15228 14.2188 0.84375 16.5273 0.84375 19.375V21.0089C0.84375 22.0446 1.59434 22.9277 2.6165 23.0945C8.49989 24.0551 14.5001 24.0551 20.3835 23.0945C21.4057 22.9277 22.1562 22.0446 22.1562 21.0089V19.375C22.1562 16.5273 19.8477 14.2188 17 14.2188H16.5313C16.2776 14.2188 16.0255 14.2589 15.7844 14.3376L14.5943 14.7262C12.5837 15.3827 10.4163 15.3827 8.40568 14.7262L7.2156 14.3376C6.97445 14.2589 6.72237 14.2188 6.46869 14.2188H6Z" stroke="#43515F" stroke-width="2" stroke-linecap="round" stroke-linejoin="round"/>
</svg>
