<svg width="25" height="23" viewBox="0 0 25 23" fill="none" xmlns="http://www.w3.org/2000/svg">
<path d="M21.8749 17.25H19.7916V14.375C19.7916 14.1208 19.6818 13.8771 19.4865 13.6973C19.2911 13.5176 19.0262 13.4167 18.7499 13.4167H13.5416V10.8196L14.7187 11.385C14.8903 11.4676 15.0836 11.5045 15.2768 11.4917C15.4701 11.4788 15.6555 11.4166 15.8125 11.312C15.9694 11.2075 16.0915 11.0648 16.1651 10.8999C16.2387 10.735 16.2608 10.5546 16.2291 10.3787L15.8124 8.10749L17.6041 6.48791C17.7398 6.36599 17.8367 6.2123 17.8845 6.04342C17.9322 5.87453 17.9289 5.69686 17.8749 5.52958C17.8145 5.35926 17.7035 5.20791 17.5543 5.09273C17.4052 4.97754 17.224 4.90312 17.0312 4.87791L14.5833 4.52333L13.4374 2.45333C13.3521 2.2913 13.2189 2.15465 13.0531 2.05904C12.8873 1.96343 12.6956 1.91272 12.4999 1.91272C12.3042 1.91272 12.1125 1.96343 11.9467 2.05904C11.7809 2.15465 11.6477 2.2913 11.5624 2.45333L10.4166 4.52333L7.927 4.85874C7.73421 4.88395 7.55296 4.95837 7.40383 5.07356C7.25469 5.18875 7.14363 5.34009 7.08325 5.51041C7.02928 5.6777 7.02598 5.85536 7.07371 6.02425C7.12144 6.19313 7.21838 6.34683 7.35409 6.46874L9.18742 8.10749L8.77075 10.3787C8.739 10.5546 8.76116 10.735 8.83476 10.8999C8.90836 11.0648 9.03047 11.2075 9.18738 11.312C9.34429 11.4166 9.52977 11.4788 9.72299 11.4917C9.91621 11.5045 10.1095 11.4676 10.2812 11.385L11.4583 10.8196V13.4167H6.24992C5.97365 13.4167 5.7087 13.5176 5.51335 13.6973C5.318 13.8771 5.20825 14.1208 5.20825 14.375V17.25H3.12492C2.84865 17.25 2.5837 17.351 2.38835 17.5307C2.193 17.7104 2.08325 17.9542 2.08325 18.2083V20.125C2.08325 20.3792 2.193 20.6229 2.38835 20.8026C2.5837 20.9824 2.84865 21.0833 3.12492 21.0833C3.40119 21.0833 3.66614 20.9824 3.86149 20.8026C4.05684 20.6229 4.16659 20.3792 4.16659 20.125V19.1667H8.33325V20.125C8.33325 20.3792 8.443 20.6229 8.63835 20.8026C8.8337 20.9824 9.09865 21.0833 9.37492 21.0833C9.65119 21.0833 9.91614 20.9824 10.1115 20.8026C10.3068 20.6229 10.4166 20.3792 10.4166 20.125V18.2083C10.4166 17.9542 10.3068 17.7104 10.1115 17.5307C9.91614 17.351 9.65119 17.25 9.37492 17.25H7.29159V15.3333H17.7083V17.25H15.6249C15.3487 17.25 15.0837 17.351 14.8884 17.5307C14.693 17.7104 14.5833 17.9542 14.5833 18.2083V20.125C14.5833 20.3792 14.693 20.6229 14.8884 20.8026C15.0837 20.9824 15.3487 21.0833 15.6249 21.0833C15.9012 21.0833 16.1661 20.9824 16.3615 20.8026C16.5568 20.6229 16.6666 20.3792 16.6666 20.125V19.1667H20.8333V20.125C20.8333 20.3792 20.943 20.6229 21.1383 20.8026C21.3337 20.9824 21.5987 21.0833 21.8749 21.0833C22.1512 21.0833 22.4161 20.9824 22.6115 20.8026C22.8068 20.6229 22.9166 20.3792 22.9166 20.125V18.2083C22.9166 17.9542 22.8068 17.7104 22.6115 17.5307C22.4161 17.351 22.1512 17.25 21.8749 17.25ZM12.4999 8.27041C12.3289 8.2712 12.1608 8.31069 12.0103 8.38541L11.177 8.78791L11.3333 7.92541C11.3606 7.77285 11.3474 7.61646 11.2948 7.46961C11.2422 7.32276 11.1517 7.1898 11.0312 7.08208L10.3541 6.46874L11.2916 6.34416C11.4593 6.32354 11.619 6.26565 11.757 6.17548C11.8949 6.08531 12.0069 5.96559 12.0833 5.82666L12.4999 5.04083L12.9166 5.82666C12.9929 5.96559 13.1049 6.08531 13.2429 6.17548C13.3808 6.26565 13.5405 6.32354 13.7083 6.34416L14.6458 6.46874L13.9687 7.08208C13.8481 7.1898 13.7577 7.32276 13.7051 7.46961C13.6525 7.61646 13.6393 7.77285 13.6666 7.92541L13.8228 8.78791L12.9895 8.38541C12.839 8.31069 12.6709 8.2712 12.4999 8.27041Z" fill="white"/>
</svg>
