<svg width="168" height="126" viewBox="0 0 168 126" fill="none" xmlns="http://www.w3.org/2000/svg">
<path d="M0.206876 30.2612C-6.81187 155.355 167.097 158.378 167.097 30.2612H0.206876Z" fill="#E96332" fill-opacity="0.19"/>
<g filter="url(#filter0_d_720_304)">
<ellipse cx="83.6396" cy="49" rx="50" ry="48" fill="#E14A4A"/>
</g>
<path d="M90.3174 26.3001C86.1491 25.446 81.8508 25.446 77.6825 26.3001C76.388 26.5654 75.3912 27.6015 75.1763 28.9053L75.0182 29.8649C73.7166 37.7628 73.7166 45.8205 75.0182 53.7184L75.1763 54.678C75.3912 55.9817 76.388 57.0179 77.6825 57.2832C81.8508 58.1373 86.1491 58.1373 90.3174 57.2832C91.6119 57.0179 92.6087 55.9817 92.8235 54.678L92.9817 53.7184C94.2833 45.8205 94.2833 37.7628 92.9817 29.8649L92.8235 28.9053C92.6087 27.6015 91.6119 26.5654 90.3174 26.3001Z" fill="white"/>
<path d="M63.2764 46.9175C64.4726 46.748 65.5796 47.5802 65.7491 48.7764L67.0631 58.0494C67.4181 60.5548 69.4042 62.5137 71.9142 62.8343C79.9388 63.8593 88.0611 63.8593 96.0857 62.8343C98.5957 62.5137 100.582 60.5548 100.937 58.0494L102.251 48.7764C102.42 47.5802 103.527 46.748 104.724 46.9175C105.92 47.087 106.752 48.194 106.582 49.3902L105.268 58.6632C104.637 63.1195 101.105 66.6038 96.64 67.1741C93.1685 67.6175 89.6795 67.8775 86.1875 67.9541V79.7083C86.1875 80.9164 85.2082 81.8958 84 81.8958C82.7919 81.8958 81.8125 80.9164 81.8125 79.7083V67.9541C78.3205 67.8775 74.8314 67.6175 71.3599 67.1741C66.8953 66.6038 63.3629 63.1195 62.7314 58.6632L61.4174 49.3902C61.2479 48.194 62.0802 47.087 63.2764 46.9175Z" fill="white"/>
<path d="M90.3174 26.3001C86.1491 25.446 81.8508 25.446 77.6825 26.3001C76.388 26.5654 75.3912 27.6015 75.1763 28.9053L75.0182 29.8649C73.7166 37.7628 73.7166 45.8205 75.0182 53.7184L75.1763 54.678C75.3912 55.9817 76.388 57.0179 77.6825 57.2832C81.8508 58.1373 86.1491 58.1373 90.3174 57.2832C91.6119 57.0179 92.6087 55.9817 92.8235 54.678L92.9817 53.7184C94.2833 45.8205 94.2833 37.7628 92.9817 29.8649L92.8235 28.9053C92.6087 27.6015 91.6119 26.5654 90.3174 26.3001Z" stroke="white" stroke-linecap="round"/>
<path d="M63.2764 46.9175C64.4726 46.748 65.5796 47.5802 65.7491 48.7764L67.0631 58.0494C67.4181 60.5548 69.4042 62.5137 71.9142 62.8343C79.9388 63.8593 88.0611 63.8593 96.0857 62.8343C98.5957 62.5137 100.582 60.5548 100.937 58.0494L102.251 48.7764C102.42 47.5802 103.527 46.748 104.724 46.9175C105.92 47.087 106.752 48.194 106.582 49.3902L105.268 58.6632C104.637 63.1195 101.105 66.6038 96.64 67.1741C93.1685 67.6175 89.6795 67.8775 86.1875 67.9541V79.7083C86.1875 80.9164 85.2082 81.8958 84 81.8958C82.7919 81.8958 81.8125 80.9164 81.8125 79.7083V67.9541C78.3205 67.8775 74.8314 67.6175 71.3599 67.1741C66.8953 66.6038 63.3629 63.1195 62.7314 58.6632L61.4174 49.3902C61.2479 48.194 62.0802 47.087 63.2764 46.9175Z" stroke="white" stroke-linecap="round"/>
<defs>
<filter id="filter0_d_720_304" x="26.6396" y="0" width="112" height="108" filterUnits="userSpaceOnUse" color-interpolation-filters="sRGB">
<feFlood flood-opacity="0" result="BackgroundImageFix"/>
<feColorMatrix in="SourceAlpha" type="matrix" values="0 0 0 0 0 0 0 0 0 0 0 0 0 0 0 0 0 0 127 0" result="hardAlpha"/>
<feOffset dx="-1" dy="5"/>
<feGaussianBlur stdDeviation="3"/>
<feComposite in2="hardAlpha" operator="out"/>
<feColorMatrix type="matrix" values="0 0 0 0 0 0 0 0 0 0 0 0 0 0 0 0 0 0 0.25 0"/>
<feBlend mode="normal" in2="BackgroundImageFix" result="effect1_dropShadow_720_304"/>
<feBlend mode="normal" in="SourceGraphic" in2="effect1_dropShadow_720_304" result="shape"/>
</filter>
</defs>
</svg>
