<svg width="40" height="40" viewBox="0 0 40 40" fill="none" xmlns="http://www.w3.org/2000/svg">
<path d="M10.909 13.6045C10.5503 13.5099 10.2522 13.2608 10.0953 12.9247C9.93834 12.5885 9.93882 12.2001 10.0966 11.8643L12.8645 5.97366C13.0708 5.53468 13.5124 5.25465 13.9974 5.25525C14.4824 5.25585 14.9233 5.53697 15.1285 5.97646L16.3495 8.59185C16.3932 8.57469 16.4383 8.55981 16.4846 8.54738C23.7302 6.60594 31.1778 10.9058 33.1192 18.1514C35.0607 25.3969 30.7608 32.8445 23.5152 34.786C16.2697 36.7274 8.8221 32.4276 6.88065 25.182C6.26328 22.8779 6.27717 20.5498 6.81789 18.3852C6.98521 17.7154 7.6638 17.3081 8.33358 17.4754C9.00335 17.6427 9.41067 18.3213 9.24336 18.9911C8.80287 20.7544 8.79073 22.6512 9.29547 24.5349C10.8796 30.4468 16.9563 33.9552 22.8682 32.3711C28.7801 30.787 32.2885 24.7103 30.7044 18.7984C29.1462 12.9832 23.2411 9.49348 17.4218 10.8886L18.6538 13.5274C18.859 13.9669 18.7914 14.4854 18.4804 14.8576C18.1695 15.2298 17.6712 15.3886 17.2023 15.2648L10.909 13.6045Z" fill="#43515F"/>
</svg>
