<svg width="124" height="129" viewBox="0 0 124 129" fill="none" xmlns="http://www.w3.org/2000/svg">
<g filter="url(#filter0_d_838_17842)">
<path d="M120 58C120 90.0325 94.0325 116 62 116C29.9675 116 4 90.0325 4 58C4 25.9675 29.9675 0 62 0C94.0325 0 120 25.9675 120 58Z" fill="#AAD5D0"/>
<path d="M119.5 58C119.5 89.7564 93.7564 115.5 62 115.5C30.2436 115.5 4.5 89.7564 4.5 58C4.5 26.2436 30.2436 0.5 62 0.5C93.7564 0.5 119.5 26.2436 119.5 58Z" stroke="#AFC3D6"/>
</g>
<path d="M71.7063 24.8375C66.1076 23.7144 60.3343 23.7144 54.7356 24.8375C52.9969 25.1863 51.6581 26.5487 51.3695 28.2631L51.1571 29.5248C49.4088 39.9098 49.4088 50.505 51.1571 60.89L51.3695 62.1517C51.6581 63.8661 52.9969 65.2285 54.7356 65.5773C60.3343 66.7004 66.1076 66.7004 71.7063 65.5773C73.445 65.2285 74.7838 63.8661 75.0724 62.1517L75.2848 60.89C77.0331 50.505 77.0331 39.9098 75.2848 29.5248L75.0724 28.2631C74.7838 26.5487 73.445 25.1863 71.7063 24.8375Z" fill="white"/>
<path d="M35.3859 51.9474C36.9926 51.7245 38.4796 52.8189 38.7072 54.3917L40.4721 66.5848C40.949 69.8792 43.6165 72.455 46.9879 72.8766C57.7661 74.2243 68.6758 74.2243 79.454 72.8766C82.8254 72.455 85.4929 69.8792 85.9698 66.5848L87.7347 54.3917C87.9623 52.8189 89.4493 51.7245 91.056 51.9474C92.6626 52.1702 93.7805 53.626 93.5529 55.1988L91.788 67.3919C90.9398 73.2515 86.1952 77.8331 80.1986 78.5829C75.5358 79.166 70.8495 79.5078 66.1592 79.6086V95.0643C66.1592 96.6528 64.8438 97.9406 63.2211 97.9406C61.5984 97.9406 60.2829 96.6528 60.2829 95.0643V79.6086C55.5925 79.5079 50.9062 79.166 46.2433 78.5829C40.2467 77.8331 35.5021 73.2515 34.6539 67.3919L32.889 55.1988C32.6614 53.626 33.7793 52.1702 35.3859 51.9474Z" fill="white"/>
<defs>
<filter id="filter0_d_838_17842" x="0" y="0" width="124" height="129" filterUnits="userSpaceOnUse" color-interpolation-filters="sRGB">
<feFlood flood-opacity="0" result="BackgroundImageFix"/>
<feColorMatrix in="SourceAlpha" type="matrix" values="0 0 0 0 0 0 0 0 0 0 0 0 0 0 0 0 0 0 127 0" result="hardAlpha"/>
<feOffset dy="9"/>
<feGaussianBlur stdDeviation="2"/>
<feComposite in2="hardAlpha" operator="out"/>
<feColorMatrix type="matrix" values="0 0 0 0 0 0 0 0 0 0 0 0 0 0 0 0 0 0 0.25 0"/>
<feBlend mode="normal" in2="BackgroundImageFix" result="effect1_dropShadow_838_17842"/>
<feBlend mode="normal" in="SourceGraphic" in2="effect1_dropShadow_838_17842" result="shape"/>
</filter>
</defs>
</svg>
