<svg width="21" height="21" viewBox="0 0 21 21" fill="none" xmlns="http://www.w3.org/2000/svg">
<path d="M19.875 16.25H17.7917V13.375C17.7917 13.1208 17.682 12.8771 17.4866 12.6974C17.2913 12.5176 17.0263 12.4167 16.75 12.4167H11.5417V9.81958L12.7188 10.385C12.8904 10.4676 13.0837 10.5046 13.277 10.4917C13.4702 10.4788 13.6557 10.4166 13.8126 10.312C13.9695 10.2075 14.0916 10.0648 14.1652 9.89992C14.2388 9.73505 14.261 9.55457 14.2292 9.37875L13.8125 7.1075L15.6042 5.48792C15.7399 5.366 15.8369 5.21231 15.8846 5.04342C15.9323 4.87454 15.929 4.69687 15.875 4.52958C15.8147 4.35926 15.7036 4.20792 15.5545 4.09273C15.4053 3.97755 15.2241 3.90313 15.0313 3.87792L12.5834 3.52333L11.4375 1.45333C11.3522 1.29131 11.2191 1.15466 11.0533 1.05905C10.8875 0.963438 10.6957 0.912727 10.5 0.912727C10.3044 0.912727 10.1126 0.963438 9.94682 1.05905C9.78102 1.15466 9.64784 1.29131 9.56254 1.45333L8.41671 3.52333L5.92712 3.85875C5.73434 3.88396 5.55309 3.95838 5.40395 4.07357C5.25481 4.18876 5.14375 4.3401 5.08337 4.51042C5.0294 4.6777 5.0261 4.85537 5.07383 5.02426C5.12156 5.19314 5.2185 5.34683 5.35421 5.46875L7.18754 7.1075L6.77087 9.37875C6.73912 9.55457 6.76129 9.73505 6.83489 9.89992C6.90848 10.0648 7.0306 10.2075 7.1875 10.312C7.34441 10.4166 7.5299 10.4788 7.72312 10.4917C7.91634 10.5046 8.10963 10.4676 8.28129 10.385L9.45837 9.81958V12.4167H4.25004C3.97377 12.4167 3.70882 12.5176 3.51347 12.6974C3.31812 12.8771 3.20837 13.1208 3.20837 13.375V16.25H1.12504C0.848774 16.25 0.583822 16.351 0.388471 16.5307C0.193121 16.7104 0.083374 16.9542 0.083374 17.2083V19.125C0.083374 19.3792 0.193121 19.6229 0.388471 19.8026C0.583822 19.9824 0.848774 20.0833 1.12504 20.0833C1.40131 20.0833 1.66626 19.9824 1.86161 19.8026C2.05696 19.6229 2.16671 19.3792 2.16671 19.125V18.1667H6.33337V19.125C6.33337 19.3792 6.44312 19.6229 6.63847 19.8026C6.83382 19.9824 7.09877 20.0833 7.37504 20.0833C7.65131 20.0833 7.91626 19.9824 8.11161 19.8026C8.30696 19.6229 8.41671 19.3792 8.41671 19.125V17.2083C8.41671 16.9542 8.30696 16.7104 8.11161 16.5307C7.91626 16.351 7.65131 16.25 7.37504 16.25H5.29171V14.3333H15.7084V16.25H13.625C13.3488 16.25 13.0838 16.351 12.8885 16.5307C12.6931 16.7104 12.5834 16.9542 12.5834 17.2083V19.125C12.5834 19.3792 12.6931 19.6229 12.8885 19.8026C13.0838 19.9824 13.3488 20.0833 13.625 20.0833C13.9013 20.0833 14.1663 19.9824 14.3616 19.8026C14.557 19.6229 14.6667 19.3792 14.6667 19.125V18.1667H18.8334V19.125C18.8334 19.3792 18.9431 19.6229 19.1385 19.8026C19.3338 19.9824 19.5988 20.0833 19.875 20.0833C20.1513 20.0833 20.4163 19.9824 20.6116 19.8026C20.807 19.6229 20.9167 19.3792 20.9167 19.125V17.2083C20.9167 16.9542 20.807 16.7104 20.6116 16.5307C20.4163 16.351 20.1513 16.25 19.875 16.25ZM10.5 7.27042C10.3291 7.2712 10.1609 7.3107 10.0105 7.38542L9.17712 7.78792L9.33337 6.92542C9.36071 6.77285 9.34751 6.61647 9.29491 6.46962C9.2423 6.32277 9.15186 6.18981 9.03129 6.08208L8.35421 5.46875L9.29171 5.34417C9.45943 5.32355 9.61917 5.26566 9.7571 5.17549C9.89504 5.08532 10.007 4.96559 10.0834 4.82667L10.5 4.04083L10.9167 4.82667C10.9931 4.96559 11.105 5.08532 11.243 5.17549C11.3809 5.26566 11.5407 5.32355 11.7084 5.34417L12.6459 5.46875L11.9688 6.08208C11.8482 6.18981 11.7578 6.32277 11.7052 6.46962C11.6526 6.61647 11.6394 6.77285 11.6667 6.92542L11.823 7.78792L10.9896 7.38542C10.8392 7.3107 10.671 7.2712 10.5 7.27042Z" fill="white"/>
</svg>
