<svg width="414" height="155" viewBox="0 0 414 155" fill="none" xmlns="http://www.w3.org/2000/svg">
<path d="M372.42 -27.6534L360.167 20.6275L314.893 36.8164C306.772 39.713 305.517 51.1542 312.787 56.1537L353.234 83.9936L354.702 134.147C354.974 143.212 365.099 148.072 371.709 142.522L408.987 111.457L455.189 126.287C463.391 128.921 470.964 120.654 467.818 112.148L450.382 65.1L477.447 24.1303C482.313 16.7707 476.862 6.6338 468.248 6.99174L420.206 8.95107L390.751 -31.2184C385.482 -38.3748 374.636 -36.3695 372.42 -27.6534Z" fill="#AFC3D6" fill-opacity="0.26"/>
<path d="M-82.2043 -73.6779L-74.4845 -14.9752L-123.303 35.2654C-132.063 44.2692 -128.175 56.9564 -116.713 56.697L-52.9282 55.278L-27.1807 105.72C-22.5197 114.832 -7.55725 112.309 -1.94878 101.7L29.7899 42.1109L94.5588 23.0521C106.057 19.6707 111.572 5.55485 103.588 -0.849272L59.3809 -36.2475L73.6442 -98.433C76.2116 -109.607 64.5703 -115.976 53.9839 -109.214L-5.07585 -71.5392L-61.0125 -90.948C-71.0054 -94.3894 -83.5932 -84.2783 -82.2043 -73.6779Z" fill="#AFC3D6" fill-opacity="0.26"/>
<path d="M182.053 70L152 22H261L230.947 70H182.053Z" fill="url(#paint0_linear_1200_347)"/>
<path d="M245.7 71.8H232.8V67.9C232.8 66.8657 232.347 65.8737 231.541 65.1423C230.734 64.4109 229.64 64 228.5 64H185.5C184.36 64 183.266 64.4109 182.459 65.1423C181.653 65.8737 181.2 66.8657 181.2 67.9V71.8H168.3C167.16 71.8 166.066 72.2109 165.259 72.9423C164.453 73.6737 164 74.6657 164 75.7V87.4C164 104.209 171.74 114.349 184.726 114.7C186.621 117.672 189.213 120.229 192.319 122.19C195.426 124.151 198.97 125.469 202.7 126.049V134.2H194.1V142H219.9V134.2H211.3V126.049C215.03 125.469 218.574 124.151 221.681 122.19C224.787 120.229 227.379 117.672 229.274 114.7C242.174 114.31 250 104.17 250 87.4V75.7C250 74.6657 249.547 73.6737 248.741 72.9423C247.934 72.2109 246.84 71.8 245.7 71.8ZM172.6 87.4V79.6H181.2V106.237C173.546 103.312 172.6 92.47 172.6 87.4ZM232.8 106.237V79.6H241.4V87.4C241.4 92.47 240.454 103.312 232.8 106.237Z" fill="#EFA17A"/>
<path d="M205.176 77.0436L201.026 84.8004L191.741 86.0483C190.076 86.271 189.409 88.1633 190.616 89.2472L197.334 95.2816L195.745 103.806C195.459 105.347 197.219 106.501 198.694 105.78L207 101.755L215.306 105.78C216.781 106.495 218.541 105.347 218.255 103.806L216.666 95.2816L223.384 89.2472C224.591 88.1633 223.924 86.271 222.259 86.0483L212.974 84.8004L208.824 77.0436C208.08 75.6609 205.926 75.6434 205.176 77.0436Z" fill="white"/>
<path d="M102 75L99 83L91 86L99 89L102 97L105 89L113 86L105 83L102 75Z" fill="#43515F" fill-opacity="0.14"/>
<path d="M286 46L283 54L275 57L283 60L286 68L289 60L297 57L289 54L286 46Z" fill="#43515F" fill-opacity="0.14"/>
<path d="M207 22L204 29.6364L196 32.5L204 35.3636L207 43L210 35.3636L218 32.5L210 29.6364L207 22Z" fill="#3AAFFF"/>
<path d="M198.5 43L196.182 48.0909L190 50L196.182 51.9091L198.5 57L200.818 51.9091L207 50L200.818 48.0909L198.5 43Z" fill="#FD0FE5"/>
<path d="M221.5 38L218.636 44.9091L211 47.5L218.636 50.0909L221.5 57L224.364 50.0909L232 47.5L224.364 44.9091L221.5 38Z" fill="#FFE603" fill-opacity="0.88"/>
<path d="M320.5 75L319 80.0909L315 82L319 83.9091L320.5 89L322 83.9091L326 82L322 80.0909L320.5 75Z" fill="#43515F" fill-opacity="0.14"/>
<path d="M79.5 109L73.3636 122.818L57 128L73.3636 133.182L79.5 147L85.6364 133.182L102 128L85.6364 122.818L79.5 109Z" fill="#43515F" fill-opacity="0.1"/>
<path d="M79.5 109L73.3636 122.818L57 128L73.3636 133.182L79.5 147L85.6364 133.182L102 128L85.6364 122.818L79.5 109Z" fill="#43515F" fill-opacity="0.1"/>
<path d="M302.5 100L295 120L275 127.5L295 135L302.5 155L310 135L330 127.5L310 120L302.5 100Z" fill="#43515F" fill-opacity="0.1"/>
<defs>
<linearGradient id="paint0_linear_1200_347" x1="206.5" y1="22" x2="206.5" y2="70" gradientUnits="userSpaceOnUse">
<stop stop-color="#D7C6C6" stop-opacity="0"/>
<stop offset="1" stop-color="#F3CA51" stop-opacity="0.64"/>
</linearGradient>
</defs>
</svg>
