<svg width="124" height="129" viewBox="0 0 124 129" fill="none" xmlns="http://www.w3.org/2000/svg">
<g filter="url(#filter0_d_838_17765)">
<path d="M120 58C120 90.0325 94.0325 116 62 116C29.9675 116 4 90.0325 4 58C4 25.9675 29.9675 0 62 0C94.0325 0 120 25.9675 120 58Z" fill="#AAD5D0"/>
<path d="M119.5 58C119.5 89.7564 93.7564 115.5 62 115.5C30.2436 115.5 4.5 89.7564 4.5 58C4.5 26.2436 30.2436 0.5 62 0.5C93.7564 0.5 119.5 26.2436 119.5 58Z" stroke="#AFC3D6"/>
</g>
<rect x="35" y="31" width="54" height="54" fill="#E23123"/>
<defs>
<filter id="filter0_d_838_17765" x="0" y="0" width="124" height="129" filterUnits="userSpaceOnUse" color-interpolation-filters="sRGB">
<feFlood flood-opacity="0" result="BackgroundImageFix"/>
<feColorMatrix in="SourceAlpha" type="matrix" values="0 0 0 0 0 0 0 0 0 0 0 0 0 0 0 0 0 0 127 0" result="hardAlpha"/>
<feOffset dy="9"/>
<feGaussianBlur stdDeviation="2"/>
<feComposite in2="hardAlpha" operator="out"/>
<feColorMatrix type="matrix" values="0 0 0 0 0 0 0 0 0 0 0 0 0 0 0 0 0 0 0.25 0"/>
<feBlend mode="normal" in2="BackgroundImageFix" result="effect1_dropShadow_838_17765"/>
<feBlend mode="normal" in="SourceGraphic" in2="effect1_dropShadow_838_17765" result="shape"/>
</filter>
</defs>
</svg>
