<svg width="16" height="21" viewBox="0 0 16 21" fill="none" xmlns="http://www.w3.org/2000/svg">
<path d="M5.25 1C5.25 0.585786 5.58579 0.25 6 0.25H10C10.4142 0.25 10.75 0.585786 10.75 1V1.75H15C15.4142 1.75 15.75 2.08579 15.75 2.5C15.75 2.91421 15.4142 3.25 15 3.25H1C0.585786 3.25 0.25 2.91421 0.25 2.5C0.25 2.08579 0.585786 1.75 1 1.75H5.25V1Z" fill="#C54822"/>
<path fill-rule="evenodd" clip-rule="evenodd" d="M2.2399 5.94478C2.26803 5.69157 2.48206 5.5 2.73684 5.5H13.2632C13.5179 5.5 13.732 5.69157 13.7601 5.94478L13.9602 7.74613C14.321 10.9931 14.321 14.2701 13.9602 17.517L13.9405 17.6944C13.8091 18.8769 12.8926 19.8199 11.7143 19.9849C9.2501 20.3299 6.74989 20.3299 4.28574 19.9849C3.10737 19.8199 2.19085 18.8769 2.05945 17.6944L2.03975 17.517C1.67897 14.2701 1.67897 10.9931 2.03975 7.74613L2.2399 5.94478ZM6.75 9.39999C6.75 8.98578 6.41421 8.64999 6 8.64999C5.58579 8.64999 5.25 8.98578 5.25 9.39999L5.25 16.4C5.25 16.8142 5.58579 17.15 6 17.15C6.41421 17.15 6.75 16.8142 6.75 16.4L6.75 9.39999ZM10.75 9.39999C10.75 8.98578 10.4142 8.64999 10 8.64999C9.58579 8.64999 9.25 8.98578 9.25 9.39999V16.4C9.25 16.8142 9.58579 17.15 10 17.15C10.4142 17.15 10.75 16.8142 10.75 16.4V9.39999Z" fill="#C54822"/>
</svg>
