<svg width="37" height="38" viewBox="0 0 37 38" fill="none" xmlns="http://www.w3.org/2000/svg">
<path fill-rule="evenodd" clip-rule="evenodd" d="M16.2379 6.0348C15.8564 6.09189 15.4826 6.19473 15.1244 6.34121C12.992 7.21319 11.7269 9.4805 12.0725 11.8109L12.1203 12.1336C12.1796 12.5335 12.2818 12.9253 12.4252 13.3021L13.8356 17.0098C17.2106 16.7741 20.5983 16.7945 23.9711 17.071L26.2776 17.2602C27.7701 17.3825 28.9888 18.5348 29.2307 20.0523C29.7883 23.5497 29.7883 27.117 29.2307 30.6144C28.9888 32.1319 27.7701 33.2841 26.2776 33.4065L23.9711 33.5956C20.3295 33.8942 16.6704 33.8942 13.0288 33.5956L10.7223 33.4065C9.22978 33.2841 8.0111 32.1319 7.76916 30.6144C7.21155 27.117 7.21155 23.5497 7.76916 20.0523C8.0111 18.5348 9.22978 17.3825 10.7223 17.2602L11.4262 17.2024L10.2712 14.1663C10.0657 13.6263 9.91918 13.0645 9.83417 12.4912L9.78631 12.1685C9.27871 8.74562 11.1369 5.41543 14.269 4.13467C14.7952 3.91953 15.3441 3.76848 15.9045 3.68461C19.2405 3.18539 22.471 5.11522 23.6978 8.34021L23.8135 8.64424C24.0189 9.18433 24.1655 9.74613 24.2505 10.3194L24.4684 11.7887C24.5325 12.221 24.2433 12.6247 23.8224 12.6906L23.0604 12.8098C22.6395 12.8756 22.2464 12.5786 22.1823 12.1463L21.9644 10.677C21.9051 10.2771 21.8028 9.88524 21.6595 9.50852L21.5439 9.20448C20.7086 7.0088 18.5092 5.6949 16.2379 6.0348ZM18.4999 22.9583C17.2227 22.9583 16.1874 24.0216 16.1874 25.3333C16.1874 26.645 17.2227 27.7083 18.4999 27.7083C19.7771 27.7083 20.8124 26.645 20.8124 25.3333C20.8124 24.0216 19.7771 22.9583 18.4999 22.9583Z" fill="#43515F"/>
</svg>
