<svg width="38" height="37" viewBox="0 0 38 37" fill="none" xmlns="http://www.w3.org/2000/svg">
<path d="M37.5 18.5C37.5 28.4286 29.2299 36.5 19 36.5C8.77008 36.5 0.5 28.4286 0.5 18.5C0.5 8.57136 8.77008 0.5 19 0.5C29.2299 0.5 37.5 8.57136 37.5 18.5Z" fill="url(#paint0_linear_1058_342)" stroke="#DAE2E9"/>
<path fill-rule="evenodd" clip-rule="evenodd" d="M17.5326 8.81144C17.2851 8.8475 17.0427 8.91246 16.8103 9.00497C15.4271 9.55569 14.6065 10.9877 14.8307 12.4595L14.8617 12.6633C14.9002 12.9159 14.9665 13.1634 15.0594 13.4013L15.9743 15.743C18.1635 15.5942 20.3609 15.6071 22.5487 15.7817L24.0448 15.9011C25.0129 15.9784 25.8034 16.7062 25.9604 17.6646C26.322 19.8735 26.322 22.1265 25.9604 24.3354C25.8034 25.2938 25.0129 26.0215 24.0448 26.0988L22.5487 26.2183C20.1866 26.4068 17.8131 26.4068 15.451 26.2183L13.9549 26.0988C12.9868 26.0215 12.1963 25.2938 12.0393 24.3354C11.6776 22.1265 11.6776 19.8735 12.0393 17.6646C12.1963 16.7062 12.9868 15.9784 13.9549 15.9011L14.4115 15.8647L13.6623 13.9472C13.529 13.6061 13.4339 13.2512 13.3788 12.8892L13.3478 12.6854C13.0185 10.5235 14.2238 8.42026 16.2555 7.61137C16.5967 7.47548 16.9528 7.38008 17.3163 7.32712C19.4802 7.01182 21.5757 8.23066 22.3714 10.2675L22.4465 10.4595C22.5797 10.8006 22.6748 11.1554 22.7299 11.5175L22.8713 12.4455C22.9129 12.7185 22.7253 12.9735 22.4523 13.0151L21.958 13.0904C21.685 13.1319 21.43 12.9443 21.3884 12.6713L21.247 11.7433C21.2086 11.4908 21.1423 11.2433 21.0493 11.0054L20.9743 10.8133C20.4325 9.42661 19.0058 8.59678 17.5326 8.81144ZM18.9998 19.5C18.1714 19.5 17.4998 20.1716 17.4998 21C17.4998 21.8284 18.1714 22.5 18.9998 22.5C19.8282 22.5 20.4998 21.8284 20.4998 21C20.4998 20.1716 19.8282 19.5 18.9998 19.5Z" fill="black"/>
<defs>
<linearGradient id="paint0_linear_1058_342" x1="19" y1="0" x2="19" y2="37" gradientUnits="userSpaceOnUse">
<stop offset="0.260417" stop-color="#DAE2E9"/>
<stop offset="1" stop-color="#EFA17A" stop-opacity="0.67"/>
</linearGradient>
</defs>
</svg>
