<svg width="38" height="42" viewBox="0 0 38 42" fill="none" xmlns="http://www.w3.org/2000/svg">
<path d="M36.0415 17.2291C34.5429 16.958 33.0226 16.8255 31.4998 16.8333C30.6248 16.8333 29.7706 16.8333 28.9165 17C27.8531 15.581 26.4957 14.4084 24.9373 13.5625C26.2759 12.1005 27.0191 10.1905 27.0206 8.20829C27.0206 6.07551 26.1734 4.03008 24.6653 2.52198C23.1572 1.01387 21.1117 0.166626 18.979 0.166626C16.8462 0.166626 14.8007 1.01387 13.2926 2.52198C11.7845 4.03008 10.9373 6.07551 10.9373 8.20829C10.9388 10.1905 11.682 12.1005 13.0206 13.5625C11.4714 14.4128 10.1163 15.5764 9.04145 16.9791C8.22895 16.8333 7.37479 16.8333 6.49979 16.8333C4.97567 16.8392 3.45534 16.9857 1.95812 17.2708C1.47279 17.3595 1.03471 17.6176 0.721871 17.9992C0.409032 18.3807 0.241743 18.8608 0.249789 19.3541V36.5416C0.249292 36.8477 0.316237 37.1501 0.445864 37.4274C0.575492 37.7046 0.764616 37.9499 0.999789 38.1458C1.23348 38.3428 1.50767 38.486 1.8029 38.5653C2.09814 38.6445 2.40718 38.6577 2.70812 38.6041C3.95481 38.3326 5.22431 38.1791 6.49979 38.1458C10.5354 38.1414 14.4835 39.3222 17.854 41.5416V41.5416L18.1248 41.6458C18.4011 41.7657 18.6986 41.8295 18.9998 41.8333C19.1986 41.8308 19.3957 41.7956 19.5831 41.7291H19.729L19.9998 41.625C23.4024 39.3485 27.4059 38.1373 31.4998 38.1458C32.7726 38.1517 34.0421 38.2773 35.2915 38.5208C35.5924 38.5744 35.9014 38.5611 36.1967 38.4819C36.4919 38.4027 36.7661 38.2595 36.9998 38.0625C37.235 37.8666 37.4241 37.6213 37.5537 37.344C37.6833 37.0668 37.7503 36.7644 37.7498 36.4583V19.2708C37.748 18.7846 37.5762 18.3144 37.2643 17.9415C36.9523 17.5686 36.5197 17.3166 36.0415 17.2291V17.2291ZM18.9998 4.33329C19.9757 4.405 20.8884 4.84328 21.5545 5.56013C22.2206 6.27699 22.5909 7.21931 22.5909 8.19788C22.5909 9.17644 22.2206 10.1188 21.5545 10.8356C20.8884 11.5525 19.9757 11.9908 18.9998 12.0625V12.0625C18.0239 11.9908 17.1112 11.5525 16.4451 10.8356C15.779 10.1188 15.4087 9.17644 15.4087 8.19788C15.4087 7.21931 15.779 6.27699 16.4451 5.56013C17.1112 4.84328 18.0239 4.405 18.9998 4.33329V4.33329ZM16.9165 36.2708C13.6512 34.7615 10.097 33.9796 6.49979 33.9791C5.81229 33.9791 5.12479 33.9791 4.41646 34.0833V21C6.16346 20.8045 7.92858 20.8395 9.66646 21.1041H9.89562C12.3781 21.5604 14.757 22.4639 16.9165 23.7708V36.2708ZM18.9998 20.1666C18.0734 19.6322 17.113 19.159 16.1248 18.75H15.9998C15.3123 18.4791 14.6248 18.2083 13.9165 18C15.3629 16.8487 17.1512 16.211 18.9998 16.1875V16.1875C20.8435 16.1991 22.6312 16.8219 24.0831 17.9583C22.3146 18.5104 20.6104 19.2508 18.9998 20.1666V20.1666ZM33.5831 34.0833C29.3053 33.6535 24.9903 34.3726 21.0831 36.1666V23.6666C23.2464 22.3933 25.6269 21.5315 28.104 21.125H28.5206C30.1956 20.8641 31.8973 20.8221 33.5831 21V34.0833Z" fill="#43515F"/>
</svg>
